<svg id="Capa_1" data-name="Capa 1" xmlns="http://www.w3.org/2000/svg" viewBox="0 0 500 500"><defs><style>.cls-1{fill:#ac752c;}.cls-2{fill:#7d551f;}.cls-3{fill:#ffb300;}.cls-4{fill:#ffd54f;}</style></defs><path class="cls-1" d="M346.72,160.24l-24.56-1.8,2-27.25c.21-2.82,4.44-4.81,9.46-4.44l6.39.47c5,.37,8.92,2.95,8.72,5.77Z"/><path class="cls-2" d="M346.72,160.24l-12.28-.9L336.81,127l3.2.24c5,.37,8.91,2.95,8.71,5.77Z"/><path class="cls-3" d="M353.14,173.47a139.66,139.66,0,0,1-217.09,114c-.77-.59-7.78-6.13-11.72-13.51-2-3.66-3.14-7.76-2.44-11.92,0,0,0-.05,0-.07l0,0a9.55,9.55,0,0,1,.37-1.35s0,0,0,0a6.66,6.66,0,0,1,.66-1.2c2-3,6.55-4.5,12.12-5.11,12.21-1.37,29.5,1.47,36.91,1.85l.07,0c1.78.17,3.58.31,5.38.4l.3,0c2,.09,3.92.16,5.88.17l1.76,0,1.56,0c.5,0,1,0,1.53,0,.7,0,1.39,0,2.08-.05,1.34-.05,2.68-.13,4-.23.77,0,1.54-.1,2.3-.18,2.1-.16,4.17-.38,6.25-.67.66-.07,1.3-.16,1.93-.26s1.32-.2,1.95-.3c1.93-.31,3.86-.66,5.77-1.05a2.79,2.79,0,0,0,.4-.07l.51-.11q4.22-.88,8.31-2c2.59-.69,5.16-1.49,7.72-2.35l1-.34.39-.13c1.67-.59,3.35-1.21,5-1.87l.5-.19.62-.26A134.31,134.31,0,0,0,251.09,240c.87-.45,1.72-.93,2.57-1.42s1.63-.91,2.44-1.4l.42-.24,1.35-.83c1.34-.79,2.63-1.63,3.94-2.48l2-1.31c1-.69,2-1.37,3-2.08.38-.27.75-.56,1.12-.83,1.33-.95,2.64-2,3.93-3a136.82,136.82,0,0,0,16.09-15l.27-.28q2.85-3.09,5.5-6.39c.83-1,1.64-2,2.44-3.1.64-.83,1.29-1.68,1.9-2.54l.35-.48c1.33-1.85,2.63-3.74,3.87-5.69a138.61,138.61,0,0,0,16.16-34.49c.41-1.32.78-2.65,1.15-4h0s.16-.39.48-1l.32-.59.21-.33c.06-.11.15-.22.22-.34a17.4,17.4,0,0,1,8-6.8,18.15,18.15,0,0,1,11.36-.38h0s0,0,0,0c4.46,1.18,7.41,4.48,9.35,8.56C352.57,160.1,353.12,168.45,353.14,173.47Z"/><path class="cls-4" d="M340.14,145.13v.24A139.33,139.33,0,0,1,335.27,183c-.44,1.66-.93,3.32-1.44,5a139.68,139.68,0,0,1-205.27,78.16c-1.37-.83-2.76-1.7-4.09-2.57-.87-.54-1.72-1.12-2.55-1.69a9.55,9.55,0,0,1,.37-1.35s0,0,0,0a6.66,6.66,0,0,1,.66-1.2c2-3,6.55-4.5,12.12-5.11,12.21-1.37,29.5,1.47,36.91,1.85l.07,0c1.78.17,3.58.31,5.38.4l.3,0c2,.09,3.92.16,5.88.17l.55,0h1.21l1.56,0,1.53,0c.7,0,1.39,0,2.08-.05l4-.23c.77,0,1.54-.1,2.3-.18q2-.17,3.93-.39l2.32-.28,1.93-.26c.66-.09,1.32-.2,1.95-.3,1.93-.31,3.86-.66,5.77-1.05a2.79,2.79,0,0,0,.4-.07l.51-.11,1.5-.34c2.29-.51,4.56-1.07,6.81-1.7s4.49-1.31,6.71-2l1-.32,1-.34.39-.13c1.05-.37,2.07-.76,3.1-1.16.64-.24,1.27-.46,1.91-.71l.5-.19.62-.26c.9-.36,1.8-.74,2.7-1.13l2-.85.88-.4c.93-.43,1.85-.86,2.76-1.3s1.69-.83,2.54-1.26c1-.51,2-1,3-1.55l2.57-1.42,2.44-1.4.42-.24,1.35-.83c1.34-.79,2.63-1.63,3.94-2.48l2-1.31c1-.69,2-1.37,3-2.08.38-.27.75-.56,1.12-.83l1.12-.85c.94-.71,1.89-1.4,2.81-2.13.75-.6,1.5-1.23,2.25-1.86s1.76-1.44,2.62-2.2l1.3-1.15,1-.91c.77-.7,1.53-1.4,2.29-2.12s1.55-1.48,2.3-2.23,1.2-1.22,1.79-1.83c.85-.88,1.7-1.75,2.52-2.65l.27-.28c.78-.84,1.53-1.72,2.28-2.57.48-.56,1-1.11,1.43-1.67.6-.71,1.2-1.42,1.79-2.15s1-1.3,1.52-2c.3-.37.62-.76.92-1.15.64-.83,1.29-1.68,1.9-2.54l.35-.48,1.48-2.12c.42-.58.79-1.18,1.18-1.77l1.21-1.8c.56-.86,1.1-1.74,1.64-2.61l.84-1.42c.7-1.14,1.38-2.29,2-3.46.43-.79.86-1.55,1.28-2.34.61-1.17,1.23-2.35,1.83-3.52.38-.79.78-1.61,1.18-2.42.57-1.22,1.13-2.45,1.68-3.71.35-.79.7-1.56,1-2.36.59-1.38,1.14-2.78,1.67-4.18.21-.55.42-1.08.62-1.62l.24-.65c.75-2.05,1.45-4.11,2.11-6.2.41-1.32.78-2.65,1.15-4h0s.16-.39.48-1l.32-.59.21-.33c.06-.11.15-.22.22-.34a17.4,17.4,0,0,1,8-6.8A18.15,18.15,0,0,1,340.14,145.13Z"/><path class="cls-2" d="M135.08,254.23c-6.9,4.82-10.88,11.17-10.75,19.69-2-3.66-3.14-7.76-2.44-11.92,0,0,0-.05,0-.07l0,0a9.55,9.55,0,0,1,.37-1.35s0,0,0,0a6.66,6.66,0,0,1,.66-1.2C125,256.33,129.51,254.84,135.08,254.23Z"/><path class="cls-3" d="M358.67,162.28a139.66,139.66,0,0,1-125,210.92c-1-.1-9.84-1.14-17.06-5.36-3.58-2.09-6.75-4.95-8.34-8.86,0,0,0-.05,0-.07v0a9.29,9.29,0,0,1-.39-1.34,0,0,0,0,0,0,0,6.3,6.3,0,0,1-.07-1.37c.15-3.62,3.21-7.26,7.64-10.71,9.67-7.57,25.88-14.23,32.39-17.79l0,0q2.42-1.19,4.79-2.48l.26-.14q2.59-1.41,5.11-2.94l1.5-.9,1.32-.84c.43-.26.86-.55,1.29-.84s1.16-.74,1.74-1.13c1.11-.74,2.21-1.51,3.31-2.3.63-.45,1.25-.9,1.86-1.37,1.71-1.24,3.35-2.51,5-3.84.52-.41,1-.82,1.51-1.25s1-.85,1.5-1.27c1.48-1.28,2.94-2.58,4.36-3.92a3.85,3.85,0,0,0,.3-.27l.38-.36q3.12-3,6-6.1c1.84-1.95,3.61-4,5.33-6l.67-.81.26-.32c1.12-1.38,2.21-2.78,3.29-4.21l.32-.43c.13-.17.26-.36.39-.54a134.78,134.78,0,0,0,8.39-12.8c.51-.84,1-1.7,1.45-2.56s.91-1.63,1.35-2.47l.22-.43c.24-.46.49-.94.71-1.41.73-1.38,1.39-2.77,2.06-4.18.33-.72.65-1.43,1-2.14.49-1.11,1-2.2,1.42-3.32.18-.43.35-.87.52-1.3.63-1.5,1.22-3.05,1.78-4.6a136,136,0,0,0,5.86-21.16c0-.12.06-.27.08-.39q.81-4.12,1.33-8.32c.18-1.28.33-2.6.45-3.92.11-1,.21-2.1.28-3.16,0-.2,0-.41.05-.59q.25-3.4.31-6.88a138.66,138.66,0,0,0-4.34-37.83c-.34-1.34-.72-2.67-1.11-4h0s-.07-.41-.11-1.09c0-.21,0-.44,0-.68v-.38c0-.13,0-.26,0-.41a17.3,17.3,0,0,1,3.27-10,18.09,18.09,0,0,1,9.46-6.28l0,0s0,0,0,0c4.41-1.33,8.66-.07,12.45,2.39C351.17,151.2,356,158,358.67,162.28Z"/><path class="cls-4" d="M332.73,145l.13.2a139.72,139.72,0,0,1,15.62,34.61q.74,2.47,1.38,5A139.64,139.64,0,0,1,216.12,359c-1.61,0-3.24,0-4.83,0-1,0-2-.05-3.06-.1a9.29,9.29,0,0,1-.39-1.34,0,0,0,0,0,0,0,6.3,6.3,0,0,1-.07-1.37c.15-3.62,3.21-7.26,7.64-10.71,9.67-7.57,25.88-14.23,32.39-17.79l0,0q2.42-1.19,4.79-2.48l.26-.14q2.59-1.41,5.11-2.94c.15-.08.32-.17.47-.27l1-.63,1.32-.84,1.29-.84c.58-.37,1.16-.74,1.74-1.13,1.12-.76,2.21-1.53,3.31-2.3.63-.45,1.25-.9,1.86-1.37,1.06-.78,2.11-1.58,3.14-2.39.62-.48,1.22-1,1.83-1.45l1.51-1.25c.51-.42,1-.85,1.5-1.27,1.48-1.28,2.94-2.58,4.36-3.92a3.85,3.85,0,0,0,.3-.27l.38-.36,1.1-1.08c1.68-1.64,3.32-3.3,4.91-5s3.13-3.47,4.64-5.25l.69-.8.67-.81.26-.32c.7-.86,1.36-1.73,2-2.61l1.26-1.6.32-.43c.13-.17.26-.36.39-.54.58-.79,1.15-1.58,1.71-2.38l1.22-1.76.54-.8c.56-.85,1.12-1.7,1.67-2.55s1-1.6,1.5-2.41,1.18-1.93,1.75-2.9,1-1.7,1.45-2.56l1.35-2.47.22-.43c.24-.46.49-.94.71-1.41.73-1.38,1.39-2.77,2.06-4.18.33-.72.65-1.43,1-2.14.49-1.11,1-2.2,1.42-3.32.18-.43.35-.87.52-1.3s.35-.87.51-1.31c.43-1.09.87-2.18,1.27-3.29.33-.9.64-1.83.94-2.76s.74-2.14,1.08-3.24c.17-.56.34-1.11.5-1.66s.27-.88.39-1.32c.3-1,.57-2,.84-3s.54-2.06.79-3.1c.2-.83.38-1.67.56-2.5.26-1.19.53-2.38.76-3.57,0-.12.06-.27.08-.39.22-1.12.4-2.26.59-3.38.12-.73.24-1.45.35-2.17.13-.92.27-1.84.39-2.77s.19-1.64.28-2.46c.05-.47.12-1,.17-1.46.11-1,.21-2.1.28-3.16,0-.2,0-.41.05-.59.05-.87.11-1.72.15-2.59.05-.7.05-1.41.08-2.12s0-1.44.08-2.17c0-1,0-2,0-3.08,0-.55,0-1.09,0-1.65,0-1.33,0-2.67-.08-4,0-.9-.09-1.77-.14-2.66-.09-1.33-.18-2.65-.29-4-.09-.88-.18-1.78-.27-2.68-.15-1.34-.31-2.68-.51-4-.12-.86-.22-1.7-.36-2.55-.22-1.49-.49-3-.77-4.44-.11-.57-.21-1.14-.32-1.7-.05-.23-.09-.45-.14-.68-.44-2.13-.92-4.26-1.46-6.38-.34-1.34-.72-2.67-1.11-4h0s-.07-.41-.11-1.09c0-.21,0-.44,0-.68v-.38c0-.13,0-.26,0-.41a17.3,17.3,0,0,1,3.27-10A18.09,18.09,0,0,1,332.73,145Z"/><path class="cls-2" d="M215.41,345.44c-3.35,7.72-3.4,15.22,1.18,22.4-3.58-2.09-6.75-4.95-8.34-8.86,0,0,0-.05,0-.07v0a9.29,9.29,0,0,1-.39-1.34,0,0,0,0,0,0,0,6.3,6.3,0,0,1-.07-1.37C207.92,352.53,211,348.89,215.41,345.44Z"/></svg>