<svg width="60" height="59" viewBox="0 0 60 59" fill="none" xmlns="http://www.w3.org/2000/svg">
<path d="M59.0057 29.5C59.0057 45.7924 45.7968 59 29.5028 59C13.2089 59 0 45.7924 0 29.5C0 13.2076 13.2089 0 29.5028 0C45.7968 0 59.0057 13.2076 59.0057 29.5Z" fill="#4958C5"/>
<path d="M41.5249 17.273H33.4628V15.0014C33.4628 12.5089 36.0502 10.6465 37.7856 10.4896C39.3002 10.3527 40.1206 10.1634 43.1182 11.1415V7.05057C41.0672 6.54398 38.606 6.61538 36.555 6.79817C34.3147 6.92437 29.2345 9.29068 29.2345 14.7805V17.273H26.2685V20.996H29.2345V35.0361C29.2345 35.0361 27.3098 33.2062 23.3655 33.2062C17.8751 33.2062 13.0159 37.434 13.0159 43.4917C13.0159 49.5495 17.5281 53.8973 23.4918 53.8973C29.4554 53.8973 33.6205 48.7923 33.7467 43.4917C33.8729 38.1912 33.7467 32.165 33.7467 32.165V20.996H41.5249V17.273Z" fill="white"/>
<ellipse cx="23.531" cy="43.33" rx="6.05834" ry="6.05775" fill="#4958C5"/>
</svg>
