<?xml version="1.0" encoding="utf-8"?>
<!-- Generator: Adobe Illustrator 25.2.3, SVG Export Plug-In . SVG Version: 6.00 Build 0)  -->
<svg version="1.1" id="Layer_1" xmlns="http://www.w3.org/2000/svg" xmlns:xlink="http://www.w3.org/1999/xlink" x="0px" y="0px"
	 viewBox="0 0 1080 1080" style="enable-background:new 0 0 1080 1080;" xml:space="preserve">
<style type="text/css">
	.st0{fill:#FED700;}
</style>
<g id="Group_6480_11_" transform="translate(0.011 0.013)">
	<circle id="Ellipse_355_11_" cx="539.53" cy="539.99" r="540"/>
</g>
<g id="Group_6482_10_" transform="translate(6.326 15.419)">
	<g id="Group_6481_10_" transform="translate(0 0)">
		<path id="Path_6632_10_" class="st0" d="M459.64,423.21c-1.18,1.26-2.01,2.24-2.91,3.14l-83.16,83.24
			c-8.32,5.86-10.32,17.37-4.45,25.69c1.22,1.73,2.72,3.23,4.45,4.45c27.59,27.68,55.22,55.31,82.88,82.88
			c2.94,2.91,2.66,4.52,0,7.21c-14.84,14.62-29.57,29.34-44.2,44.15c-2.51,2.51-4.12,2.84-6.86,0
			c-27.86-28.05-55.79-56.02-83.79-83.91c-5.05-6.53-13.95-8.71-21.45-5.25c-2.81,1.41-5.36,3.29-7.53,5.55
			c-27.9,27.76-55.73,55.6-83.49,83.51c-2.66,2.66-4.22,2.84-6.88,0.13c-14.72-14.93-29.55-29.77-44.48-44.51
			c-2.71-2.66-2.51-4.24,0-6.88c27.95-27.75,55.71-55.66,83.61-83.46c6.56-4.99,8.87-13.82,5.58-21.37
			c-1.53-3.07-3.59-5.84-6.08-8.19c-27.56-27.69-55.19-55.32-82.88-82.88c-3.06-3.04-2.81-4.7,0-7.53
			c14.73-14.5,29.35-29.12,43.85-43.85c2.71-2.74,4.32-2.94,7.21,0c27.73,27.95,55.54,55.82,83.44,83.61
			c5.02,6.55,13.87,8.81,21.42,5.48c3.06-1.55,5.82-3.63,8.16-6.13c27.69-27.56,55.32-55.19,82.88-82.88c2.81-2.84,4.45-2.86,7.23,0
			c14.62,14.84,29.41,29.51,44.1,44.23C457.61,420.62,458.46,421.78,459.64,423.21z"/>
		<path id="Path_6633_10_" class="st0" d="M910.63,423.21c-1.18,1.26-2.01,2.24-2.94,3.14l-83.13,83.24
			c-8.32,5.86-10.32,17.37-4.45,25.69c1.22,1.73,2.72,3.23,4.45,4.45c27.6,27.68,55.22,55.31,82.88,82.88
			c2.91,2.91,2.66,4.52,0,7.21c-14.83,14.62-29.57,29.34-44.2,44.15c-2.51,2.51-4.09,2.84-6.86,0
			c-27.85-28.05-55.78-56.02-83.79-83.91c-5.05-6.53-13.95-8.71-21.45-5.25c-2.81,1.4-5.36,3.28-7.53,5.55
			c-27.9,27.76-55.73,55.6-83.49,83.51c-2.64,2.66-4.22,2.84-6.88,0.13c-14.72-14.93-29.55-29.77-44.48-44.51
			c-2.69-2.66-2.51-4.24,0-6.88c27.93-27.76,55.79-55.58,83.59-83.46c6.56-4.99,8.87-13.82,5.58-21.37
			c-1.53-3.06-3.59-5.83-6.08-8.19c-27.56-27.69-55.19-55.32-82.88-82.88c-3.06-3.04-2.81-4.7,0-7.53
			c14.73-14.5,29.35-29.12,43.85-43.85c2.71-2.74,4.34-2.94,7.21,0c27.73,27.95,55.55,55.82,83.46,83.61
			c5.02,6.54,13.86,8.8,21.4,5.48c3.06-1.55,5.82-3.63,8.16-6.13c27.69-27.56,55.32-55.19,82.88-82.88c2.81-2.84,4.45-2.86,7.23,0
			c14.62,14.84,29.41,29.51,44.1,44.23C908.57,420.62,909.45,421.78,910.63,423.21z"/>
	</g>
</g>
</svg>
