<svg width="300" height="300" viewBox="0 0 300 300" fill="none" xmlns="http://www.w3.org/2000/svg">
<circle cx="150" cy="150" r="150" fill="#E2E0E0" fill-opacity="0.35"/>
<path d="M64.6928 150.049C59.6246 147.26 54.9841 143.712 50.9221 139.522C44.6417 133.242 40.1705 125.289 38.0048 116.546C34.9818 103.648 38.8901 90.067 48.2455 80.9618C53.7851 74.7258 61.9129 71.6516 70.0459 72.7162C80.1702 74.1172 88.9369 81.8824 95.0658 89.2474L83.6226 106.379C80.6785 101.586 76.7279 97.5366 72.063 94.531C69.6963 93.1609 66.8782 92.8883 64.306 93.7807C61.7338 94.6731 59.6477 96.647 58.5638 99.2142C52.2797 111.463 61.2404 124.111 71.1708 130.756L64.6928 150.049Z" fill="#C03A2B"/>
<path d="M216.946 164.939C207.636 172.264 194.292 176.667 177.263 175.746C164.889 175.066 157.79 172.184 153.717 167.821C142.546 155.933 154.105 133.357 142.235 116.946C133.028 104.864 118.508 98.4282 103.677 99.8546C100.303 91.3288 99.5268 84.5643 101.854 80.6016C101.854 80.5615 101.854 80.5615 101.893 80.5215V80.4815C102.186 80.0201 102.524 79.5909 102.902 79.2006C112.754 69.0337 150.187 91.2088 186.573 128.714C197.569 139.981 207.722 152.09 216.946 164.939V164.939Z" fill="#BDC3C7"/>
<g filter="url(#filter0_d)">
<path d="M233.199 216.134C217.877 229.743 141.576 291.745 85.0578 233.425C59.65 207.248 57.8268 176.907 64.6927 150.049C66.3841 143.46 68.5495 137.011 71.1708 130.756C74.7281 122.322 78.8903 114.174 83.6226 106.379C87.6568 99.6545 91.691 93.8105 95.0658 89.2474C97.8587 85.4849 100.186 82.5629 101.854 80.6016C99.5267 84.5642 100.303 91.3288 103.677 99.8546C110.427 117.026 127.611 141.483 150.886 165.499C151.739 166.38 152.592 167.22 153.446 168.101C187.504 202.524 221.911 223.178 233.199 216.134Z" fill="#F3F2F2"/>
</g>
<path d="M216.946 164.939C207.722 152.09 197.569 139.981 186.573 128.714C150.187 91.2088 112.754 69.0337 102.902 79.2006C102.524 79.5909 102.186 80.0201 101.893 80.4815V80.5215C101.854 80.5615 101.854 80.5615 101.854 80.6016C99.5268 84.5643 100.303 91.3288 103.677 99.8546C110.427 117.026 127.611 141.483 150.886 165.499C151.739 166.38 152.592 167.22 153.446 168.101C187.504 202.524 221.911 223.178 233.199 216.134L216.946 164.939Z" fill="#BDC3C7"/>
<path d="M213.963 77.789C218.507 73.1002 216.051 62.9642 208.478 55.1496C200.905 47.335 191.082 44.801 186.538 49.4898C181.994 54.1785 184.45 64.3145 192.023 72.1291C199.596 79.9437 209.419 82.4777 213.963 77.789Z" fill="#4A2B17"/>
<path d="M134.4 216.534C123.577 227.741 108.681 230.904 99.1389 224.699C105.966 217.294 100.768 211.691 107.944 204.326C115.237 196.76 120.706 202.404 128.038 194.879C135.175 187.474 129.977 181.91 136.843 174.505C137.936 175.232 138.951 176.077 139.869 177.027C148.907 186.393 146.502 204.085 134.4 216.534Z" fill="#640808"/>
<path d="M136.843 174.505C129.977 181.91 135.175 187.474 128.038 194.879C120.706 202.404 115.237 196.76 107.944 204.326C100.768 211.691 105.966 217.294 99.1389 224.699C98.0458 223.973 97.0314 223.128 96.1132 222.178C87.0362 212.811 89.48 195.119 101.583 182.671C112.405 171.463 127.301 168.301 136.843 174.505V174.505Z" fill="#9C2222"/>
<path d="M153.717 167.821L153.446 168.101C152.592 167.22 151.739 166.38 150.886 165.499C127.611 141.483 110.427 117.026 103.677 99.8546C118.508 98.4283 133.028 104.864 142.235 116.946C154.105 133.357 142.546 155.933 153.717 167.821V167.821Z" fill="#4A2B17"/>
<path d="M216.946 164.939C207.722 152.09 197.569 139.981 186.573 128.714C150.187 91.2088 112.754 69.0337 102.902 79.2006C102.524 79.5909 102.186 80.0201 101.893 80.4815V80.5215C101.854 80.5615 101.854 80.5615 101.854 80.6016C99.5268 84.5643 100.303 91.3288 103.677 99.8546C110.427 117.026 127.611 141.483 150.886 165.499C151.739 166.38 152.592 167.22 153.446 168.101C187.504 202.524 221.911 223.178 233.199 216.134C237.191 213.152 231.376 202.965 231.376 202.965L216.946 164.939ZM158.876 162.377L156.355 159.855C153.601 157.013 150.963 154.172 148.325 151.29C131.839 132.997 118.573 114.224 112.173 100.015C111.707 98.934 111.242 97.8933 110.854 96.8526C109.114 93.2657 108.248 89.2949 108.332 85.2847L108.875 84.8044C109.209 84.7497 109.546 84.7229 109.884 84.7244C121.056 84.7244 149.799 102.136 181.103 134.398C191.514 145.084 201.159 156.535 209.964 168.661L210.196 169.342L222.687 208.689C211.981 205.686 193.478 194.279 172.492 175.346C168.031 171.383 163.493 167.02 158.876 162.377V162.377Z" fill="#ECF0F1"/>
<path d="M261.866 149.849C261.328 166.612 256.841 182.988 248.793 197.561C244.734 204.557 237.537 208.978 229.642 209.325H229.506C226.986 209.477 224.458 209.194 222.028 208.488C217.306 206.912 212.756 204.833 208.451 202.284C205.619 200.643 202.593 198.762 199.374 196.6C189.939 190.178 180.956 183.076 172.492 175.346C174.005 175.506 175.595 175.666 177.263 175.746C194.292 176.667 207.636 172.264 216.946 164.939C232.796 153.126 237.068 130.662 226.721 113.544C210.546 85.5649 265.046 85.1647 261.866 149.849V149.849Z" fill="#4A2B17"/>
<path d="M233.936 184.512C227.245 192.808 218.406 198.971 208.451 202.284C205.619 200.643 202.593 198.762 199.374 196.6C210.525 194.392 220.612 188.319 227.963 179.389C229.334 177.686 231.782 177.453 233.432 178.868C235.082 180.283 235.307 182.81 233.936 184.512V184.512Z" fill="#805333"/>
<defs>
<filter id="filter0_d" x="57.2561" y="80.6016" width="179.943" height="185.398" filterUnits="userSpaceOnUse" color-interpolation-filters="sRGB">
<feFlood flood-opacity="0" result="BackgroundImageFix"/>
<feColorMatrix in="SourceAlpha" type="matrix" values="0 0 0 0 0 0 0 0 0 0 0 0 0 0 0 0 0 0 127 0"/>
<feOffset dy="4"/>
<feGaussianBlur stdDeviation="2"/>
<feColorMatrix type="matrix" values="0 0 0 0 0 0 0 0 0 0 0 0 0 0 0 0 0 0 0.25 0"/>
<feBlend mode="normal" in2="BackgroundImageFix" result="effect1_dropShadow"/>
<feBlend mode="normal" in="SourceGraphic" in2="effect1_dropShadow" result="shape"/>
</filter>
</defs>
</svg>
