<?xml version="1.0" encoding="UTF-8"?>
<svg width="475px" height="200px" viewBox="0 0 475 200" version="1.1" xmlns="http://www.w3.org/2000/svg" xmlns:xlink="http://www.w3.org/1999/xlink">
    <!-- Generator: Sketch 53 (72520) - https://sketchapp.com -->
    <title>Logo / Black</title>
    <desc>Created with Sketch.</desc>
    <g id="Symbols" stroke="none" stroke-width="1" fill="none" fill-rule="evenodd">
        <g id="Logo-/-Black" fill="#000000">
            <path d="M406.763551,85.4830054 C409.955575,76.7799642 423.304853,72.647585 431.343031,72.647585 L435,72.647585 L435,91.9588551 C430.413142,91.9588551 425.736871,91.7173524 421.328838,93.2200358 C418.26609,94.2053096 415.548564,96.0455922 413.496308,98.5241503 C409.749927,103.577818 410.06287,106.699463 409.767809,111.440072 C409.490631,116.046512 409.615808,119.194991 409.615808,123.810376 L409.615808,158.067979 L388.505531,158.067979 L388.505531,73.5152057 L406.799316,73.5152057 L406.763551,85.4830054 Z M150.10248,138.041145 C134.982836,152.844365 121.937561,160 100.460692,160 C64.6957161,160 40,135.017889 40,99.8389982 C40,63.7119857 68.0039764,40 100.80046,40 C119.944542,40.0217703 138.128562,48.388853 150.603189,62.9159213 L135.304721,77.5581395 C124.959701,66.5742397 113.66691,60.8497317 100.29975,60.8497317 C78.8407643,60.8497317 61.3248671,77.3971377 61.3248671,99.8389982 C61.3248671,123.398927 78.1880534,139.150268 100.782577,139.150268 C114.936567,139.150268 124.485815,133.42576 135.304721,122.602862 L150.10248,138.041145 Z M240.679216,141.198569 C231.612794,154.096601 219.658351,159.856887 201.856334,159.856887 C174.970013,159.856887 157.632941,140.125224 157.632941,115.29517 C157.632941,92.2182469 174.335185,70.8855098 201.54339,70.8855098 C228.268769,70.8855098 246.401612,89.9910555 246.401612,116.726297 C246.401612,118.640429 246.249611,119.588551 246.249611,121.502683 L178.153096,121.502683 C180.218523,134.078712 189.776713,141.073345 201.856334,141.073345 C210.922755,141.073345 216.975978,138.533095 222.859316,132.799642 L240.679216,141.198569 Z M225.085686,104.749553 C222.224488,94.9105546 213.158066,88.8372093 201.838451,88.8372093 C191.341431,88.8372093 183.222781,94.0876565 179.091926,104.749553 L225.085686,104.749553 Z M257.125386,40.4561717 L278.28037,40.4561717 L278.28037,157.629696 L257.125386,157.629696 L257.125386,40.4561717 Z M372.050419,141.198569 C362.983998,154.096601 351.047437,159.856887 333.227537,159.856887 C306.341216,159.856887 289.004144,140.125224 289.004144,115.29517 C289.004144,92.2182469 305.706388,70.8855098 332.914594,70.8855098 C359.639972,70.8855098 377.781756,89.9910555 377.781756,116.726297 C377.781756,118.640429 377.620814,119.588551 377.620814,121.502683 L309.524299,121.502683 C311.589727,134.078712 321.147916,141.073345 333.227537,141.073345 C342.3029,141.073345 348.347181,138.533095 354.23052,132.799642 L372.050419,141.198569 Z M356.456889,104.749553 C353.595691,94.9105546 344.52927,88.8372093 333.209655,88.8372093 C322.712634,88.8372093 314.602926,94.0876565 310.46313,104.749553 L356.456889,104.749553 Z" id="Combined-Shape"></path>
        </g>
    </g>
</svg>