<svg version="1.2" baseProfile="tiny-ps" xmlns="http://www.w3.org/2000/svg" viewBox="0 0 225 225" width="225" height="225">
	<title>Celer-svg</title>
	<style>
		tspan { white-space:pre }
		.shp0 { fill: #ffffff } 
		.shp1 { fill: #000000 } 
	</style>
	<path id="Shape 1" class="shp0" d="M111 217C53.49 217 7 171.18 7 114.5C7 57.82 53.49 12 111 12C168.51 12 215 57.82 215 114.5C215 171.18 168.51 217 111 217Z" />
	<g id="Symbols">
		<g id="Logo-/-Black">
			<path id="Combined-Shape" fill-rule="evenodd" class="shp1" d="M189.92 108.07C191.4 104.04 197.58 102.13 201.31 102.13L203 102.13L203 111.07C200.87 111.07 198.71 110.96 196.67 111.66C195.25 112.11 193.99 112.97 193.04 114.11C191.3 116.46 191.45 117.9 191.31 120.1C191.18 122.23 191.24 123.69 191.24 125.83L191.24 141.7L181.46 141.7L181.46 102.53L189.93 102.53L189.92 108.07ZM71.01 132.42C64 139.28 57.96 142.59 48.01 142.59C31.44 142.59 20 131.02 20 114.72C20 97.99 32.97 87 48.17 87C57.04 87.01 65.46 90.89 71.24 97.62L64.15 104.4C59.36 99.31 54.13 96.66 47.94 96.66C37.99 96.66 29.88 104.33 29.88 114.72C29.88 125.64 37.69 132.94 48.16 132.94C54.72 132.94 59.14 130.28 64.15 125.27L71.01 132.42ZM112.97 133.88C108.77 139.86 103.23 142.53 94.99 142.53C82.53 142.53 74.5 133.39 74.5 121.88C74.5 111.19 82.24 101.31 94.84 101.31C107.22 101.31 115.62 110.16 115.62 122.55C115.62 123.43 115.55 123.87 115.55 124.76L84.01 124.76C84.96 130.59 89.39 133.83 94.99 133.83C99.19 133.83 101.99 132.65 104.72 129.99L112.97 133.88ZM105.75 117C104.42 112.44 100.22 109.63 94.98 109.63C90.12 109.63 86.35 112.06 84.44 117L105.75 117ZM120.59 87.21L130.39 87.21L130.39 141.5L120.59 141.5L120.59 87.21ZM173.84 133.88C169.64 139.86 164.11 142.53 155.85 142.53C143.39 142.53 135.36 133.39 135.36 121.88C135.36 111.19 143.1 101.31 155.7 101.31C168.09 101.31 176.49 110.16 176.49 122.55C176.49 123.43 176.42 123.87 176.42 124.76L144.87 124.76C145.83 130.59 150.25 133.83 155.85 133.83C160.05 133.83 162.85 132.65 165.58 129.99L173.84 133.88ZM166.61 117C165.29 112.44 161.09 109.63 155.84 109.63C150.98 109.63 147.22 112.06 145.3 117L166.61 117Z" />
		</g>
	</g>
</svg>