<svg id="Layer_1" data-name="Layer 1" xmlns="http://www.w3.org/2000/svg" viewBox="0 0 1697.36 1450.16"><defs><style>.cls-1{fill:#c7479a;}.cls-2{fill:#2cbec0;}</style></defs><title>logo</title><path class="cls-1" d="M578.82,1059.63c0-213.93,118.45-320,236.9-320,97.24,0,179.45,54.81,179.45,159.12,0,190.06-284.64,150.28-284.64,242.21,0,41.55,67.18,71.61,111.38,71.61,145,0,145-110.5,157.35-110.5,13.26,0,15.91,46,15.91,53,0,112.26-86.63,176.8-192.71,176.8C644.23,1331.9,578.82,1201.07,578.82,1059.63Zm119.33-87.52c0,9.73,4.42,19.45,15.92,19.45,10.6,0,171.49-35.36,171.49-80.44,0-43.32-40.66-67.19-74.26-67.19C739.7,843.93,698.15,920.84,698.15,972.11Z" transform="translate(-107.04 -259.18)"/><path class="cls-2" d="M1134.84,1318.64c-13.26,0-29.17,26.52-29.17-264.32,0-44.2,2.65-88.4,2.65-132.59,0-26.52,8-76.91-31.82-76.91-15.91,0-24.75,10.61-34.48,10.61-11.49,0-10.6-11.5-10.6-27.41,0-67.18,19.44-75.14,53-75.14,39.78,0,39.78-59.22,52.16-99,16.8-54.81,71.6-89.29,117.57-89.29,34.48,0,79.56-4.42,79.56,21.22,0,13.26-10.61,99.89-25.64,99.89-12.37,0-15.91-8-25.63-8-24.75,0-41.55,36.24-41.55,56.57,0,12.38,8.84,23,22.1,23,11.49,0,22.1-4.42,33.59-4.42,33.59,0,34.48,23.87,34.48,53.93,0,12.37,0,46-18.57,46-7.07,0-24.75-7.95-40.66-7.95-48.62,0-46.85,60.11-46.85,94.59,0,116.68,32.71,351.82,32.71,363.31,0,19.45-12.38,15.92-28.29,15.92Z" transform="translate(-107.04 -259.18)"/><path class="cls-2" d="M472.48,1370.36c0-10.61,177.7,234.06,441.87,249.15,164.57,9.41,338.68-65.77,457.65-188.31,111.5-114.85,159.54-231.91,159.54-231.91,12.41-29.54,18.62-44.31,19-59.24,1.34-54.4-63-59.74-106.94-141.35-26.2-48.67-46.89-114.19-46.89-204.32,0-39.78-.89-41.55,33.59-41.55h72.49c11.5,0,31-2.65,31,15.91,0,12.38-8,39.79-8,66.31,0,103.43,86.64,200.68,104.32,200.68,35.37,0,59.23-106.09,59.23-174.16,0-44.21-9.72-81.33-9.72-95.48,0-15.91,22.1-13.26,31.83-13.26h78.68c16.8,2.65,14.14,30.94,14.14,69,0,176.88-119.9,309.36-178.19,424.75-87.77,152-167.71,241.37-299.37,340.12-155.17,94-285.63,132.21-457.67,120.68-327.58-21.94-524.68-243-529.77-247.64-6-5.51,59.3-46.5,59.3-46.5Z" transform="translate(-107.04 -259.18)"/><path class="cls-1" d="M513.77,682.28c-42.12,98,13.2,319.86,13.2,319.86,12.34,72.2,15.86,177.47-27.4,316.49H292.69c-99,0-185.65-87.52-185.65-266.1,0-202.45,134.38-313,212.18-313,18.56,0,38,20.33,50.39,20.33,15.22-1.79,17.37-6.16,21.35-20.69,2.12-7.73,34.12-96.19,47.74-123.57,13-26.17,29-57.08,55.06-87.2s51.45-61.71,130.3-119.61c39.38-28.91,107.63-66.32,196.26-97.21,171.33-59.73,306.88-69.94,472.76-22.9,315.86,89.58,462.7,346.75,466.7,352.38,4.72,6.63-67.67,33.15-67.67,33.15l-81.22,26.54c-2.2,10.38-125.15-265.89-380.41-335.58-159-43.41-359-9.16-501.48,85C632.79,513.75,592.38,560,573.56,581.82,539.81,621,523.67,659.24,513.77,682.28ZM407.62,989.76c0-155.6-23.86-166.2-56.58-166.2-38,0-124.65,49.5-124.65,210.4,0,61,23,155.6,98.13,155.6C420,1189.56,407.62,1053.41,407.62,989.76Z" transform="translate(-107.04 -259.18)"/></svg>