<?xml version="1.0" encoding="utf-8"?>
<!-- Generator: Adobe Illustrator 25.2.3, SVG Export Plug-In . SVG Version: 6.00 Build 0)  -->
<svg version="1.1" id="Layer_1" xmlns="http://www.w3.org/2000/svg" xmlns:xlink="http://www.w3.org/1999/xlink" x="0px" y="0px"
	 viewBox="0 0 545 672" style="enable-background:new 0 0 545 672;" xml:space="preserve">
<style type="text/css">
	.st0{fill:#AD6A45;}
	.st1{fill:#5D97D2;}
	.st2{fill:#1E7452;}
	.st3{fill:#1F7452;}
	.st4{fill:#951A1B;}
	.st5{fill:#941B1C;}
	.st6{fill:#AABCBA;}
	.st7{fill:#78704D;}
	.st8{fill:#5C7351;}
	.st9{fill:#9A4C4C;}
	.st10{fill:#989695;}
	.st11{fill:#8E4B4B;}
	.st12{fill:#435B44;}
	.st13{fill:#594B3A;}
	.st14{fill:#E6C4A3;}
	.st15{fill:#7CD9B4;}
	.st16{fill:#DA9977;}
	.st17{fill:#E9F9FB;}
	.st18{fill:#7DB6F2;}
	.st19{fill:#FEFEFE;}
	.st20{fill:#CBE2E0;}
	.st21{fill:#36C48C;}
	.st22{fill:#7BD9B4;}
	.st23{fill:#37C48D;}
	.st24{fill:#36C48D;}
	.st25{fill:#7BD8B3;}
	.st26{fill:#FE9999;}
	.st27{fill:#E43839;}
	.st28{fill:#A8F0D4;}
	.st29{fill:#CCE2E0;}
	.st30{fill:#FDFEFE;}
	.st31{fill:#FCFDFD;}
	.st32{fill:#E64546;}
</style>
<g>
	<path class="st0" d="M22.94,225.63c7.06-24.52,17.11-47.83,28.93-70.37c17.43-33.21,39-63.4,66.35-89.18
		c33.31-31.41,71.55-53.62,116.97-62.39c48.89-9.44,94.7-0.42,137.96,23.08c37.47,20.35,67.2,49.46,92.13,83.78
		c0.48,0.66,0.78,1.45,1.17,2.17c-1.46,3.2-3.46,5.7-7.36,5.76c-2.42-0.79-3.5-2.98-4.87-4.81c-19.02-25.5-41.01-47.97-67.34-65.97
		c-27.32-18.67-57.23-31.15-90.11-35.19c-44.11-5.43-85.43,3.67-123.97,25.91c-30.69,17.71-55.8,41.61-77.62,69.23
		c-18.03,22.83-32.37,47.88-44.25,74.4c-6.37,13.47-11.55,27.4-16.24,41.53c-0.92,1.55-1.46,3.36-2.99,4.52
		C28.42,228.57,25.24,228.67,22.94,225.63z"/>
	<path class="st1" d="M520.04,515.94c-15.65,37.04-39.94,67.56-70.64,93.07c-40.51,33.65-87.18,53.69-139.19,60.41
		c-66.44,8.6-128.69-4.25-186-39.53c-1.94-1.19-4.35-1.74-5.71-3.81c0.91-5.12,4.93-5.61,8.98-6.06c1.08,0.17,2.08,0.58,3.04,1.09
		c24.33,14.67,50.17,25.61,77.86,32.26c17.99,4.32,36.14,6.44,54.6,7.34c30.52,1.49,60.27-2.73,89.3-11.54
		c32.72-9.93,62.52-25.78,89.02-47.6c2.3-1.9,4.89-3.45,6.88-5.72c20.73-17.44,37.08-38.53,51.06-61.58c2.7-5.74,6.39-11,8.31-17.12
		c0.99-1.77,2.03-3.5,3.56-4.87C516.14,510.88,519.5,512.26,520.04,515.94z"/>
	<path class="st2" d="M2.96,427.33c-1.9-9.66-2.09-19.48-2.5-29.25c-2.15-52.16,3.1-103.54,16.78-153.98
		c0.42-1.57,0.91-3.12,1.37-4.68c3.59-2.63,6.79-1.79,9.77,1.09c0.72,2,0.17,3.97-0.31,5.87c-2.48,9.81-4.54,19.71-7.1,29.5
		c-2.07,12.71-4.45,25.36-5.86,38.17c-2.41,21.63-3.86,43.31-3.55,65.09c0.06,4.32,0.08,8.64-0.1,12.96
		c0.01,8.05,1.15,16.02,1.62,24.03c0.17,2.94,0.84,5.87-0.4,8.73C9.78,427.04,6.82,428.97,2.96,427.33z"/>
	<path class="st3" d="M475.34,125.72c13.52,19.67,24,40.95,33.26,62.88c10.31,24.4,18.02,49.65,23.93,75.46
		c0.33,1.45,0.41,2.95,0.61,4.43c0.34,2.32-1.59,2.56-2.99,2.96c-1.88,0.53-3.48,1.59-5.23,2.35c-2.61-0.96-2.25-3.51-2.68-5.46
		c-6.29-28.85-15.43-56.76-27.29-83.79c-4.14-9.44-8.81-18.61-13.58-27.74c-4.1-8.95-10.19-16.78-14.45-25.65
		c-0.1-0.48-0.08-0.96,0.03-1.44c1.13-1.88,3.11-2.83,4.68-4.22C472.88,124.4,474.22,124,475.34,125.72z"/>
	<path class="st4" d="M534.9,276.4c6.86,34.31,10.48,68.94,9.99,103.96c-0.84,4.87,0.15,9.84-0.84,14.72
		c-0.59,2.89-6.69,7.15-9.37,6.29c-1.72-0.55-1.74-2.2-1.92-3.67c-0.12-10.43-0.02-20.86-0.06-31.3
		c-0.03-8.26,0.27-16.49-1.79-24.66c-1.34-5.29,0.46-10.9-0.64-16.31c-0.23-0.84-0.35-1.7-0.42-2.56c0-4.28,0.08-8.57-1.45-12.68
		c-0.18-0.51-0.31-1.03-0.42-1.56c-1.62-9.12-2.75-18.33-4.77-27.38c-0.33-1.46-0.42-2.95-0.09-4.43c0.13-0.49,0.35-0.94,0.67-1.34
		C527.47,275.97,531.37,273.93,534.9,276.4z"/>
	<path class="st5" d="M43.71,551.17c-13.26-19.3-22.48-40.49-29.73-62.69c-5.75-17.6-8.79-35.63-10.13-54.02
		c-0.4-0.98-0.47-2.14,0.48-2.59c2.93-1.38,5.5-3.83,9.11-3.39c1.25,1.45,1.62,3.23,1.81,5.05c1.5,14.82,3.87,29.49,7.51,43.93
		c5.96,21.41,14.29,41.8,25.96,60.77c1.56,2.53,3.33,5,3.83,8.06C50.85,552.32,47.87,553.96,43.71,551.17z"/>
	<path class="st6" d="M520.04,515.94c-2.23-3.14-5.25-3.72-8.75-2.72c-1.46-1.81-0.34-3.49,0.37-5.1
		c11.71-26.63,16.2-54.9,19.24-83.55c0.66-6.25-0.06-12.61,1.6-18.76c0.18-0.27,0.35-0.64,0.62-0.72c5.02-1.42,9.16-4.03,11.75-8.72
		c0.72,7.35-1.54,14.42-2.07,21.67c-1.46,19.79-4.01,39.52-8.9,58.8C530.48,490.26,526.67,503.63,520.04,515.94z"/>
	<path class="st6" d="M127.56,620.98c-3.76,0.39-6.95,1.79-9.07,5.11c-9.23-5.54-17.64-12.22-25.83-19.16
		c-15.33-12.99-29.23-27.33-40.73-43.9c2.06-2.59,5.63-2.86,7.86-5.19c1.81-0.08,2.57,1.39,3.44,2.52
		c11.26,14.67,24.1,27.82,38.09,39.86c7.29,5.9,14.82,11.46,22.64,16.63C125.47,617.85,127.71,618.44,127.56,620.98z"/>
	<path class="st7" d="M475.34,125.72c-3.92-1.12-4.82,3.91-8.14,4.02c-4.49-2.2-5.9-6.85-8.44-10.6c-0.04-0.49,0.08-0.94,0.32-1.36
		c3.55-0.08,4.54-3.92,7.37-5.06C469.93,116.7,472.96,120.99,475.34,125.72z"/>
	<path class="st8" d="M28.17,240.55c-3.12-0.93-6.22-2.04-9.56-1.13c1.09-4.71,2.41-9.35,4.33-13.79c2.88,1.1,5.9,1.56,8.95,1.83
		C33.17,232.54,32.06,236.94,28.17,240.55z"/>
	<path class="st9" d="M544.86,396.37c-0.93,6.84-5.65,8.8-11.66,9.1c-0.2-0.18-0.4-0.37-0.61-0.55c-0.99-2.12-0.99-4.23,0.05-6.33
		c0.39-0.49,0.87-0.59,1.43-0.31c0.18,0.77,0.25,2.14,0.56,2.2c2.2,0.4,7.74-4.43,8.59-6.63c1.7-4.4-0.21-9.17,1.67-13.48
		C544.88,385.7,544.87,391.03,544.86,396.37z"/>
	<path class="st10" d="M59.82,558.08c-1.04,4.2-5.13,3.5-7.89,4.94c-1.56-1.84-3.47-3.44-4.16-5.89c2.19-1.98,4.96-3.17,7.1-5.21
		c0.45-0.15,0.9-0.15,1.35,0C58.2,553.52,60.11,555.16,59.82,558.08z"/>
	<path class="st11" d="M55.66,551.99c-1.91,2.82-4.24,4.98-7.88,5.14c-1.67-1.77-3.24-3.61-4.06-5.96c4.94,2.06,6.45-1.57,8.13-4.92
		C55.17,546.79,56.09,548.94,55.66,551.99z"/>
	<path class="st12" d="M534.9,276.4c-3.42-0.91-7.2,1.81-10.43-1.03c-1-0.92-0.16-1.29,0.5-1.72c0.28-2.06,1.4-3.13,3.53-3.13
		c1.83,0,3.45-0.56,4.65-2.05C534.33,270.99,534.68,273.68,534.9,276.4z"/>
	<path class="st13" d="M12.92,428.26c-1.35,1.65-3.01,2.71-5.13,3.28c-1.57,0.42-3.64,0.59-3.94,2.92c-1.01-2.29-1.04-4.7-0.89-7.13
		c3.2,0.19,5.69-2.69,8.99-2.1c0.79,0.41,1.16,1.12,1.4,1.94C13.37,427.6,13.23,427.96,12.92,428.26z"/>
	<path class="st14" d="M459.09,117.78c0.03,0.29,0.04,0.58,0.01,0.87c-4.69,3.46-10.59,3.13-15.77,5.09
		c-9.88,2.43-19.76,4.88-29.67,7.21c-27.94,6.78-55.72,14.19-83.72,20.74c-8.65,1.91-17.17,4.34-25.79,6.38
		c-69.58,17.4-139.24,34.5-208.83,51.85c-4.36,0.63-8.44,2.81-12.99,2.4c-3.74-3.49-6.21-8.05-9.76-11.72
		c-5.89-6.08-12.3-11.49-19.5-15.94c-1.26-0.78-2.65-1.42-3.13-3.01c4.68-11.94,10.8-23.16,17.11-34.28
		c16.54-29.1,36.81-55.29,61.49-77.92c31.89-29.25,68.5-49.66,111.41-57.05c37.49-6.45,73.99-1.91,109.05,13.13
		c45.09,19.35,79.8,51.23,108.46,90.39C457.95,116.58,458.54,117.16,459.09,117.78z"/>
	<path class="st15" d="M329.76,150.51c27.96-6.91,55.77-14.41,83.89-20.65c2.73,0.75,4.36,2.95,6.18,4.83
		c13.08,13.51,29.29,19.26,47.77,19.74c4.87,0.13,9.94-1.31,14.59,1.33c18.39,33.54,31.22,69.17,39.98,106.34
		c0.91,3.86,1.86,7.7,2.79,11.55c-0.17,0.57-0.34,1.15-0.5,1.72c-0.19,0-0.34,0.09-0.44,0.27c-0.99,1.17-2.23,1.94-3.7,2.37
		c-15.37,4.48-30.66,9.2-46.06,13.55c-0.63,0.18-1.3,0.22-1.96,0.26c-6.82-0.3-13.6,0.65-20.31,1.34
		c-28.98,2.97-54.28-17.45-61.73-41.97c-8-26.32,5.51-53.54,30.61-61.55c8.81-2.81,17.9-3.2,27.04-1.61
		c1.32,2.44,3.73,3.6,5.92,5.04c9.37,6.17,15.56,14.29,16.18,25.97c0.51,9.51-2.71,17.3-10.48,22.9c-6.6,4.75-15.6,3.99-21.53-1.54
		c-4.89-4.56-4.1-9.95,2.04-12.55c2.81-1.19,5.96-1.85,5.84-5.72c-0.13-4.03-2.96-6.27-6.27-7.63c-6.04-2.49-11.67-1.68-16.57,2.93
		c-10.15,9.53-10.93,23.47-2.73,34.68c17.92,24.51,48.14,15.24,60.69,0.18c7.76-9.31,11.1-19.81,11.34-31.62
		c1.49-9.44-1.98-17.8-6.4-25.6c-9.98-17.6-25.02-28.3-45.37-30.12c-26.63-2.39-47.89,8.08-62.5,30.1
		c-15.31,23.07-15.87,48.05-5.1,73.26c3.87,9.06,10.52,16.48,16.2,24.45c4.35,6.12,7.53,12.87,9.73,20.07
		c-0.19,0.46-0.39,1.02-0.85,1.16c-7.62,2.38-14.9,6.07-23.16,6c-1.52-0.95-1.97-2.6-2.69-4.09
		c-11.45-23.72-37.81-32.01-61.24-19.95c-20.68,10.64-30.07,28.67-29.58,51.89c-0.96,1.87-2.91,2.02-4.59,2.52
		c-7.09,2.1-14.13,4.36-21.26,6.33c-5.05,1.41-10.05,2.99-15.08,4.47c-1.7,0.5-3.38,1.41-5.21,0.44c-0.46-3.7,2.49-5.65,4.46-7.83
		c6.46-7.16,10.33-15.69,11.94-24.9c4.43-25.21-2.53-46.82-22.34-63.51c-15.24-12.83-32.92-17.43-52.8-15.82
		c-22.14,1.79-38.54,13.02-52.4,29.22c-4.21,4.92-8.5,9.77-12.84,14.58c-17.4,19.3-48.43,22.68-70.64,10.59
		c-8-4.35-14.31-10.78-19.35-18.36c-2.03-3.06-2.26-6.5-1.35-10.02c2.75-11.67,5.5-23.34,8.25-35c1.72-4.23,3.03-8.57,3.72-13.1
		c-0.16-1.74,0.57-3.03,2-3.97c2.92-2.92,6.95-2.88,10.56-3.84c4.3-1.14,8.52-2.72,13.05-2.84c12.07,1.9,20.98,7.99,25.35,19.72
		c3.56,9.56-0.02,19.71-8.26,24.26c-2.38,1.31-4.9,2.01-7.62,2.01c-6.64-0.01-9.78-4.53-7.23-10.62c1.19-2.84,2.71-5.6-0.22-8.17
		c-3.19-2.79-6.71-2.45-10.2-0.58c-9.9,5.32-12.23,19.13-4.93,29.06c8,10.87,19.31,13.2,31.52,10.93
		c15.23-2.83,24.28-13.17,28.45-27.6c4.22-14.59,0.87-28.23-6.9-40.96c-1.17-1.92-3.23-3.47-2.74-6.14
		c28.86-7.19,57.71-14.4,86.58-21.55c40.89-10.13,81.8-20.22,122.69-30.33c13.81,10.4,20.85,24.47,20.8,41.56
		c-0.04,12.74-4.4,24.31-13.37,33.77c-1.72,0.25-2.96,1.29-4.23,2.42c-15.02,13.37-39.92,11.29-52.62-4.36
		c-7.57-9.32-7.31-23.68,0.59-32.72c4.11-4.71,12.51-6.88,18.33-4.61c3.01,1.17,4.76,3.57,5.45,6.67c0.71,3.21-0.92,5.25-3.41,7.11
		c-4.56,3.39-3.78,7.97,1.55,10.17c7.82,3.21,17.2-2,19.99-11.54c2.65-9.07,1.12-17.5-5.48-24.57c-7.18-7.69-15.52-12.46-26.56-9.92
		c-2.25,0.52-4.41,1.54-6.8,1.34c-3.8-1.13-6.77,1.22-9.71,2.77c-15.12,7.96-23.8,26.13-21.79,43.23
		c3.92,33.41,35.6,52.61,66.14,47.31c25.42-4.41,41.9-19.66,50.25-43.71c8.04-23.15,5.3-45.14-8.52-65.6
		C333.19,154.06,331.22,152.53,329.76,150.51z"/>
	<path class="st16" d="M57.93,217.8c-8.01,1.89-16.03,3.79-24.04,5.68c3.76-14.56,9.46-28.37,16.05-41.85
		c12.12,6.2,21.72,15.33,30.08,25.9c0.91,1.16,1.68,2.46,1.74,4.03c-0.45,1.46-1.66,2.04-2.96,2.37
		C71.93,215.68,65.15,217.96,57.93,217.8z"/>
	<path class="st17" d="M500.17,535.07c-11.86,19.77-25.83,37.86-42.46,53.84c-2.63,2.52-5.53,4.76-8.31,7.12
		c-7.09,4.95-15.63,6.32-23.46,9.43c-22.77,9.04-46.71,13.62-70.68,18.16c-36.84,6.98-74.04,8.86-111.38,7.64
		c-21.69-0.71-43.31-3.24-64.59-7.83c-9.05-1.95-18.36-2.91-27.01-6.55c-2.05-2.28,0.11-2.65,1.54-3.07
		c4.57-1.33,9.14-2.64,13.71-3.93c1.61-0.45,3.23-0.78,3.71-2.74c5.33-2.34,10.99-3.46,16.63-4.67c2.01,1.38,4.09,0.82,6.17,0.23
		c10.16-2.88,20.29-5.85,30.54-8.35c2.82-0.69,4.77-2.9,7.49-3.66c4.35,1.63,8.34-1.38,12.59-1.03c14.45-0.09,28.91,0.4,43.33-0.17
		c20.89-0.83,41.64-3.17,62.25-6.96c24.04-4.43,47.67-10.38,70.93-17.86c25.16-8.09,49.72-17.72,73.39-29.54
		C498,533.43,497.99,533.41,500.17,535.07z"/>
	<path class="st18" d="M151.5,615.95c8.7,1.87,17.4,3.76,26.1,5.62c18.29,3.92,36.81,5.93,55.43,7.52
		c14.08,1.2,28.14,1.05,42.2,0.88c26.31-0.31,52.39-3.02,78.33-7.57c19.87-3.49,39.56-7.69,58.83-13.56
		c12.47-3.8,24.43-9.22,37.01-12.8c-6.31,6.86-13.95,12.16-21.44,17.52c-12.54,8.97-25.93,16.62-39.9,23.17
		c-23.32,10.94-47.7,18.32-73.18,22.36c-13.25,2.1-26.58,3.21-39.87,3.52c-13.97,0.32-28.03-0.94-41.95-2.89
		c-13.25-1.85-26.27-4.84-39.04-8.75c-13.42-4.11-26.59-8.88-39.18-15.22c-8.58-4.31-17.19-8.51-25.24-13.79
		c0.04-2.42,2.14-2.06,3.52-2.51c4.01-1.33,8.15-2.21,12.21-3.4C147.39,615.62,149.43,614.33,151.5,615.95z"/>
	<path class="st19" d="M533.2,405.47c-1.29,36.31-6.32,71.86-21.28,105.4c-0.33,0.73-0.43,1.57-0.63,2.36
		c-1.2,1.25-1.18,3.39-3.03,4.17c-0.94,1.21-2.13,2.06-3.62,2.47c-15.63,4.23-31.11,8.98-46.92,12.53
		c-8.1-0.53-14.01-5.78-20.05-10.15c-17.97-13-29.04-30.6-32.62-52.64c-1.34-8.22-1.49-16.49,0.67-24.66
		c0.21-0.5,0.51-0.94,0.9-1.31c6.42-2.81,12.81-5.75,20.08-5.48c0.89,1.43,0.38,2.89,0.1,4.35c-4.88,25.88,13.22,49.48,39.36,50.15
		c15.86,0.41,28.35-7.36,37.51-20.11c11.74-16.33,13.41-34.2,7.16-53.06c-0.77-2.33-2.19-4.56-1.06-7.17
		c5.74-3.7,12.55-4.5,18.76-6.91c1.5-0.24,3-0.81,4.5,0.02L533.2,405.47z"/>
	<path class="st18" d="M457.43,531.23c16.94-4.61,33.88-9.22,50.82-13.83c0.45,4.23-2.92,6.85-4.34,10.28
		c-1.06,2.54-2.48,4.94-3.74,7.4c-0.74-1.18-1.62-0.73-2.54-0.24c-35.59,18.82-73.44,31.63-112.25,41.64
		c-23.68,6.11-47.78,10.24-72.18,12.68c-22.99,2.29-45.99,1.91-69.01,1.83c0.11-2.7,2.4-2.74,4.16-3.31c1.87-0.61,3.82-1,5.7-1.6
		c6-1.63,12.01-3.21,17.92-5.12c6.32-1.29,12.46-3.27,18.72-4.78c2.67-0.83,5.4-1.45,8.06-2.31c4.69-1.28,9.35-2.65,14.01-4.04
		c8.59-2.3,17.2-4.53,25.75-6.98c8.33-2.34,16.65-4.69,25.06-6.74c7.18-2.25,14.5-3.98,21.69-6.18c3.46-1.05,7.03-1.72,10.47-2.86
		c14.76-4.06,29.55-7.99,44.25-12.26C445.76,533.48,451.4,531.41,457.43,531.23z"/>
	<path class="st20" d="M145.62,617.14c-5.34,1.6-10.68,3.21-16.02,4.81c-0.68-0.33-1.36-0.65-2.05-0.98
		c-8.91-6.73-18.65-12.33-26.85-20.02c-6.99-19.88-3.11-38.17,8.36-55.19c3.4-5.05,7.09-10.01,12.72-12.97
		c0.07-0.04-0.36-0.78-0.4-1.26c1.08-2.01,3.17-2.13,5.01-2.72c6.24-1.97,12.57-3.68,18.76-5.83c6.88-1.28,13.11-5.02,20.24-5.35
		c5.01,1.68,10.25,2.39,15.25,4.27c19.33,7.29,29.73,21.45,30.61,41.74c0.68,15.67-6.09,28.62-18.83,38.11
		c-1.16,0.87-2.4,1.85-4.07,1.28c-5.43,2.43-11.32,3.26-16.96,4.95c-3.71,2.36-7.77,1.7-11.52,0.69
		c-15.55-4.18-25.77-16.44-27.44-32.4c-1.37-13.06,7.47-25.51,19.71-27.73c2.28-0.41,4.9-1.26,6.33,1.24
		c1.63,2.84-1.17,4.09-2.78,5.57c-7.64,7-9.27,12.13-5.68,20.17c2.69,6.04,7.48,9.74,14.24,10.11c10.1,0.55,21.4-8.81,22.57-18.83
		c1.5-12.9-2.69-23.52-13.3-31.36c-11.06-8.17-22.7-7.66-34.21-1.62c-19.46,10.22-27.2,30.83-20,51.7
		c3.38,9.79,8.94,18.08,16.34,25.27C138.59,613.63,142.49,614.74,145.62,617.14z"/>
	<path class="st21" d="M19.92,275.56c-0.26,10.8,7.61,16.62,14.56,22.51c20.1,17.04,56.53,15.31,75.27-4.93
		c7.55-8.16,14.15-17.15,22.36-24.73c12.43-11.47,26.57-18.42,43.72-20.06c24.7-2.36,45.1,5.33,61.97,23.28
		c19.1,20.32,22.12,55.58,6.46,78.43c-2.7,3.95-6.07,7.43-9.13,11.14c-3.29,3.93-8.39,3.58-12.6,5.34
		c-4.06,0.74-7.79,2.98-12.08,2.63c-0.77-0.29-1.33-0.76-1.43-1.64c0.85-2.3,3.08-2.89,4.94-3.89c14.7-7.88,23.62-19.94,24.68-36.7
		c0.78-12.43-3.8-23.47-12.11-32.8c-2.54-2.85-5.34-5.46-8.37-7.81c-10.52-6.19-21.24-11.34-33.94-11.56
		c-19.91-0.35-40.25,11.59-48.46,34.08c-5.54,15.18-6.03,30.49,0.07,45.76c2.9,7.25,5.48,14.64,7.65,22.15
		c1.11,3.83,2.2,7.72,0.58,11.72c-7.38,4.77-15.72,6.51-24.23,7.71c-2.63-0.95-2.42-3.37-2.61-5.43
		c-0.96-10.25-3.45-19.95-9.55-28.46c-10.42-14.53-24.5-22.89-42.15-25.56c-16.15-2.44-32.02-5.8-45.23-16.48
		c-2.45-1.98-5.22-3.59-6.32-6.81C14.98,300.66,17.26,288.08,19.92,275.56z"/>
	<path class="st22" d="M13.96,313.44c11.11,9.83,23.56,17.05,38.35,19.64c8.77,1.53,17.69,2.44,26.13,5.4
		c18.94,6.64,37.31,24.23,39.35,47.39c0.28,3.18,0.03,6.63,1.73,9.63c-0.21,2.26-2.24,2.09-3.64,2.62
		c-4.3,1.62-8.81,2.58-13.13,4.11c-3.01,0.66-5.86,2.5-9.14,1.35c-1.35-1.66-0.56-3.49-0.39-5.27c1.71-17.97-7.89-31.6-25.27-36.58
		c-12.69-3.63-24.19-1.31-35.12,5.61c-3.76,2.38-5.36,6.76-8.98,9.2c-1.95-0.08-2.76,1.36-3.7,2.73c-2.8,4.09-4.68,8.6-6.4,13.22
		c-0.53,1.43-0.46,3.31-2.42,3.89c-1.59-1.05-0.23-2.88-1.18-4.03c-0.95-25.59,0.52-51.09,3.09-76.54
		C13.33,315.01,13.72,314.23,13.96,313.44z"/>
	<path class="st23" d="M10.16,392.35c0.45,0.99,0.91,1.98,1.44,3.15c1.82-6.81,4.7-12.97,8.66-18.6c0.96-1.36,1-1.33,2.68-0.56
		c0.7,1.35,0.09,2.58-0.4,3.79c-5.25,12.91-4.27,25.44,2.15,37.69c0.91,1.73,2,3.45,1.8,5.57c-3.81,3.69-8.41,4.71-13.52,4
		c-0.34-0.72-0.67-1.43-1.01-2.15c-0.63-9.15-1.29-18.31-1.87-27.46C9.96,395.97,10.12,394.16,10.16,392.35z"/>
	<path class="st24" d="M482.2,155.77c-12.68,0.01-25.36,0.6-37.66-3.8c-12.46-4.45-22.74-11.71-30.88-22.1
		c9.78-2.87,19.66-5.37,29.68-7.26c5.29,0.8,9.22,4.88,14.53,5.91c3.17,0.62,6.68,0.21,9.52,2.27
		C472.85,138.8,477.82,147.11,482.2,155.77z"/>
	<path class="st25" d="M467.38,130.79c-9.06,0.36-17-2.58-24.05-8.18c5.12-1.86,10.39-3.13,15.76-3.96c2.7,3.7,5.41,7.39,8.11,11.09
		C467.27,130.09,467.32,130.44,467.38,130.79z"/>
	<path class="st26" d="M533.02,405.4c-1.27,0.61-2.53,1.25-4.01,0.8c-3.04-1.59-4.88-4.46-7.07-6.9
		c-16.92-18.87-37.63-31.04-62.83-34.19c-37.52-4.69-70.2,15.96-82.65,49.88c-4.83,13.17-6.47,26.66-6.16,40.53
		c-0.93,1.89-2.87,2.09-4.56,2.63c-14.65,4.62-29.36,9.01-44,13.65c-2.02,0.64-4.09,1.45-6.27,0.55
		c-3.19-4.77-3.19-10.42-3.74-15.73c-2.18-21.08-1.87-42.1,2.29-63c3.89-19.54,10.11-38.2,19.27-55.88
		c1.07-2.06,2.25-4.08,2.88-6.34c1.58-2.96,4.76-2.63,7.33-3.5c2.35-0.8,4.72-1.56,7.09-2.29c7.15-1.73,14.05-4.33,21.16-6.19
		c1.01-0.22,2-0.06,3,0.13c8.09-1.8,15.98-4.31,23.82-6.96c0.72-1.26,1.99-1.73,3.24-2.1c17.08-5.09,34.09-10.44,51.31-15.04
		c0.8-0.21,1.62-0.3,2.45-0.35c24-3.03,46.95,0.6,68.83,10.93c1.78,0.84,3.78,1.43,4.61,3.53l-0.01-0.05
		c1.66,4.16,1.32,8.63,1.98,12.94c0.06,0.69,0.11,1.38,0.17,2.07c0.07,0.15,0.2,0.29,0.21,0.45c0.84,8.56,0.78,8.63-7.73,8.92
		c-0.98,0.03-2-0.13-3.25,0.7c1.73,2.31,4.27,3.61,6.53,5.01c4.02,2.5,6.4,6.12,6.45,10.56c0.19,16.05,0.75,32.12-0.28,48.17
		C533.08,400.68,533.05,403.04,533.02,405.4z"/>
	<path class="st27" d="M529.03,309.55c-23.48-11.62-48.17-16.39-74.27-13.11c2.55-4.08,7.2-3.36,10.92-4.74
		c2.13-0.79,4.56-0.3,6.71-1.21c16.57-4.82,33.15-9.64,49.73-14.45c0.62-0.18,1.28-0.27,1.91-0.4c1.5,9.52,2.95,19.05,4.55,28.55
		C528.89,305.99,529.19,307.74,529.03,309.55z"/>
	<path class="st27" d="M533.11,398.32c-0.02-14.08-0.36-28.18,0.06-42.25c0.22-7.64-2.24-13.1-9.02-16.58
		c-0.73-0.37-1.39-0.9-2-1.45c-1.7-1.54-5.63-1.81-4.89-4.47c0.6-2.16,4.14-1.06,6.36-1.17c7.25-0.37,7.26-0.28,7.55-7.89
		c1.07,0.85,0.84,2.08,0.92,3.21c1.61,23.49,2.73,46.99,1.98,70.55C533.75,398.31,533.43,398.32,533.11,398.32z"/>
	<path class="st27" d="M531,322.45c-1.4-4.2-1.33-8.63-1.98-12.94C531.67,313.51,531.06,318.02,531,322.45z"/>
	<path class="st26" d="M93.73,403.21c2.87-0.65,5.74-1.31,8.6-1.96c6.43-0.13,11.47,3.3,16.14,6.95c21.33,16.71,26.64,45.97,13,69.6
		c-4.75,8.24-9.63,16.31-16.85,22.71c-4.35,3.86-9.14,6.59-15.07,6.9c-4.73,0.25-8.6-1.53-10.92-5.62
		c-2.26-3.98-1.59-8.18,1.03-11.77c4.7-6.43,10.3-12.15,14.66-18.87c5.74-8.85,9.3-17.99,5.51-28.68
		c-5.95-16.81-27.29-21.72-39.85-8.96c-7.86,8-12.72,17.88-15.9,28.49c-6.02,20.08-2.31,38.46,10.51,55
		c7.78,10.05,18.52,15.34,30.34,18.88c1.74,0.52,3.62,0.67,4.9,2.2c0.04,1.74-1.35,2.23-2.56,2.59
		c-12.87,3.8-25.61,8.04-38.57,11.54c-0.81,0.22-1.64,0.19-2.46-0.03c-0.2-0.06-0.41-0.12-0.61-0.19c-0.83-2.21-1.91-4.25-3.81-5.74
		c-9.7-16.09-18.6-32.59-24.64-50.46c-1.97-5.81-3.6-11.74-5.39-17.62c-1.73-10.18,2.07-19.24,5.73-28.32
		c5.23-12.96,12.97-24.25,22.74-34.19c2.15-1.62,4.81-1.9,7.24-2.78c10.16-2.94,20.23-6.18,30.42-8.99
		C89.82,403.37,91.69,402.39,93.73,403.21z"/>
	<path class="st27" d="M50.92,416.4c-9.69,11.02-18.27,22.74-23.42,36.69c-3,8.13-5.35,16.37-5.68,25.09
		c-4.37-13.7-5.85-27.94-7.82-42.08c-0.36-2.61-0.71-5.22-1.07-7.83c0.05-0.29,0.06-0.58,0.04-0.88c4.35-1.37,8.69-2.73,13.04-4.1
		c3.04-2.76,7.13-2.79,10.7-4.18C41.45,418.24,45.72,414.85,50.92,416.4z"/>
	<path class="st19" d="M56.26,552.18c12.58-4.84,25.66-8.03,38.5-12.05c1.68-0.53,3.59-0.53,4.92-1.96
		c6.83-3.71,13.91-6.57,21.89-6.17c1.78,0.34,1.19,0.76,0.21,1.63c-7.26,6.42-13.31,13.76-17.36,22.68
		c-6.09,13.43-7.66,27.22-3.7,41.53c0.29,1.03,1.34,2.09-0.01,3.12c-13.84-11.35-26.14-24.2-37.14-38.32
		c-1.21-1.55-2.5-3.04-3.75-4.56C58.64,556.12,57.45,554.15,56.26,552.18z"/>
	<path class="st21" d="M310.98,231.65c16.5-20.26,17.13-49.73-1.48-68.01c-2.06-2.02-4.91-3.54-5.52-6.79
		c8.59-2.11,17.18-4.22,25.77-6.32c1.95,0.08,3.19,0.97,4.42,2.63c14.24,19.12,17.76,40.56,12.25,63.21
		c-3.97,16.33-12.7,30.5-26.98,39.9c-20.94,13.78-43.37,15.99-65.73,3.89c-23.35-12.63-33.96-37.39-25.93-62.94
		c4.24-13.48,14.61-22.18,27.86-27.15c1.39-0.52,2.26-0.08,2.32,1.53c-1.02,2.07-3.13,2.92-4.83,4.19
		c-17.63,13.22-22.81,34.94-11.8,53.99c6.92,11.97,17.6,19.05,32.08,19.59c13.73,0.51,24.98-4.04,33.67-14.8
		C308.1,233.29,309.14,231.87,310.98,231.65z"/>
	<path class="st28" d="M57.93,217.8c7.94-2.08,15.88-4.15,23.82-6.23c4.32-0.95,8.64-1.9,12.97-2.85
		c8.2,9.95,12.47,21.53,12.8,34.26c0.63,23.87-18.88,46.76-44.94,41.84c-11.4-2.16-19.38-7.75-22.68-18.67
		c-3.32-10.96-0.21-19.49,10.1-24.57c3.89-1.92,7.76-1.55,11,1.66c3.15,3.13,1.84,6.09-0.09,9.38c-2.7,4.6-0.2,8.7,5.13,8.93
		c11.37,0.51,19.62-11.05,16.14-22.98c-3.23-11.04-11.01-17.33-21.98-19.99C59.43,218.4,58.69,218.07,57.93,217.8z"/>
	<path class="st27" d="M337.2,331.17c1.35,1.67-0.21,2.84-0.86,4c-11.65,20.76-18.7,43.11-22.32,66.52
		c-3.63,23.47-3.11,46.96,1.7,70.28c-0.42,1.2-1.37,2-2.49,2.23c-6.19,1.29-11.77,5.37-18.52,4.13c-1.62-3.02-1.86-6.37-2.02-9.66
		c-1.23-25.13-0.07-50.12,5.12-74.81c1.36-6.48,3.99-12.59,6.03-18.98c-13.96,19.44-23.77,40.62-28.55,64.06
		c-0.36,1.78-0.63,4.09-2.78,4.23c-2.24,0.14-2.66-2.2-3.08-3.92c-1.42-5.81-3.03-11.57-4.75-17.3
		c-2.55-8.47-5.98-16.57-10.05-24.39c-4.07-7.82-8.98-15.14-13.84-22.27c1.67,4.32,3.09,8.91,4.55,13.48
		c1.47,4.59,2.43,9.33,3.07,14.11c0.66,4.94,1.47,9.86,2.05,14.81c2.42,20.86,2.97,41.73-0.07,62.57c-0.67,4.57-0.86,9.3-3.6,13.33
		c-7.51,4.46-16.06,5.86-24.3,8.16c-0.96,0.27-1.98,0.03-2.66-0.89c-0.83-2.62,0.41-4.92,1.26-7.21
		c6.04-16.37,8.52-33.37,9.81-50.71c1.8-24.23-1.82-47.67-8.73-70.76c-0.66-2.2-1.72-4.42-0.15-6.68c4.36-1.45,8.73-2.89,13.09-4.34
		c6.64-1.85,13.29-3.7,19.93-5.54c3.48,1,4.21,4.51,6.11,6.91c3.09,3.9,5.59,8.23,8.39,12.35c1.28,1.88,2.58,2.82,3.86,0.05
		c5.05-10.88,12.57-20.29,18.26-30.79c0.7-0.73,1.56-1.21,2.48-1.62c3.83-1.34,7.79-2.21,11.61-3.59c8.75-2.58,17.5-5.11,26.21-7.8
		C333.69,330.63,335.46,329.89,337.2,331.17z"/>
	<path class="st21" d="M472.4,290.49c-5.88,1.98-11.75,3.97-17.63,5.95c-17.61,5.11-35.21,10.22-52.82,15.32
		c-1.11,0.32-2.24,0.56-3.36,0.83c-3.37-3.01-3.83-7.56-5.81-11.31c-3.04-5.78-6.86-10.91-10.8-16
		c-15.93-20.57-21.06-43.49-14.72-68.77c7.45-29.69,27.19-46.64,56.45-52.55c25.94-5.24,53.17,8.85,64.88,32.72
		c2.9,5.92,4.91,12.25,5.52,18.89c0.16,1.73,0.72,3.69-0.93,5.16c-2.17-0.1-2.44-1.92-3-3.41c-6.31-16.73-18.83-25.2-36.14-27.32
		c-1.92-0.24-4.01,0.26-5.61-1.34c-12.09-0.09-24.19-0.63-35.32,5.67c-13.74,7.78-21.52,19.89-23.22,35.07
		c-3.07,27.47,12.85,48.38,36.06,58.76c11.89,5.32,24.58,3.98,37.06,2.83C466.14,290.7,469.26,290.64,472.4,290.49z"/>
	<path class="st28" d="M448.41,188.67c18.73-0.21,32.82,7.52,41.69,24.33c1.31,2.49,0.89,5.62,3.06,7.74
		c1.97,23.76-16.65,44.78-39.27,47.61c-13.57,1.69-24.85-3-33.44-14.16c-8.22-10.68-9.54-20.67-3.35-31.78
		c6.62-11.88,20.31-14.35,28.45-5.13c3.95,4.47,2.22,10.25-3.61,11.25c-3.3,0.56-4.87,2.58-6.01,5.23
		c-1.27,2.94,1.37,4.18,2.91,5.69c5.34,5.23,13.28,5.75,19.58,1.74c13.46-8.58,12.93-28.49,3.93-38.99
		c-3.79-4.42-8.16-8.29-13.64-10.49C446.1,190.64,447.41,189.78,448.41,188.67z"/>
	<path class="st28" d="M310.98,231.65c-6.06,8.72-13.8,15.2-24.27,17.87c-31.73,8.1-56.34-19.32-51.82-45.88
		c2.48-14.54,9.78-25.42,23.07-32.07c17.68-7.6,31,1.08,38.19,13.21c6.32,10.66,4.99,23.97-6.21,32.21c-4.72,3.47-13.12,2.89-17-1
		c-3.32-3.33-2.77-8.26,1.44-10.23c2.65-1.24,4.16-2.89,3.48-5.73c-0.76-3.19-2.45-5.84-6.1-6.37
		c-12.83-1.88-23.92,10.06-21.2,22.79c3.22,15.11,12.5,23.3,28.26,25.18c10.93,1.3,20.46-1.54,28.62-9
		C308.38,231.8,309.19,229.73,310.98,231.65z"/>
	<path class="st23" d="M293.9,343.62c-0.65,0.35-1.31,0.7-1.96,1.04c-3.19,2.68-6.7,4.15-10.93,2.9
		c-2.52-8.24-0.21-16.06,2.85-23.46c7.58-18.31,20.82-30.53,40.6-34.19c21.69-4.01,43.82,8.29,50.3,29.63
		c-0.63,0.23-1.27,0.45-1.9,0.68c-2.16-1.13-3.28-3.21-4.6-5.11c-9.49-13.58-25.7-19.7-42.35-16.02
		c-15.61,3.45-27.61,16.35-30.57,32.39C294.6,335.53,295.2,339.68,293.9,343.62z"/>
	<path class="st26" d="M281.01,347.56c3.64-0.97,7.29-1.94,10.93-2.9c0.42,3.63-2.58,5.57-4.14,8.18
		c-4.74,7.94-10.13,15.5-13.95,23.96c-1.46,3.22-2.8,2.58-4.4,0.19c-4.78-7.12-9.59-14.23-14.39-21.35
		C263.7,352.95,272.35,350.26,281.01,347.56z"/>
	<path class="st19" d="M220.25,501.14c8.66-2.63,17.32-5.26,25.98-7.88c5.93-4.27,13.2-4.91,19.86-7.19
		c7.78-2.66,15.69-4.96,23.58-7.32c1.74-0.52,3.47-1.08,5.32-0.61c6.92-2.06,13.83-4.12,20.75-6.18
		c17.99-5.55,35.98-11.09,53.97-16.64c2.56-2.18,5.38-3.45,8.82-2.55c2.11,2.02,2.2,4.7,2.39,7.35
		c1.75,23.56,11.91,42.81,29.67,58.16c7.75,6.7,16.62,11.42,26.24,14.84c1.4,0.5,3.46,0.5,3.46,2.85
		c-14.8,4.38-29.59,8.78-44.67,12.1c-2.7-4.04-3.25-8.97-5.54-13.22c-8.38-15.56-20.95-25.89-37.81-30.94
		c-18.6-5.58-36.81-4.73-53.84,5.04c-14.7,8.43-25.11,20.83-28.39,37.77c-2.01,10.36-2.63,21.09,1.48,31.38
		c0.48,1.21,1.12,2.45,0.41,3.81c-5.63,2.78-11.74,3.91-17.81,5.19c-1.92-3.23-0.33-6.5,0.11-9.66c1.29-9.39,0.28-18.55-2.04-27.63
		c-0.35-1.38-0.58-2.92-2.21-4.25c-0.85,2.86-1.08,5.6-1.49,8.3c-1.85,11.95-5.78,23.17-12.07,33.51c-0.98,1.6-1.66,3.76-4.19,3.68
		c-1.69,2.39-4.03,3.67-6.83,4.42c-11.07,2.98-22.09,6.1-33.18,9.01c-1.27,0.33-3.86,2.38-3.86-1.45
		c13.68-8.74,21.58-21.33,21.66-37.47c0.08-17.96-8.06-33.15-27.07-41.33c-4.81-2.07-9.73-4.23-15.2-4.22
		c-1.04,0-1.79-0.79-2.33-1.69c0.56-1.35,1.76-1.97,3.01-2.33c8.33-2.46,16.56-5.26,24.93-7.59c0.79-0.22,1.62-0.18,2.43-0.02
		c5.19,2.94,9.67,6.94,14.88,9.9c9.4,5.36,19.59,7.98,30.17,9.44c0.81,0.11,1.67,0.09,2.47-0.74c-0.97-1.93-3.05-2.33-4.71-3.23
		c-7.78-4.2-14.94-9.27-21.34-15.38c-1.5-1.43-3.48-2.72-3.22-5.3C215.73,501.18,217.86,500.76,220.25,501.14z"/>
	<path class="st19" d="M145.62,617.14c-7.56-0.27-11.82-5.85-15.95-10.83c-9.33-11.26-14.87-23.96-14.21-39.2
		c0.72-16.62,15.94-34.28,32.17-38.15c22.8-5.43,43.72,14.33,40.62,37.61c-1.38,10.36-8.32,16.26-17.72,19.54
		c-7.68,2.68-14.25,0.34-19.09-5.77c-6.53-8.24-7.05-17.75,3.62-26.36c1.16-0.94,3.73-1.28,2.82-3.45c-0.92-2.17-3-1.03-4.81-0.87
		c-14.48,1.22-20.87,18.28-19.02,28.96c2.72,15.68,12.41,24.31,26.45,29.03c3.3,1.11,7.24,0.27,10.89,0.33
		c2.98,1.17,1.42,1.75-0.31,2.22c-5.81,1.61-11.64,3.18-17.45,4.8c-0.75,0.21-1.44,0.63-2.15,0.95
		C149.54,616.35,147.58,616.75,145.62,617.14z"/>
	<path class="st29" d="M232.23,591.04c8.35-11.28,12.86-24.08,14.93-37.84c0.39-2.61,0.7-5.24,0.98-7.86
		c0.13-1.21,0.3-2.53,1.62-2.77c1.75-0.31,1.95,1.18,2.42,2.48c4.95,13.83,4.84,27.87,1.95,42.05c-2.99,2.13-7.22,1.06-9.93,3.89
		c-2.74,0.53-5.49,1.02-8.21,1.61C234.32,592.96,232.63,593.63,232.23,591.04z"/>
	<path class="st27" d="M378.68,453.16c-2.99,0.72-5.99,1.44-8.98,2.17c-1.85-12.25,0.19-24.13,3.8-35.76
		c7.9-25.41,24.17-43.12,49.26-52.18c15.03-5.43,30.54-5.56,45.96-1.94c24.28,5.69,43.5,19.44,59.16,38.55
		c0.51,0.62,0.76,1.46,1.13,2.2c-5.98,3-12.64,3.98-18.82,6.39c-2.88,3.4-7.42,2.78-10.96,4.59c-1.97,0.58-3.91,1.43-6.04,0.7
		c-6.22-4.39-12.13-9.17-19.31-12.17c-31.23-13.05-58.48,6.21-64.01,32.07c-0.52,2.45-0.86,4.97-3.28,6.44l0.03,0.16
		c-0.72,0.93-1.53,1.69-2.71,2.07c-7.09,2.26-14.26,4.26-21.33,6.6C381.32,453.48,379.99,453.56,378.68,453.16z"/>
	<path class="st20" d="M499.13,416.14c3.69-1.18,7.37-2.36,11.06-3.55c1.64,7.22,4.47,14.07,5.18,21.62
		c1.12,11.97-1.1,23.07-6.93,33.38c-8.82,15.58-21.93,25.73-40.06,26.37c-28.27,0.99-50.78-26.48-41.94-55.56
		c3-4,7.99-3.27,11.91-5.07c8.84-2.84,17.72-5.55,26.58-8.33c5.31-0.81,9.96-4.26,15.55-3.94c6.36,5.8,7.87,13.19,6.97,21.36
		c-0.21,1.88-0.64,3.82-2.86,4.15c-2.22,0.33-3.12-1.52-3.96-3.16c-0.68-1.33-1.12-2.78-1.83-4.1c-3.66-6.86-10.66-10.04-18.02-8.18
		c-7.56,1.91-12.86,8.27-13.05,15.66c-0.35,12.98,11.61,25.54,24.24,26.17c13.96,0.69,23.32-6.1,30.15-17.4
		c7.1-11.76,5.52-23.51-0.48-35.15C500.88,418.95,499.54,417.82,499.13,416.14z"/>
	<path class="st20" d="M378.68,453.16c9.31-2.92,18.63-5.84,27.94-8.76c-1.42,10.38-1.69,20.67,0.86,31
		c4.23,17.16,13.23,31.17,26.59,42.54c5.32,4.52,11.43,7.81,17.27,11.53c1.89,1.21,3.89,1.77,6.09,1.75
		c-5.6,1.99-11.32,3.56-17.14,4.75c-8.52-3.52-17.21-6.66-24.75-12.21c-21.72-15.97-34.09-37.13-35.93-64.25
		C379.46,457.39,379,455.28,378.68,453.16z"/>
	<path class="st26" d="M438.43,434.31c-4,1.36-7.99,2.73-11.99,4.09c-6.61,1.95-13.23,3.89-19.84,5.84
		c2.4-6.15,3.15-12.79,6.3-18.78c10.14-19.3,31.21-28.94,52.28-23.81c10.85,2.64,20.38,7.43,28.08,15.64
		c-3.42,4.1-7.99,4.77-12.92,4.35c-5.07,1.49-10.14,2.98-15.21,4.47C455.34,425.94,445.93,427,438.43,434.31z"/>
	<path class="st20" d="M271.93,581.9c-4.24-8.56-4.82-17.45-4.14-26.97c0.75-10.45,3.55-19.71,9.46-28.24
		c10.16-14.66,24.1-23.51,41.53-26.41c19.97-3.32,38.61,0.78,54.85,12.98c11.53,8.67,19.74,19.98,22,34.8
		c-3.12,1.79-6.66,2.12-10.06,2.92c-2.11-0.53-3.13-2.31-4.45-3.79c-12.31-13.67-26.99-22.81-46.02-21.67
		c-19.2,1.15-33.84,10.51-42.13,28.01c-3.4,7.17-5.71,15.36-1.94,23.57C284.76,579.16,278.53,581.28,271.93,581.9z"/>
	<path class="st30" d="M291.01,577.11c-2.68-0.25-2.96-2.1-3-4.28c-0.32-18.64,7.9-32.47,23.84-41.64
		c19.35-11.13,38.34-9.14,56.5,2.87c6.74,4.46,12.82,9.91,17.21,16.93c-7.15,2.52-14.48,4.37-21.84,6.12
		c-2.53,1-3.53-0.89-4.66-2.49c-9.36-13.3-22.42-17.98-38.08-15.97c-13.18,1.69-22.99,15.68-21.55,30.16
		c0.21,2.07,1.3,4.24-0.5,6.15C296.28,575.68,293.65,576.39,291.01,577.11z"/>
	<path class="st20" d="M298.92,574.96c-1.2-7.42-1.51-14.63,1.78-21.84c4.19-9.19,13.68-15.55,23.73-16.15
		c13.56-0.81,24.54,3.76,33.61,13.76c1.91,2.11,1.89,6,5.68,6.38c-8.32,2.29-16.64,4.58-24.96,6.86
		c-14.54-7.48-17.27-6.74-25.76,6.95C308.3,572.27,303.61,573.62,298.92,574.96z"/>
	<path class="st31" d="M312.99,570.93c0.49-6.54,4.3-10.69,10.22-12.35c6.12-1.72,11.72-0.31,15.54,5.41
		C330.27,566.68,321.68,569.02,312.99,570.93z"/>
	<path class="st27" d="M121.58,532.01c-7.3,2.06-14.59,4.12-21.89,6.17c-21.57-4.11-37.23-15.72-45.48-36.42
		c-6.72-16.85-5.25-33.51,2.25-49.7c4.4-9.51,9.17-18.87,18.97-24.23c15.89-8.7,36.13,3,37.25,21.11
		c0.74,12.1-5.75,20.79-12.09,29.69c-2.78,3.9-6.23,7.31-9.18,11.09c-2.95,3.79-4.29,8.03-1.19,12.34
		c3.04,4.21,8.06,5.26,13.47,3.57c7.18-2.24,12.38-7.29,16.66-12.93c7.44-9.79,13.65-20.26,16.32-32.66
		c5.3-24.54-9.27-50.37-33.14-57.94c-0.45-0.14-0.81-0.56-1.21-0.85c5.73-1.92,11.47-3.83,17.2-5.75
		c8.17-1.94,16.21-4.32,24.11-7.18c2.63-2.14,5.53-3.32,8.99-2.52c11.95,11.45,18.26,25.96,21.85,41.73
		c5.08,22.31,1.94,43.93-6.74,64.86c-2.61,6.29-5.69,12.37-9.28,18.18c-3.36,5.44-7.35,10.24-12.94,13.53
		C137.54,526.74,129.56,529.37,121.58,532.01z"/>
	<path class="st26" d="M145.52,524.1c14.04-13.59,22.11-30.59,26.61-49.2c7.88-32.6,2.36-62.49-19.85-88.46
		c0.83-2.18,2.9-2.59,4.74-3.16c15.77-4.84,31.63-9.34,47.43-14.06c1.9-0.57,3.85-0.82,5.84-0.64c3.91-1.02,7.82-2.03,11.73-3.05
		c2.34,9.28,5.05,18.49,6.93,27.86c3.12,15.58,4.54,31.3,3.57,47.29c-0.93,15.42-2.95,30.59-7.32,45.4
		c-1.5,5.07-3.3,10.05-4.96,15.07c-1.66,1.54-4.05,1.13-5.89,2.21c-5.47,3.64-11.55,5.37-18.04,5.82
		c-10.3,3.05-20.59,6.1-30.89,9.15C158.79,520.25,152.16,522.17,145.52,524.1z"/>
	<path class="st15" d="M210.3,368.58c-16.22,4.91-32.45,9.8-48.66,14.74c-3.14,0.96-6.24,2.08-9.36,3.12
		c-2.88,0.63-5.76,1.25-8.64,1.88c0.02-12.84-5.96-24-10.05-35.68c-10.57-30.21,2.91-71.64,41.68-78.73
		c10.47-1.91,21.13-0.57,30.87,4.58c4.36,2.3,9.19,3.76,12.97,7.13c-0.44,2.12,1.52,2.8,2.52,3.97
		c13.14,15.49,11.79,39.37-3.05,52.77c-9.54,8.62-22.85,10.31-32.66,4.17c-7.93-4.96-11.46-14.08-8.24-21.25
		c0.9-2.01,2.16-3.74,3.94-5.05c4-2.94,7.82-2.46,10.7,1.64c1.83,2.61,3.66,5.01,7.22,3.74c3.5-1.24,5.01-4.11,5.35-7.71
		c0.95-9.89-6.8-18.18-18-19.01c-18.32-1.34-31,12.02-31.7,30.23c-0.39,10.14,2.29,19.63,9.09,27.75
		c10.74,12.83,24.09,15.39,39.51,10.99c1.79-0.51,3.62-2.04,5.59-0.37C209.71,367.86,210,368.22,210.3,368.58z"/>
	<path class="st28" d="M209.41,367.5c-7.76,2.12-15.31,4.45-23.72,3.29c-14.1-1.94-22.51-10.71-28.15-22.52
		c-6.87-14.39-4.34-33.79,7.39-43.85c10.28-8.82,28.74-10.28,38.42,1.52c4.34,5.29,4.25,15.09-0.56,19.55
		c-3.71,3.44-8.19,2.81-10.7-1.61c-1.25-2.2-2.24-4.6-5.36-4.39c-3.48,0.23-5.71,2.31-7.42,5.15c-5.03,8.34,1.55,17.41,7.64,21.04
		c11.66,6.94,26.8,2.36,35.06-8.87c10.86-14.78,9.79-33.85-2.4-47.53c-0.89-1-3.4-2.05-0.47-3.65
		c20.36,14.96,26.56,39.96,14.86,61.09c-4.26,7.7-10.75,13.35-18.46,17.55C213.49,365.36,211.45,366.42,209.41,367.5z"/>
	<path class="st28" d="M36.97,420.13c-3.56,1.39-7.16,2.64-10.97,3.16c-7.06-11.56-10.16-23.86-6.94-37.34
		c0.81-3.4,2.27-6.53,3.88-9.6c6.72-10.48,16.52-15.77,28.66-17.4c16.99-2.29,38.26,7.88,42.68,26.99
		c1.31,5.64,0.71,11.55-0.55,17.28c-11.99,3.61-23.99,7.23-35.98,10.84c-3.4-1.71-3.33-4.7-2.63-7.73c0.79-3.42,2.61-6.11,6.29-6.99
		c1.3-0.31,2.64-0.18,3.96-0.26c4.87-0.32,6.36-3.68,3.55-7.93c-4.7-7.1-14.46-8.46-22.07-3.07c-8.1,5.73-11.91,15.66-9.83,25.39
		C37.49,415.66,38.74,417.92,36.97,420.13z"/>
	<path class="st28" d="M293.9,343.62c-3.82-20.31,11.94-42.29,33.09-46.15c19.37-3.54,36.39,4.91,45.88,22.76
		c-7.26,2.36-14.47,4.91-21.98,6.39c-3.44-3.99-6.64-8.21-12.05-9.85c-10.03-3.03-22.05,2.09-27.54,11.72
		c-2.14,3.75-3.34,7.91-5.39,11.68C301.89,341.32,297.89,342.47,293.9,343.62z"/>
	<path class="st15" d="M305.89,340.18c1.68-16.64,17.86-29.57,33.25-24.63c5.48,1.76,10.18,4.88,11.73,11.07
		c-4.29,2.35-9.26,2.63-13.68,4.56C326.76,334.18,316.32,337.18,305.89,340.18z"/>
	<path class="st15" d="M36.97,420.13c-0.82-6.31-3.23-12.41-0.93-19.01c3.18-9.14,8.69-15.45,18.43-17.47
		c6.22-1.29,13.45,2.13,16.37,7.82c1.19,2.32,1.49,4.71,0.1,7.1c-1.33,2.28-3.36,2-5.59,1.86c-8.26-0.52-11.58,5.52-7.6,13.64
		c-2.28,0.78-4.56,1.56-6.83,2.34C46.27,417.64,41.62,418.88,36.97,420.13z"/>
	<path class="st26" d="M294.98,478.14c-16.07,5.61-32.39,10.43-48.75,15.11c3.55-10.67,4.2-21.85,4.64-32.87
		c0.96-23.95-1.01-47.74-6.84-71.06c-1.54-6.16-3.98-12.09-5.54-18.29c17.23,20.98,27.87,45.01,33.76,71.72
		c5.98-26.69,16.63-50.89,34.44-71.77c-1.59,4.7-3.18,9.39-4.77,14.09c-5.09,15.05-6.66,30.75-7.73,46.43
		C293.11,447.02,293.31,462.62,294.98,478.14z"/>
	<path class="st29" d="M196.32,509.17c5.83-2.51,11.97-4.08,18.04-5.82c7.73,9.12,17.45,15.55,27.99,20.91
		c1.37,0.69,3.73,0.98,3.31,3.09c-0.48,2.44-2.91,1.88-4.57,1.69c-16.46-1.87-31.25-7.78-43.94-18.64
		C196.78,510.08,196.59,509.58,196.32,509.17z"/>
	<path class="st19" d="M480.33,421.63c4.31-1.45,8.62-2.9,12.92-4.35c1.96-0.38,3.92-0.76,5.88-1.14c2.73,0.8,3.6,3.28,4.69,5.44
		c11.25,22.4-0.88,45.74-21.79,51.97c-18.66,5.56-38.53-10.39-35.6-30.13c0.88-5.97,8.32-12.81,15.26-14.04
		c7.1-1.26,14.2,2.02,17.76,8.21c0.58,1,1.03,2.08,1.54,3.12c0.95,1.92,0.66,5.5,3.71,4.89c2.56-0.51,1.25-3.68,1.6-5.69
		C487.57,432.76,483.94,427.2,480.33,421.63z"/>
	<path class="st32" d="M438.43,434.31c6.19-8.41,15.61-11.31,26.69-8.2C456.22,428.84,447.33,431.57,438.43,434.31z"/>
</g>
</svg>
