<?xml version="1.0" encoding="utf-8"?>
<!-- Generator: Adobe Illustrator 25.2.3, SVG Export Plug-In . SVG Version: 6.00 Build 0)  -->
<svg version="1.1" id="Layer_1" xmlns="http://www.w3.org/2000/svg" xmlns:xlink="http://www.w3.org/1999/xlink" x="0px" y="0px"
	 viewBox="0 0 600 600" style="enable-background:new 0 0 600 600;" xml:space="preserve">
<style type="text/css">
	.st0{fill:url(#SVGID_1_);}
	.st1{fill:#FFFFFF;}
</style>
<g>
	<g>
		<g>
			<g>
				<g>
					<linearGradient id="SVGID_1_" gradientUnits="userSpaceOnUse" x1="300" y1="600" x2="300" y2="-9.094947e-13">
						<stop  offset="0" style="stop-color:#FF5922"/>
						<stop  offset="1" style="stop-color:#FF7344"/>
					</linearGradient>
					<path class="st0" d="M300,0C134.3,0,0,134.3,0,300s134.3,300,300,300s300-134.3,300-300S465.7,0,300,0z"/>
				</g>
			</g>
		</g>
	</g>
	<path class="st1" d="M332.3,129.5c9.2-13.6,22.4-21.4,36.2-21.4c13.8,0,27,7.8,36.2,21.4c8.5,12.5,13.1,28.9,13.1,46.1
		s-4.7,33.7-13.1,46.1c-9.2,13.6-22.4,21.4-36.2,21.4c-13.8,0-27-7.8-36.2-21.4c-8.5-12.5-13.1-28.9-13.1-46.1
		S323.9,142,332.3,129.5z M195.3,129.5c9.2-13.6,22.4-21.4,36.2-21.4c13.8,0,27,7.8,36.2,21.4c8.5,12.5,13.1,28.9,13.1,46.1
		c0,17.3-4.7,33.7-13.1,46.1c-9.2,13.6-22.4,21.4-36.2,21.4c-13.8,0-27-7.8-36.2-21.4c-8.5-12.5-13.1-28.9-13.1-46.1
		C182.2,158.4,186.8,142,195.3,129.5z M139.8,324.4c-5.5,0-11-1.3-16.4-3.8c-12.9-6-23.5-18.5-28.9-34.2v0
		c-4.5-12.8-5-26.4-1.6-38.2c3.8-13,12-22.5,23.1-26.7c8.9-3.3,19-2.8,28.4,1.6c12.9,6,23.5,18.5,28.9,34.2
		c4.5,12.8,5,26.4,1.6,38.2c-3.8,13-12,22.5-23.1,26.7C147.9,323.7,143.9,324.4,139.8,324.4z M425.6,456.9
		c-21.1,17.5-57.5,10.7-89.7,4.8c-13.8-2.6-26.8-5-36-5c-10.7,0-24.5,2.5-39.2,5.2c-16.8,3.1-33.9,6.2-49.3,6.2
		c-14.5,0-27.4-2.8-37.2-10.9c-9.9-8.3-15-20.9-15-37.4c0-34,15.1-72.5,40.4-103.1c28.2-34,63.8-52.7,100.3-52.7
		c36.5,0,72.1,18.7,100.3,52.7c25.3,30.6,40.4,69.1,40.4,103.1C440.7,436.1,435.6,448.6,425.6,456.9z M505.5,286.4
		c-5.5,15.7-16,28.2-28.9,34.2c-5.3,2.5-10.9,3.8-16.4,3.8c-4.1,0-8.2-0.7-12-2.2c-11.1-4.2-19.3-13.6-23.1-26.7
		c-3.5-11.8-2.9-25.4,1.6-38.2c5.5-15.7,16-28.2,28.9-34.2c9.4-4.4,19.4-5,28.4-1.6c11.1,4.2,19.3,13.6,23.1,26.7
		C510.6,260,510,273.6,505.5,286.4z"/>
</g>
</svg>
