<?xml version="1.0" encoding="utf-8"?>
<!-- Generator: Adobe Illustrator 24.0.3, SVG Export Plug-In . SVG Version: 6.00 Build 0)  -->
<svg version="1.1" id="Layer_1" xmlns="http://www.w3.org/2000/svg" xmlns:xlink="http://www.w3.org/1999/xlink" x="0px" y="0px"
	 viewBox="0 0 595.3 841.9" style="enable-background:new 0 0 595.3 841.9;" xml:space="preserve">
<style type="text/css">
	.st0{fill:#E83A8D;}
	.st1{fill:#0090D1;}
	.st2{fill:#D11076;}
	.st3{fill:#00AAE4;}
	.st4{fill:#8ED2F0;}
	.st5{fill:#CC87B1;}
	.st6{fill:#DA599C;}
	.st7{fill:#F8F9FA;}
</style>
<g>
	<path class="st0" d="M133.6,671.5h-25.5c-0.3,0-0.6-0.3-0.6-0.6v-9.3c0-0.3,0.3-0.6,0.6-0.6h25.5c0.3,0,0.6,0.3,0.6,0.6v9.3
		C134.2,671.2,133.9,671.5,133.6,671.5z"/>
	<path class="st0" d="M133.6,659h-25.5c-0.3,0-0.6-0.3-0.6-0.6v-9.3c0-0.3,0.3-0.6,0.6-0.6h25.5c0.3,0,0.6,0.3,0.6,0.6v9.3
		C134.2,658.7,133.9,659,133.6,659z"/>
	<path class="st0" d="M133.6,646.5h-25.5c-0.3,0-0.6-0.3-0.6-0.6v-9.3c0-0.3,0.3-0.6,0.6-0.6h25.5c0.3,0,0.6,0.3,0.6,0.6v9.3
		C134.2,646.2,133.9,646.5,133.6,646.5z"/>
	<path class="st0" d="M196.1,634h-88c-0.3,0-0.6-0.3-0.6-0.6V624c0-0.3,0.3-0.6,0.6-0.6h88c0.3,0,0.6,0.3,0.6,0.6v9.3
		C196.7,633.7,196.5,634,196.1,634z"/>
	<path class="st0" d="M400.7,596.4h-88c-0.3,0-0.6-0.3-0.6-0.6v-9.3c0-0.3,0.3-0.6,0.6-0.6h88c0.3,0,0.6,0.3,0.6,0.6v9.3
		C401.3,596.2,401.1,596.4,400.7,596.4z"/>
	<path class="st0" d="M133.6,621.5h-25.5c-0.3,0-0.6-0.3-0.6-0.6v-9.3c0-0.3,0.3-0.6,0.6-0.6h25.5c0.3,0,0.6,0.3,0.6,0.6v9.3
		C134.2,621.2,133.9,621.5,133.6,621.5z"/>
	<path class="st0" d="M133.6,609h-25.5c-0.3,0-0.6-0.3-0.6-0.6V599c0-0.3,0.3-0.6,0.6-0.6h25.5c0.3,0,0.6,0.3,0.6,0.6v9.3
		C134.2,608.7,133.9,609,133.6,609z"/>
	<path class="st0" d="M133.6,596.4h-25.5c-0.3,0-0.6-0.3-0.6-0.6v-9.3c0-0.3,0.3-0.6,0.6-0.6h25.5c0.3,0,0.6,0.3,0.6,0.6v9.3
		C134.2,596.2,133.9,596.4,133.6,596.4z"/>
	<path class="st0" d="M196.1,671.5h-25.5c-0.3,0-0.6-0.3-0.6-0.6v-9.3c0-0.3,0.3-0.6,0.6-0.6h25.5c0.3,0,0.6,0.3,0.6,0.6v9.3
		C196.7,671.2,196.5,671.5,196.1,671.5z"/>
	<path class="st0" d="M196.1,659h-25.5c-0.3,0-0.6-0.3-0.6-0.6v-9.3c0-0.3,0.3-0.6,0.6-0.6h25.5c0.3,0,0.6,0.3,0.6,0.6v9.3
		C196.7,658.7,196.5,659,196.1,659z"/>
	<path class="st0" d="M196.1,646.5h-25.5c-0.3,0-0.6-0.3-0.6-0.6v-9.3c0-0.3,0.3-0.6,0.6-0.6h25.5c0.3,0,0.6,0.3,0.6,0.6v9.3
		C196.7,646.2,196.5,646.5,196.1,646.5z"/>
	<path class="st0" d="M196.1,621.5h-25.5c-0.3,0-0.6-0.3-0.6-0.6v-9.3c0-0.3,0.3-0.6,0.6-0.6h25.5c0.3,0,0.6,0.3,0.6,0.6v9.3
		C196.7,621.2,196.5,621.5,196.1,621.5z"/>
	<path class="st0" d="M196.1,609h-25.5c-0.3,0-0.6-0.3-0.6-0.6V599c0-0.3,0.3-0.6,0.6-0.6h25.5c0.3,0,0.6,0.3,0.6,0.6v9.3
		C196.7,608.7,196.5,609,196.1,609z"/>
	<path class="st0" d="M196.1,596.4h-25.5c-0.3,0-0.6-0.3-0.6-0.6v-9.3c0-0.3,0.3-0.6,0.6-0.6h25.5c0.3,0,0.6,0.3,0.6,0.6v9.3
		C196.7,596.2,196.5,596.4,196.1,596.4z"/>
	<path class="st0" d="M267.1,634h-25.5c-0.3,0-0.6-0.3-0.6-0.6V624c0-0.3,0.3-0.6,0.6-0.6h25.5c0.3,0,0.6,0.3,0.6,0.6v9.3
		C267.7,633.7,267.4,634,267.1,634z"/>
	<path class="st0" d="M290.7,671.5h-72.6c-0.3,0-0.6-0.3-0.6-0.6v-9.3c0-0.3,0.3-0.6,0.6-0.6h72.6c0.3,0,0.6,0.3,0.6,0.6v9.3
		C291.3,671.2,291,671.5,290.7,671.5z"/>
	<path class="st0" d="M385.4,634h-72.6c-0.3,0-0.6-0.3-0.6-0.6V624c0-0.3,0.3-0.6,0.6-0.6h72.6c0.3,0,0.6,0.3,0.6,0.6v9.3
		C386,633.7,385.7,634,385.4,634z"/>
	<path class="st0" d="M267.1,659h-25.5c-0.3,0-0.6-0.3-0.6-0.6v-9.3c0-0.3,0.3-0.6,0.6-0.6h25.5c0.3,0,0.6,0.3,0.6,0.6v9.3
		C267.7,658.7,267.4,659,267.1,659z"/>
	<path class="st0" d="M267.1,646.5h-25.5c-0.3,0-0.6-0.3-0.6-0.6v-9.3c0-0.3,0.3-0.6,0.6-0.6h25.5c0.3,0,0.6,0.3,0.6,0.6v9.3
		C267.7,646.2,267.4,646.5,267.1,646.5z"/>
	<path class="st0" d="M267.1,621.5h-25.5c-0.3,0-0.6-0.3-0.6-0.6v-9.3c0-0.3,0.3-0.6,0.6-0.6h25.5c0.3,0,0.6,0.3,0.6,0.6v9.3
		C267.7,621.2,267.4,621.5,267.1,621.5z"/>
	<path class="st0" d="M267.1,609h-25.5c-0.3,0-0.6-0.3-0.6-0.6V599c0-0.3,0.3-0.6,0.6-0.6h25.5c0.3,0,0.6,0.3,0.6,0.6v9.3
		C267.7,608.7,267.4,609,267.1,609z"/>
	<path class="st0" d="M290.7,596.4h-72.6c-0.3,0-0.6-0.3-0.6-0.6v-9.3c0-0.3,0.3-0.6,0.6-0.6h72.6c0.3,0,0.6,0.3,0.6,0.6v9.3
		C291.3,596.2,291,596.4,290.7,596.4z"/>
	<path class="st0" d="M463.6,634h-25.5c-0.3,0-0.6-0.3-0.6-0.6V624c0-0.3,0.3-0.6,0.6-0.6h25.5c0.3,0,0.6,0.3,0.6,0.6v9.3
		C464.2,633.7,463.9,634,463.6,634z"/>
	<path class="st0" d="M487.1,671.5h-72.6c-0.3,0-0.6-0.3-0.6-0.6v-9.3c0-0.3,0.3-0.6,0.6-0.6h72.6c0.3,0,0.6,0.3,0.6,0.6v9.3
		C487.7,671.2,487.5,671.5,487.1,671.5z"/>
	<path class="st0" d="M463.6,659h-25.5c-0.3,0-0.6-0.3-0.6-0.6v-9.3c0-0.3,0.3-0.6,0.6-0.6h25.5c0.3,0,0.6,0.3,0.6,0.6v9.3
		C464.2,658.7,463.9,659,463.6,659z"/>
	<path class="st0" d="M463.6,646.5h-25.5c-0.3,0-0.6-0.3-0.6-0.6v-9.3c0-0.3,0.3-0.6,0.6-0.6h25.5c0.3,0,0.6,0.3,0.6,0.6v9.3
		C464.2,646.2,463.9,646.5,463.6,646.5z"/>
	<path class="st0" d="M463.6,621.5h-25.5c-0.3,0-0.6-0.3-0.6-0.6v-9.3c0-0.3,0.3-0.6,0.6-0.6h25.5c0.3,0,0.6,0.3,0.6,0.6v9.3
		C464.2,621.2,463.9,621.5,463.6,621.5z"/>
	<path class="st0" d="M463.6,609h-25.5c-0.3,0-0.6-0.3-0.6-0.6V599c0-0.3,0.3-0.6,0.6-0.6h25.5c0.3,0,0.6,0.3,0.6,0.6v9.3
		C464.2,608.7,463.9,609,463.6,609z"/>
	<path class="st0" d="M487.1,596.4h-72.6c-0.3,0-0.6-0.3-0.6-0.6v-9.3c0-0.3,0.3-0.6,0.6-0.6h72.6c0.3,0,0.6,0.3,0.6,0.6v9.3
		C487.7,596.2,487.5,596.4,487.1,596.4z"/>
	<path class="st0" d="M338.2,671.5h-25.5c-0.3,0-0.6-0.3-0.6-0.6v-9.3c0-0.3,0.3-0.6,0.6-0.6h25.5c0.3,0,0.6,0.3,0.6,0.6v9.3
		C338.8,671.2,338.5,671.5,338.2,671.5z"/>
	<path class="st0" d="M338.2,659h-25.5c-0.3,0-0.6-0.3-0.6-0.6v-9.3c0-0.3,0.3-0.6,0.6-0.6h25.5c0.3,0,0.6,0.3,0.6,0.6v9.3
		C338.8,658.7,338.5,659,338.2,659z"/>
	<path class="st0" d="M338.2,646.5h-25.5c-0.3,0-0.6-0.3-0.6-0.6v-9.3c0-0.3,0.3-0.6,0.6-0.6h25.5c0.3,0,0.6,0.3,0.6,0.6v9.3
		C338.8,646.2,338.5,646.5,338.2,646.5z"/>
	<path class="st0" d="M338.2,621.5h-25.5c-0.3,0-0.6-0.3-0.6-0.6v-9.3c0-0.3,0.3-0.6,0.6-0.6h25.5c0.3,0,0.6,0.3,0.6,0.6v9.3
		C338.8,621.2,338.5,621.5,338.2,621.5z"/>
	<path class="st0" d="M338.2,609h-25.5c-0.3,0-0.6-0.3-0.6-0.6V599c0-0.3,0.3-0.6,0.6-0.6h25.5c0.3,0,0.6,0.3,0.6,0.6v9.3
		C338.8,608.7,338.5,609,338.2,609z"/>
</g>
<g>
	<g>
		<path class="st1" d="M57.7,499.4c-4.8,0-9.3-2.4-12-6.5c-2.7-4.1-3.1-9.3-1.1-13.7l134.4-300c2.3-5.2,7.4-8.5,13.1-8.5h203.2
			c4.8,0,9.3,2.4,12,6.5c2.7,4,3.1,9.2,1.2,13.6L300.8,438.7c-3.2,7.3-11.6,10.6-18.9,7.4c-7.3-3.2-10.6-11.6-7.4-18.9l98.9-227.9
			h-172L80,470.4l89.4-1.1c0.1,0,0.1,0,0.2,0c7.8,0,14.3,6.3,14.4,14.2c0.1,7.9-6.3,14.4-14.2,14.5l-111.9,1.4
			C57.8,499.4,57.8,499.4,57.7,499.4z"/>
	</g>
	<g>
		<path class="st2" d="M404.8,498H209.9c-4.9,0-9.4-2.5-12-6.5c-2.6-4.1-3.1-9.2-1.1-13.7l111.6-251.1c3.2-7.2,11.7-10.5,18.9-7.3
			c7.2,3.2,10.5,11.7,7.3,18.9L232,469.3h163.4l120-270l-77.5-0.2c-7.9,0-14.3-6.5-14.3-14.4c0-7.9,6.4-14.3,14.4-14.3c0,0,0,0,0,0
			l99.5,0.3c4.9,0,9.4,2.5,12,6.6c2.6,4.1,3,9.2,1.1,13.6L417.9,489.5C415.6,494.7,410.5,498,404.8,498z"/>
	</g>
	<g>
		<path class="st1" d="M472.3,247h-55.2c-7.9,0-14.4-6.4-14.4-14.4c0-7.9,6.4-14.4,14.4-14.4h55.2c7.9,0,14.4,6.4,14.4,14.4
			C486.6,240.5,480.2,247,472.3,247z"/>
	</g>
	<g>
		<path class="st1" d="M371.6,349.4c-7.9,0-14.3-6.4-14.4-14.3c0-7.9,6.4-14.4,14.3-14.4l54-0.1c0,0,0,0,0,0
			c7.9,0,14.3,6.4,14.4,14.3c0,7.9-6.4,14.4-14.3,14.4L371.6,349.4C371.6,349.4,371.6,349.4,371.6,349.4z"/>
	</g>
	<g>
		<path class="st2" d="M251.3,350c-0.1,0-0.2,0-0.3,0l-46.1-1.1c-7.9-0.2-14.2-6.8-14-14.7c0.2-7.8,6.6-14,14.3-14
			c0.1,0,0.2,0,0.3,0l46.1,1.1c7.9,0.2,14.2,6.8,14,14.7C265.5,343.8,259.1,350,251.3,350z"/>
	</g>
	<g>
		<path class="st2" d="M137,447.3c-2,0-3.9-0.4-5.8-1.3c-7.2-3.2-10.5-11.7-7.2-19l90.2-201.8c3.2-7.2,11.7-10.5,19-7.2
			c7.2,3.2,10.5,11.7,7.2,19l-90.2,201.8C147.7,444.1,142.5,447.3,137,447.3z"/>
	</g>
</g>
<g>
	<g>
		<path class="st3" d="M57.7,495.8c-3.6,0-7-1.8-9-4.9c-2-3.1-2.3-7-0.8-10.3l134.4-300c1.7-3.9,5.6-6.4,9.8-6.4h203.2
			c3.6,0,7,1.8,9,4.9c2,3,2.3,6.9,0.9,10.2L297.5,437.2c-2.4,5.5-8.7,8-14.2,5.6c-5.5-2.4-8-8.7-5.6-14.2l101.1-232.9H199.1
			L74.4,474.1l95-1.2c0,0,0.1,0,0.1,0c5.9,0,10.7,4.7,10.8,10.6c0.1,5.9-4.7,10.8-10.6,10.9l-111.9,1.4
			C57.8,495.8,57.8,495.8,57.7,495.8z"/>
	</g>
	<g>
		<path class="st0" d="M404.8,494.4H209.9c-3.6,0-7-1.8-9-4.9c-2-3.1-2.3-6.9-0.8-10.2l111.6-251.1c2.4-5.4,8.8-7.9,14.2-5.5
			c5.4,2.4,7.9,8.8,5.5,14.2L226.5,472.9h171.3L521,195.7l-83-0.2c-5.9,0-10.8-4.9-10.7-10.8c0-5.9,4.8-10.7,10.8-10.7c0,0,0,0,0,0
			l99.5,0.3c3.6,0,7,1.9,9,4.9c2,3.1,2.3,6.9,0.8,10.2L414.6,488.1C412.9,491.9,409.1,494.4,404.8,494.4z"/>
	</g>
	<g>
		<path class="st3" d="M472.3,243.4h-55.2c-5.9,0-10.8-4.8-10.8-10.8s4.8-10.8,10.8-10.8h55.2c5.9,0,10.8,4.8,10.8,10.8
			S478.2,243.4,472.3,243.4z"/>
	</g>
	<g>
		<path class="st3" d="M371.6,345.8c-5.9,0-10.8-4.8-10.8-10.7c0-5.9,4.8-10.8,10.7-10.8l54-0.1c6,0,10.8,4.8,10.8,10.7
			s-4.8,10.8-10.7,10.8L371.6,345.8C371.6,345.8,371.6,345.8,371.6,345.8z"/>
	</g>
	<g>
		<path class="st0" d="M251.3,346.4c-0.1,0-0.2,0-0.3,0l-46.1-1.1c-5.9-0.1-10.7-5.1-10.5-11c0.1-5.9,5.2-10.6,11-10.5l46.1,1.1
			c5.9,0.1,10.7,5.1,10.5,11C261.9,341.7,257.1,346.4,251.3,346.4z"/>
	</g>
	<g>
		<path class="st0" d="M137,443.7c-1.5,0-3-0.3-4.4-0.9c-5.4-2.4-7.9-8.8-5.4-14.2l90.2-201.8c2.4-5.4,8.8-7.9,14.2-5.4
			c5.4,2.4,7.9,8.8,5.4,14.2l-90.2,201.8C145,441.3,141.1,443.7,137,443.7z"/>
	</g>
</g>
<g>
	<g>
		<path class="st4" d="M57.7,492.2c-2.4,0-4.7-1.2-6-3.2c-1.3-2-1.6-4.6-0.6-6.9l134.4-300c1.2-2.6,3.7-4.2,6.6-4.2h203.2
			c2.4,0,4.7,1.2,6,3.2c1.3,2,1.5,4.6,0.6,6.8L294.2,435.8c-1.6,3.6-5.8,5.3-9.4,3.7c-3.6-1.6-5.3-5.8-3.7-9.4l103.3-237.9H196.7
			L68.9,477.7l100.6-1.2c0,0,0.1,0,0.1,0c3.9,0,7.1,3.2,7.2,7.1c0,4-3.1,7.2-7.1,7.3L57.7,492.2C57.8,492.2,57.8,492.2,57.7,492.2z"
			/>
	</g>
	<g>
		<path class="st5" d="M404.8,490.9H209.9c-2.4,0-4.7-1.2-6-3.3c-1.3-2-1.5-4.6-0.5-6.8L315,229.7c1.6-3.6,5.9-5.3,9.5-3.6
			c3.6,1.6,5.3,5.9,3.6,9.5L221,476.5h179.2l126.4-284.3l-88.5-0.3c-4,0-7.2-3.2-7.2-7.2c0-4,3.2-7.2,7.2-7.2c0,0,0,0,0,0l99.5,0.3
			c2.4,0,4.7,1.2,6,3.3c1.3,2,1.5,4.6,0.5,6.8L411.4,486.6C410.2,489.2,407.6,490.9,404.8,490.9z"/>
	</g>
	<g>
		<path class="st4" d="M472.3,239.8h-55.2c-4,0-7.2-3.2-7.2-7.2c0-4,3.2-7.2,7.2-7.2h55.2c4,0,7.2,3.2,7.2,7.2
			C479.4,236.6,476.2,239.8,472.3,239.8z"/>
	</g>
	<g>
		<path class="st4" d="M371.6,342.2c-4,0-7.2-3.2-7.2-7.2c0-4,3.2-7.2,7.2-7.2l54-0.1c0,0,0,0,0,0c4,0,7.2,3.2,7.2,7.2
			c0,4-3.2,7.2-7.2,7.2L371.6,342.2C371.6,342.2,371.6,342.2,371.6,342.2z"/>
	</g>
	<g>
		<path class="st5" d="M251.3,342.8c-0.1,0-0.1,0-0.2,0l-46.1-1.1c-4-0.1-7.1-3.4-7-7.3c0.1-3.9,3.3-7,7.2-7c0.1,0,0.1,0,0.2,0
			l46.1,1.1c4,0.1,7.1,3.4,7,7.3C258.4,339.7,255.2,342.8,251.3,342.8z"/>
	</g>
	<g>
		<path class="st5" d="M137,440.1c-1,0-2-0.2-2.9-0.6c-3.6-1.6-5.2-5.9-3.6-9.5l90.2-201.8c1.6-3.6,5.9-5.2,9.5-3.6
			c3.6,1.6,5.2,5.9,3.6,9.5l-90.2,201.8C142.3,438.6,139.7,440.1,137,440.1z"/>
	</g>
	<g>
		<path class="st6" d="M404.8,490.9H209.9c-2.4,0-4.7-1.2-6-3.3c-1.3-2-1.5-4.6-0.5-6.8L315,229.7c1.6-3.6,5.9-5.3,9.5-3.6
			c3.6,1.6,5.3,5.9,3.6,9.5L221,476.5h179.2l126.4-284.3l-88.5-0.3c-4,0-7.2-3.2-7.2-7.2c0-4,3.2-7.2,7.2-7.2c0,0,0,0,0,0l99.5,0.3
			c2.4,0,4.7,1.2,6,3.3c1.3,2,1.5,4.6,0.5,6.8L411.4,486.6C410.2,489.2,407.6,490.9,404.8,490.9z"/>
	</g>
	<g>
		<path class="st6" d="M251.3,342.8c-0.1,0-0.1,0-0.2,0l-46.1-1.1c-4-0.1-7.1-3.4-7-7.3c0.1-3.9,3.3-7,7.2-7c0.1,0,0.1,0,0.2,0
			l46.1,1.1c4,0.1,7.1,3.4,7,7.3C258.4,339.7,255.2,342.8,251.3,342.8z"/>
	</g>
	<g>
		<path class="st6" d="M137,440.1c-1,0-2-0.2-2.9-0.6c-3.6-1.6-5.2-5.9-3.6-9.5l90.2-201.8c1.6-3.6,5.9-5.2,9.5-3.6
			c3.6,1.6,5.2,5.9,3.6,9.5l-90.2,201.8C142.3,438.6,139.7,440.1,137,440.1z"/>
	</g>
</g>
<g>
	<g>
		<path class="st7" d="M57.7,488.6c-1.2,0-2.3-0.6-3-1.6c-0.7-1-0.8-2.3-0.3-3.4l134.4-300c0.6-1.3,1.9-2.1,3.3-2.1h203.2
			c1.2,0,2.3,0.6,3,1.6s0.8,2.3,0.3,3.4L290.9,434.4c-0.8,1.8-2.9,2.6-4.7,1.9c-1.8-0.8-2.7-2.9-1.9-4.7l105.5-242.9H194.4
			L63.3,481.4l106.3-1.3c2,0,3.6,1.6,3.6,3.5c0,2-1.6,3.6-3.5,3.6L57.7,488.6C57.8,488.6,57.7,488.6,57.7,488.6z"/>
	</g>
	<g>
		<path class="st7" d="M404.8,487.3H209.9c-1.2,0-2.3-0.6-3-1.6c-0.7-1-0.8-2.3-0.3-3.4l111.6-251.1c0.8-1.8,2.9-2.6,4.7-1.8
			c1.8,0.8,2.6,2.9,1.8,4.7l-109.4,246h187L532,188.6l-94-0.3c-2,0-3.6-1.6-3.6-3.6c0-2,1.6-3.6,3.6-3.6c0,0,0,0,0,0l99.5,0.3
			c1.2,0,2.3,0.6,3,1.6c0.7,1,0.8,2.3,0.3,3.4L408.1,485.1C407.5,486.4,406.2,487.3,404.8,487.3z"/>
	</g>
	<g>
		<path class="st7" d="M472.3,236.2h-55.2c-2,0-3.6-1.6-3.6-3.6c0-2,1.6-3.6,3.6-3.6h55.2c2,0,3.6,1.6,3.6,3.6
			C475.8,234.6,474.2,236.2,472.3,236.2z"/>
	</g>
	<g>
		<path class="st7" d="M371.6,338.6c-2,0-3.6-1.6-3.6-3.6c0-2,1.6-3.6,3.6-3.6l54-0.1c0,0,0,0,0,0c2,0,3.6,1.6,3.6,3.6
			c0,2-1.6,3.6-3.6,3.6L371.6,338.6C371.6,338.6,371.6,338.6,371.6,338.6z"/>
	</g>
	<g>
		<path class="st7" d="M251.3,339.2C251.3,339.2,251.2,339.2,251.3,339.2l-46.2-1.1c-2,0-3.6-1.7-3.5-3.7c0-2,1.7-3.6,3.7-3.5
			l46.1,1.1c2,0,3.6,1.7,3.5,3.7C254.8,337.7,253.2,339.2,251.3,339.2z"/>
	</g>
	<g>
		<path class="st7" d="M137,436.5c-0.5,0-1-0.1-1.5-0.3c-1.8-0.8-2.6-2.9-1.8-4.7l90.2-201.8c0.8-1.8,2.9-2.6,4.7-1.8
			c1.8,0.8,2.6,2.9,1.8,4.7l-90.2,201.8C139.7,435.8,138.4,436.5,137,436.5z"/>
	</g>
</g>
</svg>
