<svg xmlns="http://www.w3.org/2000/svg" viewBox="0 0 800 800">
  <defs>
    <style>
      .cls-1 {
        fill: #fff;
      }
    </style>
  </defs>
  <title>MEMEX_LOGO_BLACKBG</title>
  <g id="Layer_2" data-name="Layer 2">
    <rect width="800" height="800"/>
    <rect width="800" height="800"/>
  </g>
  <g id="Layer_1" data-name="Layer 1">
    <path class="cls-1" d="M136.84,596.85c-.26-13.37.13-394.21.39-394.6.25-.13,261.43,196.27,262.33,196.27,2.06,0,262.25-196.5,263.24-195.88s.33,63.87-.65,65c-1.92,2.44-261.43,197.68-262.07,197.68-1.16,0-208.48-155.53-209-155s-1.54,287.4-1.54,287.4-52.7-.39-52.7-.9Z"/>
    <path class="cls-1" d="M246.09,482.58c-1.41-1.41-2.05-65-1.15-65.55,1.54-.9,154.62,114.14,157.19,112.6s260-194.73,260.54-193.7.51,261.17.51,261.17l-53.34.65s-.38-154.37-1.41-154.88c-.77-.52-208.23,154.88-208.87,154.75S247.12,483.48,246.09,482.58Z"/>
  </g>
</svg>
