<?xml version="1.0" encoding="utf-8"?>
<!-- Generator: Adobe Illustrator 24.0.0, SVG Export Plug-In . SVG Version: 6.00 Build 0)  -->
<svg version="1.1" id="图层_1" xmlns="http://www.w3.org/2000/svg" xmlns:xlink="http://www.w3.org/1999/xlink" x="0px" y="0px"
	 viewBox="0 0 92.81 52.99" style="enable-background:new 0 0 92.81 52.99;" xml:space="preserve">
<style type="text/css">
	.st0{fill:url(#SVGID_1_);}
	.st1{fill:url(#SVGID_2_);}
	.st2{fill:url(#SVGID_3_);}
	.st3{fill:url(#SVGID_4_);}
	.st4{fill:url(#SVGID_5_);}
</style>
<g>
	<g>
		<linearGradient id="SVGID_1_" gradientUnits="userSpaceOnUse" x1="0" y1="33.5608" x2="23.2015" y2="33.5608">
			<stop  offset="0" style="stop-color:#1B6FF5"/>
			<stop  offset="1" style="stop-color:#1B46F5"/>
		</linearGradient>
		<polygon class="st0" points="0,52.99 23.2,38.98 23.2,14.13 0,28.14 		"/>
		<linearGradient id="SVGID_2_" gradientUnits="userSpaceOnUse" x1="46.4029" y1="33.5608" x2="23.455" y2="33.5608">
			<stop  offset="1.400000e-07" style="stop-color:#6CC5FF"/>
			<stop  offset="1" style="stop-color:#3B8BFA"/>
		</linearGradient>
		<polygon class="st1" points="46.4,52.99 23.2,38.98 23.2,14.13 46.4,28.14 		"/>
		<linearGradient id="SVGID_3_" gradientUnits="userSpaceOnUse" x1="46.4029" y1="33.5608" x2="69.6043" y2="33.5608">
			<stop  offset="0" style="stop-color:#1B6FF5"/>
			<stop  offset="1" style="stop-color:#1B46F5"/>
		</linearGradient>
		<polygon class="st2" points="46.4,52.99 69.6,38.98 69.6,14.13 46.4,28.14 		"/>
		<linearGradient id="SVGID_4_" gradientUnits="userSpaceOnUse" x1="93.1438" y1="33.5608" x2="69.9011" y2="33.5608">
			<stop  offset="1.400000e-07" style="stop-color:#6CC5FF"/>
			<stop  offset="1" style="stop-color:#3B8BFA"/>
		</linearGradient>
		<polygon class="st3" points="92.81,52.99 69.6,38.98 69.6,14.13 92.81,28.14 		"/>
		<linearGradient id="SVGID_5_" gradientUnits="userSpaceOnUse" x1="28.4419" y1="10.8454" x2="64.3639" y2="10.8454">
			<stop  offset="0" style="stop-color:#F69B10"/>
			<stop  offset="0.2317" style="stop-color:#F9AE0A"/>
			<stop  offset="0.9727" style="stop-color:#FBB807"/>
		</linearGradient>
		<polygon class="st4" points="46.4,0 28.44,10.85 46.4,21.69 64.36,10.85 		"/>
	</g>
</g>
</svg>
