<?xml version="1.0" encoding="utf-8"?>
<!-- Generator: Adobe Illustrator 16.0.0, SVG Export Plug-In . SVG Version: 6.00 Build 0)  -->
<!DOCTYPE svg PUBLIC "-//W3C//DTD SVG 1.1//EN" "http://www.w3.org/Graphics/SVG/1.1/DTD/svg11.dtd">
<svg version="1.1" id="Calque_1" xmlns="http://www.w3.org/2000/svg" xmlns:xlink="http://www.w3.org/1999/xlink" x="0px" y="0px"
	 width="1417.32px" height="1417.32px" viewBox="0 0 1417.32 1417.32" enable-background="new 0 0 1417.32 1417.32"
	 xml:space="preserve">
<g>
	<defs>
		<rect id="SVGID_1_" y="-0.003" width="1417.323" height="1417.323"/>
	</defs>
	<clipPath id="SVGID_2_">
		<use xlink:href="#SVGID_1_"  overflow="visible"/>
	</clipPath>
	<path clip-path="url(#SVGID_2_)" fill="#001137" d="M1417.323,708.658c0,391.383-317.278,708.662-708.662,708.662
		C317.279,1417.32,0,1100.042,0,708.658C0,317.275,317.279-0.003,708.661-0.003C1100.045-0.003,1417.323,317.275,1417.323,708.658"
		/>
</g>
<g>
	<defs>
		<path id="SVGID_3_" d="M576.579,147.053c-56.554,17.803-111.893,38.271-162.51,70.015
			C194.743,354.573,92.18,620.331,164.922,863.309c74.65,249.313,306.543,418.176,565.924,412.113
			c253.116-5.937,469.157-181.854,540.404-440.009c3.65-12.229,11.258-25.815-10.208-29.32
			c-9.098,12.093-17.254,25.101-27.475,36.238c-182.027,197.444-489.366,205.266-676.394,17.45
			c-187.87-188.665-178.453-493.07,20.901-675.255c9.21-11.681,31.159-16.77,24.798-36.058c-1.596-4.825-5.612-6.733-10.39-6.733
			C587.375,141.736,581.397,143.918,576.579,147.053"/>
	</defs>
	<clipPath id="SVGID_4_">
		<use xlink:href="#SVGID_3_"  overflow="visible"/>
	</clipPath>
	
		<linearGradient id="SVGID_5_" gradientUnits="userSpaceOnUse" x1="0" y1="1417.3179" x2="1" y2="1417.3179" gradientTransform="matrix(1134.1067 2.5223 2.5223 -1134.1067 -3441.8391 1608099.25)">
		<stop  offset="0" style="stop-color:#F1BA3D"/>
		<stop  offset="1" style="stop-color:#EA227A"/>
	</linearGradient>
	<polygon clip-path="url(#SVGID_4_)" fill="url(#SVGID_5_)" points="92.186,139.088 1285.043,141.742 1282.502,1284.132 
		89.645,1281.479 	"/>
</g>
<g>
	<defs>
		<rect id="SVGID_6_" y="-0.003" width="1417.323" height="1417.323"/>
	</defs>
	<clipPath id="SVGID_7_">
		<use xlink:href="#SVGID_6_"  overflow="visible"/>
	</clipPath>
	<path clip-path="url(#SVGID_7_)" fill="#FFFFFF" d="M1238.462,321.528c-9.552-1.743-18.805-4.117-27.493-7.052
		c-63.741-21.516-99.728-73.653-111.514-140.731c-1.117-6.354-10.282-6.367-11.416-0.013
		c-13.871,77.915-59.806,132.975-138.939,147.571c-6.294,1.158-6.304,10.226-0.013,11.4c78.372,14.587,124.99,69.646,138.64,146.968
		c0.857,4.873,6.001,4.904,5.71,4.791c2.807-0.002,5.214-2.02,5.705-4.787c7.036-39.86,26.733-94,80.595-125.564
		c17.212-10.073,36.966-17.197,58.728-21.176c2.753-0.504,4.754-2.905,4.752-5.701
		C1243.214,324.431,1241.213,322.03,1238.462,321.528"/>
	<path clip-path="url(#SVGID_7_)" fill="#8DE1FF" d="M1009.701,298.787c-18.584,11.334-39.188,18.565-60.603,22.514
		c-6.294,1.16-6.303,10.228-0.012,11.4c78.373,14.589,124.991,69.646,138.639,146.971c0.859,4.872,6.001,4.901,5.71,4.79
		c2.809-0.002,5.215-2.02,5.705-4.79c3.898-22.065,11.687-48.502,26.991-73.068C1105.472,348.91,1065.918,312.965,1009.701,298.787"
		/>
	<path clip-path="url(#SVGID_7_)" fill="#FFFFFF" d="M983.638,471.632c-22.546-7.506-37.447-24.331-44.684-47.571
		c-1.296-4.173-5.689-4.133-5.523-4.075c-2.537-0.002-4.778,1.643-5.534,4.057c-7.062,22.448-21.801,39.61-44.795,47.453
		c-5.21,1.778-5.225,9.178-0.008,10.969c22.82,7.842,37.617,24.901,44.688,47.576c1.306,4.18,5.69,4.122,5.535,4.07
		c2.541,0,4.782-1.652,5.533-4.08c5.267-16.959,14.532-30.066,27.551-38.955v-0.003c14.231-9.724,21.205-6.888,21.208-13.942
		C987.607,474.635,986.008,472.421,983.638,471.632"/>
	<path clip-path="url(#SVGID_7_)" fill="#8DE1FF" d="M906.227,458.962c-0.16-0.055-0.312-0.133-0.468-0.204
		c-6.675,5.723-14.333,9.898-22.652,12.738c-5.215,1.778-5.229,9.177-0.014,10.968c22.821,7.843,37.618,24.902,44.689,47.577
		c1.306,4.183,5.69,4.125,5.54,4.069c8.16-0.003,3.827-9.758,17.453-28.005C943.568,483.379,928.682,466.679,906.227,458.962"/>
	<path clip-path="url(#SVGID_7_)" fill="#FFFFFF" d="M906.364,207.088c-22.637-7.534-37.478-24.424-44.684-47.569
		c-1.301-4.173-5.694-4.13-5.53-4.074c-2.53-0.003-4.776,1.642-5.533,4.059c-7.046,22.398-21.754,39.587-44.795,47.451
		c-5.209,1.777-5.224,9.177-0.008,10.968c22.877,7.863,37.639,24.962,44.684,47.577c1.311,4.18,5.695,4.125,5.54,4.069
		c2.536,0,4.783-1.654,5.539-4.077c8.715-28.078,26.218-37.641,27.55-38.955c14.182-9.702,21.201-6.932,21.204-13.948
		C910.328,210.093,908.729,207.879,906.364,207.088"/>
	<path clip-path="url(#SVGID_7_)" fill="#8DE1FF" d="M826.712,195.666c-15.994,12.761-24.806,9.18-24.812,16.769
		c-0.003,2.481,1.566,4.682,3.916,5.488c22.876,7.863,37.637,24.962,44.682,47.574c1.312,4.183,5.695,4.127,5.54,4.072
		c7.756-0.007,4.038-9.066,16.362-26.528C859.777,203.917,829.572,197.54,826.712,195.666"/>
</g>
</svg>
