<?xml version="1.0" encoding="utf-8"?>
<!-- Generator: Adobe Illustrator 25.2.1, SVG Export Plug-In . SVG Version: 6.00 Build 0)  -->
<svg version="1.1" xmlns="http://www.w3.org/2000/svg" xmlns:xlink="http://www.w3.org/1999/xlink" x="0px" y="0px"
	 viewBox="0 0 588.26 595.28" style="enable-background:new 0 0 588.26 595.28;" xml:space="preserve">
<style type="text/css">
	.st0{fill:url(#SVGID_1_);}
</style>
<g id="Gradient_BAckgrounds">
</g>
<g id="WHITE">
</g>
<g id="GRADIENT">
	<g id="Logotype">
		<linearGradient id="SVGID_1_" gradientUnits="userSpaceOnUse" x1="653.4155" y1="595.6757" x2="23.2058" y2="87.3462">
			<stop  offset="0" style="stop-color:#E71D73"/>
			<stop  offset="0.3204" style="stop-color:#82368C"/>
			<stop  offset="0.3595" style="stop-color:#6A3489"/>
			<stop  offset="0.4129" style="stop-color:#4F3187"/>
			<stop  offset="0.4675" style="stop-color:#3C2F85"/>
			<stop  offset="0.5235" style="stop-color:#312E83"/>
			<stop  offset="0.5832" style="stop-color:#2D2E83"/>
			<stop  offset="0.6135" style="stop-color:#2D2E83"/>
			<stop  offset="0.8046" style="stop-color:#2D2E83"/>
			<stop  offset="1" style="stop-color:#36A9E1"/>
		</linearGradient>
		<path class="st0" d="M532.27,194.73c-4.61-13.05-10.07-25.68-16.21-38.07c-5.4-10.9-7.8-23.03-11.7-34.49
			c-5.49-16.15-14.21-30.38-24.88-43.63c-12.43-15.44-27.32-28.94-43.78-39.97c-14.1-9.45-29.92-17.61-46.38-22
			C367.7,10.81,344.7,8.94,322.4,8.6c-32.82-0.5-66.04,3.35-97.53,12.77C188.45,32.27,154.36,51,127.3,77.91
			c-25.54,25.39-45.22,57.3-59.88,90.02c-9.22,20.58-16.61,41.94-21.94,63.86c-5.89,24.25-8.71,48.85-10.73,73.68
			c-1.85,22.86-3.29,45.78-3.25,68.72c0.05,24.29,1.87,48.51,5.42,72.54c1.91,12.94,4.35,25.79,7.19,38.55
			c0.24,1.1,0.85,2.03,1.65,2.75c0.01,0.01,0.02,0.02,0.04,0.03c0.1,0.09,0.2,0.17,0.3,0.25c0.24,0.19,0.49,0.38,0.77,0.55
			c5.79,3.5,12.45,5.82,18.72,8.28c11.11,4.37,22.36,8.38,33.64,12.28c15.35,5.31,30.79,10.36,46.28,15.25
			c18.34,5.78,36.76,11.32,55.25,16.62c20.11,5.76,40.29,11.25,60.56,16.4c20.65,5.25,41.38,10.16,62.21,14.59
			c19.97,4.25,40.03,8.07,60.21,11.18c18.48,2.85,37.06,5.19,55.72,6.37c15.06,0.95,30.27,1.23,45.3-0.36
			c11.99-1.27,24.18-3.51,34.97-9.14c1.95-1.02,3.83-2.17,5.6-3.48c0.08-0.06,0.16-0.13,0.24-0.19c1.21-0.74,2.15-1.9,2.52-3.4
			c3.44-13.79,2.72-28.22-0.38-42.01c-2.7-11.98-8.33-23-12.74-34.4c-2.21-5.71-4.1-11.56-5.14-17.59
			c10.24-2.59,19.06-8.84,24.65-18.14c3.2-5.34,5.62-11.5,7.27-17.5c0.8-2.9,1.35-5.99,1.16-9c-0.1-1.59-0.35-3.22-0.86-4.73
			c-0.22-0.64-0.51-1.26-0.8-1.87c-0.1-0.29-0.21-0.56-0.35-0.82c-0.07-0.21-0.21-0.58-0.26-0.77c-0.04-0.13-0.07-0.22-0.1-0.29
			c0.01-0.09,0.02-0.21,0.03-0.38c0.02-0.41-0.01-0.82,0.01-1.22c0.05-1.4,0-0.89,0.28-2.34c0.5-2.6,1.27-5.15,2.06-7.68
			c1.66-5.29,3.05-10.51,4.15-15.95c2.8-13.84,4.8-27.86,6.05-41.93C557.94,301.92,550.54,246.46,532.27,194.73z M391.67,85.84
			c-28.25-0.98-56.58,4.72-83.27,13.67c-33.85,11.36-65.85,27.96-96,46.96c-30.37,19.14-59.1,40.85-86.52,64.03
			c7.22-11.13,14.64-22.14,22.6-32.75c0.55-0.73,1.1-1.46,1.66-2.19c0.26-0.34,0.51-0.68,0.77-1.01c0.15-0.19,0.29-0.38,0.44-0.57
			c1.16-1.49,2.32-2.98,3.5-4.45c2.49-3.12,5.04-6.19,7.64-9.21c5.33-6.19,10.89-12.18,16.71-17.9c6.1-6,12.48-11.72,19.14-17.1
			c0.82-0.66,1.64-1.32,2.46-1.97c0.38-0.3,0.77-0.6,1.15-0.9c0.04-0.04,0.12-0.09,0.19-0.15c0.18-0.14,0.36-0.27,0.53-0.41
			c1.77-1.35,3.55-2.68,5.36-3.98c3.76-2.72,7.59-5.33,11.49-7.84c8.07-5.18,16.42-9.9,25.01-14.16c4.63-2.3,9.33-4.45,14.09-6.49
			c0.08-0.03,0.14-0.06,0.18-0.08c0.26-0.11,0.52-0.22,0.78-0.33c0.54-0.22,1.07-0.44,1.61-0.66c1.27-0.52,2.54-1.03,3.81-1.52
			c2.5-0.98,5.01-1.92,7.53-2.83c10.8-3.9,21.83-7.17,32.98-9.89c6.07-1.48,12.17-2.79,18.31-3.96c2.99-0.57,5.98-1.1,8.98-1.55
			c0.75-0.11,1.51-0.22,2.26-0.33c0.71-0.1,0.15-0.02,0.01,0c0.32-0.04,0.64-0.08,0.96-0.12c1.48-0.18,2.96-0.35,4.44-0.5
			c10.81-1.07,21.72-1.17,32.54-0.14c1.22,0.12,2.43,0.25,3.64,0.39c0.53,0.06,1.06,0.13,1.58,0.2c0.16,0.02,1,0.14,1.24,0.17
			c2.53,0.37,5.04,0.81,7.55,1.3c4.68,0.93,9.32,2.08,13.9,3.44c4.5,1.34,8.93,2.88,13.29,4.62c0.47,0.19,0.93,0.38,1.4,0.57
			c0.21,0.09,0.42,0.18,0.63,0.26c0,0,0,0,0.01,0c1.06,0.46,2.13,0.92,3.18,1.4c2.01,0.91,4.01,1.87,5.98,2.87
			c7.67,3.88,15.03,8.37,22.03,13.38c1.58,1.13,3.14,2.29,4.69,3.47c0.18,0.14,0.46,0.36,0.64,0.5c0.24,0.19,0.47,0.37,0.71,0.56
			C434.26,91.28,413.04,86.57,391.67,85.84z M185.57,179.98c-1.03,9.09-1.87,18.2-2.66,27.31c-0.99,11.43-1.88,22.87-2.68,34.31
			c-0.81,11.56-1.55,23.13-2.14,34.7c-0.34,6.6-0.64,13.2-0.83,19.8c-23.19-15.3-45.73-31.61-67.4-48.96
			c-1.32-1.06-2.62-2.13-3.94-3.19c25.48-23.16,51.87-45.06,79.78-65.04C185.66,179.27,185.61,179.62,185.57,179.98z M202.33,122.14
			C202.39,122.1,202.41,122.09,202.33,122.14L202.33,122.14z M46.65,306.7c0.96-11.91,1.85-23.85,3.51-35.69
			c3.26-23.16,8.67-46.02,16.26-68.15c6.48-18.9,14.45-36.95,24.12-54.51c4.2-7.62,8.69-15.08,13.47-22.34
			c2.26-3.43,4.58-6.81,6.97-10.14c1.09-1.52,2.19-3.02,3.3-4.52c0.54-0.73,1.09-1.46,1.64-2.18c0.22-0.29,0.44-0.57,0.65-0.86
			c0.16-0.21,0.22-0.3,0.24-0.32c0.06-0.07,0.15-0.19,0.29-0.37c22.76-29.13,51.34-51.06,85.37-65.55c0.31-0.13,1.12-0.47,1.07-0.45
			c0.4-0.16,0.79-0.33,1.19-0.49c0.99-0.4,1.98-0.8,2.97-1.19c2.18-0.85,4.36-1.68,6.56-2.47c4.16-1.5,8.35-2.89,12.58-4.18
			c8.09-2.46,16.29-4.54,24.56-6.26c4.14-0.86,8.29-1.63,12.46-2.32c1.96-0.32,3.92-0.63,5.88-0.91c0.91-0.13,1.83-0.26,2.74-0.39
			c0.13-0.02,0.28-0.04,0.33-0.04c0.77-0.1,1.55-0.2,2.32-0.29c7.73-0.95,15.49-1.63,23.26-2.04c14.17-0.75,28.38-0.64,42.54,0.32
			c5.96,0.41,11.9,0.96,17.83,1.69c0.67,0.08,1.33,0.17,2,0.25c0.18,0.02,0.3,0.04,0.4,0.05c0.09,0.01,0.19,0.03,0.35,0.05
			c1.38,0.19,2.76,0.39,4.13,0.6c2.44,0.37,4.87,0.78,7.29,1.22c8.53,1.56,16.78,3.66,24.86,6.82c19.08,7.46,36.67,18.85,51.77,32.4
			c6.94,6.23,13.45,12.96,19.42,20.13c4.74,5.69,9.18,11.76,13.41,18.66c1.81,2.96,3.52,5.99,5.07,9.09
			c0.67,1.33,1.3,2.67,1.91,4.02c0.13,0.29,0.25,0.58,0.38,0.86c0,0,0,0,0,0.01c0.43,1.15,0.88,2.3,1.33,3.44
			C482.97,111,474,102,464.22,93.98c-14.11-11.56-29.64-21.01-46.58-27.82c-18.91-7.6-39.34-11.34-59.7-11.37
			c-24.2-0.04-48.46,5.19-71.57,12.05C265.6,73,245.37,81.27,226.48,91.88c-16.36,9.19-31.7,20.2-45.73,32.66
			c-12.41,11.02-23.74,23.22-34.12,36.16c-9.76,12.17-18.75,24.93-27.33,37.96c-7.59,11.52-14.87,23.24-22.48,34.75
			c-1.54,2.33-3.11,4.65-4.7,6.96c-0.31,0.35-0.56,0.75-0.76,1.16c-0.33,0.58-0.53,1.2-0.6,1.85c-0.11,0.66-0.09,1.33,0.08,1.98
			c0.1,0.69,0.33,1.34,0.68,1.93c5.79,15.51,13.9,30.03,23.69,43.37c10.77,14.68,23.21,28.04,36.71,40.23
			c0.5,0.45,1.01,0.89,1.51,1.34c-9.2-2.2-18.47-4.07-27.82-5.5c-16.89-2.6-33.94-3.88-51.04-3.46c-9.39,0.23-18.76,0.95-28.08,2.05
			c-0.43,0.05-0.84,0.11-1.23,0.2C45.68,319.25,46.15,312.97,46.65,306.7z M498.05,481.1c1.18,7.31,3.5,14.36,6.27,21.27
			c1.67,4.18,3.47,8.31,5.19,12.47c-26.48-0.88-52.53-5.16-78.4-11.01c-15.22-3.45-30.31-7.51-45.2-12.2
			c-13.34-4.2-27.47-9.24-39.79-14.43c-32.3-13.6-63.45-29.88-95.04-45.02c-16.16-7.75-32.44-15.25-48.96-22.22
			c-15.65-6.6-31.49-12.29-48.09-16.05c-32.27-7.31-65.81-8.7-98.59-4.26c-3.89,0.53-7.76,1.14-11.62,1.83
			c-0.59-17.01-0.31-34.05,0.55-51.05c0.06-1.13,0.13-2.26,0.19-3.4c0.63,0.24,1.28,0.36,1.92,0.29c18.55-2.2,37.26-2.77,55.88-1.32
			c5.03,0.39,10.05,0.92,15.05,1.58c15.32,2.1,30.46,5.38,45.38,9.43c4.39,1.19,8.77,2.45,13.13,3.76
			c7.23,5.52,14.63,10.8,22.17,15.88c16.45,11.07,33.56,21.15,51.05,30.46c17.55,9.35,35.51,17.93,53.73,25.87
			c17.84,7.78,35.92,15,54.21,21.65c16.37,5.95,32.91,11.46,49.59,16.49c14.01,4.23,28.12,8.12,42.35,11.54
			c10.64,2.56,21.36,4.9,32.18,6.58C486.66,480.11,492.43,481.14,498.05,481.1z M510.4,571.52c-0.16,0.07-0.32,0.13-0.49,0.2
			c-0.62,0.25-1.24,0.48-1.87,0.71c-5.3,1.91-10.81,3.19-16.36,4.11c-0.7,0.12-1.4,0.23-2.1,0.33c-0.41,0.06-0.82,0.12-1.22,0.18
			c-0.01,0-0.01,0-0.02,0c-1.57,0.19-3.14,0.38-4.71,0.54c-3.43,0.34-6.86,0.58-10.3,0.74c-7.58,0.35-15.18,0.32-22.76,0.06
			c-8.44-0.29-16.87-0.88-25.27-1.66c-4.48-0.42-8.96-0.89-13.44-1.42c-2.26-0.26-4.52-0.54-6.78-0.83
			c-1.14-0.15-2.29-0.3-3.43-0.45c-0.15-0.02-0.25-0.03-0.33-0.04c-0.04-0.01-0.09-0.01-0.14-0.02c-0.62-0.08-1.23-0.17-1.85-0.25
			c-19.79-2.73-39.46-6.23-59.04-10.18c-20.71-4.18-41.32-8.87-61.83-13.91c-20.34-5-40.59-10.36-60.76-16
			c-18.86-5.28-37.66-10.8-56.38-16.58c-16.26-5.02-32.47-10.22-48.59-15.66c-12.34-4.17-24.64-8.46-36.83-13.06
			c-4.36-1.65-8.71-3.33-13.01-5.11c-0.39-0.16-0.77-0.32-1.16-0.48c-0.04-0.02-0.08-0.04-0.13-0.06c-0.79-0.34-1.57-0.68-2.35-1.03
			c-1.25-0.56-2.5-1.13-3.72-1.74c-0.11-0.06-0.23-0.12-0.34-0.18c-5.17-23.69-8.83-47.67-10.5-71.87
			c-0.11-1.58-0.19-3.15-0.28-4.73c0.81,0.12,1.65,0.11,2.5-0.04c31.18-5.63,63.75-5.38,94.91,0.52
			c33.65,6.38,64.74,20.69,95.51,35.26c32.02,15.16,63.54,31.39,95.94,45.74c27.38,12.12,55.94,21.41,85.01,28.52
			c29.49,7.22,59.8,12.5,90.18,13.69c1.87,0.07,3.74,0.12,5.62,0.16c0.11,0.34,0.23,0.68,0.34,1.03c1.51,4.87,2.51,9.84,3.23,14.88
			c0.86,6.79,1.07,13.64,0.24,20.44c-0.24,1.58-0.53,3.16-0.87,4.72c-1.11,0.71-2.25,1.37-3.41,1.97
			C512.53,570.55,511.47,571.02,510.4,571.52z M526.18,451.18c-4.31,8.99-12.11,16.02-22.23,17.14c-0.43,0.05-0.85,0.13-1.25,0.24
			c-0.33,0.04-0.66,0.1-0.98,0.21c-0.27,0.09-0.53,0.14-0.8,0.2c-1.05,0.06-2.09,0.09-3.14,0.07c-3.14-0.07-6.28-0.4-9.4-0.79
			c-0.13-0.02-0.26-0.03-0.39-0.05c-0.39-0.05-0.78-0.11-1.17-0.16c-1.03-0.15-2.06-0.31-3.09-0.47c-2.3-0.37-4.6-0.77-6.9-1.19
			c-5.38-0.99-10.74-2.11-16.08-3.31c-13.41-3.01-26.71-6.5-39.91-10.3c-16-4.6-31.88-9.66-47.61-15.12
			c-17.57-6.1-34.96-12.71-52.13-19.86c-1.1-0.46-2.19-0.92-3.28-1.37c0,0-0.01,0-0.01-0.01c0.06,0.03,0.13,0.06,0.21,0.09
			c-0.09-0.04-0.18-0.08-0.27-0.11c-0.13-0.05-0.31-0.13-0.38-0.16c-0.06-0.02-0.11-0.05-0.17-0.07c-0.62-0.26-1.23-0.52-1.85-0.79
			c-2.27-0.97-4.53-1.95-6.8-2.93c-4.42-1.93-8.82-3.89-13.2-5.9c-8.98-4.11-17.89-8.39-26.71-12.84
			c-17.64-8.91-34.93-18.54-51.65-29.08c-8.2-5.17-16.27-10.56-24.15-16.21c-3.53-2.53-7.01-5.12-10.46-7.75
			c-0.08-0.06-0.16-0.12-0.24-0.18c-0.32-0.24-0.64-0.48-0.95-0.72c-0.03-0.02-0.05-0.04-0.08-0.06c-0.06-0.05-0.14-0.11-0.26-0.2
			c-0.46-0.36-0.92-0.71-1.37-1.07c-0.97-0.76-1.93-1.52-2.89-2.29c-1.8-1.44-3.58-2.89-5.36-4.37
			c-13.85-11.51-26.89-24.05-38.4-37.91c-1.4-1.69-2.78-3.39-4.13-5.12c-0.12-0.15-0.24-0.31-0.36-0.46
			c-0.29-0.38-0.58-0.76-0.87-1.15c-0.67-0.89-1.34-1.78-2-2.68c-2.45-3.35-4.81-6.77-7.05-10.26c-2.03-3.17-3.97-6.4-5.8-9.69
			c18.56,14.41,37.66,28.13,57.25,41.11c3.27,2.17,6.56,4.31,9.86,6.44c0.04,0.03,0.09,0.06,0.13,0.09
			c23.56,15.18,47.79,29.3,72.59,42.35c28.56,15.02,57.88,28.57,87.8,40.67c29.39,11.88,59.38,22.29,89.84,31.09
			c30.53,8.82,63.18,14.79,95.03,11.31c1.94-0.21,3.87-0.46,5.8-0.74c-0.16,2.06-0.85,4.1-1.49,6.04
			C528.49,445.67,527.47,448.49,526.18,451.18z M536.5,390.13c-1.05,5.63-2.07,11.31-3.77,16.78c-1.44,4.64-3.08,9.24-3.78,14.07
			c-0.2,1.39-0.33,2.75-0.34,4.1c-28.25,4.12-58.45-0.52-86.05-7.84c-30.25-8.03-60.02-18.33-89.15-29.72
			c-29.06-11.37-57.53-24.23-85.35-38.47c-27.02-13.82-53.38-28.94-78.96-45.28c0.07-6.49,0.31-12.98,0.6-19.46
			c0.43-9.67,0.99-19.34,1.61-29c0.66-10.31,1.4-20.61,2.2-30.91c0.73-9.36,1.51-18.71,2.39-28.06c0.65-6.96,1.33-13.91,2.21-20.84
			c0.08-0.62,0.16-1.24,0.24-1.86c-0.07,0.53-0.14,1.06-0.21,1.6c0.24-1.82,0.4-3.79,0.85-5.62c2.25-1.53,4.51-3.06,6.78-4.57
			c15.75-10.46,31.96-20.26,48.68-29.09c15.33-8.09,30.15-14.94,45.43-20.71c13.93-5.26,28.2-9.64,42.76-12.76
			c3.45-0.74,6.93-1.41,10.41-2c1.56-0.26,3.12-0.51,4.68-0.74c0.63-0.09,1.26-0.18,1.89-0.27c-0.21,0.03,1.6-0.21,2.02-0.26
			c6.47-0.79,12.98-1.29,19.49-1.45c6.2-0.15,12.41,0.01,18.59,0.52c1.39,0.11,2.77,0.25,4.16,0.4c0.72,0.08,1.44,0.16,2.16,0.25
			c0.36,0.04,0.72,0.09,1.09,0.14c0.02,0,0.03,0,0.04,0.01c2.94,0.45,5.88,0.91,8.8,1.5c5.58,1.12,11.09,2.57,16.49,4.36
			c2.71,0.9,5.4,1.88,8.05,2.95c0.34,0.14,0.68,0.28,1.03,0.42c-0.2-0.08,0.98,0.41,1.3,0.56c1.35,0.6,2.7,1.21,4.03,1.85
			c4.99,2.4,9.83,5.11,14.47,8.12c2.38,1.54,4.72,3.16,7,4.86c0.48,0.36,0.96,0.72,1.44,1.09c0,0,0,0,0.01,0.01
			c0.29,0.23,0.59,0.46,0.88,0.69c1.13,0.9,2.24,1.81,3.33,2.74c10.75,9.17,20.14,20.21,29.23,31c0.44,0.52,0.88,1.05,1.31,1.57
			c0.12,0.2,0.25,0.4,0.4,0.58c0.18,0.28,0.31,0.45,0.4,0.56c2.12,4.52,4.46,8.95,6.5,13.51c2.64,5.9,5.03,11.91,7.26,17.98
			c4.51,12.25,8.43,24.74,11.7,37.38c6.62,25.6,10.48,51.85,11.49,78.27C543.33,336.2,541.49,363.46,536.5,390.13z M317.36,416.24
			c0.13,0.05,0.26,0.11,0.38,0.16c0.02,0.01,0.04,0.02,0.05,0.02C317.32,416.22,317.26,416.2,317.36,416.24z M516.31,269.18
			c-1.69-2.64-5.41-3.96-8.21-2.15c-2.65,1.71-3.96,5.38-2.15,8.21c2.37,3.71,4.41,7.6,6.17,11.63c2.76,6.74,4.65,13.79,5.69,21
			c0.92,7.51,0.92,15.1-0.02,22.61c-1.03,7.08-2.9,14.01-5.61,20.63c-1.28,2.93-2.71,5.79-4.32,8.56c-1.58,2.72-0.72,6.69,2.15,8.21
			c2.87,1.52,6.53,0.75,8.21-2.15c6.75-11.64,10.61-24.64,11.89-38c1.22-12.8-0.24-26.05-4.27-38.26
			C523.51,282.36,520.34,275.48,516.31,269.18z"/>
	</g>
</g>
</svg>
