<svg width="550" height="550" xmlns="http://www.w3.org/2000/svg"><g fill="none" fill-rule="evenodd"><path d="M0 0h550v550H0z"/><path d="M0 0h561v558H0z"/><path d="M115 346.11c2.073-34.513 4.93-59.02 8.573-73.524 7.389-29.428 20.69-53.874 34.03-73.06C192.408 149.472 267.369 116 275.002 116c7.634 0 34.968 13.38 49.234 22.031 31.45 19.069 52.292 41.056 61.93 54.88C443.039 274.493 435 345.646 435 346.109c0 .45-38.3 88.628-160 88.628-58.435 0-107.864-23.483-143.135-60.876-4.964-5.264-10.586-14.514-16.866-27.752z" fill="#8C5431"/><path d="M324.235 138.031c12.266 7.437 22.917 15.318 31.92 22.985l1.373 1.178 1.346 1.173a222.388 222.388 0 014.505 4.07l1.229 1.15.604.573 1.19 1.14 1.162 1.13 1.137 1.124c.375.373.745.745 1.11 1.115l1.085 1.106 1.057 1.096c.348.363.692.725 1.031 1.085l1.005 1.075c.496.535.982 1.065 1.458 1.59l.939 1.046.912 1.033.885 1.02.86 1.005.832.992.806.977.393.482.765.954.74.937.712.92.685.904.66.886.318.436.619.859.592.839c46.068 66.082 49.547 125.32 49.207 145.692l-.032 1.437c-.013.455-.027.886-.042 1.292l-.05 1.145-.025.516-.053.917-.075 1.083-.095 1.125-.044.118-.216.506-.401.868-.403.83-.613 1.213-.623 1.183-.573 1.053-.474.85-.513.898-.55.946-.59.991-.416.686-.434.704-.683 1.092-.478.75-11.137-.46-2.322-8.434-1.365-4.926-1.344-4.825-1.76-6.276-1.721-6.097-2.1-7.369-2.04-7.088-1.983-6.808-1.543-5.245-1.133-3.815-1.112-3.715-1.091-3.614-1.07-3.512-.701-2.286-.693-2.241-1.02-3.277-1.328-4.213-.972-3.041-.636-1.972-.936-2.873-.612-1.86-.603-1.815-.887-2.637-.866-2.537-.845-2.436-.824-2.335-.537-1.5-.529-1.456-.518-1.411-.51-1.366-.5-1.321-.49-1.276-.481-1.232-.395-.992-.516-1.27-.382-.922-.413-.98-.68-1.578-.492-1.123-.526-1.178-.559-1.233-.291-.636-.61-1.313-.643-1.364-.678-1.416-.352-.726-.731-1.491-.767-1.54c-.13-.26-.263-.522-.397-.787l-.821-1.61-.858-1.658-.444-.846-.914-1.725-.472-.879-.971-1.79-1.011-1.834c-9.958-17.926-25.41-41.699-48.2-67.49a63.384 63.384 0 00-1.3-1.424l-.694-.728c-.236-.245-.477-.491-.723-.74l-.753-.749a91.932 91.932 0 00-.782-.76l-.813-.77-.841-.783a115.62 115.62 0 00-.871-.792l-.901-.803-.93-.813-.96-.825-.492-.416-1.004-.84-1.034-.851-1.063-.862-1.093-.872-1.123-.883-1.152-.894-1.181-.904-1.212-.915-1.24-.926-1.27-.936-1.3-.947-1.33-.958-1.36-.968-1.388-.98-1.418-.99-1.448-1-1.478-1.01-1.506-1.022-2.316-1.553-1.581-1.048-.802-.529c2.706.91 5.85 2.148 9.22 3.598l1.571.683.797.353 1.61.724c1.082.49 2.177.997 3.28 1.517l1.66.787 1.667.804 1.67.817 1.667.829 1.66.837 1.65.843 1.634.846 1.613.847c.534.283 1.063.565 1.588.846l1.559.841.766.419 1.506.83.738.412 1.442.814 1.394.8c.228.131.454.262.678.393l1.313.773c.428.255.847.506 1.254.753zM262.45 120.2l.42.687c-37.004 28.627-63.382 57.48-79.135 86.556-8.349 15.411-16.909 36.784-25.679 64.119l-.994 3.12-.497 1.579-.997 3.196-.499 1.617-.999 3.273-1 3.324c-.168.558-.335 1.118-.502 1.68l-1.004 3.4c-.334 1.142-.67 2.293-1.005 3.452l-1.007 3.502-.505 1.77-1.01 3.578-1.011 3.63c-.338 1.218-.676 2.444-1.014 3.68l-1.015 3.73c-.17.627-.34 1.255-.509 1.886l-1.018 3.807-1.02 3.859-1.021 3.91c-.341 1.31-.682 2.63-1.024 3.96l-1.025 4.01-1.027 4.063-1.03 4.113-1.03 4.165-.516 2.1-1.033 4.241-.518 2.14-.055-.016-.124-.048a2.125 2.125 0 01-.144-.071l-.162-.094a4.718 4.718 0 01-.089-.056l-.19-.128-.211-.152-.23-.174-.379-.304-.277-.232-.45-.39-.669-.6-.55-.51-.595-.563-1.085-1.051-.708-.7-1.275-1.28-.823-.837-1.466-1.509-1.585-1.653-1.354-1.425-1.8-1.91-2.117-2.268-1.847-1.991c-.21-.229-.424-.46-.639-.692l.338-5.001.28-3.889.286-3.789.295-3.69.226-2.701.153-1.77.234-2.609.318-3.39.244-2.478.248-2.422.252-2.366.257-2.31.261-2.253.177-1.471.36-2.868.274-2.086.185-1.359.282-1.992.19-1.297.29-1.899.293-1.843.198-1.197.2-1.173.202-1.147.204-1.123.206-1.098.208-1.073.315-1.562.213-1.011.215-.986.216-.96.22-.937.22-.91.11-.447c5.973-23.784 15.807-44.314 26.402-61.443l1.08-1.73c.18-.287.361-.572.542-.856l1.086-1.695 1.09-1.672c.546-.83 1.093-1.65 1.64-2.463l1.095-1.612c.366-.534.731-1.063 1.097-1.589 22.873-32.896 63.092-58.63 90.143-72.407l1.933-.975 1.883-.933a238.67 238.67 0 018.603-4.02l1.54-.672c.25-.109.499-.215.745-.32z" fill="#B67C4C"/><path d="M149.163 370.62c14.964-62.236 28.417-106.28 40.359-132.134 11.942-25.854 32.697-54.945 62.267-87.273-13.226 45.506-22 81.836-26.323 108.992-4.323 27.156-8.42 71.672-12.29 133.55-15.765-2.885-27.38-5.72-34.843-8.504-7.463-2.784-17.186-7.661-29.17-14.63zM231.35 397.744c5.79-74.913 11.306-127.647 16.55-158.202 5.243-30.555 14.277-62.606 27.101-96.151 13.287 30.238 22.442 60.064 27.465 89.478 5.024 29.413 10.754 86.743 17.19 171.989-28.562 1.096-49.648 1.096-63.257 0-13.609-1.097-21.958-3.468-25.048-7.114zM336.57 397.618c-6.288-72.728-11.925-125.29-16.914-157.682-4.988-32.394-12-61.968-21.033-88.723 26.52 24.488 45.663 49.45 57.43 74.886 11.765 25.437 27.139 75.093 46.119 148.968-11.2 7.533-20.79 12.67-28.767 15.413-7.978 2.742-20.257 5.122-36.836 7.138z" fill="#B67C4C"/><path d="M435.001 346.11l-.011.039-.093.233-.189.43-.285.62c-5.192 11.04-46.24 87.305-159.422 87.305-58.435 0-107.864-23.483-143.135-60.876-1.354-1.436-2.757-3.168-4.209-5.196l-.583-.828-.588-.859a90.319 90.319 0 01-1.193-1.812l-.604-.954-.61-.985-.306-.505-.618-1.033-.622-1.064-.628-1.096-.633-1.128-.318-.576-.64-1.175a178.34 178.34 0 01-.323-.6l-.648-1.222-.327-.624-.656-1.27-.662-1.301-.666-1.334-.336-.678-.674-1.381-.68-1.413-.342-.718c.115-1.92.233-3.81.353-5.67C150.083 376.391 208.63 400 275.001 400c66.82 0 125.708-23.928 160.351-60.288l-.042 1.363-.05 1.206-.082 1.51-.066.979-.11 1.34z" fill="#5E2417"/></g></svg>
