<?xml version="1.0" encoding="utf-8"?>
<!DOCTYPE svg PUBLIC "-//W3C//DTD SVG 20010904//EN" "http://www.w3.org/TR/2001/REC-SVG-20010904/DTD/svg10.dtd">
<svg version="1.0" xmlns="http://www.w3.org/2000/svg" width="5333px" height="10000px" viewBox="0 0 5333 10000" preserveAspectRatio="xMidYMid meet">
 <g fill="#000000">
  <path d="M2638.7 9997.5 c-9.5 -3.7 -96.8 -61 -154.9 -101.9 -23 -16.1 -51.9 -36.2 -63.9 -44.6 -46 -32.1 -68.3 -47.9 -149.8 -106.3 -113.6 -81.1 -207.8 -149.4 -292.2 -211.1 -9.9 -7.3 -61.7 -45.3 -115.1 -84 -53.3 -38.7 -114.7 -84 -137 -100.5 -21.9 -16.4 -103.4 -76.3 -180.8 -133.7 -144.6 -106.3 -235.6 -173.9 -261.2 -193.6 -8 -5.8 -62.1 -46.4 -120.5 -89.5 -58.1 -43.1 -113.2 -83.6 -122.4 -90.6 -19.7 -15 -80.4 -60.3 -168 -124.9 -35.1 -25.9 -69.8 -51.5 -76.7 -57 -6.9 -5.5 -41.6 -31 -76.7 -57.3 -35.1 -25.9 -89.5 -66.1 -120.5 -89.5 -31 -23 -86.9 -64.7 -124.2 -92 -37.3 -27.8 -92 -68.7 -122.4 -91 -30 -22.6 -84.4 -62.8 -120.5 -89.9 -36.2 -26.7 -87.3 -65 -113.6 -84.7 l-47.9 -35.8 -2.6 -897.5 c-1.5 -493.5 -4 -1457.8 -5.8 -2143.1 -1.8 -685.3 -4 -1680.6 -4.4 -2212.5 l-1.1 -967.2 29.2 -29.2 c29.6 -30 139.9 -114.3 398.1 -305 22.3 -16.4 59.2 -43.5 82.2 -60.6 80.4 -59.5 323.6 -238.9 381.7 -281.3 32.1 -23.7 76.7 -56.3 98.6 -72.7 39.4 -29.2 191 -140.3 248 -181.5 16.1 -11.7 44.9 -32.9 63.9 -47.1 69.4 -50.8 321.4 -234.1 410.2 -298.1 75.2 -54.1 179.7 -129.3 229.4 -165.1 40.2 -28.5 160.4 -114 191.8 -135.9 10.2 -6.9 34 -23.7 53 -37.6 141.4 -100.5 341.2 -232.7 389 -257.2 43.5 -22.3 43.8 -22.6 65.4 -10.2 36.9 20.8 223.2 152.3 388.3 274 12.8 9.1 33.2 24.5 45.7 33.6 12.8 9.5 58.4 43.1 101.5 74.9 105.6 77.8 195.8 144.6 350.7 260.4 71.2 53.3 133.7 100.1 138.8 103.7 11 7.7 19.7 14.2 164.7 123.5 140.6 105.6 303.2 228.7 381.3 288.2 32.1 24.5 90.2 68.7 129.3 98.3 39.1 29.2 72.7 55.2 74.9 57.3 3.7 3.3 97.9 75.6 119.1 91 5.5 4 32.9 24.8 60.6 46.4 28.1 21.6 70.5 54.4 95 73.1 79.3 61 200.9 155.6 217 168.4 2.9 2.6 12.8 10.2 21.9 17.2 9.1 6.9 17.2 13.5 18.3 14.6 1.1 1.1 19 15.7 40.2 31.8 88.8 69 155.2 123.8 183 150.9 l24.5 23.7 2.2 31 c17.2 240.7 23.7 1454.5 24.1 4365.8 0 1495.1 -0.7 1759.9 -5.1 1762.4 -2.6 1.5 -16.4 13.5 -30 26.3 -35.4 33.2 -351 267 -761.2 564.7 -41.3 29.6 -85.5 62.1 -98.6 71.6 -30 22.3 -149 108.5 -230.9 167.3 -34.7 25.2 -95.3 68.7 -134.4 97.2 -39.1 28.5 -98.3 71.2 -131.5 95 -33.2 23.7 -101.2 73.1 -151.6 109.6 -50 36.5 -118.3 85.8 -151.6 109.6 -33.2 23.7 -95.7 69 -138.8 100.5 -43.1 31.4 -108.9 78.9 -146.1 105.9 -37.3 26.7 -77.4 55.9 -89.5 65 -29.2 21.6 -183 133.3 -239.6 174.2 -24.8 17.9 -82.9 60.6 -129.3 95.3 -82.6 61.4 -117.3 83.6 -153.4 99 -23.7 9.9 -38.4 12.4 -47.9 8.4z m139.9 -1259.1 c-0.4 -77.8 -0.7 -15 -0.7 139.5 0 154.9 0.4 218.4 0.7 141.7 0.7 -76.7 0.7 -203.1 0 -281.3z m607.5 -891.3 c0 -2.9 -3.3 0 -18.3 16.4 l-16.4 17.2 17.5 -16.4 c9.5 -8.8 17.2 -16.4 17.2 -17.2z m1606.1 -186.3 c-0.7 -11.7 -1.1 -2.9 -1.1 19 0 22.3 0.4 31.8 1.1 21.2 0.7 -10.6 0.7 -28.5 0 -40.2z m-576.8 -47.5 c-3.7 -0.7 -9.5 -0.7 -12.8 0 -3.7 1.1 -0.7 1.8 6.2 1.8 6.9 0 9.9 -0.7 6.6 -1.8z m-4069.5 -131.5 c-0.4 -21.6 -1.1 -4.7 -1.1 37.3 0 42.4 0.7 59.9 1.1 39.4 0.7 -20.5 0.7 -55.2 0 -76.7z m960.7 -683.1 c-0.4 -134.1 -0.7 -25.2 -0.7 241.8 0 267.4 0.4 377 0.7 244 0.7 -133 0.7 -351.4 0 -485.8z m-263 599 c-0.7 -13.9 -1.1 -2.6 -1.1 24.5 0 27 0.4 38.4 1.1 24.8 0.7 -13.9 0.7 -35.8 0 -49.3z m2986.1 -562.5 c-0.4 -291.1 -1.1 -663 -1.8 -826.6 -0.4 -163.6 -1.1 74.2 -1.8 528.9 -0.4 454.4 0.4 826.2 2.2 826.2 1.5 0 2.2 -237.8 1.5 -528.6z m210 288.6 c-1.1 -3.7 -1.8 -0.7 -1.8 6.2 0 6.9 0.7 9.9 1.8 6.6 0.7 -3.7 0.7 -9.5 0 -12.8z m756.1 -957 c-0.4 -170.6 -0.7 -31 -0.7 309.4 0 340.4 0.4 480 0.7 309.8 0.7 -170.6 0.7 -448.9 0 -619.1z m-3948.6 825.5 c-0.7 -13.9 -1.1 -2.6 -1.1 24.5 0 27 0.4 38.4 1.1 24.8 0.7 -13.9 0.7 -35.8 0 -49.3z m3196.1 40.2 c-0.7 -5.8 -1.5 -1.1 -1.5 9.9 0 11 0.7 15.7 1.5 10.2 0.7 -5.8 0.7 -14.6 0 -20.1z m-3901.1 -317.8 c-0.4 -21.6 -1.1 -4.7 -1.1 37.3 0 42.4 0.7 59.9 1.1 39.4 0.7 -20.5 0.7 -55.2 0 -76.7z m3904.8 -147.9 c-0.4 -34.7 -1.1 -7.3 -1.1 61 0 68.3 0.7 96.8 1.1 63.2 0.7 -33.6 0.7 -89.5 0 -124.2z m-3196.1 -9.1 c-0.4 -17.9 -1.1 -3.3 -1.1 31.8 0 35.1 0.7 49.7 1.1 32.1 0.7 -17.9 0.7 -46.4 0 -63.9z m3.7 -242.9 c-0.7 -8.8 -1.5 -2.6 -1.5 13.5 0 16.1 0.7 23 1.5 15.7 0.7 -7.7 0.7 -20.8 0 -29.2z m248.4 -53 c-0.7 -7.7 -1.5 -1.5 -1.5 13.5 0 15 0.7 21.2 1.5 13.9 0.7 -7.7 0.7 -20.1 0 -27.4z m-244.7 -122.4 c-0.7 -4.7 -1.5 -1.1 -1.5 8 0 9.1 0.7 12.8 1.5 8.4 0.7 -4.7 0.7 -12.1 0 -16.4z m241.1 -54.8 c-0.7 -4.7 -1.5 -1.8 -1.5 6.2 -0.4 8 0.4 11.7 1.5 8.4 0.7 -3.7 0.7 -10.2 0 -14.6z m-960.7 -190.3 c-0.4 -30.7 -1.1 -4.4 -1.1 57.7 0 62.5 0.7 87.3 1.1 55.5 0.7 -31.8 0.7 -82.9 0 -113.2z m723.2 131.9 c-0.7 -4.7 -1.5 -1.8 -1.5 6.2 -0.4 8 0.4 11.7 1.5 8.4 0.7 -3.7 0.7 -10.2 0 -14.6z m233.8 -53 c-1.1 -3.7 -1.8 -0.7 -1.8 6.2 0 6.9 0.7 9.9 1.8 6.6 0.7 -3.7 0.7 -9.5 0 -12.8z m2947.8 -341.5 c-0.4 -22.6 -1.1 -5.1 -1.1 39.1 0 44.2 0.7 62.8 1.1 41.3 0.7 -21.6 0.7 -57.7 0 -80.4z m-211.9 -403.6 c-0.4 -15.7 -1.1 -2.9 -1.1 28.1 0 31 0.7 43.8 1.1 28.5 0.7 -15.7 0.7 -41.3 0 -56.6z m-2735.9 23.7 c-0.7 -4.7 -1.5 -1.8 -1.5 6.2 -0.4 8 0.4 11.7 1.5 8.4 0.7 -3.7 0.7 -10.2 0 -14.6z m2944.1 -116.9 c-0.4 -22.6 -1.1 -5.1 -1.1 39.1 0 44.2 0.7 62.8 1.1 41.3 0.7 -21.6 0.7 -57.7 0 -80.4z m-3174.2 63.9 c-1.1 -3.7 -1.8 -0.7 -1.8 6.2 0 6.9 0.7 9.9 1.8 6.6 0.7 -3.7 0.7 -9.5 0 -12.8z m233.8 -69.4 c-0.7 -5.8 -1.5 -1.8 -1.5 8 0 10.2 0.7 14.6 1.5 10.2 0.7 -4.7 0.7 -12.8 0 -18.3z m-237.4 -21.9 c-0.7 -5.8 -1.5 -1.8 -1.5 8 0 10.2 0.7 14.6 1.5 10.2 0.7 -4.7 0.7 -12.8 0 -18.3z m-723.2 -252 c-0.4 -35.8 -0.7 -7.3 -0.7 62.8 -0.4 70.5 0.4 99.7 0.7 65 0.7 -34.3 0.7 -92 0 -127.8z m719.6 80.4 c-0.7 -7.7 -1.5 -2.2 -1.5 11.7 0 14.2 0.7 20.1 1.5 13.9 0.7 -6.6 0.7 -18.3 0 -25.6z m244.7 -20.1 c-0.7 -8.8 -1.5 -1.8 -1.5 15.3 0 17.2 0.7 24.1 1.5 15.7 0.7 -8.8 0.7 -22.6 0 -31z m2732.2 -29.6 c-0.7 -8.4 -1.1 -0.4 -1.1 17.5 0 18.3 0.4 24.8 1.1 15.3 0.7 -9.5 0.7 -24.5 0 -32.9z m957 -333.9 c-0.4 -35.8 -0.7 -7.3 -0.7 62.8 -0.4 70.5 0.4 99.7 0.7 65 0.7 -34.3 0.7 -92 0 -127.8z m-953.4 147.9 c-0.7 -4.7 -1.5 -1.1 -1.5 8 0 9.1 0.7 12.8 1.5 8.4 0.7 -4.7 0.7 -12.1 0 -16.4z m-2984.3 -316 c-0.4 -49.7 -0.7 -9.9 -0.7 88.4 0 98.6 0.4 139.2 0.7 90.6 0.7 -48.6 0.7 -128.9 0 -179z m252 -7.3 c-0.4 -46 -0.7 -8.4 -0.7 82.9 0 91.3 0.4 128.9 0.7 83.3 0.7 -46 0.7 -120.5 0 -166.2z m2929.5 197.2 c-1.1 -3.7 -1.8 -0.7 -1.8 6.2 0 6.9 0.7 9.9 1.8 6.6 0.7 -3.7 0.7 -9.5 0 -12.8z m-3893.8 -451.1 c-0.4 -14.6 -1.1 -3.7 -1.1 24.5 0 28.1 0.4 40.2 1.1 26.7 0.7 -13.5 0.7 -36.5 0 -51.1z m960.7 -129.7 c-0.7 -9.9 -1.1 -1.8 -1.1 17.2 0 19 0.4 27 1.1 17.5 0.7 -9.9 0.7 -25.2 0 -34.7z m-244.7 -1.8 c-0.7 -6.6 -1.5 -2.2 -1.5 9.9 0 12.1 0.7 17.5 1.5 12.1 0.7 -5.5 0.7 -15.3 0 -21.9z m3185.2 3.7 c-0.7 -4.7 -1.5 -1.8 -1.5 6.2 -0.4 8 0.4 11.7 1.5 8.4 0.7 -3.7 0.7 -10.2 0 -14.6z m-233.8 -71.2 c-1.1 -3.7 -1.8 -0.7 -1.8 6.2 0 6.9 0.7 9.9 1.8 6.6 0.7 -3.7 0.7 -9.5 0 -12.8z m237.4 -91.3 c-0.7 -7.7 -1.5 -1.5 -1.5 13.5 0 15 0.7 21.2 1.5 13.9 0.7 -7.7 0.7 -20.1 0 -27.4z m741.5 -95 c-0.4 -23.7 -1.1 -5.1 -1.1 40.9 0 46.4 0.7 65.7 1.1 43.1 0.7 -22.6 0.7 -60.3 0 -84z m-982.6 84 c-0.7 -5.8 -1.5 -1.8 -1.5 8 0 10.2 0.7 14.6 1.5 10.2 0.7 -4.7 0.7 -12.8 0 -18.3z m-2944.1 1.8 c-0.7 -4.7 -1.5 -1.8 -1.5 6.2 -0.4 8 0.4 11.7 1.5 8.4 0.7 -3.7 0.7 -10.2 0 -14.6z m237.4 -27.4 c-0.7 -5.8 -1.5 -1.1 -1.5 9.9 0 11 0.7 15.7 1.5 10.2 0.7 -5.8 0.7 -14.6 0 -20.1z m-953.4 -93.1 c-0.7 -10.6 -1.1 -2.9 -1.1 17.2 0 20.1 0.4 28.9 1.1 19.4 0.7 -9.5 0.7 -25.9 0 -36.5z m719.6 31 c-1.1 -3.7 -1.8 -0.7 -1.8 6.2 0 6.9 0.7 9.9 1.8 6.6 0.7 -3.7 0.7 -9.5 0 -12.8z m230.1 -53 c-0.7 -4.7 -1.5 -1.8 -1.5 6.2 -0.4 8 0.4 11.7 1.5 8.4 0.7 -3.7 0.7 -10.2 0 -14.6z m2706.7 -93.1 c-0.7 -9.9 -1.1 -1.8 -1.1 17.2 0 19 0.4 27 1.1 17.5 0.7 -9.9 0.7 -25.2 0 -34.7z m248.4 -790.8 c-0.4 -151.2 -0.7 -28.5 -0.7 272.9 0 301.4 0.4 425.2 0.7 275.1 0.7 -149.8 0.7 -396.3 0 -547.9z m-3901.1 677.6 c-0.7 -7.7 -1.5 -1.5 -1.5 13.5 0 15 0.7 21.2 1.5 13.9 0.7 -7.7 0.7 -20.1 0 -27.4z m4635.3 -211.9 c-0.4 -19.7 -1.1 -4.4 -1.1 33.6 0 38.4 0.7 54.4 1.1 35.8 0.7 -18.6 0.7 -49.7 0 -69.4z m-4631.7 -71.2 c-0.7 -8.8 -1.5 -2.6 -1.5 13.5 0 16.1 0.7 23 1.5 15.7 0.7 -7.7 0.7 -20.8 0 -29.2z m825.9 -82.2 c-3.7 -0.7 -9.5 -0.7 -12.8 0 -3.7 1.1 -0.7 1.8 6.2 1.8 6.9 0 9.9 -0.7 6.6 -1.8z m-822.2 -213.7 c-0.7 -8.8 -1.5 -1.8 -1.5 15.3 0 17.2 0.7 24.1 1.5 15.7 0.7 -8.8 0.7 -22.6 0 -31z m4624.4 -105.9 c-0.4 -14.6 -1.1 -3.7 -1.1 24.5 0 28.1 0.4 40.2 1.1 26.7 0.7 -13.5 0.7 -36.5 0 -51.1z m-3674.7 -16.4 c-0.7 -9.9 -1.1 -1.8 -1.1 17.2 0 19 0.4 27 1.1 17.5 0.7 -9.9 0.7 -25.2 0 -34.7z m2692.1 -87.7 c-0.7 -7.7 -1.5 -1.5 -1.5 13.5 0 15 0.7 21.2 1.5 13.9 0.7 -7.7 0.7 -20.1 0 -27.4z m-3638.1 -9.1 c-0.7 -8.8 -1.5 -2.6 -1.5 13.5 0 16.1 0.7 23 1.5 15.7 0.7 -7.7 0.7 -20.8 0 -29.2z m697.7 16.4 c-1.1 -3.7 -1.8 -0.7 -1.8 6.2 0 6.9 0.7 9.9 1.8 6.6 0.7 -3.7 0.7 -9.5 0 -12.8z m2936.8 -115.1 c-0.7 -4.7 -1.5 -1.8 -1.5 6.2 -0.4 8 0.4 11.7 1.5 8.4 0.7 -3.7 0.7 -10.2 0 -14.6z m982.6 -122.4 c-0.7 -9.9 -1.1 -1.8 -1.1 17.2 0 19 0.4 27 1.1 17.5 0.7 -9.9 0.7 -25.2 0 -34.7z m-4613.4 -74.9 c-0.7 -8.8 -1.5 -2.6 -1.5 13.5 0 16.1 0.7 23 1.5 15.7 0.7 -7.7 0.7 -20.8 0 -29.2z m4609.8 -84 c-0.7 -6.6 -1.5 -2.2 -1.5 9.9 0 12.1 0.7 17.5 1.5 12.1 0.7 -5.5 0.7 -15.3 0 -21.9z m-2418.1 -1651 c-0.4 -18.6 -1.1 -4.4 -1.1 31.8 0 36.2 0.7 51.5 1.1 34 0.7 -17.5 0.7 -47.1 0 -65.7z"/>
 </g>
 <g fill="#248353">
  <path d="M2798.4 9545.3 c-1.8 -3.7 -6.6 -35.4 -9.9 -70.5 -5.1 -54.4 -6.6 -122.7 -7.7 -470.8 l-1.5 -407.3 37.6 -29.2 c154.5 -120.5 269.6 -214.8 310.8 -253.9 67.2 -64.3 89.9 -97.9 90.2 -133 0 -23.4 -10.6 -44.9 -31.4 -64.3 -43.5 -39.8 -86.9 -39.1 -168.4 3.7 -49.7 25.9 -87.3 51.9 -185.9 127.8 -118.7 91.3 -160.7 116.9 -192.9 116.9 -9.5 0 -20.8 -1.8 -25.2 -4.4 -8 -4 -75.6 -47.1 -318.5 -203.1 -70.1 -44.9 -143.6 -92 -162.5 -104.1 -19 -12.1 -45.3 -28.9 -58.4 -37.3 -13.1 -8.8 -67.9 -44.2 -122.4 -78.5 -190.3 -121.6 -301.4 -192.9 -361.6 -231.9 -9.9 -6.6 -39.4 -25.6 -65.7 -42 -52.6 -33.6 -67.6 -43.1 -155.6 -99.7 l-60.6 -39.1 -2.2 -611.1 c-2.2 -625.7 -5.8 -855.5 -15.3 -999.8 -6.6 -97.9 -10.6 -115.1 -31 -132.6 -42.7 -36.5 -126 -38 -164.7 -2.6 -13.5 12.1 -14.6 14.6 -19.4 47.5 -15.3 100.5 -22.6 351.4 -27.8 969.8 -1.8 241.1 -4.7 500.8 -5.8 577.5 l-2.2 139.2 -15.3 6.6 c-8 3.7 -31.8 14.6 -52.6 24.5 -20.8 9.5 -38.4 17.5 -39.1 17.5 -0.7 0 -14.2 5.8 -30 13.1 -15.7 7.3 -64.7 29.6 -108.9 49.7 -44.2 20.1 -95.7 43.8 -114.3 52.6 -18.6 8.8 -34.3 16.1 -35.1 16.1 -0.7 0 -15.3 6.2 -32.1 14.2 -16.4 7.7 -48.2 22.3 -70.5 32.5 -21.9 9.9 -51.5 23.4 -65.7 30 -13.9 6.6 -48.6 22.6 -76.7 35.1 l-51.1 23 -2.6 -271 c-1.1 -149 -4 -702.4 -6.2 -1229.9 -4.4 -977.8 -1.1 -2171.2 6.9 -2701.2 1.8 -132.6 5.5 -369.3 7.3 -526 2.2 -156.7 5.5 -392.7 7.3 -524.2 1.8 -131.5 3.7 -276.9 3.7 -322.5 l0 -83.3 35.8 19 c19.4 10.2 57 30.3 82.9 44.6 217 116.9 257.5 136.6 321.8 157.8 60.6 19.7 98.3 16.1 125.7 -12.4 17.5 -17.9 32.9 -54.1 32.9 -78.2 0 -45.7 -40.5 -89.1 -142.5 -152.7 -50 -31.4 -58.1 -36.2 -169.9 -95.7 -81.8 -43.5 -173.1 -98.6 -179 -108.1 -4 -6.9 39.1 -42.4 144.3 -118 31 -22.3 96.8 -70.1 146.1 -106.3 49.3 -36.2 102.6 -75.2 118.7 -86.9 16.1 -11.7 83.6 -60.6 149.8 -109.2 114.3 -83.6 179.3 -130.8 461 -336.8 66.8 -48.9 155.6 -113.2 197.2 -143.6 41.3 -30 84.4 -61.4 95.7 -69.8 106.3 -77.4 193.2 -140.3 254.2 -184.1 40.2 -28.9 111 -79.6 157.1 -112.5 46.4 -33.2 97.9 -70.1 115.1 -82.2 17.2 -12.1 43.5 -30.7 58.4 -41.3 72 -51.1 146.8 -100.1 152.7 -100.1 10.2 0 14.6 4.7 21.2 21.9 4.7 13.9 6.6 42.4 9.1 171.7 4 213.3 9.9 267.7 31.8 306.8 20.1 35.8 44.6 46.4 98.3 42.7 61.7 -4.4 71.6 -17.5 79.6 -105.2 2.6 -31 5.8 -98.3 7.3 -149.4 4 -166.9 18.3 -310.5 30.7 -310.5 2.9 0 58.4 38.7 84.4 59.2 6.9 5.5 50.8 38 96.8 72.3 46.4 34.3 89.1 66.1 95 70.9 6.2 4.4 108.1 81.1 226.5 170.2 118.7 89.1 219.5 165.1 224.6 168.8 5.1 4 34.7 25.9 65.7 49.3 75.2 56.3 318.9 239.3 339.7 255 9.1 6.9 24.8 18.6 34.7 25.9 58.8 44.2 259.3 195.4 299.5 226.1 26.3 19.7 54.8 41.6 63.9 48.6 9.1 6.6 19 14.2 21.9 16.4 2.9 2.6 35.8 27.4 73.1 55.5 37.3 28.1 70.1 53 73.1 55.5 2.9 2.6 40.9 31.8 84 65.4 170.6 132.6 241.1 193.2 241.1 207.8 0 8 -35.8 28.5 -160.7 90.6 -126 63.2 -192.5 95 -284.9 137 -9.1 4 -31 14.2 -48.6 22.3 -17.9 8.4 -32.9 15 -33.6 15 -0.7 0 -15.7 6.6 -32.9 14.6 -17.2 8 -32.5 14.6 -33.6 14.6 -1.1 0 -6.9 2.6 -13.1 5.5 -24.1 11 -70.1 27.4 -77.4 27.4 -12.1 0 -178.6 -97.2 -385.4 -224.6 -35.1 -21.6 -82.9 -50.8 -105.9 -65 -23 -13.9 -48.6 -30 -56.6 -35.4 -40.2 -27.4 -381 -232.3 -474.9 -285.6 -73.8 -42 -98.3 -54.1 -110.3 -54.1 -28.1 0 -62.8 32.1 -77.8 72 -10.2 27.8 -11.3 70.9 -2.2 88 27.8 52.6 170.6 152 599.4 417.1 28.1 17.5 96.4 60.3 151.6 95 55.2 34.7 126 78.9 157.1 98.6 47.1 29.2 147.6 93.1 153 97.5 5.5 4 8 162.5 11 696.9 4 743 11 940.6 33.2 984 31 61 108.1 81.1 165.5 43.5 17.5 -11.3 24.5 -22.6 30 -49.7 16.8 -78.2 23.7 -421.5 23.7 -1157.2 l0 -500.8 50.4 -24.1 c27.4 -13.1 70.5 -33.6 95.7 -45.7 25.2 -11.7 61.4 -29.2 80.4 -38.4 116.5 -55.5 150.9 -72 151.6 -72 0.7 0 18.6 -8 39.8 -18.3 21.2 -9.9 39.4 -18.3 40.2 -18.3 0.7 0 17.2 -7.3 36.5 -16.4 19.4 -9.1 36.2 -16.4 37.3 -16.4 1.1 0 7.3 -2.6 13.5 -5.5 23.4 -10.6 96.4 -39.4 125.7 -49.7 33.2 -11.7 44.2 -13.1 46.8 -6.2 4 12.1 9.5 451.1 15.3 1157.2 4.4 579 6.2 1232.4 6.2 2609.9 0.4 1010.7 -1.1 1846.8 -2.6 1858.5 -1.8 11.3 -4.4 20.8 -6.2 20.8 -6.6 0 -85.8 -37.6 -263 -125.3 -135.9 -66.8 -163.3 -79.6 -217.7 -99.4 -105.6 -38.7 -148.7 -27 -173.1 46 -8.8 26.3 -13.1 63.6 -9.5 78.2 8 31.4 85.1 81.5 212.2 137.7 12.1 5.1 40.2 17.5 62.1 27.8 22.3 9.9 59.9 26.7 84 37.3 56.6 24.8 165.5 78.5 176.4 86.9 l8.4 6.6 -37.6 29.2 c-20.8 16.1 -50 38.4 -65 49.3 -15 11.3 -66.8 49.7 -115.1 85.5 -48.2 36.2 -104.8 77.8 -126 93.1 -21.2 15 -54.1 39.1 -73.1 53.3 -19 14.2 -53.7 39.4 -76.7 56.6 -23 16.8 -79.6 58.1 -126 92 -250.2 182.6 -309.8 226.5 -379.9 276.9 -42 30.7 -88 64.3 -102.3 74.5 -29.2 21.6 -143.6 104.5 -231.9 168 -33.2 23.7 -93.5 67.2 -133.7 96.4 -40.5 29.2 -99.7 72 -131.5 95 -32.1 23 -64.7 46.4 -72.7 52.2 -82.2 60.3 -365.3 260.1 -384.3 271 -2.6 1.5 -5.8 -0.7 -8 -4.4z m644.7 -1449.4 c115.1 -65 417.5 -332.4 442 -390.8 2.9 -7.3 4.4 -16.8 2.9 -22.6 -8.4 -34.7 -44.6 -90.6 -72.7 -112.1 -21.9 -16.4 -36.9 -16.1 -70.1 1.8 -154.1 84 -407.6 299.5 -453.7 385.4 -26.3 49.7 13.9 126.4 77.8 148.3 30 10.2 40.9 8.8 73.8 -9.9z m742.2 -711.6 c27.8 -14.2 43.8 -78.2 52.2 -206.7 7.3 -115.4 9.5 -488 6.6 -1141.5 -2.6 -591.7 -7.7 -1466.2 -8.4 -1466.9 -4.4 -2.9 -120.5 -8.8 -136.6 -6.6 -23.7 2.6 -43.8 14.2 -51.9 29.2 -13.1 23.7 -18.3 454.4 -20.8 1736.5 l-2.2 1033.7 54.4 13.1 c58.8 14.6 91 17.2 106.7 9.1z m-2959.4 -1894.7 c28.1 -10.6 47.9 -29.2 54.4 -51.9 15.7 -55.2 24.8 -409.1 24.8 -970.5 0 -552.3 -9.1 -904.1 -24.8 -959.2 -5.8 -20.8 -20.1 -35.8 -46.8 -49.7 -21.6 -11.3 -79.3 -13.9 -104.1 -4.7 -21.9 8 -40.5 21.9 -44.6 33.2 -36.2 94.6 -43.1 1589.3 -8.8 1913.3 2.9 30.3 7.3 57.7 9.1 61.4 4.4 8.4 24.1 23.4 38 28.5 30.3 12.1 69.8 11.7 102.6 -0.4z m-5.5 -2387.1 c21.2 -6.2 46 -24.5 55.5 -40.5 16.1 -27.8 29.2 -151.2 29.2 -271.4 0 -109.2 -10.6 -219.2 -25.2 -258.2 -12.8 -35.1 -55.2 -57.7 -107.4 -57.3 -51.5 0.4 -84.4 19.7 -95.7 57 -14.6 46.8 -19 103.7 -19 256.8 -0.4 187 8.4 263.7 32.1 289.7 27 30 78.9 39.4 130.4 24.1z m612.2 -867.5 c22.6 -13.9 88.8 -59.2 128.9 -88 58.1 -42.4 298.8 -227.6 306.8 -236.7 1.1 -1.1 14.2 -11.7 29.2 -23.7 112.9 -90.6 235.6 -196.2 273.2 -235.2 11 -11.3 21.9 -25.6 24.8 -32.1 20.1 -45.7 -20.8 -123.1 -74.5 -141.4 -31.8 -11 -41.3 -8.4 -104.1 29.6 -49.3 29.6 -119.4 78.5 -197.6 137.7 -31.8 24.5 -62.5 47.5 -67.6 51.5 -38 28.9 -234.9 187 -276.1 222.1 -69 58.8 -157.8 148.7 -171.3 173.9 -9.1 17.5 -10.2 22.3 -8.8 44.2 3.3 44.6 29.2 85.5 66.1 103.7 27 13.5 41.3 12.4 70.9 -5.5z"/>
 </g>
 <g fill="#34d183">
  <path d="M2463.8 9527.4 c-20.1 -13.9 -64.3 -45.3 -98.6 -70.1 -94.6 -69.4 -229.4 -168.4 -304.6 -224.3 -37.3 -27.4 -95 -70.1 -128.2 -94.6 -33.2 -24.5 -107.8 -80.4 -166.2 -123.5 -58.1 -43.5 -110.7 -82.2 -116.9 -86.2 -9.5 -6.2 -77.1 -55.9 -334.2 -246.2 -79.3 -58.8 -202.7 -150.9 -265.2 -198 -25.9 -19.7 -68.3 -51.1 -94.6 -70.5 -77.4 -57 -243.3 -180.1 -261.2 -193.6 -9.1 -6.9 -24.5 -18.6 -34.7 -25.9 -69 -51.5 -142.1 -109.6 -169.5 -135.2 -8 -7.7 -11.7 -13.5 -10.2 -17.5 2.6 -6.9 118 -64.7 211.9 -106.3 10.6 -4.4 27.8 -12.4 38.7 -17.9 11 -5.1 21.2 -9.5 22.6 -9.5 1.5 0 14.6 -5.5 29.6 -12.4 14.6 -6.9 62.8 -28.5 107 -47.9 44.2 -19.4 87.3 -38.7 95.7 -42.4 8.4 -3.7 16.1 -6.9 17.2 -6.9 0.7 0 12.1 -4.7 24.8 -10.6 47.9 -21.9 124.2 -52.2 135.5 -53.7 12.4 -2.2 15.3 -0.4 187 109.2 36.2 23 81.1 51.5 100.1 63.2 46 29.2 89.5 56.6 176.8 112.5 40.5 25.9 94.2 60.3 119.4 76.3 25.2 16.1 58.8 37.6 74.9 48.2 16.1 10.2 53 34.3 82.2 53 29.2 18.3 61.4 39.1 71.2 45.7 10.2 6.6 53.7 34.7 96.8 62.1 43.1 27.8 91.7 58.8 107.8 69.4 16.1 10.2 64.7 41.6 107.8 69.4 43.1 27.8 92.8 59.5 110.3 70.9 17.2 11.3 54.1 34.7 81.5 52.6 l50 31.8 -1.8 382.8 c-1.8 366 -4.4 462.8 -13.9 529.6 -6.6 45.7 -6.2 45.3 -48.9 16.4z"/>
  <path d="M2536.5 8311.4 c-46 -29.6 -98.3 -62.8 -116.5 -74.5 -17.9 -11.3 -82.2 -52.2 -142.5 -91 -60.3 -39.1 -125.3 -80.7 -144.3 -92.8 -19 -12.1 -45.3 -28.9 -58.4 -37.3 -13.1 -8.8 -67.9 -44.2 -122.4 -78.5 -190.3 -121.6 -301.4 -192.9 -361.6 -231.9 -9.9 -6.6 -39.4 -25.6 -65.7 -42 -52.6 -33.6 -67.6 -43.1 -155.6 -99.7 l-60.6 -39.1 -2.2 -611.1 c-2.2 -625.7 -5.8 -855.5 -15.3 -999.8 -6.6 -97.9 -10.6 -115.1 -31 -132.6 -42.7 -36.5 -126 -38 -164.7 -2.6 -13.5 12.1 -14.6 14.6 -19.4 47.5 -15.3 100.5 -22.6 351.4 -27.8 969.8 -1.8 241.1 -4.7 500.8 -5.8 577.5 l-2.2 139.2 -15.3 6.6 c-8 3.7 -31.8 14.6 -52.6 24.5 -20.8 9.5 -38.4 17.5 -39.1 17.5 -0.7 0 -14.2 5.8 -30 13.1 -15.7 7.3 -64.7 29.6 -108.9 49.7 -44.2 20.1 -95.7 43.8 -114.3 52.6 -18.6 8.8 -34.3 16.1 -35.1 16.1 -0.7 0 -15.3 6.2 -32.1 14.2 -16.4 7.7 -48.2 22.3 -70.5 32.5 -21.9 9.9 -51.5 23.4 -65.7 30 -13.9 6.6 -48.6 22.6 -76.7 35.1 l-51.1 23 -2.6 -271 c-1.1 -149 -4 -702.4 -6.2 -1229.9 -4.4 -977.8 -1.1 -2171.2 6.9 -2701.2 1.8 -132.6 5.5 -369.3 7.3 -526 2.2 -156.7 5.5 -392.7 7.3 -524.2 1.8 -131.5 3.7 -276.9 3.7 -322.5 l0 -83.3 35.8 19 c19.4 10.2 57 30.3 82.9 44.6 217 116.9 257.5 136.6 321.8 157.8 60.6 19.7 98.3 16.1 125.7 -12.4 17.5 -17.9 32.9 -54.1 32.9 -78.2 0 -45.7 -40.5 -89.1 -142.5 -152.7 -50 -31.4 -58.1 -36.2 -169.9 -95.7 -81.8 -43.5 -173.1 -98.6 -179 -108.1 -4 -6.9 39.1 -42.4 144.3 -118 31 -22.3 96.8 -70.1 146.1 -106.3 49.3 -36.2 102.6 -75.2 118.7 -86.9 16.1 -11.7 83.6 -60.6 149.8 -109.2 114.3 -83.6 179.3 -130.8 461 -336.8 66.8 -48.9 155.6 -113.2 197.2 -143.6 41.3 -30 84.4 -61.4 95.7 -69.8 106.3 -77.4 193.2 -140.3 254.2 -184.1 40.2 -28.9 111 -79.6 157.1 -112.5 46.4 -33.2 97.9 -70.1 115.1 -82.2 17.2 -12.1 43.5 -30.7 58.4 -41.3 72 -51.1 146.8 -100.1 152.7 -100.1 10.2 0 14.6 4.7 21.2 21.9 4.7 13.9 6.6 42.4 9.1 171.7 4 213.3 9.9 267.7 31.8 306.8 20.1 35.4 44.9 46.4 97.9 42.7 48.2 -3.3 61.7 -12.1 72.7 -47.1 4.4 -13.5 5.1 24.1 5.1 258.2 l0.4 274 -8.4 12.8 c-4.7 6.9 -18.6 31.8 -31 54.8 -17.9 34 -26.3 45.3 -42.4 59.2 l-20.5 16.8 21.9 -1.8 21.9 -2.2 107.8 72.3 c105.6 71.2 107.8 72.7 109.9 86.6 2.9 16.8 17.9 40.5 36.9 58.1 70.5 63.9 218.1 162.5 569.1 379.5 28.1 17.5 96.4 60.3 151.6 95 55.2 34.7 126 78.9 157.1 98.6 47.1 29.2 147.6 93.1 153 97.5 5.5 4 8 162.5 11 696.9 4.4 768.5 10.6 942.4 35.8 988.4 18.3 33.6 49.7 54.1 87.7 57.3 l23 1.8 0 154.1 0 154.1 -29.2 0.4 c-45.7 0.7 -67.9 15 -73.4 47.1 -9.9 59.9 -17.9 968.3 -17.9 2021.8 l0 733.1 16.4 2.6 16.4 2.2 0 111.4 c0 70.1 -1.5 110.3 -3.7 108.9 -1.8 -1.1 -19.4 8.4 -39.1 21.2 -48.2 31.4 -107 70.5 -116.9 77.8 -7.7 5.5 -8 5.5 -10.6 -4.7 -8.4 -35.1 -44.6 -90.6 -72.7 -112.5 -21.9 -16.4 -36.9 -16.1 -70.1 1.8 -154.1 84 -407.6 299.5 -453.7 385.4 -9.1 17.5 -10.2 50.4 -2.2 70.1 4.7 11 4.7 13.9 1.1 16.1 -2.6 1.5 -25.9 19.4 -51.9 39.4 l-47.5 36.5 -11 -9.5 c-39.4 -33.2 -85.1 -30.3 -161.8 9.9 -49.7 25.9 -87.3 51.9 -185.9 127.8 -120.2 92.4 -160.7 116.9 -194 116.9 -17.5 0 -23 -2.9 -101.9 -53.3z m-1310.6 -2821.7 c28.1 -10.6 47.9 -29.2 54.4 -51.9 15.7 -55.2 24.8 -409.1 24.8 -970.5 0 -552.3 -9.1 -904.1 -24.8 -959.2 -5.8 -20.8 -20.1 -35.8 -46.8 -49.7 -21.6 -11.3 -79.3 -13.9 -104.1 -4.7 -21.9 8 -40.5 21.9 -44.6 33.2 -36.2 94.6 -43.1 1589.3 -8.8 1913.3 2.9 30.3 7.3 57.7 9.1 61.4 4.4 8.4 24.1 23.4 38 28.5 30.3 12.1 69.8 11.7 102.6 -0.4z m-5.5 -2387.1 c21.2 -6.2 46 -24.5 55.5 -40.5 16.1 -27.8 29.2 -151.2 29.2 -271.4 0 -109.2 -10.6 -219.2 -25.2 -258.2 -12.8 -35.1 -55.2 -57.7 -107.4 -57.3 -51.5 0.4 -84.4 19.7 -95.7 57 -14.6 46.8 -19 103.7 -19 256.8 -0.4 187 8.4 263.7 32.1 289.7 27 30 78.9 39.4 130.4 24.1z m612.2 -867.5 c22.6 -13.9 88.8 -59.2 128.9 -88 58.1 -42.4 298.8 -227.6 306.8 -236.7 1.1 -1.1 14.2 -11.7 29.2 -23.7 112.9 -90.6 235.6 -196.2 273.2 -235.2 11 -11.3 21.9 -25.6 24.8 -32.1 20.1 -45.7 -20.8 -123.1 -74.5 -141.4 -31.8 -11 -41.3 -8.4 -104.1 29.6 -49.3 29.6 -119.4 78.5 -197.6 137.7 -31.8 24.5 -62.5 47.5 -67.6 51.5 -38 28.9 -234.9 187 -276.1 222.1 -69 58.8 -157.8 148.7 -171.3 173.9 -9.1 17.5 -10.2 22.3 -8.8 44.2 3.3 44.6 29.2 85.5 66.1 103.7 27 13.5 41.3 12.4 70.9 -5.5z"/>
 </g>
 <g fill="#beedd5">
  <path d="M1512.2 8828.7 c-73.4 -54.4 -161.5 -119.8 -196.2 -145.4 -34.3 -25.6 -96.8 -71.6 -138.8 -102.6 l-76 -56.3 0.4 -54.1 c0.7 -51.9 1.1 -54.4 11 -73.4 13.9 -25.2 40.2 -51.1 64.3 -62.5 12.4 -5.8 35.1 -11.3 63.6 -15.3 l44.2 -6.2 28.9 19.7 c15.7 11 47.9 32.9 70.9 48.6 45.3 30.7 80 56.3 209.7 155.2 46 35.1 96.8 74.2 113.2 86.2 66.5 50.4 89.5 75.6 101.9 112.5 11 31.8 6.2 98.3 -7.3 103.4 -2.6 1.1 -4 3.3 -2.9 5.1 2.6 3.7 -23.7 28.1 -57.3 53.7 -17.2 12.8 -28.9 19 -36.2 19 -5.8 0 -10.6 1.5 -10.6 3.3 0 1.8 -3.3 2.6 -7.3 1.5 -4 -1.1 -7.3 0 -7.3 2.2 0 2.2 -6.9 4 -17.5 4 -16.8 0 -20.1 -1.8 -150.5 -98.6z"/>
  <path d="M805.4 8304.1 c-52.2 -39.1 -102.3 -76.7 -111.4 -83.6 -9.1 -6.9 -24.5 -18.6 -34.7 -25.9 -69 -51.5 -142.1 -109.6 -169.5 -135.2 -8 -7.7 -11.7 -13.5 -10.2 -17.5 2.9 -7.3 110.7 -61 229 -114 17.2 -7.3 32.5 -15 34.3 -16.4 1.8 -1.5 17.2 9.1 34.7 23.4 17.5 14.6 39.1 32.1 47.9 39.1 8.8 6.9 56.6 46.4 106.3 87.3 88.8 72.7 90.6 74.5 96.8 93.9 3.3 10.6 5.1 23.7 4.4 28.9 -1.1 5.1 -0.4 9.1 1.1 9.1 6.2 0 3.3 39.4 -5.1 64.3 -5.8 17.2 -11 26.3 -16.4 28.9 -4.4 1.8 -8 6.2 -8 9.5 0 5.5 -19.7 26.7 -43.8 47.1 -10.6 9.1 -42.7 27.4 -53 30.3 -5.5 1.8 -30.7 -15.3 -102.3 -69z"/>
  <path d="M345.5 7456 c-10.2 -1606.5 -9.9 -3107 1.5 -3832.5 1.8 -129.7 5.5 -364.5 7.3 -522.3 2.2 -157.8 5.5 -394.5 7.3 -526 1.8 -131.5 3.7 -276.9 3.7 -322.5 l0 -83.3 31 16.4 c109.2 58.1 205.6 109.9 212.6 114.3 8 4.7 8.4 6.9 8.4 59.5 0 30.3 -1.1 54.8 -2.6 54.8 -1.8 0 -2.6 50.8 -1.8 113.2 0.4 62.1 -0.4 113.2 -1.8 113.2 -1.5 0 -2.6 38.7 -1.8 85.8 0.4 47.1 -0.4 85.8 -1.8 85.8 -1.5 0 -2.6 54.1 -1.8 120.5 0.4 66.1 -0.4 120.5 -1.8 120.5 -1.8 0 -2.2 18.6 -1.1 40.9 1.5 29.6 4 44.6 8.8 53 3.3 6.6 7.3 12.1 8.4 12.1 1.1 0 28.5 -25.9 61 -57.7 32.5 -31.8 82.6 -80.4 111.8 -108.5 29.2 -28.1 99.7 -97.5 157.1 -154.1 l104.1 -103 2.2 99.4 c1.5 54.8 4.4 115.8 6.9 135.5 l4.7 36.2 -25.2 24.1 c-35.4 33.6 -128.2 121.3 -145.7 137.3 -8 7.7 -38.4 36.9 -67.6 65.4 -139.2 135.2 -161.1 155.6 -166.2 155.6 -2.9 0 -5.5 2.2 -5.5 4.7 0 2.6 -10.6 15 -23.4 27.8 l-23.7 23.4 -1.1 45.3 c-0.7 24.8 0 44.9 1.8 44.9 1.5 0 2.6 50 2.6 111.4 0 78.9 1.1 111.4 4 111.4 5.8 0 19 -11.7 94.6 -83.6 36.9 -35.4 80 -76.3 95.7 -91.3 15.7 -15 28.5 -29.6 28.5 -32.1 0 -2.6 2.6 -4.7 5.5 -4.7 6.2 0 48.6 -40.2 142.8 -135.2 35.4 -36.2 70.5 -68.3 77.4 -71.6 16.1 -7.7 42.7 -5.1 62.8 6.2 l14.6 8.4 0.7 43.1 c0 23.7 0.4 44.9 0.7 47.1 0.4 2.2 -6.2 6.6 -14.2 9.9 -19.7 7.3 -38 21.6 -42 32.1 -12.4 32.1 -24.5 276.9 -28.1 562.2 l-2.2 194.7 -35.1 31 c-19.4 17.2 -38.4 34.3 -42.4 38 -4 3.7 -43.5 38.7 -87.7 77.8 -44.2 39.1 -87.7 77.8 -96.4 85.8 -78.2 71.2 -150.1 133.3 -155.2 133.3 -3.3 0 -5.8 1.8 -5.8 4.4 0 2.2 -3.3 7.7 -7.3 12.1 -6.9 7.3 -6.9 15.7 -8 419.3 -0.7 226.5 0 411.7 1.8 411.7 1.5 0 2.2 310.8 1.8 690.4 -0.7 379.9 0 690.4 1.8 690.4 1.5 0 2.6 194.3 2.6 432.1 l0 432.1 -15.3 6.9 c-20.1 8.8 -99 44.9 -134.8 61.4 -40.5 19 -109.9 50.4 -118.7 53.7 l-7.7 3.3 -2.6 -371.5z"/>
  <path d="M1351.1 7552 l-42.4 -27.4 -2.2 -610.7 c-1.1 -336.1 -4 -680.1 -6.2 -764.5 -4.4 -176.4 -12.4 -309.4 -20.1 -336.8 -6.2 -21.9 -27.4 -42.4 -50 -49.3 -7.7 -2.2 -13.5 -5.5 -13.1 -6.9 0.7 -1.5 243.6 -246.6 540.6 -544.3 296.6 -298.1 580.8 -584.1 631.9 -635.2 50.8 -51.5 259.7 -261.5 464.3 -466.8 204.2 -205.3 371.5 -375.9 371.5 -378.8 0 -2.9 2.2 -5.5 5.1 -5.5 2.9 0 176.8 -172.8 386.8 -383.9 l381.3 -383.5 2.2 426.6 c2.2 435 7.3 641.8 19 743.7 4 37.6 6.9 50 15 65 18.6 33.6 50 54.1 88 57.3 l23 1.8 0 154.1 0 154.1 -29.2 0.4 c-45.7 0.7 -67.9 15 -73.4 47.1 -1.5 9.9 -4.7 95 -6.9 189.2 l-4 171.7 -48.2 48.6 c-26.7 26.7 -51.1 48.2 -54.8 48.2 -3.7 0 -5.8 1.5 -4.7 3.3 2.9 4.4 -99.4 106.3 -105.9 106.3 -2.9 0 -5.1 2.2 -5.1 4.7 0 6.9 -311.6 316.7 -318.9 316.7 -3.7 0 -7.7 3.7 -9.5 8.4 -4.7 11.3 -414.6 419 -421.9 419 -3.3 0 -5.8 2.2 -5.8 4.7 0 6.9 -315.2 320.3 -322.5 320.3 -3.3 0 -6.2 2.2 -6.2 5.1 0 6.9 -415 420.1 -424.4 422.3 -4.4 1.1 -8.8 4.7 -9.9 8 -2.6 7.7 -26.3 31.8 -244 248.8 -96.4 95.7 -177.9 174.2 -181.2 174.2 -3.7 0 -6.2 2.2 -6.2 4.7 0 6.9 -422.3 426.3 -429.2 426.3 -2.9 0 -5.5 1.8 -5.5 4.4 0 4.4 -28.9 35.8 -32.9 35.8 -1.1 0 -20.8 -12.4 -44.2 -27.4z"/>
  <path d="M1302.9 4856 c1.1 -126.4 2.9 -231.6 4.4 -234.1 1.5 -2.6 71.2 -74.2 155.6 -158.9 84.4 -85.1 257.5 -259.3 384.6 -387.6 126.8 -128.2 230.9 -235.2 230.9 -238.2 0 -2.9 2.2 -5.5 4.7 -5.5 5.1 0 148.3 -143.2 747.7 -748.8 349.6 -352.9 698.4 -704.6 773.7 -779.9 l23 -23.4 75.6 47.9 c41.6 26.3 101.2 63.9 132.2 83.3 89.9 55.9 95 59.5 95 61.7 0 5.1 -225.4 226.5 -231.9 227.6 -4 0.7 -9.1 5.1 -11.7 10.2 -4.7 9.5 -25.6 30.7 -348.8 352.9 -117.3 116.9 -216.2 213 -220.3 213.7 -4 1.1 -9.1 5.8 -11.7 11 -6.2 12.8 -562.2 565.8 -569.1 565.8 -2.9 0 -5.5 2.2 -5.5 4.7 0 6.6 -420.8 425.5 -429.2 427 -4 0.7 -6.9 3.3 -6.6 5.5 0.4 2.2 -107.8 112.1 -240.4 244.4 -132.6 132.6 -260.1 260.1 -283.5 283.5 -23.4 23.4 -45.7 43.1 -50 43.8 -4 0.7 -9.5 5.1 -12.1 10.2 -2.6 5.1 -50.4 55.2 -106.7 111 l-102.3 102.3 2.2 -230.1z"/>
  <path d="M725.8 2091.6 c-8.4 -4.7 -40.9 -21.9 -72 -38.7 -84 -44.9 -174.6 -99.7 -180.8 -109.2 -4 -6.9 39.1 -42.4 144.3 -118 31 -22.3 96.8 -70.1 146.1 -106.3 49.3 -36.2 102.6 -75.2 118.7 -86.9 16.1 -11.7 83.6 -60.6 149.8 -109.2 114.3 -83.6 179.3 -130.8 461 -336.8 66.8 -48.9 155.6 -113.2 197.2 -143.6 41.3 -30 84.4 -61.4 95.7 -69.8 106.3 -77.4 193.2 -140.3 254.2 -184.1 40.2 -28.9 111 -79.6 157.1 -112.5 46.4 -33.2 97.9 -70.1 115.1 -82.2 17.2 -12.1 43.5 -30.7 58.4 -41.3 72 -51.1 146.8 -100.1 152.7 -100.1 10.2 0 14.6 4.7 21.2 21.9 4.7 13.9 6.6 42.4 9.1 171.7 4 213.3 9.9 267.7 31.8 306.8 20.1 35.4 44.9 46.4 97.9 42.7 48.2 -3.3 61.7 -12.1 72.7 -47.1 4.4 -13.5 5.1 24.1 5.1 258.2 l0.4 274 -8.4 12.8 c-4.7 6.9 -19 31.8 -31.4 55.2 -19 36.5 -25.6 44.9 -43.5 59.2 -19.7 15.3 -22.6 16.4 -37.6 14.6 -8.8 -1.1 -19.4 -4 -23.4 -6.2 -4 -1.8 -8.8 -3.7 -11 -4 -1.8 0 -4.7 -10.6 -5.8 -23.7 -2.9 -28.5 -8.4 -44.2 -21.9 -64.7 -23.7 -34.7 -62.1 -55.5 -92.4 -50.4 -17.5 2.9 -35.1 2.9 -38.4 -0.4 -1.1 -1.1 -2.9 -144.6 -3.3 -318.5 -1.5 -310.5 -1.8 -321.8 -12.1 -322.2 -1.1 0 -45.7 32.9 -98.6 73.1 -53 40.2 -99.4 73.1 -102.6 73.1 -3.3 0 -6.6 2.2 -7.3 5.1 -0.7 2.9 -43.8 37.6 -96.1 77.4 -129.3 97.9 -127.1 96.1 -134.1 96.4 -4 0 -5.5 1.8 -4.4 5.5 1.5 2.9 0.7 5.5 -0.7 5.5 -1.8 0 -15.7 9.5 -31 21.2 -49.3 36.9 -139.5 105.2 -166.9 126.4 -15 11.3 -30.3 20.5 -34.3 20.5 -4 0 -8 2.9 -9.1 6.9 -1.1 4 -13.5 16.1 -28.1 26.7 -14.2 10.6 -64.3 48.6 -111.4 84 -47.1 35.8 -88.8 65 -92.4 65 -3.7 0 -6.6 2.2 -6.6 5.1 0 2.6 -85.8 69.4 -190.7 148.7 -105.2 79.3 -219.5 165.8 -255 192.1 -35.1 26.7 -66.8 48.6 -70.1 48.6 -3.3 0 -6.6 2.6 -7.3 5.5 -0.7 2.9 -20.8 20.1 -44.9 38.4 -24.1 18.3 -69 52.6 -100.1 76 -95 72.3 -91 70.1 -114.7 57.7z"/>
 </g>
</svg>