<svg xmlns="http://www.w3.org/2000/svg" width="100" height="100.945" viewBox="0 0 100 100.945"><defs><style>.a{fill:#fb8681;}.b{fill:#15181a;}.c{fill:#f8b1ae;}.d{fill:#de5852;}.e{fill:#cded6a;}.f{fill:#afcc47;}.g{fill:#f3f38b;}.h{fill:#fff;}.i{fill:#efd567;}.j{fill:#16191b;}.k{fill:#f4ffb3;}</style></defs><g transform="translate(-118.142 -32.427)"><g transform="translate(118.142 32.427)"><g transform="translate(0 3.04)"><g transform="translate(0 0)"><g transform="translate(2.092 2.099)"><path class="a" d="M686.58,2835.06c-3.666,0-9.247-1.622-14.925-4.337-5.816-2.782-12.457-7.119-13.66-10.952a3.644,3.644,0,0,1,.243-2.984c.788-1.391,2.4-2.1,4.793-2.1.256,0,.524.009.8.025-1.06-2.426-1.006-4.312.163-5.627a3.908,3.908,0,0,1,3.055-1.236,8.553,8.553,0,0,1,2.372.386c-.436-2.724.042-4.61,1.437-5.632a3.533,3.533,0,0,1,2.1-.666c4.048,0,9.512,6.406,13.279,12.407,3.365,5.359,6.893,12.981,5.925,17.062a3.659,3.659,0,0,1-.876,2.015,3.466,3.466,0,0,1-1.324.922A6.893,6.893,0,0,1,686.58,2835.06Z" transform="translate(-657.79 -2801.941)"/></g><path class="b" d="M670.061,2801.121c2.468,0,7.27,4.68,11.5,11.427,4.127,6.579,6.369,12.973,5.632,15.584a1.607,1.607,0,0,1-.373.989,1.467,1.467,0,0,1-.666.415,4.669,4.669,0,0,1-2.472.52c-3.214,0-8.494-1.488-14.024-4.132-8.146-3.9-13.744-8.828-12.5-11.011.4-.7,1.454-1.035,2.975-1.035a20.76,20.76,0,0,1,4.915.742c-2.376-3.239-3.386-5.925-2.388-7.043a1.907,1.907,0,0,1,1.487-.532,12.976,12.976,0,0,1,5.573,1.986c-1.425-3.825-1.718-6.763-.524-7.638a1.365,1.365,0,0,1,.863-.269m0-4.19h0a5.632,5.632,0,0,0-3.344,1.073,6.2,6.2,0,0,0-2.43,4.84h-.138a5.818,5.818,0,0,0-5.975,6.992,6.246,6.246,0,0,0-4.66,3,5.782,5.782,0,0,0-.419,4.643c1.764,5.632,11.741,10.777,14.754,12.219,5.946,2.845,11.867,4.542,15.83,4.542a8.922,8.922,0,0,0,4.3-.927,5.573,5.573,0,0,0,1.97-1.415,5.73,5.73,0,0,0,1.379-3.043c1.295-5.941-4.4-15.655-6.214-18.542-2.527-4.018-9.055-13.38-15.051-13.38Z" transform="translate(-652.797 -2796.931)"/></g><g transform="translate(15.781 4.259)"><path class="c" d="M701.118,2817.167c-3.868-4.35-7.848-7.563-10.66-8.817a1.756,1.756,0,0,1,.612-.993c2.024-1.487,7.563,3.512,12.365,11.163a54.116,54.116,0,0,1,3.57,6.642A50.606,50.606,0,0,0,701.118,2817.167Z" transform="translate(-690.458 -2807.096)"/></g><g transform="translate(4.189 10.283)"><path class="d" d="M662.968,2829.165c.746-1.316,3.8-1.337,7.89-.294-2.376-3.238-3.385-5.925-2.388-7.043a1.518,1.518,0,0,1,.507-.357l23.943,21.353a1.386,1.386,0,0,1-.293.55,1.475,1.475,0,0,1-.666.415c-2.15,1.391-9.1-.076-16.5-3.613C667.322,2836.28,661.724,2831.352,662.968,2829.165Z" transform="translate(-662.795 -2821.471)"/></g></g><g transform="translate(7.914)"><path class="e" d="M738.79,2807.614a33.714,33.714,0,0,0-12.24-9.888,32.99,32.99,0,0,0-33.272,3.055c-5.009,3.666-8.643,9.034-11.06,14.733-3.746,8.829-5.207,18.5-5.472,28.049a150.294,150.294,0,0,0,2.339,31.43c.617,3.13,1.428,6.462,3.767,8.77a5.5,5.5,0,0,0,4.243,1.727c4.04-.386,3.87-5.69,3.957-8.687.062-2.2-.041-4.761,1.428-6.562a2.464,2.464,0,0,1,2.765-.812,3.406,3.406,0,0,1,1.672,1.484c1.623,2.711.6,6,.712,8.959a56.886,56.886,0,0,0,.319,6.281,7.487,7.487,0,0,0,1.225,3.4,4.858,4.858,0,0,0,7.4.252c1.726-1.936,1.664-4.84,1.892-7.437a32.54,32.54,0,0,1,.6-5.569c.41-1.542,1.49-3.394,3.191-3.687a4.353,4.353,0,0,1,4.466,2.166,11.7,11.7,0,0,1,1.238,4.685c.244,2.058.509,4.057,1.917,5.653a4.927,4.927,0,0,0,4.851,1.479c4.893-1.3,3.614-6.6,4.748-10.3a2.478,2.478,0,0,1,4.454-.951,10.575,10.575,0,0,1,1.821,5.062c.261,1.559.625,3.235,2.082,4.1a4.576,4.576,0,0,0,3.456.465c3.8-1.01,5.162-5.862,5.824-9.282,2.558-13.253,3.829-28.8,1.768-42.22C747.45,2824.681,744.627,2815.06,738.79,2807.614Z" transform="translate(-674.59 -2792.537)"/><path class="b" d="M700.044,2890.622c-.106,0-.213,0-.32-.007a6.691,6.691,0,0,1-5.123-2.667,9.319,9.319,0,0,1-1.619-4.347,37.176,37.176,0,0,1-.3-4.847c-.01-.559-.02-1.116-.04-1.667a26.57,26.57,0,0,1,.109-2.937c.147-1.975.275-3.682-.522-5.012a1.4,1.4,0,0,0-.618-.6.44.44,0,0,0-.455.183c-.866,1.061-.9,2.866-.939,4.612q-.008.342-.016.674c-.006.2-.01.4-.015.614-.069,3.1-.212,9.563-5.821,10.1a7.494,7.494,0,0,1-5.885-2.311c-2.761-2.724-3.7-6.519-4.355-9.861a151.842,151.842,0,0,1-2.379-31.9c.31-11.177,2.156-20.6,5.643-28.817a37.016,37.016,0,0,1,11.757-15.6,35.305,35.305,0,0,1,35.377-3.258,35.776,35.776,0,0,1,13,10.489h0c5.285,6.737,8.725,15.679,10.518,27.336,2.511,16.335-.039,33.917-1.782,42.944-.453,2.337-1.83,9.446-7.335,10.907a6.621,6.621,0,0,1-5.035-.687c-2.381-1.416-2.832-4.11-3.075-5.557a8.768,8.768,0,0,0-1.377-4.078c-.167-.2-.345-.314-.476-.286s-.3.176-.406.524a17.011,17.011,0,0,0-.5,2.984c-.344,3.129-.815,7.414-5.707,8.715a7.028,7.028,0,0,1-6.925-2.108c-1.875-2.125-2.183-4.717-2.43-6.8a10,10,0,0,0-.96-3.858,2.293,2.293,0,0,0-2.339-1.178c-.572.1-1.249,1.051-1.546,2.167a18.778,18.778,0,0,0-.434,3.64c-.03.533-.06,1.058-.1,1.566-.032.365-.058.732-.084,1.1-.177,2.514-.378,5.365-2.335,7.557A6.841,6.841,0,0,1,700.044,2890.622Zm-8.519-26.291a4.351,4.351,0,0,1,1.512.27,5.483,5.483,0,0,1,2.735,2.369c1.482,2.474,1.283,5.141,1.108,7.495a22.984,22.984,0,0,0-.1,2.469c.021.577.032,1.16.042,1.744a33.552,33.552,0,0,0,.256,4.3,5.4,5.4,0,0,0,.835,2.453,2.586,2.586,0,0,0,1.99,1,2.8,2.8,0,0,0,2.213-.886c1.007-1.128,1.141-3.034,1.284-5.054.027-.394.055-.786.089-1.17.039-.464.067-.947.094-1.437a22.247,22.247,0,0,1,.57-4.5c.589-2.211,2.171-4.743,4.845-5.2a6.381,6.381,0,0,1,6.594,3.155,13.472,13.472,0,0,1,1.519,5.518c.241,2.026.469,3.439,1.406,4.5a2.861,2.861,0,0,0,2.782.848c1.959-.521,2.281-1.821,2.644-5.126a20.318,20.318,0,0,1,.657-3.767,4.738,4.738,0,0,1,3.559-3.39,4.584,4.584,0,0,1,4.471,1.727,12.6,12.6,0,0,1,2.268,6.044c.236,1.407.49,2.291,1.092,2.649a2.545,2.545,0,0,0,1.888.243c2.008-.533,3.421-3.038,4.316-7.657,2.921-15.12,3.544-29.856,1.755-41.5-1.68-10.92-4.843-19.221-9.67-25.375h0a31.666,31.666,0,0,0-11.5-9.292,31.151,31.151,0,0,0-31.21,2.851,32.857,32.857,0,0,0-10.378,13.862c-3.278,7.719-5.014,16.643-5.309,27.282a147.391,147.391,0,0,0,2.3,30.962c.562,2.85,1.271,5.792,3.184,7.679a3.5,3.5,0,0,0,2.61,1.139c1.617-.154,1.982-2.324,2.064-6.02,0-.223.01-.437.016-.641s.01-.423.015-.64c.046-2.231.1-5.008,1.887-7.193A4.619,4.619,0,0,1,691.525,2864.331Z" transform="translate(-671.684 -2789.677)"/></g><g transform="translate(20.216 22.348)"><circle class="f" cx="16.375" cy="16.375" r="16.375" transform="translate(0 0)"/></g><g transform="translate(19.18 21.895)"><circle class="g" cx="13.668" cy="13.668" r="13.668" transform="translate(2.514 2.514)"/><path class="b" d="M715.361,2874.3a16.182,16.182,0,1,1,16.182-16.183A16.2,16.2,0,0,1,715.361,2874.3Zm0-27.337a11.154,11.154,0,1,0,11.154,11.155A11.166,11.166,0,0,0,715.361,2846.959Z" transform="translate(-699.178 -2841.931)"/></g><g transform="translate(29.544 26.869)"><path class="h" d="M729.976,2853.8a11.012,11.012,0,0,0-5.908,1.714,11.11,11.11,0,0,1,10.7,19.433,11.115,11.115,0,0,0-4.789-21.147Z" transform="translate(-724.068 -2853.801)"/></g><g transform="translate(24.196 33.485)"><path class="i" d="M724.042,2883.93a12.072,12.072,0,0,1-12.072-12.071,12.243,12.243,0,0,1,.214-2.267,11.131,11.131,0,0,0,17.54,12.923A12.064,12.064,0,0,1,724.042,2883.93Z" transform="translate(-711.178 -2869.591)"/></g><g transform="translate(32.26 31.508)"><path class="b" d="M733.292,2878.619h0a2.775,2.775,0,0,1-2.774-2.774v-8.2a2.775,2.775,0,0,1,2.774-2.774h0a2.775,2.775,0,0,1,2.774,2.774v8.2A2.772,2.772,0,0,1,733.292,2878.619Z" transform="translate(-730.518 -2864.871)"/></g><g transform="translate(17.576 54.001)"><path class="f" d="M699.381,2926.643a4.6,4.6,0,0,1,.84-2.614c.026-.052.052-.105.083-.156,0,.01.008.018.01.028a6.109,6.109,0,0,1,1.45-1.4,2.81,2.81,0,0,0-.514-1.921c-.12-.308-.683-.737-.958-.526-1.921,1.456-1.8,4.937-1.692,7.589.049,1.252.281,2.915-.493,3.832-.335.4-.5.508-.787.12-.678-.917-.575-4-.618-5.206q-.062-1.686-.044-3.373c0-.42.011-.844.022-1.263,0-.143.008-.289.013-.431,0-.031.005-.081.011-.154.049-.647.068-2.311-.517-2.576s-.859.809-.91,1.463a58.582,58.582,0,0,0-.063,6.85c.1,2.549.161,5.622,1.117,7.874.984,2.314,2.491.928,3.183-1.02a13.449,13.449,0,0,0,.541-4.772A4.537,4.537,0,0,1,699.381,2926.643Z" transform="translate(-695.145 -2918.553)"/></g><g transform="translate(15.53 56.104)"><path class="j" d="M703.166,2929.5c-1.187.666-1.678,1.131-2.212-.331a19.144,19.144,0,0,0-1.115-2.967c-.189-.335-.529-.725-.964-.494-3.034,1.583-2.836,5.372-2.672,8.259.078,1.361.443,3.172-.779,4.169-.529.431-.792.553-1.244.13-1.072-1-.908-4.349-.977-5.665q-.1-1.837-.069-3.671c0-.457.017-.918.034-1.375,0-.155.013-.314.021-.469,0-.033.009-.088.018-.168.077-.7.107-2.514-.818-2.8-.942-.293-1.355.88-1.437,1.593a44.027,44.027,0,0,0-.1,7.454c.155,2.773.254,6.117,1.765,8.568,1.553,2.519,3.933,1.01,5.026-1.11a10.984,10.984,0,0,0,.835-5.661c-.091-1.6-.74-3.813.413-5.1a11.236,11.236,0,0,0,1.377,3.323c1.166,1.428,2.629.544,3.541-.691C704.19,2931.986,704.4,2928.81,703.166,2929.5Z" transform="translate(-690.536 -2923.861)"/><path class="b" d="M694.293,2942.966a2.509,2.509,0,0,1-2.143-1.414c-1.454-2.359-1.621-5.461-1.769-8.2l-.025-.47a44.463,44.463,0,0,1,.1-7.491,2.361,2.361,0,0,1,.816-1.661,1.026,1.026,0,0,1,.891-.107c1.218.381.993,2.757.964,3.027l-.018.172c-.007.136-.015.293-.019.447-.017.457-.03.916-.034,1.371-.018,1.238.006,2.468.068,3.657.012.23.017.521.023.852.025,1.462.067,3.908.888,4.672.323.3.449.284.968-.139.964-.786.848-2.169.747-3.388-.018-.209-.034-.412-.046-.607-.162-2.871-.384-6.8,2.784-8.457.442-.234.906-.018,1.244.578a10.963,10.963,0,0,1,.825,2.083c.1.306.194.612.3.916.175.48.346.743.522.808.225.081.581-.125,1.073-.408.1-.058.205-.118.317-.18a.658.658,0,0,1,.892.1c.565.644.367,2.744.024,3.2a3.232,3.232,0,0,1-2.311,1.511,1.911,1.911,0,0,1-1.561-.812,6.629,6.629,0,0,1-1.075-2.363c-.065-.217-.132-.438-.205-.656-.573.935-.406,2.285-.257,3.489.051.409.1.8.119,1.16a11.322,11.322,0,0,1-.858,5.769,4.215,4.215,0,0,1-3.167,2.537Zm-2.478-18.976a.566.566,0,0,0-.315.1,2.006,2.006,0,0,0-.628,1.358,44.08,44.08,0,0,0-.1,7.419l.026.47c.145,2.686.31,5.731,1.708,8a2.116,2.116,0,0,0,1.85,1.214,3.861,3.861,0,0,0,2.811-2.31,10.774,10.774,0,0,0,.812-5.553c-.02-.351-.067-.731-.116-1.134-.177-1.428-.377-3.047.582-4.118l.229-.256.123.32c.132.344.241.7.345,1.047a6.212,6.212,0,0,0,1,2.219,1.489,1.489,0,0,0,1.226.658,2.834,2.834,0,0,0,1.984-1.342,3.753,3.753,0,0,0,0-2.677c-.045-.05-.128-.144-.372-.007h0c-.111.061-.215.122-.313.179-.59.341-1.017.588-1.425.438-.313-.114-.543-.431-.773-1.059-.112-.308-.211-.62-.31-.931a10.458,10.458,0,0,0-.79-2c-.154-.271-.4-.562-.683-.412-2.93,1.53-2.717,5.3-2.561,8.062.011.191.027.392.044.6.1,1.257.235,2.821-.9,3.747-.517.421-.927.676-1.519.121-.951-.885-.993-3.344-1.021-4.971-.006-.324-.01-.61-.022-.837-.063-1.2-.087-2.437-.069-3.684,0-.458.017-.92.034-1.38,0-.155.013-.316.022-.473l.019-.18c.1-.92.006-2.368-.672-2.579A.754.754,0,0,0,691.815,2923.989Z" transform="translate(-690.245 -2923.571)"/></g><g transform="translate(13.42 4.409)"><g transform="translate(0)"><path class="k" d="M714.766,2800.2a30.839,30.839,0,0,0-15.318,5.629,32.907,32.907,0,0,0-10.5,13.862,63.059,63.059,0,0,0-4.125,14.216C689.582,2816.851,701.226,2804.027,714.766,2800.2Z" transform="translate(-684.824 -2800.198)"/></g></g><g transform="translate(47.509 4.321)"><g transform="translate(0 0)"><path class="f" d="M800.712,2837.51c-1.7-10.921-4.9-19.222-9.782-25.376a31.268,31.268,0,0,0-23.208-12.145c14.861,2.552,26.45,23.394,26.45,48.729a72.667,72.667,0,0,1-5.476,28.427,5.352,5.352,0,0,1,.566.581,12.514,12.514,0,0,1,2.295,6.045c.238,1.406.495,2.29,1.1,2.649a2.607,2.607,0,0,0,1.91.243c2.032-.532,3.462-3.038,4.367-7.656C801.892,2863.883,802.522,2849.146,800.712,2837.51Z" transform="translate(-767.722 -2799.988)"/></g></g><g transform="translate(59.256 2.931)"><g transform="translate(0 0)"><g transform="translate(2.093 2.091)"><path class="a" d="M810.9,2831.323c-3.922,0-6.629-.658-8.054-1.961a3.487,3.487,0,0,1-1.077-1.206,3.655,3.655,0,0,1-.385-2.163c.008-4.194,5.2-10.79,9.721-15.223,4.484-4.4,10.71-9.109,14.733-9.109a3.687,3.687,0,0,1,2.95,1.257c1.119,1.32,1.148,3.264.092,5.812.205-.012.406-.017.6-.017,2.769,0,3.968,1.144,4.483,2.1.834,1.551.448,3.4-1.144,5.515,2.8.507,4.467,1.613,4.961,3.31a3.647,3.647,0,0,1-.452,2.958c-2.057,3.448-9.524,6.13-15.826,7.488A51.611,51.611,0,0,1,810.9,2831.323Z" transform="translate(-801.354 -2801.661)"/></g><path class="b" d="M822.933,2800.861a1.694,1.694,0,0,1,1.353.516c.959,1.127-.008,3.914-2.28,7.308a17.5,17.5,0,0,1,4.567-.771c1.341,0,2.271.319,2.636,1,.712,1.32-.9,3.7-3.955,6.3.172,0,.339,0,.507,0,3.947,0,6.692.729,7.1,2.121.7,2.413-5.883,5.912-14.712,7.814a49.543,49.543,0,0,1-10.153,1.194c-3.319,0-5.787-.515-6.734-1.5a1.47,1.47,0,0,1-.553-.558,1.606,1.606,0,0,1-.134-1.047c-.113-2.711,3.549-8.41,9.089-13.854,5.275-5.174,10.609-8.51,13.27-8.51m0-4.19c-5.854,0-13.878,7.429-16.2,9.708-2.435,2.389-10.228,10.518-10.346,16.593a5.731,5.731,0,0,0,.633,3.281,5.634,5.634,0,0,0,1.6,1.84c1.852,1.634,4.932,2.43,9.378,2.43a53.6,53.6,0,0,0,11.037-1.287c3.268-.7,14.163-3.394,17.188-8.464a5.8,5.8,0,0,0,.666-4.617,6.239,6.239,0,0,0-3.834-4,5.822,5.822,0,0,0-4.324-8.213,6.2,6.2,0,0,0-1.244-5.279,5.849,5.849,0,0,0-4.551-2Z" transform="translate(-796.359 -2796.671)"/></g><g transform="translate(8.292 4.261)"><path class="c" d="M823.724,2814.567c4.768-3.335,9.386-5.535,12.415-6.1a1.725,1.725,0,0,0-.364-1.106c-1.626-1.915-8.171,1.664-14.615,7.99a54.03,54.03,0,0,0-5.011,5.631A50.322,50.322,0,0,1,823.724,2814.567Z" transform="translate(-816.148 -2806.84)"/></g><g transform="translate(4.198 11.774)"><path class="d" d="M838.68,2833.65c-.423-1.454-3.39-2.179-7.6-2.116,3.059-2.6,4.664-4.977,3.955-6.3a1.487,1.487,0,0,0-.41-.465l-28.242,15.219a1.443,1.443,0,0,0,.155.6,1.469,1.469,0,0,0,.553.557c1.768,1.852,8.871,2.037,16.886.31C832.8,2839.562,839.384,2836.064,838.68,2833.65Z" transform="translate(-806.378 -2824.771)"/></g></g><g transform="translate(56.942 41.687)"><path class="f" d="M794.063,2891.173a2.049,2.049,0,1,1-2.091-2.007A2.049,2.049,0,0,1,794.063,2891.173Z" transform="translate(-789.965 -2889.166)"/></g><g transform="translate(39.826 73.146)"><path class="f" d="M752.832,2966.25a2.049,2.049,0,1,1-2.091-2.006A2.05,2.05,0,0,1,752.832,2966.25Z" transform="translate(-748.734 -2964.243)"/></g><g transform="translate(35.233 76.601)"><path class="k" d="M740.364,2973.813a1.353,1.353,0,1,1-1.381-1.326A1.354,1.354,0,0,1,740.364,2973.813Z" transform="translate(-737.657 -2972.487)"/></g><g transform="translate(62.663 42.982)"><circle class="f" cx="3.076" cy="3.076" r="3.076" transform="translate(0 0)"/></g><g transform="translate(63.059 37.987)"><path class="f" d="M807.757,2881.84a1.536,1.536,0,1,1-1.567-1.5A1.535,1.535,0,0,1,807.757,2881.84Z" transform="translate(-804.685 -2880.335)"/></g><g transform="translate(56.672 9.108)"><path class="k" d="M792.372,2812.917a1.536,1.536,0,1,1-1.567-1.5A1.535,1.535,0,0,1,792.372,2812.917Z" transform="translate(-789.3 -2811.412)"/></g><g transform="translate(54.293 52.551)"><path class="f" d="M801.635,2928.121c-.021-.545-.147-1.873-.934-1.873s-.905,1.362-.935,1.873c-.054.926-.042,2.5-.612,3.289-.876,1.219-2.338-.13-2.858-1.052-1.42-2.515-1.274-5.527-3.314-7.765-.813-.892-1.354.591-1.458,1.187-.13.724-.226,2.342-1.178,2.442-.829.088-.985-.679-1.123-1.132a39.968,39.968,0,0,1-.708-4.806c-.323-1.835-1.291-6.708-4.136-4.726-1.077.75-.562,4.453.511,3.7,1.479-1.043,1.617,1.177,1.793,2.242.3,1.81.373,3.662.763,5.456.314,1.449,1.362,3.687,3.218,3.373,1.228-.21,1.9-1.5,2.288-2.866,1.42,3.016,1.085,7.7,4.945,8.6C801.6,2936.916,801.724,2930.345,801.635,2928.121Z" transform="translate(-783.786 -2915.093)"/></g><g transform="translate(53.975 56.446)"><path class="j" d="M801.378,2937.916c-.021-.544-.147-1.873-.934-1.873s-.905,1.363-.934,1.873c-.055.926-.042,2.5-.612,3.29-.876,1.219-2.338-.13-2.858-1.052-1.42-2.514-1.274-5.527-3.314-7.764-.813-.893-1.354.591-1.458,1.186-.13.725-.226,2.342-1.177,2.443-.83.088-.985-.679-1.123-1.131a39.954,39.954,0,0,1-.708-4.806c-.323-1.835-1.291-6.708-4.136-4.727-1.077.751-.561,4.455.511,3.7,1.479-1.044,1.617,1.177,1.793,2.241.3,1.811.373,3.662.763,5.456.314,1.45,1.362,3.687,3.218,3.373,1.228-.21,1.9-1.5,2.288-2.866,1.42,3.017,1.085,7.7,4.944,8.6C801.345,2946.711,801.466,2940.141,801.378,2937.916Z" transform="translate(-783.319 -2924.678)"/><path class="b" d="M797.984,2945.85a3,3,0,0,1-.681-.082c-2.837-.659-3.5-3.254-4.143-5.763a21.658,21.658,0,0,0-.726-2.439c-.522,1.473-1.288,2.3-2.281,2.473-2.047.346-3.138-2.059-3.458-3.535a31.988,31.988,0,0,1-.473-3.215c-.084-.741-.169-1.508-.292-2.251-.018-.109-.036-.231-.055-.36-.1-.7-.256-1.758-.7-1.948-.175-.075-.415-.007-.714.2a.622.622,0,0,1-.649.084c-.474-.221-.708-1.054-.769-1.76a2.732,2.732,0,0,1,.666-2.367,2.039,2.039,0,0,1,2-.378c1.661.691,2.264,4.115,2.462,5.24.105.6.167,1.24.227,1.856a15.037,15.037,0,0,0,.475,2.926l.032.108c.161.549.314.927.869.874.663-.07.83-1.192.94-1.934.018-.125.036-.239.053-.337.068-.388.379-1.435.987-1.611a.8.8,0,0,1,.833.321,10.611,10.611,0,0,1,2.133,4.552,14.564,14.564,0,0,0,1.208,3.251c.322.572,1.085,1.393,1.774,1.43a.815.815,0,0,0,.731-.4,5.849,5.849,0,0,0,.553-2.77c.007-.147.013-.284.02-.409.079-1.374.464-2.07,1.143-2.07s1.093.737,1.144,2.074h0c.055,1.405.088,6.114-1.827,7.7A2.264,2.264,0,0,1,797.984,2945.85Zm-5.626-9.478.237.5a17.286,17.286,0,0,1,.971,3.026c.639,2.5,1.243,4.857,3.832,5.458a1.967,1.967,0,0,0,1.806-.367c1.4-1.163,1.786-4.565,1.675-7.361h0c-.015-.392-.112-1.671-.725-1.671-.405,0-.663.6-.725,1.675-.008.124-.013.259-.02.4a6.092,6.092,0,0,1-.631,3,1.24,1.24,0,0,1-1.094.571,3.206,3.206,0,0,1-2.116-1.642,14.894,14.894,0,0,1-1.246-3.344,10.136,10.136,0,0,0-2.04-4.382c-.153-.168-.291-.238-.406-.2-.316.091-.609.816-.692,1.282-.017.1-.033.206-.051.325-.129.871-.324,2.185-1.31,2.29-.938.105-1.184-.729-1.315-1.174l-.031-.1a15.366,15.366,0,0,1-.492-3.007c-.059-.609-.12-1.239-.222-1.824-.5-2.868-1.248-4.526-2.21-4.926a1.637,1.637,0,0,0-1.6.335,2.392,2.392,0,0,0-.488,1.987c.069.8.318,1.318.529,1.416.046.021.115.035.231-.046a1.142,1.142,0,0,1,1.12-.246c.658.282.818,1.385.947,2.272.018.126.036.245.053.352.124.755.211,1.526.3,2.273a31.612,31.612,0,0,0,.466,3.172c.269,1.239,1.233,3.5,2.979,3.212.938-.161,1.651-1.075,2.121-2.718Z" transform="translate(-783.028 -2924.387)"/></g><g transform="translate(74.143 39.44)"><path class="f" d="M835.9,2891.043c-.158-2.094-1.245-1.165-1.272.482-.015.984.328,3.1-.048,3.934-.545,1.224-1.147-.355-1.308-1.215-.554-2.988-.078-6.172-.516-9.18-.366-2.514-1.573-.789-1.314,1.018.307,2.145.143,4.453.256,6.633.11,2.086.244,4.919,1.379,6.486s2.3.4,2.7-1.412A23.888,23.888,0,0,0,835.9,2891.043Z" transform="translate(-831.41 -2883.804)"/></g><g transform="translate(73.206 43.207)"><path class="j" d="M835.506,2900.033c-.222-2.1-1.751-1.166-1.789.481-.021.985.461,3.1-.067,3.935-.767,1.224-1.613-.356-1.84-1.215-.779-2.987-.109-6.172-.725-9.18-.516-2.515-2.212-.789-1.848,1.018.432,2.145.2,4.455.361,6.633.155,2.086.344,4.919,1.94,6.486s3.239.4,3.8-1.412A17.077,17.077,0,0,0,835.506,2900.033Z" transform="translate(-829.187 -2892.792)"/></g><g transform="translate(12.955 71.395)"><g transform="translate(0 0)"><path class="k" d="M692.981,2976.313c-3.753.5-7.827-6.713-9.267-16.248.391,3.784.918,7.4,1.575,10.694.566,2.829,1.28,5.749,3.207,7.623a3.537,3.537,0,0,0,2.628,1.132c1.161-.11,1.68-1.242,1.913-3.212C693.017,2976.305,693,2976.311,692.981,2976.313Z" transform="translate(-683.714 -2960.065)"/></g></g></g></g></svg>