<svg width="180" height="178" viewBox="0 0 180 178" fill="none" xmlns="http://www.w3.org/2000/svg"><g fill-rule="evenodd" clip-rule="evenodd"><path d="M89.508 178c49.432 0 89.503-39.847 89.503-89S138.94 0 89.509 0C40.076 0 .005 39.847.005 89s40.071 89 89.502 89z" fill="url(#paint0_linear)"/><path d="M84.935 30.761c-5.357.643-9.931 2.878-13.762 6.672-2.734 2.712-5.409 5.481-8.12 8.216a590.833 590.833 0 01-4.19 4.187c-1.47 1.457-2.96 2.896-4.424 4.363-1.357 1.361-2.678 2.757-4.033 4.12-2.103 2.118-4.238 4.208-6.33 6.336-1.63 1.66-3.213 3.365-4.82 5.044-.943.986-1.958 1.906-2.832 2.949-3.814 4.522-5.619 9.801-5.676 16.823-.171 2.68.933 6.166 2.54 9.48.86 1.768 2.028 3.392 3.164 5.005.78 1.106 1.347 1.097 2.39.244.197-.158.366-.348.54-.531 1.017-1.064 2.024-2.131 3.042-3.189 1.476-1.53 2.963-3.043 4.429-4.58 1.536-1.608 3.043-3.245 4.576-4.855.732-.767 1.51-1.49 2.238-2.257 1.57-1.653 3.102-3.342 4.68-4.981 1.542-1.603 3.135-3.153 4.68-4.744 1.73-1.784 3.414-3.61 5.149-5.386 1.591-1.626 3.248-3.19 4.837-4.822 2.084-2.141 4.115-4.33 6.195-6.48 1.267-1.31 2.586-2.568 3.863-3.868 1.74-1.765 3.449-3.565 5.195-5.324 1.496-1.507 3.045-2.962 4.543-4.467 3.353-3.368 6.691-6.755 10.031-10.138.214-.215.414-.447.603-.684.809-1.015.878-1.247-.127-1.98-1.587-1.157-3.199-2.347-4.959-3.174-3.21-1.51-6.564-2.188-10.022-2.188-1.124 0-2.257.072-3.4.21zM114.4 52.566c-3.127.117-5.835 1.087-7.871 3.585-.159.194-.357.356-.54.53-1.816 1.759-3.643 3.5-5.446 5.27-1.874 1.843-3.718 3.714-5.584 5.566-1.543 1.534-3.105 3.049-4.64 4.589-1.606 1.613-3.168 3.267-4.784 4.868-1.687 1.672-3.425 3.29-5.118 4.955-2.052 2.018-4.079 4.06-6.117 6.093-3.765 3.753-7.531 7.502-11.297 11.259-4.982 4.966-9.96 9.941-14.95 14.904-.945.944-.98 1.071.01 2.067 2.389 2.412 4.8 4.798 7.193 7.202 1.47 1.478 3.2 2.487 5.253 2.846 1.958.343 3.934.361 5.863-.193 1.414-.405 2.76-.987 3.85-2.036 1.971-1.893 3.936-3.788 5.907-5.676 1.389-1.329 2.805-2.628 4.175-3.975 2.738-2.695 5.439-5.425 8.182-8.113 2.24-2.193 4.523-4.345 6.775-6.523 3.09-2.988 6.172-5.988 9.252-8.982 2.906-2.82 5.804-5.646 8.713-8.461 1.274-1.232 2.463-1.101 3.381.363 1.662 2.65 2.591 5.524 2.208 8.672-.322 2.658-1.258 5.146-3.116 7.118-2.146 2.282-4.423 4.439-6.654 6.637-1.587 1.562-3.203 3.09-4.785 4.657-2.045 2.023-4.072 4.068-6.102 6.106-.319.325-.61.676-.924 1.006-.667.689-1.331 1.381-2.014 2.061-1.503 1.494-3.03 2.966-4.524 4.473-1.598 1.615-3.167 3.26-4.75 4.889-.14.146-.306.264-.454.404-1.7 1.653-3.407 3.302-5.105 4.96-.793.774-1.567 1.57-2.35 2.355-1.355 1.359-2.737 2.691-4.054 4.088-.79.839-.784 1.35.154 2.012 1.606 1.131 3.22 2.316 4.989 3.143 4.366 2.041 8.995 2.498 13.773 1.949 4.795-.551 8.95-2.525 12.517-5.65 2.624-2.295 4.978-4.895 7.448-7.367 1.826-1.824 3.64-3.661 5.462-5.49 1.714-1.718 3.43-3.433 5.145-5.151 1.57-1.573 3.129-3.161 4.714-4.717 1.765-1.734 3.576-3.424 5.329-5.165 1.795-1.781 3.584-3.572 5.307-5.42 2.131-2.29 3.159-3.469 3.928-4.607.759-1.12 3.368-5.184 4.04-11.147.339-3.01.051-5.316-.038-5.956-.15-1.11-.804-5.295-3.757-9.856-1.096-1.693-1.66-2.407-4.988-5.698-4.932-4.878-9.852-9.772-14.676-14.757-2.367-2.447-5.097-3.697-8.415-3.697-.17 0-.341.003-.515.01z" fill="#fff"/></g><defs><linearGradient id="paint0_linear" x1="-34.588" y1="77.105" x2="78.326" y2="212.328" gradientUnits="userSpaceOnUse"><stop stop-color="#FF3E3E"/><stop offset="1" stop-color="#FFA416"/></linearGradient></defs></svg>