<svg xmlns="http://www.w3.org/2000/svg" viewBox="0 0 283.55 283.55"><defs><style>.cls-1{fill:#f8ab3c;}.cls-2{fill:#f9c66c;}.cls-3{fill:#c1a66f;}.cls-4{fill:#967740;}.cls-5{fill:none;}.cls-6{fill:#b6b6dc;}.cls-7{fill:#bfc0e1;}</style></defs><g id="Capa_2" data-name="Capa 2"><g id="Capa_2-2" data-name="Capa 2"><circle class="cls-1" cx="141.78" cy="141.78" r="141.78"/><circle class="cls-2" cx="141.78" cy="141.78" r="110.18"/><path class="cls-3" d="M171.19,81.78l24.05-39.27c4.91-3.14,4.71-6.67,4.71-6.67,2.36-1.77,3.14-6.09,3.14-6.09,1.18,0,4.32-2.16,4.52-5s-4.32-4.43-4.32-4.43c-7.46-2.94-6.68,5.89-6.68,5.89-2.94-1-5.1,4.91-5.1,4.91C188.37,33.68,189,38.2,189,38.2L161.44,78.75"/><path class="cls-4" d="M167.05,80.15l26.11-40.63a8.19,8.19,0,0,0,3.73-4.32A32.65,32.65,0,0,0,201,28.72s4.4-2.84,4.07-7.31c0,0,3.73,1.13,2,5.22S203.17,30,203.17,30s-1,5.21-3.14,6.08c0,0,.39,5.35-4.71,6.68l-24.13,39-4.4-1.22Z"/><path class="cls-5" d="M196.61,26.22A11.64,11.64,0,0,0,203.17,30"/><path class="cls-5" d="M191.51,31.13s2.34,3.8,8.52,5"/><path class="cls-5" d="M189,38.2s2.61,3.74,6.54,4.51"/><path class="cls-6" d="M140.82,55.52a.71.71,0,0,1,.71-.71c5.23.07,37.89,1.65,54.47,30,18.06,30.87.29,73.11,0,81.85s1.46,22.13,19.52,35.24c0,0,4.66,3.21,8.74,3.79s13.11,6.41,5.82,13.4c-6.64,6.37-27.57,1.6-39.93-4.37a.71.71,0,0,0-.83,1.11,72.42,72.42,0,0,0,6.39,6.29c4.66,4,4.66,13.57-3.49,13.86-7.54.27-26.5-8.38-36.47-21.53a1.85,1.85,0,0,0-3.29.82,15.41,15.41,0,0,0-.15,4.69c.58,3.79,4.95,14,5.83,18.06s-4.66,11.07-11.36,7.28c0,0-5.51-3.2-6-5.53s-.13-8.69-.13-8.69Z"/><path class="cls-6" d="M131.28,216.71c.56,2.35.43,2.07.74,3.1,1.14,3.78,2.1,7.92,2.2,8.15a60.33,60.33,0,0,0,3.09,7c1.2,2.48,3.24,4.47,4.73,6.77.54-.49-.09-.44.24-.94l.45-186s-37.12-.87-55.18,30-.29,73.11,0,81.85S86.09,188.8,68,201.91c0,0-4.67,3.21-8.74,3.79s-13.11,6.41-5.83,13.4c6.81,6.53,28.63,1.36,40.85-4.82a.51.51,0,0,1,.61.79,73.68,73.68,0,0,1-7.09,7.06c-4.66,4-4.66,13.57,3.5,13.86,7.3.26,25.33-7.85,35.51-20.33a2.54,2.54,0,0,1,4.43,1.05Z"/><path class="cls-6" d="M142.77,239.6l0,.18a2.82,2.82,0,0,1-.45,1v1.33S142.6,240.45,142.77,239.6Z"/><ellipse class="cls-7" cx="142.52" cy="106.96" rx="53.6" ry="46.22"/><ellipse cx="116.31" cy="112.22" rx="4.98" ry="8.62"/><ellipse cx="166.79" cy="112.22" rx="4.98" ry="8.62"/></g></g></svg>