<?xml version="1.0" encoding="UTF-8" standalone="no"?>
<svg
   xmlns:dc="http://purl.org/dc/elements/1.1/"
   xmlns:cc="http://creativecommons.org/ns#"
   xmlns:rdf="http://www.w3.org/1999/02/22-rdf-syntax-ns#"
   xmlns:svg="http://www.w3.org/2000/svg"
   xmlns="http://www.w3.org/2000/svg"
   xmlns:sodipodi="http://sodipodi.sourceforge.net/DTD/sodipodi-0.dtd"
   xmlns:inkscape="http://www.inkscape.org/namespaces/inkscape"
   width="66.366096mm"
   height="66.370728mm"
   viewBox="0 0 66.366096 66.370728"
   version="1.1"
   id="svg8"
   inkscape:version="1.0.2 (e86c870879, 2021-01-15)"
   sodipodi:docname="TWINCI.svg">
  <defs
     id="defs2" />
  <sodipodi:namedview
     id="base"
     pagecolor="#ffffff"
     bordercolor="#666666"
     borderopacity="1.0"
     inkscape:pageopacity="0.0"
     inkscape:pageshadow="2"
     inkscape:zoom="0.7"
     inkscape:cx="314.62117"
     inkscape:cy="148.90113"
     inkscape:document-units="mm"
     inkscape:current-layer="layer1"
     inkscape:document-rotation="0"
     showgrid="false"
     inkscape:window-width="1920"
     inkscape:window-height="1001"
     inkscape:window-x="2391"
     inkscape:window-y="170"
     inkscape:window-maximized="1" />
  <metadata
     id="metadata5">
    <rdf:RDF>
      <cc:Work
         rdf:about="">
        <dc:format>image/svg+xml</dc:format>
        <dc:type
           rdf:resource="http://purl.org/dc/dcmitype/StillImage" />
        <dc:title></dc:title>
      </cc:Work>
    </rdf:RDF>
  </metadata>
  <g
     inkscape:label="Layer 1"
     inkscape:groupmode="layer"
     id="layer1"
     transform="translate(-2.2701262,-1.8437681)">
    <g
       id="g900"
       transform="matrix(0.26458333,0,0,0.26458333,-32.279165,-18.75669)">
      <g
         id="g871">
	<path
   class="st13"
   d="m 277.25,311.83 c -13.16,3.09 -27.04,4.19 -40.2,4.19 -16.22,0 -31.35,-1.69 -42.67,-3.43 18.59,10.52 39.68,16.12 61.63,16.12 33.5,0 65,-13.05 88.69,-36.74 2.07,-2.07 4.05,-4.19 5.95,-6.38 -6.16,0.33 -14.08,3.88 -24.54,8.61 -12.63,5.72 -28.34,12.81 -48.86,17.63 z"
   id="path855" />

	<path
   class="st12"
   d="m 373.15,229.05 c -5.53,0.77 -13.87,2.56 -26.22,6.49 -13.7,4.37 -22.4,11.8 -31.62,19.68 -12.64,10.82 -25.72,22 -52.16,26.78 l -0.11,0.02 c -8.89,1.38 -16.87,1.96 -24.12,1.96 -24.3,0 -40.23,-6.6 -53.65,-12.15 -7.24,-3 -13.5,-5.59 -19.77,-6.51 -6.38,-0.94 -11.07,-0.26 -13.22,1.93 l -0.04,0.04 c -1.51,1.55 -1.73,3.95 -0.51,5.75 4.51,6.72 9.72,13.07 15.58,18.93 1.22,1.22 2.46,2.42 3.73,3.58 3.36,3.1 7.5,5.22 11.98,6.11 15.95,3.15 57.52,9.8 92.23,1.65 19.7,-4.62 34.98,-11.52 47.25,-17.07 12.33,-5.57 22.08,-9.97 30.69,-9.39 2.62,0.17 5.15,-0.98 6.63,-3.15 8.26,-12.12 14.27,-25.52 17.82,-39.69 0.7,-2.76 -1.66,-5.34 -4.49,-4.96 z"
   id="path857" />

	<path
   class="st13"
   d="m 166.78,256.68 c 7.34,1.09 14.37,4.01 21.83,7.09 16.39,6.78 36.79,15.22 73.04,9.63 23.38,-4.24 35.01,-13.73 46.92,-23.9 -26.47,-0.49 -70.59,-8.98 -107.19,-16.01 -6.78,-1.3 -13.21,-2.53 -19.09,-3.63 -20.95,-3.91 -32.98,-0.39 -39.6,3.64 -4.39,2.67 -6.32,8.04 -4.56,12.88 1.97,5.4 4.32,10.66 7.03,15.76 0.27,-0.34 0.56,-0.67 0.88,-1 4.29,-4.35 11.26,-5.86 20.74,-4.46 z"
   id="path859" />

	<path
   class="st12"
   d="m 381.41,201.63 c -0.05,-3.51 -2.98,-6.34 -6.49,-6.16 -8.69,0.43 -18.25,4.14 -29.56,8.55 -13.46,5.25 -28.71,11.2 -47.13,13.23 -21.56,2.39 -35.83,-2.74 -50.95,-8.15 -13.36,-4.79 -27.19,-9.74 -48.16,-10.56 -32.19,-1.25 -54.37,10.62 -63.75,16.9 -2.45,1.64 -3.75,4.54 -3.29,7.44 0.36,2.27 0.78,4.53 1.25,6.76 7.16,-6.33 22.03,-13.7 50.55,-8.37 5.89,1.1 12.33,2.34 19.13,3.65 24.61,4.73 54.74,10.52 79.31,13.63 18.12,2.29 36.6,-0.27 53.18,-7.94 2.72,-1.25 5.62,-2.4 8.75,-3.39 14.16,-4.5 23.8,-6.47 30.36,-7.12 3.43,-0.34 6.08,-3.12 6.37,-6.55 0.27,-3.4 0.42,-6.82 0.42,-10.27 0.02,-0.54 0.01,-1.09 0.01,-1.65 z"
   id="path861" />

	<path
   class="st13"
   d="m 199.47,189.81 c 22.31,0.86 37.43,6.28 50.77,11.06 14.75,5.29 27.48,9.85 47.05,7.69 17.26,-1.91 31.95,-7.64 44.91,-12.68 12.03,-4.7 22.85,-8.9 33.31,-9.18 2.58,-0.07 4.51,-2.44 4.08,-4.98 -0.96,-5.6 -2.31,-11.11 -4.01,-16.5 -1.31,-4.12 -5.39,-6.8 -9.67,-6.14 -8.76,1.36 -16.1,7.64 -24.81,15.09 -12.43,10.63 -26.46,22.63 -48.82,22.63 -0.74,0 -1.49,-0.02 -2.25,-0.04 -21.33,-0.76 -32.24,-7.39 -42.81,-13.82 -11.44,-6.96 -23.27,-14.15 -50.33,-15.04 -34.77,-1.15 -53.41,12.79 -61.63,21.53 -2.93,3.12 -4.57,7.21 -4.66,11.49 -0.01,0.79 -0.02,1.57 -0.02,2.36 0,1.58 0.04,3.16 0.1,4.74 10.53,-7.08 34.18,-19.55 68.79,-18.21 z"
   id="path863" />

	<path
   class="st12"
   d="m 197.17,159.18 c 29.35,0.98 42.75,9.12 54.58,16.31 10.48,6.37 19.53,11.88 38.58,12.55 20.29,0.72 32.88,-10.06 45.08,-20.49 10.09,-8.64 20.48,-17.51 34.24,-17.45 -1.8,-3.86 -3.81,-7.63 -6.03,-11.28 -1,-1.68 -2.89,-2.64 -4.82,-2.38 -10.68,1.44 -19.82,-1.42 -30.18,-4.66 -9.11,-2.85 -19.44,-6.08 -33.23,-7.16 -19.07,-1.48 -30.73,5.12 -43.09,12.12 -7.36,4.17 -14.99,8.49 -24.09,10.79 -13.58,3.43 -22.79,2.13 -31.69,0.87 -7.07,-1 -13.75,-1.94 -23,-0.77 -13.66,1.73 -25.17,7.47 -31.42,11.19 -2.87,1.71 -5.05,4.39 -6.03,7.58 -1.32,4.31 -2.42,8.7 -3.27,13.17 10.82,-9.77 30.85,-21.5 64.37,-20.39 z"
   id="path865" />

	<path
   class="st13"
   d="m 197.74,139.75 c 8.43,1.19 16.41,2.32 28.33,-0.69 7.96,-2.02 14.74,-5.86 21.93,-9.93 12.34,-7 26.34,-14.92 48.08,-13.23 14.78,1.15 25.61,4.54 35.15,7.53 9.51,2.98 16.86,5.27 25.04,4.49 -3.52,-4.67 -7.38,-9.13 -11.6,-13.33 C 330,99.91 312.32,89.32 293.04,83.39 c -10.79,-3.32 -22.57,-0.91 -31.32,6.22 -30.91,25.19 -61.39,26.46 -74.11,25.63 l -0.37,-0.04 c -7.06,-1.07 -13.81,-0.21 -18.25,0.7 -2.46,0.51 -4.7,1.8 -6.38,3.67 -7.79,8.66 -14.26,18.24 -19.29,28.48 6.94,-3.54 17.01,-7.57 29.1,-9.09 10.41,-1.31 17.99,-0.24 25.32,0.79 z"
   id="path867" />

	<path
   class="st12"
   d="m 188.37,106.55 c 12.51,0.79 43.18,-0.73 73.47,-28.55 -1.94,-0.09 -3.89,-0.14 -5.84,-0.14 -29.18,0 -56.83,9.9 -79.14,28.1 3.41,-0.15 7.29,-0.03 11.51,0.59 z"
   id="path869" />

</g>
    </g>
  </g>
  <style
     type="text/css"
     id="style833">
	.st0{clip-path:url(#SVGID_2_);fill:url(#SVGID_3_);}
	.st1{clip-path:url(#SVGID_5_);fill:url(#SVGID_6_);}
	.st2{clip-path:url(#SVGID_8_);fill:url(#SVGID_9_);}
	.st3{clip-path:url(#SVGID_11_);fill:url(#SVGID_12_);}
	.st4{clip-path:url(#SVGID_14_);fill:url(#SVGID_15_);}
	.st5{clip-path:url(#SVGID_17_);fill:url(#SVGID_18_);}
	.st6{clip-path:url(#SVGID_20_);fill:url(#SVGID_21_);}
	.st7{clip-path:url(#SVGID_23_);fill:url(#SVGID_24_);}
	.st8{clip-path:url(#SVGID_26_);fill:url(#SVGID_27_);}
	.st9{clip-path:url(#SVGID_29_);fill:url(#SVGID_30_);}
	.st10{clip-path:url(#SVGID_32_);fill:url(#SVGID_33_);}
	.st11{clip-path:url(#SVGID_35_);fill:url(#SVGID_36_);}
	.st12{fill:#BFD45A;}
	.st13{fill:#EDA118;}
</style>
</svg>
