<?xml version="1.0" encoding="UTF-8"?>
<svg width="450px" height="450px" viewBox="0 0 450 450" version="1.1" xmlns="http://www.w3.org/2000/svg" xmlns:xlink="http://www.w3.org/1999/xlink">
    <title>Rounded Copy</title>
    <defs>
        <circle id="path-1" cx="199" cy="199" r="199"></circle>
        <polygon id="path-3" points="0 0 248 0 248 240 0 240"></polygon>
    </defs>
    <g id="Rounded-Copy" stroke="none" stroke-width="1" fill="none" fill-rule="evenodd">
        <g id="Group-4" transform="translate(26.000000, 26.000000)">
            <mask id="mask-2" fill="white">
                <use xlink:href="#path-1"></use>
            </mask>
            <use id="Clip-3" fill="#11162D" xlink:href="#path-1"></use>
        </g>
        <g id="Group-4-Copy-2" transform="translate(101.000000, 105.000000)">
            <mask id="mask-4" fill="white">
                <use xlink:href="#path-3"></use>
            </mask>
            <g id="Clip-2"></g>
            <path d="M104.052337,6.55721357 C126.612318,8.93727804 149.373932,17.7380464 167.363168,31.527238 C171.017574,34.3286858 174.482624,37.3861772 177.632856,40.7403806 L178.348,41.513 L177.816788,40.9836967 C164.837999,28.2015023 146.044044,21.3275665 128.332547,18.1608943 L127.595213,18.0310891 C111.106157,15.1732256 86.6410439,15.5187368 79.1244202,33.8531593 C106.520809,16.6987219 143.345693,26.3350804 169.935546,40.2353491 C190.900428,51.1957022 209.449071,66.9920963 224.069503,85.4794592 C231.24801,94.5559668 237.603694,104.432341 242.20196,115.057789 C246.266654,124.451899 250.019631,136.112205 246.763157,146.284413 C248.846896,136.234446 243.397723,125.236695 238.611302,116.721154 C233.149773,107.00386 226.432383,97.8955366 219.019666,89.5630783 C204.945725,73.7415662 186.811582,59.3880583 165.991607,53.7588486 C185.066521,64.4635569 201.918968,78.8505555 215.489105,95.9385699 C229.042392,113.005932 239.936807,133.054514 243.978474,154.583939 C248.095964,176.513018 244.653582,201.016965 229.014871,217.952597 C221.420739,226.176769 211.360944,231.960594 200.309827,234.082781 C189.594019,236.140777 178.490669,234.645423 168.456148,230.500962 C170.878003,231.299155 173.370626,231.886356 175.899756,232.220704 C199.243245,235.309095 218.082264,215.599883 225.455666,195.402826 C233.33695,173.816819 228.455959,149.829727 216.779601,130.545693 L216.424,129.964 L216.598049,130.600888 C221.940094,150.40113 221.424662,171.924969 210.729401,189.906478 L210.380856,190.485291 C198.492313,209.986861 177.102821,221.070571 154.694487,223.414354 C132.424881,225.743624 109.653718,220.658079 89.2358882,211.958898 C67.6874473,202.778012 47.7414071,189.127248 31.9195967,171.885177 C17.5507867,156.224978 3.80766005,134.701135 6.43732694,112.539296 C6.01103109,131.880669 21.7008527,148.686805 35.5956261,160.300782 C53.4085021,175.189023 74.7440759,187.136232 97.3248379,193.035041 C118.378461,198.535871 144.522922,199.010879 161.956681,184.019933 C147.768162,186.814723 133.011249,186.147702 118.908663,183.183785 C95.9869766,178.365606 74.3385612,167.659781 55.6270378,153.782398 C36.9593235,139.937388 20.3276071,122.299012 9.99260064,101.393629 C0.557926468,82.3106914 -3.91228259,59.0721304 4.29573791,38.7584141 C8.65586266,27.9677466 16.6094536,18.8002563 26.9315421,13.2625875 C36.6801812,8.03191581 47.9222599,6.30882504 58.8756481,7.50108998 C57.516444,7.42685251 56.1533082,7.41624716 54.7929807,7.47876292 C30.2211531,8.60962845 18.1461406,34.6613988 20.5427209,56.4408865 C22.9612056,78.4235505 37.7063241,97.9881939 55.0990825,110.942912 C38.973417,87.7785881 26.7428261,54.3594465 43.9962941,28.4159623 C57.0615037,8.7698251 81.9793106,4.22794316 104.052337,6.55721357 Z M122.980359,85.2180233 C108.777296,85.2180233 101.591265,96.5436573 106.929911,110.514535 C112.268557,124.485412 128.110242,135.811047 142.313306,135.811047 C156.51637,135.811047 163.7024,124.485412 158.363754,110.514535 C153.025109,96.5436573 137.183423,85.2180233 122.980359,85.2180233 Z" id="Combined-Shape" fill="#FFFFFF" mask="url(#mask-4)"></path>
        </g>
    </g>
</svg>