<?xml version="1.0" encoding="utf-8"?>
<!-- Generator: Adobe Illustrator 24.3.0, SVG Export Plug-In . SVG Version: 6.00 Build 0)  -->
<svg version="1.1" id="Vrstva_1" xmlns="http://www.w3.org/2000/svg" xmlns:xlink="http://www.w3.org/1999/xlink" x="0px" y="0px"
	 viewBox="0 0 500 500" enable-background="new 0 0 500 500" xml:space="preserve">
<g>
	<circle fill="#FFFFFF" cx="249.5" cy="249.5" r="249.5"/>
	<g>
		<path fill="none" d="M180.641,287.448"/>
	</g>
	<g>
		<g>
			<linearGradient id="SVGID_1_" gradientUnits="userSpaceOnUse" x1="249.4998" y1="458.8913" x2="249.4998" y2="278.5278">
				<stop  offset="0" style="stop-color:#6B3BE1"/>
				<stop  offset="0.8516" style="stop-color:#2D74F2"/>
				<stop  offset="0.9978" style="stop-color:#2A76F3"/>
			</linearGradient>
			<path fill="url(#SVGID_1_)" d="M249.5,441.24c-7.602,0-14.847-2.394-20.954-6.92l-77.445-57.414
				c-10.97-8.133-17.52-21.141-17.52-34.797v-63.616c0-11.805,9.617-21.409,21.437-21.409c4.457,0,8.762,1.405,12.45,4.064
				l77.921,56.18c1.205,0.868,2.626,1.327,4.111,1.327c1.485,0,2.907-0.459,4.111-1.327l77.921-56.18
				c3.688-2.659,7.993-4.064,12.449-4.064c11.82,0,21.437,9.604,21.437,21.409v63.616c0,13.656-6.549,26.664-17.519,34.797
				l-77.445,57.414C264.347,438.848,257.102,441.24,249.5,441.24z"/>
			<path fill="#FFFFFF" d="M343.982,263.448c7.79,0,15.073,6.171,15.073,15.045v63.616c0,11.703-5.544,22.715-14.946,29.685
				l-77.445,57.414c-5.097,3.779-11.13,5.668-17.164,5.668s-12.066-1.889-17.164-5.668l-77.445-57.414
				c-9.402-6.97-14.946-17.981-14.946-29.685v-63.616c0-8.874,7.282-15.045,15.073-15.045c2.96,0,5.993,0.891,8.728,2.863
				l77.921,56.179c2.339,1.686,5.086,2.529,7.833,2.529s5.494-0.843,7.833-2.529l77.921-56.179
				C337.989,264.339,341.021,263.448,343.982,263.448 M343.982,250.721c-5.801,0-11.393,1.821-16.172,5.266l-77.921,56.179
				c-0.116,0.084-0.247,0.126-0.39,0.126s-0.274-0.042-0.39-0.126l-77.921-56.179c-4.778-3.445-10.37-5.266-16.172-5.266
				c-7.168,0-13.994,2.731-19.219,7.69c-5.534,5.252-8.581,12.384-8.581,20.082v63.616c0,15.662,7.512,30.582,20.094,39.909
				l77.445,57.414c7.211,5.346,15.767,8.171,24.743,8.171c8.976,0,17.533-2.826,24.743-8.171l77.445-57.414
				c12.582-9.328,20.094-24.247,20.094-39.909v-63.616C371.782,263.179,359.311,250.721,343.982,250.721L343.982,250.721z"/>
		</g>
		<path fill="#F0B908" d="M257.333,186.069l77.921,56.179c9.933,7.162,23.801,0.064,23.801-12.182V166.45
			c0-11.703-5.544-22.715-14.946-29.685l-77.445-57.414c-10.194-7.558-24.133-7.558-34.327,0l-77.445,57.414
			c-9.402,6.97-14.946,17.982-14.946,29.685v63.616c0,12.246,13.868,19.344,23.801,12.182l77.921-56.179
			C246.344,182.697,252.656,182.697,257.333,186.069z"/>
	</g>
</g>
</svg>
