<svg xmlns="http://www.w3.org/2000/svg" xmlns:xlink="http://www.w3.org/1999/xlink" viewBox="0 0 32 32"><defs><style>.cls-1{fill:url(#linear-gradient);}.cls-2{fill:#066d89;}.cls-3{fill:#fff;}</style><linearGradient id="linear-gradient" x1="30.36" y1="25.86" x2="-0.04" y2="4.98" gradientUnits="userSpaceOnUse"><stop offset="0" stop-color="#0484b1"/><stop offset="1" stop-color="#04afb1"/></linearGradient></defs><g id="Layer_2" data-name="Layer 2"><g id="Layer_1-2" data-name="Layer 1"><path class="cls-1" d="M18.34.17A16.42,16.42,0,0,0,16,0a16,16,0,1,0,2.34.17Z"/><path class="cls-2" d="M10.32,16c1.22.83,4.19,3.13,5.69-1.36l-1.74-3.32v0a.75.75,0,0,0-.07-.12l-.52-1h0a2.87,2.87,0,0,0-2.61-1.54,2.74,2.74,0,0,0-2.87,2.6,2.44,2.44,0,0,0,.29,1.14h0Z"/><path class="cls-2" d="M26,11.26a2.74,2.74,0,0,0-2.86-2.61,2.89,2.89,0,0,0-2.66,1.62l-3.37,6.62A3.43,3.43,0,0,1,13.71,19l.07.55H12.1l2,3.89,0,.05a3.56,3.56,0,0,0,2,1.66,5.44,5.44,0,0,0,2.16,0h0A3.45,3.45,0,0,0,20,23.71l0-.06,5.14-10.1,0-.06,0-.06.41-.8.12-.32.05-.09h0c0-.09.07-.18.1-.27l0,0h0A2.25,2.25,0,0,0,26,11.26Z"/><path class="cls-3" d="M9.16,15.89c1.22.83,4.19,3.13,5.69-1.36l-1.74-3.32h0L13,11.07l-.53-1h0A2.89,2.89,0,0,0,9.89,8.49,2.74,2.74,0,0,0,7,11.09a2.44,2.44,0,0,0,.29,1.14h0Z"/><path class="cls-3" d="M24.87,11.13A2.74,2.74,0,0,0,22,8.52a2.89,2.89,0,0,0-2.66,1.62L16,16.77c-.26.53-2.09,3.86-5.93.85l2.88,5.66,0,0A3.56,3.56,0,0,0,14.91,25a5.44,5.44,0,0,0,2.16,0h0a3.45,3.45,0,0,0,1.79-1.4l0,0L24,13.42l0-.06,0-.06.41-.8.12-.31.05-.1h0c0-.09.07-.18.1-.27l0-.05h0A2.25,2.25,0,0,0,24.87,11.13Z"/></g></g></svg>