<svg xmlns="http://www.w3.org/2000/svg" viewBox="0 0 378 378"><defs><style>.cls-1{fill:#fefefe;}.cls-2{fill:#e6e6e6;}.cls-3{fill:#b9b9b9;}.cls-4{fill:#8e8e8e;}.cls-5{fill:#ebebeb;}.cls-6{fill:#c5c5c5;}.cls-7{fill:#e3e3e3;}.cls-8{fill:#dcdcdc;}.cls-9{fill:#b5b5b5;}.cls-10{fill:#a6a6a6;}.cls-11{fill:#7f7f7f;}.cls-12{fill:#c2c2c2;}.cls-13{fill:#656565;}.cls-14{fill:#2a2a2a;}.cls-15{fill:#353535;}.cls-16{fill:#555;}.cls-17{fill:#959595;}.cls-18{fill:#6b6b6b;}.cls-19{fill:#cecece;}.cls-20{fill:#ccc;}.cls-21{fill:#090909;}.cls-22{fill:#606060;}.cls-23{fill:#d8d8d8;}.cls-24{fill:#0e0e0e;}.cls-25{fill:#d4d4d4;}.cls-26{fill:#f1f1f1;}.cls-27{fill:#dadada;}.cls-28{fill:#727272;}.cls-29{fill:#0d0d0d;}.cls-30{fill:#d0d0d0;}</style></defs><g id="Layer_2" data-name="Layer 2"><g id="Layer_1-2" data-name="Layer 1"><path class="cls-1" d="M0,378V0H378V378Zm247.09-19.92,3-1.94,3-1,3.94-2,2-.88c1.84-.16,3.83.06,5.48-.57a53,53,0,0,0,9.86-4.67c8-5.12,15.84-10.55,23.74-15.86,1.67-.57,3.61-.77,5-1.77,14.59-10.75,26.32-24.24,36.64-39,1.26-1.79,1.51-4.28,2.23-6.44L343,282c1.26-.83,3.06-1.38,3.68-2.55,3.95-7.47,8-14.92,11.33-22.67,6.72-15.58,10.53-32,12.92-48.77.27-2,.52-4.26-2.7-4l-.25-1,1.32-1.9c.89-1.22,2.53-2.42,2.57-3.68q.39-10.4,0-20.82c0-1.26-1.67-2.46-2.57-3.68L368,171a3.54,3.54,0,0,1,.23-1c3.68.12,2.93-2.6,2.64-4.56-3.58-24.31-10.65-47.37-22.91-68.93a180,180,0,0,0-61.32-64C266,19.45,243.12,11.4,219,7.27c-1.23-.21-2.7,1-4.06,1.48l-1.78-.06c-1.43-4.33-3.64-3.62-6.16-1h-2.85c-1.24-.9-2.46-2.53-3.73-2.57-6.93-.26-13.88-.26-20.8,0-1.27.05-2.49,1.68-3.73,2.57l-1.78.06c-1.86-.56-3.83-1.82-5.57-1.57a198.53,198.53,0,0,0-59.59,18.17A176,176,0,0,0,56.86,63.68,15.54,15.54,0,0,0,55,67.05l-1,1.84c-1.82,1.36-4.14,2.37-5.38,4.13C44.53,78.86,40.84,85,37,91h0l-2,3h0q-2,3.49-4,7L25.88,112c-1.65,2.72-3.77,5.28-4.82,8.22C19.34,125,18.32,130,17,135l-.18,1.93L15,142l-.15,1.93L14,146l-.16,1.94L13,151l-.2,1.93-1.68,1.79,1.66,1.34c-.08,1-.16,1.93-.23,2.9l-2.51,1.61L11.74,163l-.17,4c-3.33,1.65-3.51,3-.82,6,0,2.31-.05,4.61-.08,6.92-.82.41-2.33.79-2.35,1.23-.18,4.22-.18,8.46,0,12.69,0,.45,1.52.85,2.34,1.27l.12,5.83c-2.74,2.05-2.72,4.1,0,6.13L11,211l.84,4.07L12,218l.86,3.06L13,223l.87,3.06L14,228a7.49,7.49,0,0,0-.23,2.62c2.1,7,4,14,6.55,20.82a176.44,176.44,0,0,0,46.34,69,185,185,0,0,0,48.24,32c3.26,1.5,6.81,2.34,10.22,3.49L148,362.07,150,363l1.93.1L154,364l2.93.13L160,365l2.91.15L166,366l4.91.18c2.06,2.74,4.12,2.79,6.18,0l6.87.24c.25,4,3.36,2.55,5.28,2.45s5.38,1.84,5.81-2.44l6.86-.24c2.39,2.92,4.79,2.88,7.18,0L213,366l4.09-.84L220,365l3.09-.85L225,364l4-1.7,2-.14a6.71,6.71,0,0,0,9.12-2.87l1.8-.09C244.28,361.67,245.79,360.36,247.09,358.08Z"/><path class="cls-2" d="M214.92,8.75c1.36-.52,2.83-1.69,4.06-1.48,24.14,4.13,47,12.18,67.65,25.26a180,180,0,0,1,61.32,64c12.26,21.56,19.33,44.62,22.91,68.93.29,2,1,4.68-2.64,4.56l-.62-1.77c.08-2,.51-4,.18-5.93-2.75-16.18-6.53-32.1-13.34-47.11-2.27-5-5.51-9.57-8.3-14.33l-1.06-2L344,95c-5.12-7.61-10.15-15.3-15.43-22.79-1.44-2-3.68-3.51-5.55-5.23L310,54c-.32-.73-.44-1.72-1-2.16-5.3-4.18-10.47-8.57-16.08-12.28-5-3.31-10.52-5.84-15.81-8.71a27.33,27.33,0,0,0-4.54-2.92c-13-5.11-26-10.38-39.22-15C227.48,10.81,221.09,10.09,214.92,8.75Z"/><path class="cls-3" d="M214.92,8.75c6.17,1.34,12.56,2.06,18.47,4.13,13.2,4.63,26.18,9.9,39.22,15a27.33,27.33,0,0,1,4.54,2.92L277,32.08c-1.52-.63-3-1.31-4.56-1.89-13.26-5-26.31-10.69-39.87-14.66-9.7-2.84-20-3.89-30.17-4.73a184.66,184.66,0,0,0-27.73,0c-8.51.59-16.93,2.36-25.4,3.62l-2.43,1.28L129,21l-4.15,1.79c-.29,0-.58.12-.87.18l-4.11,1.85-5.17,3.75L109,31l-7,3.7-1.11.68-2.64.1-2.34-.54A16.16,16.16,0,0,1,98.12,33c23.38-14.24,48.92-22,76-25.18l1.78,0h28.26l2.85,0,6.16,1Z"/><path class="cls-4" d="M259,352.22l-2,.88L255,353l-13,4.2-2,1.19L231,360.75l-2,.37-4,.91c-4.9.37-9.8.64-14.68,1.15-5.12.53-10.22,1.29-15.33,2H184c-5.15-.7-10.29-1.55-15.46-2.07-24.3-2.48-46.7-10.66-68-22.36-2.86-1.57-5.76-3.07-8.64-4.61l0,0-3-2,0,0-1-3A20.26,20.26,0,0,1,92,332.69a165.43,165.43,0,0,0,65,26.63c8.51,1.54,17.32,1.4,26,2l1.74,0c3.17,2.53,6.35,2.54,9.52,0l1.75,0a6,6,0,0,0,2.29.66q19.22-2.83,38.41-5.86c.76-.12,1.35-1.28,2-2l2-.62c4.61,1.56,8.13-.57,11.46-3.36l2.81-1,2.22-1,1.71-.35,7.33-3.64,6.81-3.17,5.13-.74-15.05,8.85-2.3,1.6Z"/><path class="cls-5" d="M125.13,355.88c-3.41-1.15-7-2-10.22-3.49a185,185,0,0,1-48.24-32,176.44,176.44,0,0,1-46.34-69c-2.56-6.8-4.45-13.86-6.55-20.82A7.49,7.49,0,0,1,14,228a16.32,16.32,0,0,1,2,3.17c2.79,8.31,5.13,16.78,8.31,24.93C26.21,261,29.37,265.4,32,270a6.09,6.09,0,0,1,.17.85L37,279a6.2,6.2,0,0,1,.19.83L39,282c.08.27.14.54.2.82l1.78,2.2c.08.27.14.54.2.81l1.81,2.18a5.34,5.34,0,0,1,.21.81c.6.72,1.2,1.45,1.81,2.17q.12.41.21.81c.6.73,1.21,1.45,1.81,2.17l1.17,1.85L51,299l1,1L56,305l3.91,4.1c.6,4.06,2.94,6.39,7,7L71,320l5.16,4.84L78,326l3.17,2.82a7.27,7.27,0,0,1,.8.22l3.87,3.14,3.09,1.88,0,0,3,2,0,0c1.24,1.25,2.28,2.88,3.77,3.67,8.52,4.52,17.17,8.8,25.72,13.25A25.16,25.16,0,0,1,125.13,355.88Z"/><path class="cls-2" d="M174.09,7.77C147,10.94,121.5,18.71,98.12,33a16.16,16.16,0,0,0-2.21,1.94L86,42c-8.26,6.86-16.54,13.7-24.75,20.62-.52.44-.48,1.54-.7,2.33l-.64,1.9-.07.1-4.8.1a15.54,15.54,0,0,1,1.82-3.37,176,176,0,0,1,52.07-39.31A198.53,198.53,0,0,1,168.52,6.2C170.26,6,172.23,7.21,174.09,7.77Z"/><path class="cls-2" d="M368.22,204c3.22-.21,3,2.09,2.7,4-2.39,16.76-6.2,33.19-12.92,48.77-3.34,7.75-7.38,15.2-11.33,22.67-.62,1.17-2.42,1.72-3.68,2.55.7-2.19,1.39-4.37,2.08-6.56.43-.8.85-1.61,1.28-2.42l-.19-.41a1,1,0,0,0-.22-.73c.36-.95.72-1.91,1.09-2.86,1.14-.66,2.9-1.06,3.32-2q5.29-12.44,10.09-25.08c.41-1.09-.54-2.69-.86-4,.05-.78.09-1.56.14-2.34l1.64-.33,1.23-2.47.18-1.74.82-2.26c.06-.58.11-1.16.17-1.74q1.9-10.63,3.82-21.26Z"/><path class="cls-6" d="M125.13,355.88a25.16,25.16,0,0,0-3.71-2.86c-8.55-4.45-17.2-8.73-25.72-13.25-1.49-.79-2.53-2.42-3.77-3.67,2.88,1.54,5.78,3,8.64,4.61,21.26,11.7,43.66,19.88,68,22.36,5.17.52,10.31,1.37,15.46,2.07,0,.42,0,.85,0,1.28l-6.86-.25h-6.18L166,366l-3.09-.83L160,365l-3.07-.89L154,364l-2.07-.87L150,363l-2.05-.95Z"/><path class="cls-6" d="M13.85,147.94c.05-.65.11-1.29.16-1.94.27-.69.55-1.38.83-2.07L15,142l1.83-5.07L17,135l8.88-23L31,101l4-7h0l2-3h0l2,.9c-1,2.73-2,5.47-2.93,8.2L34,104l-3.53,6.38-1.66,4.51L27,119l.38,2.13c-.29.86-.57,1.72-.85,2.58l-.14-.27H26c-.72.17-2,.18-2.08.54-2.4,7.54-4.68,15.12-7,22.7-1.24,4.11-2.42,8.24-3.62,12.36a4.34,4.34,0,0,1-.8-.08l.24-2.9c0-1,0-2.09,0-3.13.07-.65.13-1.29.2-1.93Z"/><path class="cls-7" d="M341.92,283.91c-.72,2.16-1,4.65-2.23,6.44-10.32,14.76-22.05,28.25-36.64,39-1.36,1-3.3,1.2-5,1.77l-.12-1.24L309,320c1.44-.62,3.17-.92,4.28-1.92a90.7,90.7,0,0,0,9.09-9.09c4.05-4.85,7.72-10,11.55-15.07Q337.92,288.92,341.92,283.91Z"/><path class="cls-6" d="M32,270c-2.6-4.62-5.76-9-7.68-13.92C21.11,248,18.77,239.48,16,231.17A16.32,16.32,0,0,0,14,228c0-.65-.11-1.29-.16-1.94L13,223c0-.64-.09-1.29-.13-1.94-.29-1-.57-2-.86-3.06-.06-1-.11-1.95-.16-2.93-.28-1.36-.57-2.71-.85-4.07-.05-1.31-.11-2.62-.16-3.93l0-6.13-.12-5.83L11.84,194a18.18,18.18,0,0,1,1.09,4.1,152.48,152.48,0,0,0,9.78,48.42C25.64,254.39,28.87,262.18,32,270Z"/><path class="cls-8" d="M298,329.88l.12,1.24c-7.9,5.31-15.72,10.74-23.74,15.86a53,53,0,0,1-9.86,4.67c-1.65.63-3.64.41-5.47.57l1.84-1.42,2.3-1.6,15.05-8.85.1-.07,8.12-4.76,3-1.38,3.68-2.65L296,330Z"/><path class="cls-2" d="M369.29,172.91c.9,1.22,2.53,2.42,2.57,3.68q.39,10.41,0,20.82c0,1.26-1.68,2.46-2.58,3.68Q369.28,187,369.29,172.91Z"/><path class="cls-2" d="M204.13,7.71H175.87c1.24-.9,2.46-2.53,3.73-2.58,6.92-.26,13.87-.26,20.8,0C201.67,5.18,202.89,6.81,204.13,7.71Z"/><path class="cls-9" d="M369.29,172.91q0,14.09,0,28.18c-.43.64-.87,1.27-1.31,1.9-.57-3.34-1.13-6.67-1.69-10V180l1.71-9Z"/><path class="cls-5" d="M39,91.89,37,91c3.85-6,7.54-12.13,11.63-18,1.24-1.76,3.56-2.77,5.38-4.13-.36,1.33-.73,2.65-1.09,4-.65.7-1.29,1.41-1.93,2.11l-2.8,3.18c-.07.27-.14.53-.23.8l-5.11,7Z"/><path class="cls-10" d="M341.92,283.91l-8,10-2.75.13c.64-1.66,1.29-3.31,1.93-5l2-3,2.09-3.89,0,0,2.09-2.76.12-.15,3.45-6.36L345,272l1.15.6.18.41-1.27,2.42c-.69,2.19-1.38,4.37-2.08,6.56Z"/><path class="cls-6" d="M195,365.14c5.11-.67,10.21-1.43,15.33-2,4.88-.51,9.78-.78,14.68-1.15,0,.67,0,1.34,0,2l-1.92.13L220,365l-2.91.15L213,366l-3.91.16h-7.18l-6.86.24C195,366,195,365.56,195,365.14Z"/><path class="cls-5" d="M11.84,194l-1.17,1.14c-.82-.42-2.32-.82-2.34-1.27-.19-4.23-.19-8.47,0-12.69,0-.44,1.53-.82,2.35-1.23L11.83,181Q11.83,187.5,11.84,194Z"/><path class="cls-11" d="M368,171l-1.71,9h-1.42L364,169l-.66-2.22c-.29-1.83-.57-3.66-.86-5.49l2-.32,3.13,7.3.62,1.77A3.54,3.54,0,0,0,368,171Z"/><path class="cls-11" d="M366.28,193c.56,3.34,1.12,6.67,1.69,10,.08.33.16.65.25,1l-.63,1.77-3.21,7.45L363.11,212l.77-5c.05-.67.1-1.33.14-2l.84-12Z"/><path class="cls-2" d="M195,365.14c0,.42,0,.85,0,1.28-.43,4.28-3.76,2.33-5.81,2.44s-5,1.52-5.28-2.44l0-1.28Z"/><path class="cls-5" d="M25.88,112,17,135c1.32-5,2.34-10,4.06-14.83C22.11,117.23,24.23,114.67,25.88,112Z"/><path class="cls-2" d="M231,360.75l9.06-2.41c0,.33.05.66.08,1a6.7,6.7,0,0,1-9.12,2.85C231,361.71,231,361.23,231,360.75Z"/><path class="cls-12" d="M52.9,72.87c.37-1.33.74-2.65,1.1-4l1-1.84,4.8-.1-4.52,6.27Z"/><path class="cls-5" d="M10.75,173c-2.69-3-2.51-4.36.82-6l1.24,0c-.05,1.94-.1,3.88-.16,5.83Z"/><path class="cls-9" d="M242,357.15l13-4.2-1.86,2.15-3,1L244,358l-2,.22Z"/><path class="cls-2" d="M213.14,8.69l-6.16-1C209.5,5.07,211.71,4.36,213.14,8.69Z"/><path class="cls-6" d="M10.75,173l1.91-.14L11.82,181l-1.15-1.11C10.7,177.61,10.72,175.31,10.75,173Z"/><path class="cls-2" d="M201.91,366.18h7.18C206.7,369.06,204.3,369.1,201.91,366.18Z"/><path class="cls-2" d="M225,364c0-.67,0-1.34,0-2l4-.91,0,1.22Z"/><path class="cls-5" d="M10.79,200.94l0,6.13C8.07,205,8.05,203,10.79,200.94Z"/><path class="cls-5" d="M35,94l-4,7Z"/><path class="cls-2" d="M170.91,366.17h6.18C175,369,173,368.91,170.91,366.17Z"/><path class="cls-5" d="M11.74,163l-1.66-2.42L12.59,159a4.15,4.15,0,0,0,.79.08c-.1,1.32-.2,2.64-.29,4Z"/><path class="cls-2" d="M242,358.23l2-.22h0l.9,0,2.2.05c-1.3,2.28-2.81,3.59-5.17,1.16Z"/><path class="cls-5" d="M16.82,136.93,15,142Z"/><path class="cls-5" d="M11,211c.28,1.36.57,2.71.85,4.07C11.54,213.71,11.26,212.36,11,211Z"/><path class="cls-6" d="M11.74,163h1.35c-.09,1.34-.19,2.68-.28,4l-1.24,0C11.63,165.66,11.68,164.33,11.74,163Z"/><path class="cls-8" d="M247.09,358.08l-2.2-.05a3.88,3.88,0,0,1-.9,0h0l6.06-1.87Z"/><path class="cls-2" d="M213,366l4.09-.84Z"/><path class="cls-5" d="M13,223l.87,3.06Z"/><path class="cls-5" d="M13.85,147.94,13,151Z"/><path class="cls-5" d="M12.84,152.94c0,1,0,2.09,0,3.13-.55-.45-1.1-.9-1.66-1.34Z"/><path class="cls-8" d="M253.1,355.1,255,353l2.08.15Z"/><path class="cls-2" d="M156.93,364.12,160,365Z"/><path class="cls-2" d="M220,365l3.09-.85Z"/><path class="cls-2" d="M162.91,365.16,166,366Z"/><path class="cls-5" d="M12,218c.29,1,.57,2,.86,3.06C12.56,220,12.28,219,12,218Z"/><path class="cls-5" d="M37,91l-2,3Z"/><path class="cls-5" d="M14.84,143.93c-.28.69-.56,1.38-.83,2.07C14.28,145.31,14.56,144.62,14.84,143.93Z"/><path class="cls-8" d="M242,358.23l-.06,1-1.8.09c0-.33-.06-.66-.08-1l2-1.19C242,357.51,242,357.87,242,358.23Z"/><path class="cls-6" d="M229,362.34l0-1.22,2-.37c0,.48,0,1,0,1.44Z"/><path class="cls-2" d="M148,362.07,150,363Z"/><path class="cls-2" d="M151.93,363.12,154,364Z"/><path class="cls-11" d="M345.08,98.9l1.06,2c.6,1.68,1.16,3.39,1.83,5,4.06,10.14,8.46,20.15,12.08,30.44,1.89,5.36,2.39,11.2,3.53,16.82l-2.29-.42c-.49-1.66-1-3.31-1.46-5-2.21-8.49-4.36-17-6.65-25.47-.16-.62-1.2-1-1.84-1.5l-9.17-19.11a2.31,2.31,0,0,1,.23-.67l.69-2.17Z"/><path class="cls-9" d="M363.57,153.22c-1.13-5.63-1.63-11.47-3.52-16.83-3.62-10.29-8-20.3-12.08-30.44-.67-1.66-1.23-3.37-1.83-5,2.79,4.76,6,9.33,8.3,14.33,6.81,15,10.59,30.93,13.34,47.11.33,1.91-.1,3.95-.18,5.93l-3.13-7.3-.21-2c-.16-1.32-.33-2.63-.49-3.94Z"/><path class="cls-6" d="M277,32.08l.18-1.27c5.29,2.87,10.81,5.4,15.81,8.71,5.61,3.71,10.78,8.1,16.08,12.28.55.44.67,1.43,1,2.16l-3,0c-2.37-2-4.6-4.23-7.13-6C292.29,42.59,284.61,37.37,277,32.08Z"/><path class="cls-6" d="M323,67c1.87,1.72,4.11,3.19,5.55,5.23C333.87,79.69,338.9,87.38,344,95l-2.16.07L323,70Z"/><path class="cls-10" d="M323,67c0,1,0,2-.05,3l-2.2-.7-13.11-13.1L307,54l3,0Z"/><path class="cls-9" d="M341.86,95.06,344,95l1.06,3.91h-2Z"/><path class="cls-13" d="M307,54l.69,2.21L303,54l-1.83-1.18-4.21-3-.45,0-11.08-7.14-2.33-2.86-3-1.89-2.1-1-1.65-.28L271,32.91l-1.72-.28-7-3.82-5.12-2-1.9-1L251,23.93l-10.93-3.3L235,18.93l-1.91-.27-2.15-1.38L229,17.09l-3-.85-2-.17-3-.22-2.66-.06-4.3-1h-2.71L206,13.22l-7-.17H182l-8,.19-5,.83-4,.2-3,.8-2,.11L157,16l-3,.23-6.29,2.47a7.37,7.37,0,0,1-.82.13L144,19l-2,.22L121.82,27a4.11,4.11,0,0,0-.08.6l-2.2,2.48v.23l-4.87-1.81q2.58-1.87,5.17-3.74L124,22.94c.29-.06.58-.13.87-.18L129,21l17.83-5.24,2.43-1.29c8.47-1.26,16.89-3,25.4-3.62a184.66,184.66,0,0,1,27.73,0c10.13.84,20.47,1.89,30.17,4.73,13.56,4,26.61,9.68,39.87,14.66,1.54.58,3,1.26,4.56,1.89,7.64,5.29,15.32,10.51,22.89,15.9C302.39,49.78,304.62,52,307,54Z"/><path class="cls-14" d="M100.89,35.33l1.11-.68,4,.22c.1,1,.2,1.89.29,2.84L93.66,45.38l-1.79-1.55c.4-.93.81-1.85,1.21-2.78L95,39.93,97.2,38.2A5.28,5.28,0,0,0,98,38Z"/><path class="cls-15" d="M114.68,28.54l4.86,1.81L109.27,36c-.13-.78-.25-1.56-.38-2.34L109,31Z"/><path class="cls-4" d="M95,39.93l-1.87,1.12-6.65,2.22L86,42l9.91-7.11,2.34.53c-.1.85-.19,1.69-.28,2.54a4.12,4.12,0,0,1-.78.23Z"/><path class="cls-13" d="M109,31c0,.89,0,1.78-.07,2.67l-1.15,1.06-1.69.19-4-.22Z"/><path class="cls-13" d="M98,38c.09-.85.18-1.69.28-2.54l2.64-.09Z"/><path class="cls-4" d="M129,21l-4.15,1.79Z"/><path class="cls-4" d="M124,22.94l-4.11,1.86Z"/><path class="cls-4" d="M149.24,14.44l-2.43,1.29Q148,15.07,149.24,14.44Z"/><path class="cls-14" d="M55.32,73.22,59.84,67l.08-.1,1.95,0a23.23,23.23,0,0,0,4.05-2.37c5.35-4.68,10.45-9.65,15.92-14.17,3.06-2.52,6.67-4.37,10-6.53.6.52,1.2,1,1.78,1.56L89.87,48.9,88,50.23l-2.42,1.86c-1.21.42-2.79.49-3.59,1.31C73.8,61.9,65,70,57.77,79.22c-30,38.26-43,81.55-36.76,130.14C25.84,246.77,41.81,279,67.8,306a165.53,165.53,0,0,0,65.46,41.81,177.22,177.22,0,0,0,78,9c4-.42,7.82-2,11.72-3.08l1.79-.2,3.25-.8,1.74-.24,3.26-.8,1.7-.37,2.59-.84,13.77-4.94,1.9-.69,10.86-3.65c.07.94.13,1.88.2,2.82l-5.1,3.84-1.71.36-2.22,1-2.81,1-11.46,3.36-2,.62c-1.15.08-2.3.11-3.42.28q-17.7,2.76-35.38,5.58a25.72,25.72,0,0,0-3.92,1.3l-1.76,0h-9.51l-1.74,0c-1-.44-2-1.23-3-1.26-17.78-.52-34.82-4.62-51.38-10.75-30.18-11.18-55.55-29.43-75.14-54.81C27.6,261,15,222.77,16.85,180a184.62,184.62,0,0,1,7-43,14.63,14.63,0,0,0,0-4l1.2-4c2.38-1.25,3.75-2.78,1.46-5.31.28-.86.56-1.72.85-2.58L28.93,119l.6-2.92c5.47-3,5.9-9.09,8.36-13.92.17-.32-.53-1.07-.83-1.62a2.51,2.51,0,0,0,1.1-1.11,6,6,0,0,1,.75-.48l1.94-3,0,0c.33,0,.83.1,1-.07,4.66-6.13,9.32-12.27,13.86-18.49.32-.44-.19-1.49-.31-2.25Z"/><path class="cls-16" d="M23.83,133a14.63,14.63,0,0,1,0,4,184.62,184.62,0,0,0-6.95,43C15,222.77,27.6,261,53.51,294.53c19.59,25.38,45,43.63,75.14,54.81,16.56,6.13,33.6,10.23,51.38,10.75,1,0,2,.82,3,1.26-8.68-.63-17.49-.49-26-2a165.43,165.43,0,0,1-65-26.63A20.26,20.26,0,0,0,88,331.05l-1-.35-13-10.58a7.12,7.12,0,0,0-.74-.35A48.08,48.08,0,0,0,70,315.5c-4.72-5.13-9.75-10-14.27-15.29-27.51-32.28-40.63-70.09-41.37-112.09-.23-12.81,2.2-25.72,4.13-38.47C19.33,144,22,138.53,23.83,133Z"/><path class="cls-16" d="M196,361.35a25.72,25.72,0,0,1,3.92-1.3q17.67-2.85,35.38-5.58c1.12-.17,2.27-.2,3.42-.28-.67.68-1.26,1.84-2,2q-19.19,3.06-38.41,5.86A6,6,0,0,1,196,361.35Z"/><path class="cls-15" d="M264,344.05c-.07-.94-.13-1.88-.2-2.82l7.91-3.87,1.19,2.58.14,1.15-6.81,3.17Z"/><path class="cls-16" d="M240.73,353.57l11.46-3.36C248.86,353,245.34,355.13,240.73,353.57Z"/><path class="cls-16" d="M184.74,361.32h9.51C191.09,363.86,187.91,363.85,184.74,361.32Z"/><path class="cls-16" d="M264,344.05l2.23.21-7.33,3.64Z"/><path class="cls-16" d="M273.07,341.09c0-.38-.09-.76-.14-1.15l5.93-2c-.18.8-.37,1.59-.56,2.38l-.1.07Z"/><path class="cls-6" d="M87,330.7l1,.35,1,3-3.08-1.88.34-.41.89-.75Z"/><path class="cls-6" d="M91.91,336.08l-3-2Z"/><path class="cls-16" d="M255,349.24l2.22-1Z"/><path class="cls-9" d="M263.15,349.2l-2.3,1.6Z"/><path class="cls-17" d="M23.83,133c-1.85,5.54-4.5,11-5.37,16.66-1.93,12.75-4.36,25.66-4.13,38.47.74,42,13.86,79.81,41.37,112.09,4.52,5.3,9.55,10.16,14.27,15.29a46.81,46.81,0,0,1,3.21,4.28L71,320l-4.09-3.92-7-7L56,305l-4.07-4.92L51,299c-.94-1-1.88-2.11-2.81-3.17L47,294c-.6-.72-1.21-1.44-1.81-2.17q-.09-.4-.21-.81l-1.81-2.17a5.34,5.34,0,0,0-.21-.81l-1.81-2.18c-.06-.27-.12-.54-.2-.81l-1.78-2.2c-.06-.28-.12-.55-.2-.82l-1.78-2.2A6.2,6.2,0,0,0,37,279l-4.84-8.14A6.09,6.09,0,0,0,32,270c-3.1-7.84-6.33-15.63-9.26-23.53a152.48,152.48,0,0,1-9.78-48.42,18.18,18.18,0,0,0-1.09-4.1q0-6.47,0-12.94.4-4.09.83-8.17l.15-5.83c.09-1.34.19-2.68.28-4s.19-2.64.29-4c1.2-4.12,2.38-8.25,3.62-12.36,2.28-7.58,4.56-15.16,7-22.7.12-.36,1.36-.37,2.08-.54-.34,1.86-.68,3.71-1,5.57Z"/><path class="cls-17" d="M73.92,320.12,87,330.7l.09.34c-.3,0-.6,0-.9-.07L82,329.06a7.27,7.27,0,0,0-.8-.22L78,326l-1.85-1.16Z"/><path class="cls-6" d="M59.9,309.1l7,7C62.84,315.49,60.5,313.16,59.9,309.1Z"/><path class="cls-6" d="M32.14,270.87,37,279Z"/><path class="cls-6" d="M73.92,320.12l2.21,4.74L71,320l2.2-.24A5.46,5.46,0,0,1,73.92,320.12Z"/><path class="cls-6" d="M51.92,300.08,56,305Z"/><path class="cls-6" d="M82,329.06,86.16,331a2.5,2.5,0,0,0,0,.82l-.34.41Q83.88,330.64,82,329.06Z"/><path class="cls-6" d="M48.15,295.86C49.08,296.92,50,298,51,299,50,298,49.08,296.92,48.15,295.86Z"/><path class="cls-6" d="M78,326l3.17,2.82Z"/><path class="cls-6" d="M39.15,282.86l1.78,2.2Z"/><path class="cls-6" d="M43.15,288.86,45,291C44.35,290.31,43.75,289.58,43.15,288.86Z"/><path class="cls-6" d="M45.17,291.84c.6.73,1.21,1.45,1.81,2.17C46.38,293.29,45.77,292.57,45.17,291.84Z"/><path class="cls-6" d="M41.13,285.87l1.81,2.18Z"/><path class="cls-6" d="M37.17,279.84,39,282C38.35,281.31,37.76,280.57,37.17,279.84Z"/><path class="cls-9" d="M86,42c.15.43.29.85.42,1.27-2.4,2-4.85,3.92-7.19,6C73.34,54.46,67.5,59.73,61.65,65l-1.1,0c.22-.79.18-1.89.7-2.33C69.46,55.7,77.74,48.86,86,42Z"/><path class="cls-12" d="M60.55,65l1.1,0c.07.64.15,1.28.22,1.92l-1.95,0Z"/><path class="cls-14" d="M351.34,120.84c.64.49,1.68.88,1.84,1.5,2.29,8.47,4.44,17,6.65,25.47.44,1.67,1,3.32,1.46,5L361,155h0c-.11.09-.32.21-.3.27a3.11,3.11,0,0,0,.28.65c.31,1,.61,2,.91,3.05l.62,2.33q.44,2.75.85,5.49c.22.74.45,1.48.67,2.22.28,3.68.55,7.36.83,11V193L364,205c0,.67-.09,1.33-.14,2-.26,1.66-.51,3.33-.77,5-.1,1-.19,2-.29,3l-.18,2.8-1.28,2.45c-.13,1.26-.25,2.52-.37,3.78l-.65,2-.62,9.53c-.05.78-.09,1.56-.14,2.34l-1,.75-3.68,7.3-1.63,3.36.72,1.25h-.12L353,251l-1,0-.95,0-1.26-1.13q2.73-9.33,5.45-18.66l2.66-15.27.3.12L359,214c0-.52-.07-1.05-.1-1.57a1.76,1.76,0,0,1,0-.79l.25-2.63.9-3q-.21-22.1-.43-44.18L358.17,158l.15-1-1.12-4c0-.35.09-.7.13-1-.32-1.32-.63-2.65-.95-4q-4-13.41-8-26.8Z"/><path class="cls-14" d="M345,272l-2.12.92-3.45,6.36-.12.14-2.09,2.77,0,0-2-.1-2.94-.13c.61-.94,1.23-1.87,1.84-2.8l1.47.23L335,278l10.38-20a1.09,1.09,0,0,0,.62-.69l3.74-7.42L351,251l.82,1.05.92.14a1.15,1.15,0,0,0,.35.84,1.37,1.37,0,0,0-.2.79l-1-.29-.82.6c0,1.3,0,2.59,0,3.88q-2,5.5-4,11c-.37,1-.73,1.91-1.09,2.86Z"/><path class="cls-10" d="M352.89,253.82a1.37,1.37,0,0,1,.2-.79c.56-.74,1.12-1.49,1.69-2.23.15-.89.31-1.77.47-2.65l3.33-9.53,1-.75c.32,1.36,1.27,3,.86,4q-4.77,12.65-10.09,25.08c-.42,1-2.18,1.36-3.32,2q2-5.5,4-11Z"/><path class="cls-11" d="M361,224l.36-3.78,1.29-2.45.18-2.8h1.43a38,38,0,0,1,.18,4.12c-.14,2.63-.44,5.26-.67,7.89-.06.58-.11,1.16-.16,1.74-.28.75-.55,1.51-.83,2.26-.06.58-.12,1.16-.17,1.74l-1.24,2.47-1.64.33c.21-3.18.41-6.35.62-9.53C360.55,225.33,360.77,224.67,361,224Z"/><path class="cls-9" d="M363.76,227c.23-2.63.53-5.26.67-7.89a38,38,0,0,0-.18-4.12c0-.6.08-1.2.13-1.8l3.21-7.45Q365.67,216.35,363.76,227Z"/><path class="cls-6" d="M345.07,275.44l1.27-2.42C345.92,273.83,345.5,274.64,345.07,275.44Z"/><path class="cls-9" d="M361.36,235.2l1.24-2.47C362.18,233.55,361.77,234.38,361.36,235.2Z"/><path class="cls-9" d="M362.77,231c.28-.75.55-1.51.83-2.26C363.32,229.48,363.05,230.24,362.77,231Z"/><path class="cls-6" d="M345,272l.93-.13a1,1,0,0,1,.22.73Z"/><path class="cls-16" d="M37.06,100.52c.3.55,1,1.3.83,1.62C35.43,107,35,113.05,29.53,116.06c-.24-.39-.48-.77-.71-1.16.55-1.51,1.11-3,1.66-4.51Q32.24,107.2,34,104l2.06-3.92Z"/><path class="cls-17" d="M37.06,100.52l-1-.43c1-2.73,2-5.47,2.93-8.2L42.84,86l2.83-1.29.38.35L40.83,95.87l0,0c-.64,1-1.29,2-1.94,3a6,6,0,0,0-.75.48c-.17.23-.35.46-.52.7A1.4,1.4,0,0,1,37.06,100.52Z"/><path class="cls-17" d="M34,104q-1.77,3.18-3.53,6.38C31.66,108.26,32.83,106.13,34,104Z"/><path class="cls-16" d="M25,129c.33-1.86.67-3.71,1-5.57h.31l.14.27C28.78,126.24,27.41,127.77,25,129Z"/><path class="cls-17" d="M28.82,114.9c.23.39.47.77.71,1.16l-.6,2.92-2,0Z"/><path class="cls-16" d="M27,119l2,0-1.59,2.15C27.21,120.42,27.09,119.71,27,119Z"/><path class="cls-6" d="M331.17,294.06l2.75-.13c-3.83,5-7.5,10.21-11.55,15.06a90.7,90.7,0,0,1-9.09,9.09c-1.11,1-2.84,1.3-4.28,1.92l-1.45-1.13L308,318c.23,0,.33-.14.29-.37l1.41-.88,12.18-11.77Z"/><path class="cls-17" d="M307.55,318.87,309,320l-11,9.88-2,.12c-.19-.61-.38-1.22-.56-1.83.14-.46.28-.93.41-1.4l3.23-2.7,1.82-1.22,5.69-4.09,0,.07Z"/><path class="cls-4" d="M278.3,340.28c.19-.79.38-1.58.56-2.38l2-1.12,3-1.9,0,0,2,.08.5.61Z"/><path class="cls-9" d="M293.11,331.49l-3.69,2.65c-.12-.34-.23-.68-.35-1,.34-.67.68-1.35,1-2h0l2,0Z"/><path class="cls-4" d="M293.11,331.49l-1-.43c.24-.73.49-1.47.74-2.2l2.62-.69c.18.61.37,1.22.56,1.83Z"/><path class="cls-4" d="M289.07,333.11c.12.35.23.69.35,1l-3,1.38-.48-.6c.31-.68.63-1.35.94-2l0,0Z"/><path class="cls-16" d="M364.86,193V180h1.42v13Z"/><path class="cls-17" d="M55.32,73.22c0,.62,0,1.23,0,1.84L46.05,85l-.37-.35Q46.82,81.83,48,79c.09-.27.16-.53.23-.81L51,75c.64-.7,1.28-1.41,1.93-2.11Z"/><path class="cls-12" d="M48,79q-1.12,2.87-2.27,5.73L42.84,86Z"/><path class="cls-12" d="M51,75l-2.8,3.17Z"/><path class="cls-16" d="M331.17,294.06l-9.26,10.87-1-.44V302l1.32-2.81,10.44-10.51.44.42Q332.14,291.58,331.17,294.06Z"/><path class="cls-16" d="M339.44,279.29l3.45-6.36Z"/><path class="cls-16" d="M335.17,282.13l2,.1-2.09,3.89-.44-.44.18-1.63Z"/><path class="cls-16" d="M337.23,282.2l2.09-2.77C338.63,280.36,337.93,281.28,337.23,282.2Z"/><path class="cls-16" d="M335.12,286.12l-2,3-.43-.42c.06-.54.12-1.09.17-1.63l.16-1,1.68-.34Z"/><path class="cls-16" d="M362.51,161.29l-.62-2.33,1,0,1.34-.05.21,2Z"/><path class="cls-16" d="M364,169c-.22-.74-.45-1.48-.67-2.22C363.59,167.52,363.81,168.26,364,169Z"/><path class="cls-16" d="M364.38,213.18c-.05.6-.09,1.2-.13,1.8h-1.43c.1-1,.19-2,.29-3Z"/><path class="cls-16" d="M363.88,207c.05-.67.1-1.33.14-2C364,205.67,363.93,206.33,363.88,207Z"/><path class="cls-9" d="M244,358a3.88,3.88,0,0,0,.9,0Z"/><path class="cls-13" d="M341.86,95.06l1.23,3.83-.69,2.17-2-.35c-.1-.55-.19-1.11-.28-1.66-.34-.7-.68-1.4-1-2.1l-1.89-3q-2.49-3.56-5-7.1c-.67-1-1.33-1.93-2-2.89l-6.09-8.06-2.86-3.05-.51-3.53,2.2.7Z"/><path class="cls-15" d="M351.34,120.84l-2.95.34L347.1,118q3-3.8-2.83-6-1.51-3-3-6c.32-1.42.63-2.83.94-4.25Z"/><path class="cls-14" d="M342.17,101.73c-.31,1.42-.62,2.83-.94,4.25l-2.71-4.85,1.89-.43,2,.36A2.31,2.31,0,0,0,342.17,101.73Z"/><path class="cls-16" d="M361,155l.3-2.2,2.29.41c.06.61.12,1.21.19,1.81-.32.68-.64,1.36-1,2Z"/><path class="cls-11" d="M362.8,157.06c.33-.68.65-1.36,1-2,.16,1.31.33,2.62.49,3.94l-1.34,0Z"/><path class="cls-14" d="M320.79,69.32c.17,1.17.34,2.35.5,3.53l-1.5,1.9q-5.48-5.85-11-11.68c1.85-3.36-1.28-1.48-2.11-2L302,57,303,54l4.72,2.19Z"/><path class="cls-12" d="M89.87,48.9l3.78-3.52q6.36-3.83,12.68-7.67l1.83-1.07,1.11-.68,10.27-5.61v-.23l2.58-.37,1.87-.82,2.26-1.09L129,26.9,134,25l1.83-.58L139,24c-2.29,1.35-4.52,2.8-6.88,4-4,2.12-8.17,4.11-12.27,6.15l.89,1.84c1.8-.55,3.61-1.09,5.4-1.66,10.2-3.27,20.35-6.74,30.64-9.73C162.4,23,168.25,22.19,174,21c8.08-.33,16.24-1.48,24.24-.77,8.67.77,17.2,3.26,25.79,5-.34.58-.69,1.16-1,1.75l-2.84-.24L215,26l-3.85-.19c-1.24-.57-2.48-1.64-3.71-1.62-10.12.2-20.35-.18-30.35,1.1A153,153,0,0,0,104,54.78c-1.31,1-2,2.85-3,4.3h0L96,63l-1.58,1.3L90.06,68.1a45.74,45.74,0,0,0-3.5,3.46Q73.78,86.88,61.08,102.25l-4.83,7.29-1,.49c-1.56.72-3.7,1-4.56,2.24-1.88,2.63-3.1,5.73-4.6,8.64-1.34,2.83-2.91,5.57-4,8.5a172.34,172.34,0,0,0-10.37,47.35c-1.28,17.28.48,34.06,4.09,50.75a149.17,149.17,0,0,0,15.3,40.31,160.35,160.35,0,0,0,45.59,52.57A179.73,179.73,0,0,0,135,342l1,2.05-1,1c-32.33-11.28-59-30.33-79.34-58a165.43,165.43,0,0,1-31.95-84.35,171.89,171.89,0,0,1,9.6-75.55C43.69,98.68,61.13,75.08,83.52,54.93a16.51,16.51,0,0,0,2.06-2.84L88,50.23Z"/><path class="cls-14" d="M160,15.18l2-.12,3-.8,4-.2,5-.83,8-.19h17l7,.17,5.31,1.59H214l0,2.39-41.28-.79L169,17.84l-1,.33-8,0Z"/><path class="cls-15" d="M139,24l-3.18.39-1.54-.78L134,25l-5,1.89-1.46-1.49-1.28,2.43L124,28.93,121.82,27,142,19.25c-.67,1.27-1.35,2.54-2,3.81Z"/><path class="cls-15" d="M235,18.93c1.7.56,3.39,1.13,5.09,1.71a38.57,38.57,0,0,0,3.68,3.11c1.67,1.1,3.49,1.95,5.25,2.91l-14.57-5.31Z"/><path class="cls-15" d="M199,13.05h0Z"/><path class="cls-14" d="M224,16.07l2,.16,3,.86,1.95.19c0,1.08-.05,2.16-.07,3.24l-15.1-2.94,2.52-1.79,2.66.06Z"/><path class="cls-14" d="M285.4,42.65l11.07,7.14-2.82.37-9.27-6.41Z"/><path class="cls-14" d="M262.22,28.81l7,3.82c-.09.71-.17,1.42-.26,2.12l-8-3.9C261.42,30.17,261.82,29.49,262.22,28.81Z"/><path class="cls-14" d="M249,26.66c-1.76-1-3.58-1.81-5.25-2.91a38.57,38.57,0,0,1-3.68-3.11L251,23.93l0,2.79Z"/><path class="cls-14" d="M154,16.25l3-.23c.41.87.83,1.74,1.25,2.61L151,20.05Z"/><path class="cls-14" d="M271,32.91l5.33,3.69c-.15.63-.3,1.26-.44,1.89L271,35.78Z"/><path class="cls-15" d="M262.22,28.81c-.4.68-.8,1.36-1.21,2L256.75,29c.12-.72.24-1.44.35-2.15Z"/><path class="cls-15" d="M154,16.25l-3,3.8-1.76.53-1.49-1.86Z"/><path class="cls-15" d="M280.05,37.9l3,1.89c0,1,0,2,0,3.05l-4.24-2.73Z"/><path class="cls-14" d="M296.92,49.82l4.21,3-2.42,1.28L297,52.82Z"/><path class="cls-15" d="M251,26.72l0-2.79,4.18,1.89c-.39.68-.79,1.35-1.19,2Z"/><path class="cls-14" d="M140,23.06c.68-1.27,1.36-2.54,2-3.81l2-.22c0,1,0,1.92,0,2.88Z"/><path class="cls-15" d="M218.29,15.79l-2.52,1.79L214,17.19l0-2.39Z"/><path class="cls-15" d="M144,21.91c0-1,0-1.92,0-2.88l2.93-.18c0,.73,0,1.47.07,2.2Z"/><path class="cls-15" d="M211.28,14.81,206,13.22Z"/><path class="cls-15" d="M174,13.23l-5,.83Z"/><path class="cls-15" d="M298.71,54.13l2.42-1.28L303,54,302,57Z"/><path class="cls-15" d="M158.26,18.63c-.42-.87-.84-1.74-1.25-2.61l3-.85-.06,3Z"/><path class="cls-15" d="M230.87,20.52c0-1.08,0-2.16.07-3.24l2.15,1.38L233,21Z"/><path class="cls-15" d="M165,14.26l-3,.8Z"/><path class="cls-15" d="M224,16.07l-3-.22Z"/><path class="cls-14" d="M233,21l.09-2.31,1.91.27c-.19.8-.37,1.61-.55,2.42Z"/><path class="cls-14" d="M280.05,37.9l-1.27,2.21a.77.77,0,0,1-.76-.36L278,36.87Z"/><path class="cls-14" d="M283,42.84c0-1,0-2,0-3.05l2.33,2.86-1,1.1Z"/><path class="cls-15" d="M296.92,49.82l.1,3-3.37-2.66,2.82-.37Z"/><path class="cls-15" d="M271,32.91l0,2.87-2-1c.09-.7.17-1.41.26-2.12Z"/><path class="cls-14" d="M254,27.85c.4-.68.8-1.35,1.19-2l1.9,1c-.11.71-.23,1.43-.35,2.15Z"/><path class="cls-15" d="M229,17.09l-3-.86Z"/><path class="cls-15" d="M278,36.87l.07,2.88-2.16-1.26c.14-.63.29-1.26.44-1.89Z"/><path class="cls-14" d="M147,21.05c0-.73-.05-1.47-.07-2.2a7.37,7.37,0,0,0,.82-.13l1.49,1.86Z"/><path class="cls-14" d="M121.82,27,124,28.93l-1.87.82c-.12-.7-.25-1.41-.38-2.11A4.11,4.11,0,0,1,121.82,27Z"/><path class="cls-15" d="M121.74,27.64c.13.7.26,1.41.38,2.11l-2.58.37Z"/><path class="cls-13" d="M61.87,66.89c-.07-.64-.15-1.28-.22-1.92,5.85-5.24,11.69-10.51,17.58-15.71,2.34-2.07,4.79-4,7.19-6l6.66-2.22c-.4.93-.81,1.85-1.21,2.78-3.36,2.15-7,4-10,6.52-5.47,4.52-10.57,9.49-15.92,14.17A23.23,23.23,0,0,1,61.87,66.89Z"/><path class="cls-15" d="M108.16,36.64l-1.83,1.07c-.09-1-.19-1.89-.29-2.84l1.7-.18Z"/><path class="cls-13" d="M95,39.93l2.24-1.74Z"/><path class="cls-14" d="M108.16,36.64l-.42-2,1.15-1.07c.13.78.25,1.56.38,2.34Z"/><path class="cls-18" d="M85.58,52.09a16.51,16.51,0,0,1-2.06,2.84C61.13,75.08,43.69,98.68,33.31,127.17a171.89,171.89,0,0,0-9.6,75.55,165.43,165.43,0,0,0,31.95,84.35c20.29,27.64,47,46.69,79.34,58l11.17,3.59L148,349l2.16.7,1.83.3,2.18.67,1.83.26,3.15.78L162,352l2.19.56,3.81.4,2,.27,6,.7,4,.28,24,.07,6-.32,6-.76,2-.2,3.88-.41,1.09,1.15c-3.9,1.05-7.75,2.66-11.72,3.08a177.22,177.22,0,0,1-78-9A165.53,165.53,0,0,1,67.8,306c-26-27-42-59.22-46.79-96.63-6.27-48.59,6.75-91.88,36.76-130.14C65,70,73.8,61.9,82,53.4,82.79,52.58,84.37,52.51,85.58,52.09Z"/><path class="cls-12" d="M345.37,258,335,278l-.92,1.2c-.61.93-1.23,1.86-1.84,2.8-1.06,1.67-2.11,3.35-3.16,5q-4.9,6-9.8,12l-1.56,2.33L303.21,315,300.92,317l-2.17,2.43L296,321l-3.23,2.32L289,326h0l-2,2-7,3.9L278,333l-5,2.8c-.72-.08-1.55-.43-2.14-.19-4.83,2-9.66,4-14.39,6.25-1.34.63-2.33,2-3.48,3l-1.9.68L250,344l-.13-1.28c2.56-1.25,5.17-2.41,7.66-3.78a48.54,48.54,0,0,0,4.39-3.11l7-3.32c2.57,1.95,3.67.95,3.81-1.93l5.21-2.88,1.47.75.36-1.82,2.5-1.42,2.06.25L284,324l2.84-2.17c1.33-.46,3-.58,3.95-1.44,8.86-7.66,17.73-15.32,26.3-23.31,2.37-2.21,3.76-5.49,5.59-8.28l.06-.07c.88-.68,2-1.19,2.61-2.07,5.21-8.22,11-16.17,15.29-24.85,4.83-9.72,8.29-20.11,12.35-30.21l2.16-.4q-2.71,9.33-5.45,18.66c-1.26,2.47-2.5,4.94-3.75,7.42Z"/><path class="cls-16" d="M46.05,85l9.28-10c.13.76.64,1.81.32,2.25-4.54,6.22-9.2,12.36-13.86,18.49-.13.17-.63,0-1,.07Z"/><path class="cls-10" d="M253,344.88c1.15-1,2.14-2.36,3.48-3,4.73-2.23,9.56-4.25,14.39-6.25.59-.24,1.42.11,2.14.19l-1.24,1.53-7.91,3.87Z"/><path class="cls-10" d="M250,344l1.07,1.57q-6.88,2.49-13.77,4.95l-2.59.84-1.7.37-1.1-1.41Z"/><path class="cls-18" d="M228,352.76l-3.25.8c.17-.71.35-1.43.52-2.15l2.66-.2Z"/><path class="cls-18" d="M231.91,350.31l1.1,1.41-3.26.8c.17-.7.35-1.41.53-2.12Z"/><path class="cls-10" d="M225.28,351.41c-.17.72-.35,1.44-.52,2.15l-1.79.2c-.36-.39-.73-.77-1.09-1.15Z"/><path class="cls-10" d="M230.28,350.4c-.18.71-.36,1.42-.53,2.12l-1.74.24c0-.52,0-1-.07-1.55Z"/><path class="cls-16" d="M38.91,98.93c.65-1,1.3-2,1.94-3Z"/><path class="cls-18" d="M89.87,48.9,88,50.23Z"/><path class="cls-18" d="M234.71,351.35l2.59-.84Z"/><path class="cls-16" d="M37.64,100.11c.17-.24.35-.47.52-.7A1.4,1.4,0,0,1,37.64,100.11Z"/><path class="cls-14" d="M271.74,337.36l1.24-1.53,5-2.8,2-1.13,7-3.9,2-2h0l3.74-2.7L296,321c1.71.83,3.17,1.24,2.77-1.59l2.17-2.43,2.11,2.08-2.13,3.8-1.82,1.22-3.23,2.7c-.13.47-.27.94-.41,1.4l-2.62.69-2.74,2.24h0l-3.17,1.78,0,0c-1,.66-2,1.3-3,1.95l0,0-3,1.9-2,1.12-5.93,2Z"/><path class="cls-4" d="M86.17,331.79a2.5,2.5,0,0,1,0-.82c.3,0,.6.06.9.07Z"/><path class="cls-19" d="M275.86,38.49,278,39.75a.77.77,0,0,0,.76.36L283,42.84l1.36.91,9.27,6.41L297,52.82l1.69,1.31L302,57l4.71,4.08,2.11,2q5.49,5.83,11,11.68L321,76.13l6.2,7.85,2.25,3.15c1.56,2.29,3.13,4.57,4.69,6.85.64,1,1.29,2,1.94,3l1.15,2,1.26,2.15,2.71,4.85q1.53,3,3,6l2.83,6,1.29,3.19q4,13.4,8,26.8c.32,1.32.63,2.65.95,4l-.13,1,1.12,4-.15,1,1.46,3.85.43,44.18-.9,3c-.08.88-.16,1.75-.25,2.62l-1.86-.63c.31-2.77.81-5.54.91-8.31.64-17.3.39-34.49-3.57-51.53q-12.66-54.49-55.45-90.29c-16.41-13.68-34.88-23.76-55.68-29.27l-10.18-4.43-2.33-1-1.68,0-3.31-1-1.73.07c-8.59-1.74-17.12-4.23-25.79-5-8-.71-16.16.44-24.24.77l-6-2.83,1-.33,3.75-1.44,41.28.79,1.75.39,15.1,2.94L233,21l1.45.38L249,26.66l2,.06,3,1.13L256.75,29,261,30.85l8,3.9,2,1Z"/><path class="cls-20" d="M355.19,231.21l-2.16.4q1.71-7.87,3.39-15.76l1.43.09Z"/><path class="cls-11" d="M358.58,238.62l-3.33,9.52c-.12-.74-.23-1.48-.35-2.22Z"/><path class="cls-16" d="M354.9,245.92c.12.74.23,1.48.35,2.22-.16.89-.32,1.77-.47,2.66a1.55,1.55,0,0,1-.91-.28H354l-.72-1.25Z"/><path class="cls-15" d="M357.33,152c-.32-1.32-.63-2.65-.95-4C356.7,149.3,357,150.63,357.33,152Z"/><path class="cls-15" d="M358.32,157c-.37-1.32-.75-2.64-1.12-4C357.57,154.31,358,155.63,358.32,157Z"/><path class="cls-15" d="M362.8,157.06l.12,1.94-1,0c-.3-1-.6-2-.91-3.05a4.72,4.72,0,0,1,0-.92h0Z"/><path class="cls-15" d="M359.63,161.84c-.48-1.29-1-2.57-1.46-3.85Z"/><path class="cls-15" d="M359.16,209l.9-3Z"/><path class="cls-16" d="M361,224c-.22.67-.44,1.33-.65,2Z"/><path class="cls-19" d="M357.85,215.94l-1.43-.09c.17-.95.33-1.9.5-2.85l2-.57c0,.52.06,1,.1,1.57l-.86,2.06Z"/><path class="cls-15" d="M358.15,216.06,359,214Z"/><path class="cls-11" d="M353.87,250.52a1.55,1.55,0,0,0,.91.28c-.57.74-1.13,1.49-1.69,2.23a1.15,1.15,0,0,1-.35-.84c.08-.41.15-.82.22-1.23Z"/><path class="cls-16" d="M362.64,217.77l-1.29,2.45Z"/><path class="cls-20" d="M358.91,212.43l-2,.57c0-.67.09-1.34.13-2l1.86.63A1.8,1.8,0,0,0,358.91,212.43Z"/><path class="cls-11" d="M353.27,249.28l.72,1.25Z"/><path class="cls-15" d="M351.82,252.05,351,251l.95,0C351.91,251.34,351.87,251.69,351.82,252.05Z"/><path class="cls-16" d="M351.82,252.05c.05-.36.09-.71.13-1.07l1,0c-.07.41-.14.82-.22,1.23Z"/><path class="cls-16" d="M361,155a4.72,4.72,0,0,0,0,.92,3.11,3.11,0,0,1-.28-.65C360.68,155.2,360.89,155.08,361,155Z"/><path class="cls-15" d="M329.07,287c1.05-1.67,2.1-3.35,3.16-5l2.94.13c-.1.64-.21,1.28-.31,1.92L333,286c-.05.35-.1.69-.16,1Z"/><path class="cls-11" d="M352.89,253.82,351,258c0-1.29,0-2.58,0-3.88l.82-.6Z"/><path class="cls-15" d="M334.07,279.2,335,278l.55,1.43Z"/><path class="cls-15" d="M351.87,253.53l-.82.6Z"/><path class="cls-15" d="M345.37,258l.62-.69A1.09,1.09,0,0,1,345.37,258Z"/><path class="cls-14" d="M303.21,315l14.5-13.67,3.2.63v2.5q-5.6,6.09-11.18,12.2l-1.41.88-1.49-.65Z"/><path class="cls-11" d="M309.73,316.7q5.59-6.1,11.18-12.2l1,.43Z"/><path class="cls-11" d="M306.83,316.93l1.49.65c0,.23-.06.35-.29.37l-1.12.07.09.06C306.94,317.7,306.88,317.31,306.83,316.93Z"/><path class="cls-14" d="M306.91,318,308,318l-.48.92-1,0A5.92,5.92,0,0,0,306.91,318Z"/><path class="cls-16" d="M300.9,322.85l2.13-3.8,2.39-.12,1.17-.17Z"/><path class="cls-16" d="M295.85,326.77l3.23-2.7Z"/><path class="cls-6" d="M306.91,318a5.92,5.92,0,0,1-.37.81l0-.07-1.18.17,1.59-.85Z"/><path class="cls-16" d="M283.9,334.84c1-.65,2-1.29,3-1.95-.31.68-.63,1.35-.94,2Z"/><path class="cls-16" d="M280.87,336.78l3-1.9Z"/><path class="cls-16" d="M290.08,331.1l2.74-2.24c-.25.73-.5,1.47-.74,2.2Z"/><path class="cls-16" d="M286.91,332.87l3.17-1.78c-.33.67-.67,1.35-1,2Z"/><path class="cls-14" d="M329.07,287l3.77,0c0,.54-.11,1.09-.17,1.63l-10.44,10.51-3-.15Q324.18,293,329.07,287Z"/><path class="cls-15" d="M319.27,299l3,.15L320.91,302l-3.2-.63Z"/><path class="cls-14" d="M333,286l1.86-2-.18,1.63Z"/><path class="cls-14" d="M327.23,84,321,76.13l3.13-.23L330.25,84Z"/><path class="cls-14" d="M334.17,94c-1.56-2.28-3.13-4.56-4.69-6.85l2.76-.28q2.47,3.56,5,7.1Z"/><path class="cls-15" d="M334.17,94l3,0,1.89,3-3,.06C335.46,96,334.81,95,334.17,94Z"/><path class="cls-15" d="M332.24,86.85l-2.76.28L327.23,84l3,0C330.91,84.92,331.57,85.89,332.24,86.85Z"/><path class="cls-15" d="M324.16,75.9l-3.13.23-1.24-1.38,1.5-1.9C322.25,73.87,323.21,74.88,324.16,75.9Z"/><path class="cls-14" d="M336.11,97l3-.06c.35.7.69,1.4,1,2.1L337.26,99Z"/><path class="cls-15" d="M337.26,99l2.87.07c.09.55.18,1.11.28,1.66l-1.89.42Z"/><path class="cls-14" d="M347.1,118l-2.83-6Q350.15,114.2,347.1,118Z"/><path class="cls-15" d="M308.82,63.07l-2.11-2C307.54,61.59,310.67,59.71,308.82,63.07Z"/><path class="cls-21" d="M268.92,332.5l-7,3.32L238,344.08l-1.88.46-2.13.53-1.88.42-3.09.68-1.9.38-3.11.57-1.92.3-4.1.63-3.88.47-6-.25-2.14.45-22,.37-20-2.94c-6.56-1.86-13.18-3.54-19.66-5.63-6.16-2-12.17-4.4-18.25-6.63a.41.41,0,0,0-.43-.48l-2.65-1.3-3.33-1.74L114,327.12a.59.59,0,0,0-.62-.35L103,320l-4.54-3.26L95,314l-3.72-3.18L88,308,77,297l-2.86-3.26L71,290l-1.81-2.3L67.89,286l-1.73-2.32L65,282l-1.71-2.47a.41.41,0,0,0-.35-.53l-1.65-2.47a.4.4,0,0,0-.34-.53l-1.61-2.54L57.84,271l-2.61-4.46q-3.3-6.75-6.61-13.51l-1.17-2.71-.89-2.28-1.08-2.74-.81-2.28-1.73-5-.6-1.92L40.91,231l-.5-1.93L39.9,227l-.44-1.94-.67-3-.42-2-.56-3-.31-2-.64-4-.38-3-.63-6-.48-7.95c0-3.73,0-7.46,0-11.18l.54-8.93.55-5.07.47-3.93.64-4.06.28-1.95.56-3.07.39-2,.64-3,.42-1.94,1.59-6.06L42,141q6.62-15.48,13.24-31l1-.49,4.83-7.29Q73.8,86.89,86.56,71.56a45.74,45.74,0,0,1,3.5-3.46l4.36-3.81L96,63l5.08-3.92h0l28.77-16.44,2.52-1.25,4.48-1.77,2.56-1.16,2.46-.8c1.6-.34,3.24-.56,4.79-1C170,29.26,193.72,26.89,218,30.34l2.07.52c6.81,1.42,13.75,2.42,20.42,4.34,35.78,10.34,64.68,30.62,86.25,61a155.44,155.44,0,0,1,28.46,77.7c.17,1,.34,2.05.5,3.08q0,12,0,24l-.54,3.07c-.18,2.31-.35,4.62-.53,6.92-.17.69-.33,1.38-.5,2.07a156.23,156.23,0,0,1-20,57.25c-3.6,6.26-7.58,12.29-11.39,18.43l-.06.07a40.63,40.63,0,0,0-3.79,3c-6.85,6.73-13.55,13.62-20.49,20.25-3.65,3.48-7.7,6.55-11.56,9.81L284,324l-1.77,1.19-2.5,1.42-1.83,1.07-5.21,2.88ZM77.11,100.26l.09-.18,1.9-2.84.1-.16,1.91-2.68,1-1.37,2-2.59L96,78c1.38.08,3.11.75,4.08.16,7.75-4.63,15.38-9.46,23-14.37.92-.59,1.28-2,1.91-3.08-1-.56-2.25-1.79-3.08-1.57A51.19,51.19,0,0,0,114.93,62L114,62l-7,4.63c-1.35.56-3,.79-4,1.72-8.83,8.06-17.55,16.24-26.3,24.38a72.77,72.77,0,0,0-5.38,5.6,128.08,128.08,0,0,0-23.39,48.48c-.61.67-1.57,1.25-1.79,2-5.06,18.08-5.16,36.52-3.24,55C43.73,212,46.08,220,47.74,228c2.83,8,5.07,16.18,8.6,23.81,7.51,16.2,17.23,31,30.75,42.94a14.66,14.66,0,0,0,1.51,2c29.57,27.75,64.36,42,105.15,39.88,9.13-.48,18.15-3.08,27.23-4.7l1.83-.34,2.18-.67,12.09-4.37,4.82-1.76,5.75-2.23,4.26-1.93L268.17,312c6-3.55,12-7,17.88-10.73,1.36-.87,2-2.82,3-4.28l.2-.47-.27.4c-4.05,2.18-8.14,4.28-12.12,6.57-3.35,1.93-6.58,4.09-9.86,6.14l-12.53,6.56L252,317l-.94.65L243,320l-1,.63-20,3.48-2.06.31a115.78,115.78,0,0,1-51-6.88l-1-3.46,9,1.25,3.1.45c20.21.32,40.45.74,59.72-6.85,5.86-2.32,11.47-5.27,17.19-7.93a121.14,121.14,0,0,0,39.81-29.07l3.47-3.82L306,262l6.93-9.12c.15-.59.29-1.18.43-1.77q3.54-5.55,7.06-11.11A54.64,54.64,0,0,0,331,215c.29-1.46.49-2.93.87-4.36,4.31-16.06,5.08-32.34,3.4-48.84-1.61-15.74-6.95-30.29-13.32-44.57L319.15,113c-.69-1.08-1.37-2.17-2.06-3.26L315.32,106,314,103.71c-.66-4.72-3.36-7.89-6.7-10.57L306,94l6.42,13.89c6.57,19.53,10.28,39.41,7.59,60.11-1.36,5.42-2,11.17-4.23,16.19-4.11,9.14-9.18,17.84-13.85,26.72L291,221l-3-2,2.32-2.94L294,211l3.27-6.86L304.58,189l3.3-11.34c.58-3.22,1.15-6.44,1.73-9.66l.29-2.06q.08-8,.16-16l-.6-15A162.79,162.79,0,0,0,295,91.13q-2.44-3.59-4.88-7.16l0,0L288,80l-3.64-4.26L275,63.67,266,56l-1.23-1.51-.32.32L266,56l6.7,9,9.17,12.1c6,15,10.11,30,6.47,46.71-3.77,17.32-9.59,32.81-24.28,43.8-3.49,2.6-6.7,5.57-10,8.38l-2,1-3,2c-1.57.8-3.09,1.7-4.7,2.4q-15.9,6.91-31.83,13.76L208,196.44l-3,.57-2,.47-4,.53c-.68-1-1.37-2-2.16-3.08,5.83-3.26,12.47-4.08,16.75-9.37-6.06,0-11.38-1.4-14.68-6.4a34.85,34.85,0,0,1-4.27-10c-2.06-7.64-7-12.23-14.55-13.17-13.28-1.65-26.64-2.68-40-4l-.21-17,3-10,4.08-7.09,8.47-7.57L159,109c-.23,2.94,1.21,4.19,4.05,4.05l-9.62,21.83c-.32.87-.65,1.74-1,2.62-.05.81-.09,1.63-.14,2.45q-.67,2.67-1.33,5.36l1.5.31,1.35-4q1.6-3.21,3.19-6.44L161,130l8.15-7.74L171,122l4.88,1L167.62,138c1.2.61,1.37.77,1.49.75,1.58-.38,3.15-.81,4.73-1.19,15-3.58,29.12-2.5,39.95,9.9,2.82,3.22,4.5,8,5.21,12.33.67,4-.65,8.36-1.13,12.9a46.56,46.56,0,0,1,5.14-3.78c4.59-2.5,9.3-4.78,14-7.15l1.77-.4,2.27.52c.89,4.18,3.44,5.64,6.28,3.11,6.37-5.67,10.11-13.08,12.67-21.12l0-.89c4,.23,4.25-2.31,3.91-5.29l3.75-2.9-3.6-2c-.12-2.11-.79-4.37-.25-6.3,2.4-8.54.68-16.81-1.56-24.93C259.9,93.12,256,85,254.34,76.5c-1.47-7.7-5-12.61-11.87-15.78-12.74-5.89-26.18-9.29-39.94-11.72-11.32-2-22.62-1.19-33.92.08-1,.11-1.93,1-2.88,1.51L154.07,41l-.81.9,1.73,2L156,45l3.39,4.85-.91,1.48,1.77.48,0,.08c.1,3.8.46,4.12,3,2.75L169.11,62c-2.5,4-6,7.69-4.15,13.07,0,.23,0,.45,0,.67l-11.17,2.74-11,4.23L127,92c-4.28,4.28-9.11,8.14-12.76,12.9-15.2,19.78-14.89,42.94-12.45,65.93,2.1,19.87,10.58,37.56,23.17,53.16l.82.95,5,5.13c.74.88,1.45,1.78,2.23,2.63,10.32,11.36,23.16,19.05,36.93,25.39q1.49,3.27,3,6.54l-8,.55H152l-12.86-1.82-2.71-1.21-1.3.17-7.75-3.15a45.87,45.87,0,0,1-5.2-1.57c-23.45-10.11-40.39-26.91-51.48-49.85C60.88,187.47,59,166,61.17,144c1.45-14.61,6.73-28.21,14.11-40.93Zm-9,75L69,174c3.46-.93,7.85-.63,8-6l1.17-.16a44.11,44.11,0,0,1,.76,6.32c-.13,6.56-.48,13.12-.75,19.69q.75,5.19,1.48,10.38l1.19,0,1.3-5.19q2.94-3.57,5.9-7.12,4.61,8.74,9.2,17.5l.37.84.42-.63L100,212l-1.22,1.34,2.49,1.41c.85,2.4,1.69,4.79,3,8.37l2.86-4.28,1.82.23,2.12,3.09c2.58,6.69,13.15,17.77,17.47,18.18-1.57-2.54-2.92-5.14-4.66-7.45-3.8-5.05-7.8-10-11.72-14.92l-1-2.1-1.7-2.89c-2.8-6.2-6-12.25-8.32-18.62C95.51,179.4,92.5,164,95.67,148l2.2-11.39c1.13-4.82,1.42-10.07,3.58-14.37,4.68-9.34,10.32-18.19,15.57-27.24l7.89-5.66-1.24-1.92L111,94.59l-5.76,3.74L96,102l-5,3-3.77,1.23L93,108v1l1.87,2.37L86.08,117c-3.38-.15-4.94,1.74-5.44,4.84l-1.25,1.28L81,124l3.21,5.14-9.3,7.8-4.32,4.15-2.94,3.39,1.24,1.35L74,141.21a1.46,1.46,0,0,1,.93-.23l8.49,3c-3.05,4.08-6.28,8.05-9.09,12.3-2,3.07-3.52,6.5-5.25,9.77l-.89,3L67,175v4.08h.91Zm61.5-90.51c-.28-.12-.62-.4-.82-.32s-.26.51-.38.79c.28.12.62.39.81.32S129.5,85,129.62,84.73Zm18.35-44,.4-.22c-.11-.1-.22-.26-.35-.27s-.26.13-.4.2Zm3.64-.52a1.15,1.15,0,0,0,.1-.35s-.18-.08-.27-.11a.88.88,0,0,0-.1.34C151.34,40.17,151.51,40.2,151.61,40.24Z"/><path class="cls-22" d="M355.71,201q0-12,0-24l-.51-3.08a155.44,155.44,0,0,0-28.46-77.7c-21.57-30.4-50.47-50.68-86.25-61-6.67-1.92-13.61-2.92-20.42-4.34L218,30.34c-24.27-3.45-48-1.08-71.35,6.27-1.55.49-3.19.71-4.79,1,.4-.49.7-1.26,1.21-1.44,14.8-5.37,30-9.29,45.75-10.12,7.43-.39,14.89-.25,22.34-.34L215,26l5.16.79L223,27l3.19.71,1.83.18,3.18.8,1.8.23,10.26,2.7c20.8,5.51,39.27,15.59,55.68,29.27q42.87,35.73,55.45,90.29c4,17,4.21,34.23,3.57,51.53-.1,2.77-.6,5.54-.91,8.31,0,.66-.09,1.33-.13,2-.17.95-.33,1.9-.5,2.85q-1.69,7.88-3.39,15.76c-4.06,10.1-7.52,20.49-12.35,30.21-4.3,8.68-10.08,16.63-15.29,24.85-.57.88-1.73,1.39-2.61,2.07,3.81-6.14,7.79-12.17,11.39-18.43a156.23,156.23,0,0,0,20-57.25c.17-.69.33-1.38.5-2.07.18-2.3.35-4.61.53-6.92Z"/><path class="cls-23" d="M77,297l11,11,3.26,2.86L95,314l3.47,2.71L103,320l10.35,6.76a.59.59,0,0,1,.62.35l5.67,3.25,3.33,1.74,2.65,1.3a.41.41,0,0,1,.43.48c2.12,1.33,4.09,3,6.38,3.92,6.51,2.56,13.15,4.78,19.74,7.14-2,.07-4.08.53-6,.13-3.78-.78-7.46-2-11.18-3.08a179.73,179.73,0,0,1-38.33-21.61,160.35,160.35,0,0,1-45.59-52.57,149.17,149.17,0,0,1-15.3-40.31c-3.61-16.69-5.37-33.47-4.09-50.75a172.34,172.34,0,0,1,10.37-47.35c1.08-2.93,2.65-5.67,4-8.5.23,1.23.9,2.57.61,3.67-1.42,5.5-3.1,11-4.69,16.41l-.51,1.92L39.87,149l-.42,1.94c-.22,1-.43,2-.64,3l-.39,2c-.19,1-.37,2-.56,3.07l-.28,1.95L36.94,165c-.16,1.31-.32,2.62-.47,3.93-.18,1.69-.37,3.38-.55,5.07l-.54,8.93c0,3.72,0,7.45,0,11.18l.48,7.95.63,6,.38,3,.64,4,.31,2,.56,3,.42,2,.67,3L39.9,227l.51,2.06.5,1.93,1.43,5.08.6,1.92,1.73,5,.81,2.28,1.08,2.74.89,2.28,1.17,2.71q3.32,6.75,6.61,13.51L57.84,271l1.46,2.44L60.91,276a.4.4,0,0,1,.34.53L62.9,279a.41.41,0,0,1,.35.53L65,282l1.2,1.69L67.89,286l1.27,1.68L71,290l3.17,3.73Z"/><path class="cls-19" d="M135,342c3.72,1.06,7.4,2.3,11.18,3.08,1.9.4,4-.06,6-.13l11.8,2.11c6.6,1.49,13.06,4.24,20,2l22-.37,2,.41a1.69,1.69,0,0,0,0,1l0,2.92-4,1.28-24-.07-4-.28-6-.7-2-.27-3.81-.4L162,352l-2.84-.36-3.15-.78-1.83-.26L152,350l-1.83-.3L148,349l-1.84-.32L136,344.05Z"/><path class="cls-17" d="M211.15,25.76c-7.45.09-14.91-.05-22.34.34-15.79.83-30.95,4.75-45.75,10.12-.51.18-.81,1-1.21,1.44l-2.46.8-2.56,1.16-4.48,1.77-2.52,1.25L101.06,59.08c1-1.45,1.64-3.31,3-4.3a153,153,0,0,1,73.08-29.54c10-1.28,20.23-.9,30.35-1.1C208.67,24.12,209.91,25.19,211.15,25.76Z"/><path class="cls-20" d="M168,18.17,174,21c-5.75,1.19-11.6,2-17.21,3.67-10.29,3-20.44,6.46-30.64,9.73-1.79.57-3.6,1.11-5.4,1.66l-.89-1.84c4.1-2,8.22-4,12.27-6.15,2.36-1.23,4.59-2.68,6.88-4l1-1,4-1.15,3-.86,2.24-.47,1.76-.53,7.26-1.42,1.72-.45Z"/><path class="cls-9" d="M42,141c1.59-5.46,3.27-10.91,4.69-16.41.29-1.1-.38-2.44-.61-3.67,1.5-2.91,2.72-6,4.6-8.64.86-1.22,3-1.52,4.56-2.24Q48.58,125.51,42,141Z"/><path class="cls-10" d="M136,344.05l10.19,4.58L135,345Z"/><path class="cls-24" d="M61.08,102.25l-4.83,7.29Z"/><path class="cls-17" d="M101.08,59.07,96,63Z"/><path class="cls-17" d="M220.16,26.74,215,26Z"/><path class="cls-17" d="M94.42,64.29,90.06,68.1Z"/><path class="cls-17" d="M226.19,27.68,223,27c.34-.59.69-1.17,1-1.75l1.73-.08C225.91,26,226.05,26.84,226.19,27.68Z"/><path class="cls-14" d="M126.25,27.84l1.28-2.43L129,26.9Z"/><path class="cls-14" d="M134,25l.29-1.36,1.54.78Z"/><path class="cls-15" d="M172.74,16.4,169,17.84Z"/><path class="cls-6" d="M208,353c0-1,0-1.95,0-2.92l6.16-1.58,3.88-.47,4.1-.63,1.92-.3,3.11-.57,1.9-.38,3.09-.68,1.88-.42,2.13-.53,1.88-.46,11.85-1.37L250,344l-18.09,6.32-1.63.09-2.34.81-2.66.2-3.4,1.2L218,353l-2,.2-6,.76Z"/><path class="cls-10" d="M208,353l2,1-6,.32Z"/><path class="cls-10" d="M176,354l4,.28Z"/><path class="cls-10" d="M156,350.88l3.15.78Z"/><path class="cls-10" d="M148,349l2.16.7Z"/><path class="cls-10" d="M152,350l2.18.67Z"/><path class="cls-10" d="M162,352l2.19.56Z"/><path class="cls-10" d="M168,353l2,.27Z"/><path class="cls-10" d="M216,353.22l2-.2Z"/><path class="cls-22" d="M286.88,321.84c3.86-3.26,7.91-6.33,11.56-9.81,6.94-6.63,13.64-13.52,20.49-20.25a40.63,40.63,0,0,1,3.79-3c-1.83,2.79-3.22,6.07-5.59,8.28-8.57,8-17.44,15.65-26.3,23.31C289.84,321.26,288.21,321.38,286.88,321.84Z"/><path class="cls-17" d="M249.87,342.71,238,344.08l23.9-8.26a48.54,48.54,0,0,1-4.39,3.11C255,340.3,252.43,341.46,249.87,342.71Z"/><path class="cls-15" d="M307,318.08l-1.59.85-2.38.12L300.92,317l2.29-1.93,3.62,1.89C306.88,317.31,306.94,317.7,307,318.08Z"/><path class="cls-17" d="M268.92,332.5l3.81-1.93C272.59,333.45,271.49,334.45,268.92,332.5Z"/><path class="cls-15" d="M292.75,323.31,289,326Z"/><path class="cls-15" d="M298.75,319.4c.4,2.83-1.06,2.42-2.77,1.59Z"/><path class="cls-17" d="M282.27,325.2,284,324c.1.48.19,1,.29,1.44Z"/><path class="cls-15" d="M289,326l-2,2Z"/><path class="cls-17" d="M277.94,327.69l1.83-1.07-.36,1.82Z"/><path class="cls-10" d="M280,331.9,278,333Z"/><path class="cls-17" d="M243.26,31.6,233,28.9c0-.58.06-1.15.08-1.73Z"/><path class="cls-17" d="M231.2,28.67l-3.18-.8,1-1.68,1.68,0Z"/><path class="cls-12" d="M229.07,26.19l-1,1.68-1.83-.18c-.14-.85-.28-1.69-.43-2.54Z"/><path class="cls-12" d="M231.2,28.67l-.45-2.51,2.33,1c0,.58-.05,1.15-.08,1.73Z"/><path class="cls-20" d="M297.26,204.1,294,211l-3.66,5.13L288,219l-6,6.91-1.4,3.61,7.11-.67,2.24-1.94.38-.08.39,0,2.19-2L299,219a60.33,60.33,0,0,0,7.16-3.8c8-5.64,15.87-11.47,23.79-17.22-.66,3-1.33,6-2,9l-6.1,4.05c-15.22,10-30.07,20.72-45.75,30-18,10.64-36.6,20.35-56.61,27-15.71,5.2-31.51,9.78-45.19,20.09-15.83,11.92-33.49,9.38-50.81,3.05-6.33-2.31-12.37-5.42-18.54-8.16L92,273q-8-8-16-16l-1-2c-5.48-7.29-10.89-14.63-16.55-21.78-.44-.56-2.59.22-3.94.37L51,227q-1.32-6-2.62-11.93L49,214c1.7.86,3.95,1.3,5,2.66,4,5.25,7.55,10.89,11.48,16.22,8,10.8,15.32,22.16,24.31,32a86.93,86.93,0,0,0,37.4,23.94c14,4.6,27.75,5.47,39.93-4.93,7.68-6.55,14-14.3,24.83-17.22,4.52-1.22,9.27-3.6,14.18-4.51,21.06-3.93,39.87-13.46,58.7-23.06,7.77-4,8.74-12.62,13.87-18.6a13.8,13.8,0,0,0-6.59,2.07c-15.92,10.63-32.19,20.48-50.93,25.52-12.95,3.48-26.1,5.87-39.07,1.48-5.84-2-12-5.6-15.82-10.29-6.74-8.31-12-17.85-17.47-27.16-7.94-13.63-15.91-27.38-18.28-43.33-1-6.67-2.47-13.85,4.45-18.83q1.72,8.41,3.45,16.83c.49,2.4,1,4.79,1.56,7.18-.32,1.38-1.24,3-.85,4.1,2.45,7.29,5.16,14.5,7.89,21.7.22.57,1.29.81,2,1.2l1,2,3,5,2,3c3.71,9.47,10.59,16.89,17.68,23.49,11.36,10.57,25.69,11.16,40.29,8,24.87-5.36,44.87-19.7,63.45-35.88,7.61-6.63,12.86-15.94,19.24-24a50.74,50.74,0,0,1,3.93-4l1.35.9a25.5,25.5,0,0,1-.45,5.28c-1.46,4.93-3.16,9.78-4.79,14.66C295.05,201.46,294.07,203.48,297.26,204.1Zm-22.09,27.36c.08.8.16,1.59.25,2.38l7.1-.88-.23-2Z"/><path class="cls-24" d="M165.72,50.59c1-.52,1.88-1.4,2.89-1.51,11.3-1.27,22.6-2.07,33.92-.08,13.76,2.43,27.2,5.83,39.94,11.72,6.87,3.17,10.4,8.08,11.87,15.78,1.63,8.54,5.56,16.62,7.89,25.07,2.24,8.12,4,16.39,1.56,24.93-.54,1.93.13,4.19.25,6.3l-1.1.27-4-1.85L240,118.91c0-2.1,0-4.21,0-6.31l0-6.72-1.59-1.56c-5.65-5.47-10.77-11.7-17.11-16.21-7.46-5.32-11.12-13.19-16.33-20l-2.08-2a23.84,23.84,0,0,1-1.81,2.28c-.93.93-2,1.74-3,2.6l-.92-1.2L195,67l-8-8.13-4.43-7.3-1.74,1.06c1.74,3.61,3.49,7.23,5.21,10.85.78,1.65,2,3.52-1.26,3.86l-11.69-8.53Z"/><path class="cls-24" d="M140.13,152c13.32,1.28,26.68,2.31,40,4,7.59.94,12.49,5.53,14.55,13.17a34.85,34.85,0,0,0,4.27,10c3.3,5,8.62,6.43,14.68,6.4-4.28,5.29-10.92,6.11-16.75,9.37L199,198c-8-.27-16.08-.2-24.06-.92-7.16-.66-12.16-5.87-17.65-9.9-5.57-6.15-12-11.73-14.2-20.22Q141.6,159.48,140.13,152Z"/><path class="cls-23" d="M96,78,84.12,90.44,82.1,93l-1,1.37L79.2,97.08l-.1.16-1.9,2.84-.09.18-1.83,2.82C67.9,115.8,62.62,129.4,61.17,144,59,166,60.88,187.47,70.7,207.77c11.09,22.94,28,39.74,51.48,49.85a45.43,45.43,0,0,0,5.21,1.57l7.74,3.15,1.3-.17,2.71,1.21L152,265.2V269h-2c-4.58-.69-8.16,1.08-11.66,4-5.1,4.21-11.72,4-15.34,0,6,1.73,11.24.74,15.37-4.46a10.19,10.19,0,0,0-4.85.73c-4.63,2.1-9.32,2.53-14,.4-3.88-1.79-7.55-4-11.38-5.95A13.53,13.53,0,0,0,105,263q-6.31-.69-7-7l-1-2c-3.19.31-3.07-1.86-3-4l-3-3c-.62-.44-1.65-.77-1.8-1.34-1.43-5.43-5.53-8.88-9.2-12.66a5.34,5.34,0,0,0-.57-1.86c-10.84-13.72-17.72-29.33-21.53-46.27C56.52,178.68,53,176,47,176l-.27-5,.4-3.92c.32,0,.63.05,1,.06l7.34,5.19c1.49-9.62.45-12-5.71-14.36a21,21,0,0,1,.45-4.45c2.9-9,5.17-18.27,9.09-26.78,5.07-11,11.52-21.37,17.32-32a4.88,4.88,0,0,0,.16-1.9c8.75-8.14,17.47-16.32,26.3-24.38,1-.93,2.66-1.16,4-1.72l1.83.52Z"/><path class="cls-7" d="M295,91.13A162.79,162.79,0,0,1,309.46,135l.6,15-.16,16a3.39,3.39,0,0,0-.71.11L306,165V151c-.37-3.28-.42-6.64-1.2-9.81s-4-4.21-6.08-1.76c-3.63,4.26-7.81,8.5-9.93,13.52a133.74,133.74,0,0,1-26.64,41.14c-16.15,16.78-34.31,30.47-58.08,35.72a25.62,25.62,0,0,1-13.66-1c-9.87-3.17-19.25-7.74-25.67-17.1-4.56-6.63-9-13.13-11.72-20.73l4,0,2,4c-.11.69-.58,1.66-.29,2.05,4.45,5.94,8.29,12.57,13.65,17.54,14.44,13.38,30.75,14.34,47.48,5.12,11.08-6.1,21.05-13.54,29.34-23.26,4.48-5.26,9.78-9.82,14.59-14.81,1.93-2,3.34-4.33.22-6.65a89.2,89.2,0,0,0,6.94-6.05c1.31-1.4,2-3.37,3-5.08l.89-.93c4.46-1.07,6.16-4.4,6.94-8.48l-.11-.25.17-.22,2.95-4.51,2.36-5.46c3.84-3.53,5.58-7.83,4.72-13.06.12-.65.24-1.29.37-1.94.22-1,.45-2,.67-3l.42-2.94c.19-1,.38-2,.58-3.06,1.15-12.49-.58-24.39-6.95-35.43-.41-.73.58-2.26.91-3.41L290,83.93l0,0Q292.52,87.54,295,91.13Z"/><path class="cls-25" d="M306,158v7c-1.07,5.05-2.23,10.08-3.1,15.17-.09.5,1.57,1.29,2.42,2q-.37,3.45-.73,6.9l-7.32,15.08c-3.19-.62-2.21-2.64-1.56-4.58,1.63-4.88,3.33-9.73,4.79-14.66a25.5,25.5,0,0,0,.45-5.28l-1.35-.9a50.74,50.74,0,0,0-3.93,4c-6.38,8-11.63,17.35-19.24,24-18.58,16.18-38.58,30.52-63.45,35.88-14.6,3.14-28.93,2.55-40.29-8-7.09-6.6-14-14-17.68-23.49v-2c4.53,4.7,9.12,9.35,13.59,14.11,12.37,13.17,27.41,16.4,44.6,12.35,12.19-2.86,22.74-9,33.17-15.57a122.72,122.72,0,0,0,39.4-39.42c2.54-4.09,4.24-8.87,7.41-12.35C296.79,164.15,298.36,157,306,158Z"/><path class="cls-26" d="M251.91,320.6l-4.26,1.93-5.75,2.23-4.82,1.76c-.62-.33-1.31-1-1.85-.94-6,1.12-12,2.36-18,3.61-5.19,1.08-10.37,2.23-15.55,3.34h-1.32l-9.37.82-10-.06-6.37-.77c-13.75-.82-26.85-4.5-39.36-9.95-7.37-3.21-14.19-7.7-21.26-11.61,1.71-5,5.19-2,7.78-1.45,9.52,1.95,18.93,4.37,28.47,6.2,1.35.26,3.14-1.73,4.73-2.67l7.13,2.83,6.89,1.67a115.78,115.78,0,0,0,51,6.88l2.06-.31,20-3.48,1-.63,8-2.36L252,317l2.49-.76Z"/><path class="cls-20" d="M147,117.88,142.87,125c-1.59,1.12-3.67,1.92-4.66,3.43-1.48,2.27-2.18,5-3.21,7.6-1.61,2.6-3.16,5.24-4.84,7.8s-2.86,6.14-5.16,7.06c-6.18,2.46-12.74,4.62-19.61,2.11.08-2.36.17-4.72.25-7.08,9.55-.3,17-3.92,22.2-12.41a280.77,280.77,0,0,1,16-23.94c8.63-11.4,21-15.76,34.65-14.21,11.86,1.35,23.76,3.78,34.51,9.68-.19,5.45,3.77,8.35,7.31,11.36.47.4,2.46-1,3.75-1.52L231,113l1.08.13c-.24,7.14,5.88,9.74,9.89,13.85,2,2,4.05,4,6.07,6l-9.09.05-1-.95c-2.61-4.46-7.17-4.32-11.44-4.86l-5.52-2.3-2.38-1.75A.68.68,0,0,1,218,123l-4-4.11c-.56-1.08-.87-2.78-1.73-3.14-7.57-3.19-15.24-6.15-22.9-9.14-2.42-1-4.9-1.77-7.35-2.65,1.38-.27,2.9-1,4.12-.72,6.22,1.69,12.35,3.7,18.52,5.54,1.58.47,3.22.75,5.23,1.2-1.94-6.93-28.54-14.11-34.46-10.07.53,1.35,1.06,2.7,1.6,4l-5,1c-2.14-6.24-5.07-7.81-10.85-4.8-4.36,2.27-8.25,5.48-12.25,8.41C145.6,111.05,145.13,114.27,147,117.88Z"/><path class="cls-27" d="M306,158c-7.63-1-9.2,6.14-12.82,10.11-3.17,3.48-4.87,8.26-7.41,12.35a122.72,122.72,0,0,1-39.4,39.42c-10.43,6.58-21,12.71-33.17,15.57-17.19,4-32.23.82-44.6-12.35-4.47-4.76-9.06-9.41-13.59-14.11l-2-3-1-2-9-24q-1.51-3-3-6c-.52-2.39-1.07-4.78-1.56-7.18Q136.69,158.41,135,150l0-12,4.91-3,.21,17q1.47,7.49,3,15c-.52,1.37-1.8,3-1.42,4.05,1.49,4.09,3.51,8,5.34,12a76.19,76.19,0,0,0,25.84,40.9c10.11,8.34,21.73,12.47,34.68,9a149.12,149.12,0,0,0,26.29-9.91c21.09-10.32,37.05-26.43,49.32-46.27,3.75-6.07,6.65-12.73,11-18.33,2.75-3.58,5.31-9.23,11.88-7.33Z"/><path class="cls-5" d="M313.39,251.12c-.14.59-.28,1.18-.43,1.77L306,262l-5.75,6.1c-2.53-2.21-5.22-2.39-8.27-1-4.09,1.83-8.44,3.12-12.41,5.16-24.38,12.47-47.48,27.57-74,35.62-1.46.44-2.4,2.61-3.58,4l-18.95-.08c0-.27,0-.55-.05-.82,1.86-4.76,6.61-4.74,10.39-5.77,19-5.15,36.81-13.29,54.15-22.5,18.72-9.94,36.33-22.09,56.77-28.64Z"/><path class="cls-26" d="M202,311.85c1.18-1.37,2.12-3.54,3.58-4,26.53-8.05,49.63-23.15,74-35.62,4-2,8.32-3.33,12.41-5.16,3.05-1.37,5.74-1.19,8.27,1l-3.47,3.82c-1.32.57-2.88.86-3.92,1.76-20.17,17.22-43,29.15-69,34.59-1.74.36-3.28,1.66-4.91,2.53l-2.93.29-5.09.58Z"/><path class="cls-2" d="M204.94,68.08c5.21,6.84,8.87,14.71,16.33,20,6.34,4.51,11.46,10.74,17.11,16.21-1.95,2.87-3.76,1.56-5.69-.11-2.85-2.46-5.79-4.81-8.69-7.21-3.82-2.31-7.38-5.75-11.52-6.72-12.84-3-25.89-5.15-38.87-7.55-12.45-2.3-23.34,1-32.48,9.69-5.78,5.51-11.28,11.31-17,16.89a57.5,57.5,0,0,1-5.52,4.19c-.4-2.37-.63-3.77-.87-5.18l1.2-3.35,1.85-2.28,2.13-2.73,2.82-3.33L127,95A21.11,21.11,0,0,0,130,93.61c4.36-2.83,8.66-5.73,13-8.61,4-1.57,9-1.43,10.82-6.57L165,75.69l5.9,0L176,76l2,1c1.1,1,2.06,2.5,3.36,2.91,2.3.73,4.82.77,7.25,1.14L208,84l1.29,1.4.47-.61L208,84l-5-6.92,2.92-.32a46.14,46.14,0,0,1-2.41-6.17C203.32,69.91,204.42,68.93,204.94,68.08Z"/><path class="cls-2" d="M313.39,251.12,304.32,254c-20.44,6.55-38.05,18.7-56.77,28.64-17.34,9.21-35.1,17.35-54.15,22.5-3.78,1-8.53,1-10.39,5.77l-4,.2-4.91-.46L173,309c1-1,1.85-2.37,3.05-2.8,14.92-5.43,30.29-9.83,44.76-16.27,18.31-8.16,35.93-17.9,53.8-27,8.55-4.38,16.77-9.5,25.59-13.24,5.77-2.45,11.17-4.8,15.4-9.6,1.28-1.45,3.53-2.06,5.34-3.05-.17,1-.33,2-.49,3Q316.93,245.58,313.39,251.12Z"/><path class="cls-26" d="M159,195l-2-4,.3-3.82c5.49,4,10.49,9.24,17.65,9.9,8,.72,16,.65,24.06.92l4-.53,2-.47,3-.57,3.92.51,4.1.08c.2,2.26.86,4.6.52,6.78-1,6.29-5.79,9.25-11.17,10.84-10.32,3-19.91,1.77-28.21-5.93C172,203.93,166.39,199.56,161,195Z"/><path class="cls-27" d="M117,95c-5.25,9-10.89,17.9-15.57,27.24-2.16,4.3-2.45,9.55-3.58,14.37q-1.09,5.7-2.2,11.39c-3.17,16-.16,31.39,5.35,46.36,2.34,6.37,5.52,12.42,8.32,18.62l-.07,1.92-2.15.08q-2-3.06-4.07-6.12L101,206l-9.23-17.48c.06-2.84.13-5.68.19-8.51q-1-4.5-2-9l0-15V143c.26-1.06,1-2.32.69-3.14-1.66-4.22-.67-7.75,2.21-11,1.47-4.3,5.42-8.52-.48-13.25a67.57,67.57,0,0,0,5.7-3.68,43.64,43.64,0,0,0,3.88-3.93c.24-.69.48-1.39.71-2.09q1.26-3.81,2.5-7.63L111,94.59Z"/><path class="cls-18" d="M118.94,105c-.4,1.12-.8,2.23-1.19,3.35l-2.09,2.22L114,113q-1.8,4.44-3.59,8.86c-.71,3-1.43,6-2.14,9-.5,2-1,4.09-1.51,6.13l-.6,3c-.18,2-.35,3.93-.53,5.9-.08,2.36-.17,4.72-.25,7.08l.36,14.14,1.74,9c2.48,11.6,5.16,23.12,12.41,32.92l2.07,3,.84,1,2.14,3,0,0,4,5.25,1.4,1,3.93,6.6-3.43,1.21-5-5.13L125,224c-12.59-15.6-21.07-33.29-23.17-53.16-2.44-23-2.75-46.15,12.45-65.93,3.65-4.76,8.48-8.62,12.76-12.9,0,1,0,2-.08,3l-1.21,1.65L122.92,100l-2.13,2.73Z"/><path class="cls-11" d="M114,311c7.07,3.91,13.89,8.4,21.26,11.61,12.51,5.45,25.61,9.13,39.36,9.95l6.37.77,10,.06,9.37-.82h1.32c1.47.29,3,.9,4.42.8,5-.34,9.91-.93,14.87-1.43-9.08,1.62-18.1,4.22-27.23,4.7C153,338.75,118.17,324.47,88.6,296.72a14.66,14.66,0,0,1-1.51-2c.32-1.29.63-2.58,1-3.87l10,8.53,4,3.52,2.88,2.1h0l3,2.09,1.72,1.12L112,310Z"/><path class="cls-27" d="M328,207c.66-3,1.33-6,2-9q1-11.49,2-23c-.8-6.27-1.34-12.59-2.56-18.78-.32-1.63-2.73-2.86-4.19-4.27-.68-5.49-.81-11.13-2.18-16.44-2.25-8.69-5.3-17.18-8-25.75l2.08-.1c.69,1.09,1.37,2.18,2.06,3.26l2.78,4.24c6.37,14.28,11.71,28.83,13.32,44.57,1.68,16.5.91,32.78-3.4,48.84-.38,1.43-.58,2.9-.87,4.36q-1.51,2.52-3,5L324,221c.33-1.67.67-3.33,1-5Z"/><path class="cls-28" d="M293.32,123,292.9,126c-.22,1-.45,2-.67,3-.13.65-.25,1.29-.37,1.94L287.14,144l-2.36,5.46q-1.47,2.26-2.95,4.51l-.17.22.12.25-6.95,8.48-.89.93c-1.72,1.25-3.35,2.65-5.18,3.73-4.87,2.87-9.84,5.61-14.76,8.41,3.34-2.81,6.55-5.78,10-8.38,14.69-11,20.51-26.48,24.28-43.8,3.64-16.73-.51-31.68-6.47-46.71l2.51-1.37L288,80c0,.37-.09.74-.14,1.12-.33,1.15-1.32,2.68-.91,3.41,6.37,11,8.1,22.94,6.95,35.43C293.7,121,293.51,122,293.32,123Z"/><path class="cls-18" d="M237,161.79c-4.65,2.37-9.36,4.65-14,7.15a46.56,46.56,0,0,0-5.14,3.78c.48-4.54,1.8-8.88,1.13-12.9-.71-4.31-2.39-9.11-5.21-12.33-10.83-12.4-24.92-13.48-39.95-9.9-1.58.38-3.15.81-4.73,1.19-.12,0-.29-.14-1.49-.75L175.87,123l.14.06c1.52-1.39,4.44-2.26,1.89-5.15,1.46-2.67,3.39-3.09,5.95-1.41l-11.13,17.38,24.42-1.26,1.88.3,2.15.66,3.41.94,2.49,1.4L223,152c.71,3.91,1.42,7.81,2.23,12.33,2.3-.66,4.58-1.41,6.91-1.94A43.43,43.43,0,0,1,237,161.79Z"/><path class="cls-4" d="M174.05,310.68l4.91.46,4.1.63,18.95.08,8.92-.17,5.09-.58,2.93-.29c5-.94,10.05-1.59,14.93-2.89,7.77-2.08,15.42-4.59,23.12-6.92-5.72,2.66-11.33,5.61-17.19,7.93-19.27,7.59-39.51,7.17-59.72,6.85l-3.1-.45-9-1.25-6.66-1.18c.38,1.45.58,2.21.79,3L155,313l-1.86-1.1L165,308.82l3,.3,2.06.65,2,.31Z"/><path class="cls-28" d="M88,290.9c-.32,1.29-.63,2.58-1,3.87-13.52-12-23.24-26.74-30.75-42.94C52.81,244.2,50.57,236,47.74,228L51,227l3.49,6.6q1,3.25,2,6.51l4.91,11.13q1.86,3.89,3.7,7.77L72,270l2.46,3.26L76,276l1.81,2.28,2.13,2.76,1.85,2.26,2.46,2.57Z"/><path class="cls-23" d="M169.12,122.25,161,130l-3.26,0,9.11-15.12,2-2.22c.78-1.55,1.57-3.1,2.35-4.66,1.42.09,2.84.25,4.26.24,2.84,0,5.74-.56,8.52-.17a35.26,35.26,0,0,1,9.41,2.65c5.7,2.58,11.18,5.61,16.76,8.45L208.85,122a41.67,41.67,0,0,0-5.2-2.55c-5.5-1.87-11.06-3.57-16.63-5.26-.26-.08-.74.57-1.12.88C180,111.13,171.7,114.69,169.12,122.25Z"/><path class="cls-22" d="M51,227l-3.28,1c-1.66-8.05-4-16-4.86-24.18-1.92-18.45-1.82-36.89,3.24-55,.22-.78,1.18-1.36,1.79-2-.47,3-1.68,6.22-1.21,9.12.6,3.74-3.6,7.59.38,11.08-.13,1.31-.26,2.61-.4,3.92q-.39,3.51-.79,7,.26,6.51.49,13L45.9,194l.51,7,.4,4,.62,4,.38,3,.59,3Q49.71,221,51,227Z"/><path class="cls-28" d="M208.85,122l1.26-2.83,2.65-.06L218,123a.69.69,0,0,0,.65.13l2.37,1.75,5.53,2.3L238,132.08l1,.95c1.75,1,3.79,3.07,5.22,2.72,3.65-.91,6.56-.22,9.82,1.34,4.26,2,7.77.21,9-4l1.1-.27c1.06.6,2.12,1.2,3.6,2l-3.75,2.9-12.8,6.58-1.36-.27c.2-1.35.4-2.69.59-4-.67-3.63-2.53-2.15-4.32-1l-4,2c-2-1.11-4-2.15-5.94-3.36-1.19-.75-2.1-2.07-3.36-2.62-4.4-1.93-8.91-3.63-13.37-5.42-2.54-2.28-4.6-5.73-8.92-3.71Z"/><path class="cls-28" d="M47.08,167c-4-3.49.22-7.34-.38-11.08-.47-2.9.74-6.07,1.21-9.12A128.08,128.08,0,0,1,71.3,98.36a72.77,72.77,0,0,1,5.38-5.6,4.88,4.88,0,0,1-.16,1.9c-5.8,10.67-12.25,21-17.32,32-3.92,8.51-6.19,17.8-9.09,26.78a20.36,20.36,0,0,0-.44,4.45C49.12,161,48.57,164,48,167.1,47.71,167.09,47.4,167.07,47.08,167Z"/><path class="cls-13" d="M130.84,230.1l3.43-1.21,6.94,5.65,6.57,5.63L150,242l6.71,4.25,4.32,2.67,5.59,2.44,4.47,2.4,2.56.56c1.82.9,3.73,1.66,5.45,2.73,3,1.9,5.95,4,8.92,6l-7.2.61c-.89-1.13-1.55-2.81-2.7-3.29a61.7,61.7,0,0,0-8.13-2.22c-13.77-6.34-26.61-14-36.93-25.39C132.29,231.88,131.58,231,130.84,230.1Z"/><path class="cls-28" d="M315,109.79c2.72,8.57,5.77,17.06,8,25.75,1.37,5.31,1.5,11,2.18,16.44q-.73,9.44-1.48,18.89l-1,.09L320,168c2.69-20.7-1-40.58-7.58-60.1l1.62-4.19c.44.76.88,1.52,1.31,2.29Z"/><path class="cls-27" d="M254,176c4.92-2.8,9.89-5.54,14.76-8.41,1.83-1.08,3.46-2.48,5.18-3.73-1,1.71-1.69,3.68-3,5.08A89.2,89.2,0,0,1,264,175a42.42,42.42,0,0,0-4,1.69Q246,184.3,232,192l-16,5-4.1-.08.57-1.79q15.92-6.87,31.83-13.76c1.61-.7,3.13-1.6,4.7-2.4l3-2Z"/><path class="cls-27" d="M257,301c-7.7,2.33-15.35,4.84-23.12,6.92-4.88,1.3-9.95,1.95-14.93,2.89,1.63-.87,3.17-2.17,4.91-2.53,26.07-5.44,48.86-17.37,69-34.59,1-.9,2.6-1.19,3.92-1.76A121.14,121.14,0,0,1,257,301Z"/><path class="cls-9" d="M237,161.79a43.43,43.43,0,0,0-4.85.62c-2.33.53-4.61,1.28-6.91,1.94-.81-4.52-1.52-8.42-2.23-12.33a110.33,110.33,0,0,1,10.43,4c5.34,2.68,8.42,2.51,11.65-.91L238,153.53l2.07-.61L252,147.71l1.52,1.4q-5.55,5.8-11.09,11.6l-3.68.68Z"/><path class="cls-11" d="M171.16,108l-2.35,4.67-2,2.21L157.71,130c-.22,1.73-.45,3.46-.68,5.2q-1.59,3.22-3.19,6.45c-.5-.58-1-1.16-1.52-1.73.05-.82.09-1.64.14-2.46.32-.87.64-1.74,1-2.61L163.05,113l.1.09,5.18-5.94-1-1.55L161,107.8,159,109l-3.59,1.32c1.9-6.62,9.4-9.18,15.56-5.3C171,106,171.09,107,171.16,108Z"/><path class="cls-16" d="M176,76l-5.11-.27c.2-4,4.49-8.33-.66-12.09L169.12,62l-5.9-7.32-3-2.75,0-.08c-.29-.65-.57-1.3-.86-2L156,45l-1-1.05-1.73-2,.81-.9,11.65,9.6,7.36,8.2c-.43.73-1.4,1.84-1.2,2.13,1.69,2.41,3.59,4.68,5.43,7Z"/><path class="cls-29" d="M96,78l12.87-10.8L107,66.66,114,62c.17.42.35.84.53,1.26l.4-1.32a51.19,51.19,0,0,1,6.88-2.85c.83-.22,2,1,3.08,1.57-.63,1.05-1,2.49-1.91,3.08-7.57,4.91-15.2,9.74-23,14.37C99.06,78.73,97.33,78.06,96,78Z"/><path class="cls-10" d="M102,108.05A43.64,43.64,0,0,1,98.14,112a67.57,67.57,0,0,1-5.7,3.68c5.9,4.73,2,9,.48,13.25-4.09.69-7.56,2.08-7.88,7l-7.11,2.56-1.86.61L74.9,136.9l9.3-7.8L87,128l4-2.79,1.56-3.2c-.55-1-.86-2.33-1.7-2.91A26.94,26.94,0,0,0,86.08,117l8.79-5.64,1.85-1,1.22-.68Z"/><path class="cls-13" d="M103.05,208.87q2,3.06,4.07,6.12c.59,1.37,1.17,2.73,1.76,4.09l-1.82-.23q-2.9-2.06-5.82-4.09L100,212,98,209.58a1.29,1.29,0,0,0-.79-.21q-4.59-8.76-9.2-17.5l-2.27-1.2L90,188l1.79.56L101,206Z"/><path class="cls-3" d="M169.12,122.25c2.58-7.56,10.91-11.12,16.78-7.16-1.24,2.73-2.34,5.54-3.77,8.17-1.25,2.3-2.88,4.41-5.14,7.81,6.2,0,10.78-.13,15.35.07,1.61.07,3.2.93,4.8,1.43l-24.42,1.26,11.13-17.38c-2.56-1.68-4.49-1.26-5.95,1.41l-3,2L171,122Z"/><path class="cls-6" d="M171,105c-6.16-3.88-13.66-1.32-15.56,5.3L147,117.88c-1.82-3.61-1.35-6.83,2-9.26,4-2.93,7.89-6.14,12.25-8.41,5.78-3,8.71-1.44,10.85,4.79Z"/><path class="cls-24" d="M252,147.71,240,152.92l0-1.91,4.85-5.84L242,141l4-2,4.32,1c-.19,1.35-.39,2.69-.59,4l-2.53,2,2.3,2.29,1.59-4,12.8-6.58c.34,3,.09,5.52-3.91,5.29l-1,1,0,0Z"/><path class="cls-22" d="M320,168l2.77,3c-.08.65-.15,1.31-.23,2-.23,1-.45,2-.68,3l-.33,2-3.39,9.25-.25,2.73q-2.88,5.58-5.77,11.16c-.08.27-.17.53-.27.79l-1.72,2.22a3.7,3.7,0,0,1-.3.78q-3.94,3-7.91,6c4.67-8.88,9.74-17.58,13.85-26.72C318,179.17,318.6,173.42,320,168Z"/><path class="cls-24" d="M242.41,160.71q5.55-5.79,11.09-11.6L259,144l0,0c.32,0,.64-.09,1-.11-2.56,8-6.3,15.45-12.67,21.12-2.84,2.53-5.39,1.07-6.28-3.11Z"/><path class="cls-22" d="M78.19,193.84c.26-6.56.61-13.12.74-19.68a44.11,44.11,0,0,0-.76-6.32l0-3,3.72.44c.36,3.43.87,6.85,1,10.29.14,3.1-.1,6.22-.18,9.34q-.83,4.55-1.64,9.09l-1.22,2.18Z"/><path class="cls-18" d="M77.93,138.48,85,135.92q1.48,3.54,3,7.08l-.82,2.11L83.05,151,78.52,156l-3.74,4.9L69.09,166c1.73-3.27,3.22-6.7,5.25-9.77,2.81-4.25,6-8.22,9.09-12.3C86.34,137.4,80.52,139.55,77.93,138.48Z"/><path class="cls-4" d="M301.88,210.91l7.92-6c-.74,1.57-1.21,3.37-2.28,4.68-2.68,3.27-5.63,6.32-8.48,9.46L293,224.88l-2.19,2-.39,0-.38.08-2.24,1.94-7.11.67,1.4-3.61,9-4.93Z"/><path class="cls-29" d="M112.09,218c3.92,5,7.92,9.87,11.72,14.92,1.74,2.31,3.09,4.91,4.66,7.45-4.32-.41-14.89-11.49-17.47-18.18Z"/><path class="cls-24" d="M289,297c-1,1.46-1.63,3.41-3,4.28-5.85,3.75-11.9,7.18-17.88,10.73-.4-.79-.79-1.58-1.18-2.37,3.28-2.05,6.51-4.21,9.86-6.14,4-2.29,8.07-4.39,12.12-6.57Z"/><path class="cls-12" d="M221,331.9c-5,.5-9.91,1.09-14.87,1.43-1.45.1-3-.51-4.42-.8,5.18-1.11,10.36-2.26,15.55-3.34,6-1.25,12-2.49,18-3.61.54-.11,1.23.61,1.85.94L225,330.89l-2.18.67Z"/><path class="cls-10" d="M164,347.06,152.16,345c-6.59-2.36-13.23-4.58-19.74-7.14-2.29-.89-4.26-2.59-6.38-3.92,6.08,2.23,12.09,4.65,18.25,6.63,6.48,2.09,13.1,3.77,19.66,5.63C164,346.45,164,346.76,164,347.06Z"/><path class="cls-8" d="M305.31,182.12c-.85-.66-2.51-1.45-2.42-2,.87-5.09,2-10.12,3.1-15.17l3.2,1.07.42,2c-.58,3.22-1.15,6.44-1.73,9.66Q306.59,179.9,305.31,182.12Z"/><path class="cls-6" d="M127,95c0-1,0-2,.08-3l15.81-9.37c0,.78.11,1.56.16,2.34-4.33,2.88-8.63,5.78-13,8.61A21.11,21.11,0,0,1,127,95Z"/><path class="cls-24" d="M170.23,63.65c5.15,3.76.86,8,.66,12.09l-5.9,0c0-.22,0-.44,0-.67Q167.6,69.34,170.23,63.65Z"/><path class="cls-24" d="M327.94,220q1.53-2.52,3-5a54.64,54.64,0,0,1-10.53,25c.16-1,.32-2,.49-3Q324.43,228.5,327.94,220Z"/><path class="cls-12" d="M267,309.67c.39.79.78,1.58,1.18,2.37l-16.26,8.56,2.55-4.37Z"/><path class="cls-24" d="M314,103.71l-1.62,4.19L306,94l1.35-.86C310.64,95.82,313.34,99,314,103.71Z"/><path class="cls-20" d="M165,265.21l8-.55,3,.16c-.8,1.36-1.33,3.55-2.45,3.92-2.69.87-5.66.89-8.51,1.25Z"/><path class="cls-25" d="M139.92,135,135,138c0-.67,0-1.34,0-2,1-2.55,1.73-5.33,3.21-7.6,1-1.51,3.07-2.31,4.66-3.43Z"/><path class="cls-10" d="M284.36,75.74l-2.51,1.37L272.68,65,275,63.67Z"/><path class="cls-29" d="M176,264.82l-3-.16q-1.5-3.27-3-6.54a61.7,61.7,0,0,1,8.13,2.22c1.15.48,1.81,2.16,2.7,3.29Z"/><path class="cls-29" d="M117,95l-6-.42,12.68-7.16,1.24,1.92Z"/><path class="cls-22" d="M86.08,117a26.94,26.94,0,0,1,4.76,2.13c.84.58,1.15,1.92,1.7,2.91l-4.64-.92L85,122l-4.1-.1-.24,0C81.14,118.75,82.7,116.86,86.08,117Z"/><path class="cls-14" d="M102,108.05l-4.08,1.69C98,106.39,96.22,105,93,105L91,105l5-3,6.73,4C102.5,106.66,102.26,107.36,102,108.05Z"/><path class="cls-17" d="M164,347.06c0-.3,0-.61,0-.91l20,2.94C177,351.3,170.56,348.55,164,347.06Z"/><path class="cls-28" d="M102.73,106,96,102l9.23-3.67Q104,102.16,102.73,106Z"/><path class="cls-30" d="M165,265.21V270h-5l-3-1v-3.79Z"/><path class="cls-24" d="M275,63.67,272.68,65,266,56l0,0Z"/><path class="cls-29" d="M77.93,138.48c2.59,1.07,8.41-1.08,5.5,5.49l-8.49-3,1.13-1.89Z"/><path class="cls-29" d="M77,168c-.14,5.37-4.53,5.07-8,6,.36-1.31.73-2.61,1.09-3.92L72,168Z"/><path class="cls-29" d="M85.78,190.67l2.27,1.2L82.14,199a2.28,2.28,0,0,0-1,0l1-4.94Q83.95,192.38,85.78,190.67Z"/><path class="cls-7" d="M143,85c-.05-.78-.11-1.56-.16-2.34l11-4.23C152,83.57,147,83.43,143,85Z"/><path class="cls-24" d="M310.06,150l-.6-15Z"/><path class="cls-29" d="M80.89,121.88l4.1.1L87,128,84.2,129.1,81,124C81,123.27,80.92,122.57,80.89,121.88Z"/><path class="cls-24" d="M291,221l-9,4.93,6-6.91Z"/><path class="cls-29" d="M170.23,63.65Q167.61,69.33,165,75c-1.85-5.38,1.65-9.07,4.16-13.07Z"/><path class="cls-29" d="M101.25,214.76q2.91,2,5.81,4.09l-2.86,4.28C102.94,219.55,102.1,217.16,101.25,214.76Z"/><path class="cls-4" d="M72,168l-1.93,2.07L68.2,169l.89-3,5.69-5.17c.14,1.07.27,2.13.4,3.19Z"/><path class="cls-24" d="M162.13,315.87c-.21-.76-.41-1.52-.79-3l6.66,1.18,1,3.46Z"/><path class="cls-24" d="M305.31,182.12q1.28-2.22,2.57-4.44L304.58,189Q304.94,185.57,305.31,182.12Z"/><path class="cls-9" d="M35.37,194.09c0-3.73,0-7.46,0-11.18C35.38,186.63,35.37,190.36,35.37,194.09Z"/><path class="cls-10" d="M113.34,326.77,103,320Z"/><path class="cls-29" d="M95.67,148q1.11-5.69,2.2-11.39Q96.78,142.32,95.67,148Z"/><path class="cls-14" d="M81.17,199a2.28,2.28,0,0,1,1,0l-1.29,5.19-1.19,0q-.73-5.19-1.48-10.38l1.66,2.31C80.29,197.12,80.73,198.08,81.17,199Z"/><path class="cls-24" d="M306,262l6.93-9.12Z"/><path class="cls-25" d="M157,265.21V269h-5v-3.8Z"/><path class="cls-24" d="M93,105c3.22-.08,5,1.36,5,4.71l-1.23.68L93,109v-4Z"/><path class="cls-29" d="M74,141.21l-5.13,4.58-1.24-1.35,2.94-3.39Z"/><path class="cls-25" d="M112.09,218,111,222.17l-2.12-3.09c-.59-1.36-1.17-2.72-1.76-4.09l2.15-.08,1.77,1Z"/><path class="cls-14" d="M72,168l3.15-3.94,3,.75,0,3L77,168Z"/><path class="cls-24" d="M159,109l2-1.19,2.19,5.33-.1-.09C160.21,113.18,158.77,111.93,159,109Z"/><path class="cls-24" d="M295,91.13q-2.44-3.59-4.88-7.16Q292.52,87.54,295,91.13Z"/><path class="cls-29" d="M135.13,262.34l-7.74-3.15Z"/><path class="cls-18" d="M68.2,169l1.9,1.05c-.36,1.31-.73,2.61-1.09,3.92l-.89,1.24L67,175Z"/><path class="cls-14" d="M152.32,139.94c.51.57,1,1.15,1.52,1.73l-1.35,3.94-1.5-.31Q151.65,142.61,152.32,139.94Z"/><path class="cls-18" d="M74,141.21l-3.43-.16,4.32-4.15,1.17,2.19L74.94,141A1.46,1.46,0,0,0,74,141.21Z"/><path class="cls-3" d="M157,135.22c.23-1.74.46-3.47.68-5.2l3.26,0Z"/><path class="cls-9" d="M36.48,208.08l-.63-6Z"/><path class="cls-17" d="M214.13,348.52,208,350.1a1.61,1.61,0,0,1,0-1,2.31,2.31,0,0,1,.13-.86Z"/><path class="cls-24" d="M171,122l4-2.16c.35,1.07.7,2.13,1.06,3.2l-.14-.06Z"/><path class="cls-9" d="M39.87,149l1.59-6.06Z"/><path class="cls-24" d="M290.33,216.09,294,211Z"/><path class="cls-29" d="M93,105v3l-5.75-1.8L91,105Z"/><path class="cls-10" d="M119.63,330.37,114,327.12Z"/><path class="cls-12" d="M241.9,324.76l5.75-2.23Z"/><path class="cls-9" d="M35.92,174c.18-1.69.37-3.38.55-5.07C36.29,170.6,36.1,172.29,35.92,174Z"/><path class="cls-9" d="M42.34,236.1c-.48-1.69-1-3.38-1.43-5.08C41.39,232.72,41.86,234.41,42.34,236.1Z"/><path class="cls-9" d="M44.67,243.06l-1.73-5Q43.8,240.54,44.67,243.06Z"/><path class="cls-29" d="M160.18,51.88l3,2.75C160.64,56,160.28,55.68,160.18,51.88Z"/><path class="cls-24" d="M315,109.79l.3-3.79c.6,1.23,1.19,2.46,1.78,3.69Z"/><path class="cls-9" d="M57.84,271l-2.61-4.46Z"/><path class="cls-24" d="M212.47,195.16,211.9,197l-3.92-.51Z"/><path class="cls-9" d="M36.94,165l.64-4.06Z"/><path class="cls-17" d="M222.11,347.42l-4.1.63Z"/><path class="cls-9" d="M37.5,215.08l-.64-4Z"/><path class="cls-24" d="M321.93,117.19,319.15,113Z"/><path class="cls-14" d="M67,175l1.13.22c-.07,1.29-.15,2.57-.22,3.85H67Z"/><path class="cls-9" d="M91.26,310.86,88,308Z"/><path class="cls-9" d="M77,297l-2.86-3.26Z"/><path class="cls-29" d="M100,212l1.26,2.75-2.48-1.41Z"/><path class="cls-9" d="M98.45,316.75,95,314Z"/><path class="cls-9" d="M39.46,225.09l-.67-3Z"/><path class="cls-24" d="M177,315.33l3.1.45Z"/><path class="cls-17" d="M232.13,345.49l-3.09.68Z"/><path class="cls-17" d="M227.14,346.55l-3.11.57Z"/><path class="cls-9" d="M38.81,154c.21-1,.42-2,.64-3C39.23,151.92,39,152.94,38.81,154Z"/><path class="cls-24" d="M355.19,173.92l.51,3.08Z"/><path class="cls-9" d="M37.86,159c.19-1,.37-2,.56-3.07C38.23,156.93,38.05,158,37.86,159Z"/><path class="cls-18" d="M242.41,160.71l-1.41,1.2-2.27-.52Z"/><path class="cls-24" d="M355.71,201l-.54,3.07Z"/><path class="cls-24" d="M287.86,81.12c.05-.38.1-.75.14-1.12l2,3.93Z"/><path class="cls-9" d="M38.37,220.1l-.56-3Z"/><path class="cls-29" d="M77.2,100.08l1.9-2.84Z"/><path class="cls-29" d="M93,109l3.72,1.42-1.85,1Z"/><path class="cls-29" d="M79.2,97.08l1.91-2.68Z"/><path class="cls-29" d="M75.28,103.08l1.83-2.82Z"/><path class="cls-29" d="M82.1,93l2-2.59Z"/><path class="cls-29" d="M111,215.88l-1.77-1,.07-1.92Z"/><path class="cls-28" d="M252,177l-3,2Z"/><path class="cls-24" d="M222,324.11l-2.06.31Z"/><path class="cls-9" d="M67.89,286l-1.73-2.32Z"/><path class="cls-14" d="M153.43,134.87c-.33.87-.65,1.74-1,2.61Z"/><path class="cls-11" d="M222.81,331.56l2.18-.67Z"/><path class="cls-24" d="M354.64,211c-.17.69-.33,1.38-.5,2.07C354.31,212.37,354.47,211.68,354.64,211Z"/><path class="cls-9" d="M71,290l-1.81-2.3Z"/><path class="cls-10" d="M125.61,333.41l-2.65-1.3Z"/><path class="cls-9" d="M46.56,248.08l-1.08-2.74Z"/><path class="cls-24" d="M309.61,168l-.42-2a3.39,3.39,0,0,1,.71-.11Z"/><path class="cls-9" d="M48.62,253.07l-1.17-2.71Z"/><path class="cls-24" d="M205,197l-2,.47Z"/><path class="cls-17" d="M236.14,344.54l-2.13.53Z"/><path class="cls-24" d="M218,30.34l2.07.52Z"/><path class="cls-24" d="M208.14,348.27a2.31,2.31,0,0,0-.13.86l-2-.41Z"/><path class="cls-29" d="M139.14,263.38l-2.71-1.21Z"/><path class="cls-22" d="M136.83,39.62l2.56-1.16Z"/><path class="cls-22" d="M129.83,42.64l2.52-1.25Z"/><path class="cls-29" d="M159.34,49.84c.29.66.57,1.31.86,2l-1.77-.48Z"/><path class="cls-24" d="M266,56l-1.51-1.23.32-.32L266,56Z"/><path class="cls-24" d="M129.62,84.73c-.12.28-.19.7-.39.79s-.53-.2-.81-.32c.12-.28.18-.71.38-.79S129.34,84.61,129.62,84.73Z"/><path class="cls-9" d="M40.41,229.09,39.9,227Z"/><path class="cls-9" d="M60.91,276l-1.61-2.54Z"/><path class="cls-9" d="M62.9,279l-1.65-2.47Z"/><path class="cls-15" d="M80.89,121.88c0,.69.07,1.39.1,2.08l-1.6-.83,1.25-1.28Z"/><path class="cls-9" d="M65,282l-1.71-2.47Z"/><path class="cls-24" d="M114.93,62l-.4,1.32c-.18-.42-.36-.84-.53-1.26Z"/><path class="cls-29" d="M148,40.76l-.35-.29c.14-.07.28-.21.4-.2s.24.17.35.27Z"/><path class="cls-16" d="M151.61,40.24c-.1,0-.27-.07-.27-.12a.88.88,0,0,1,.1-.34c.09,0,.27.07.27.11A1.15,1.15,0,0,1,151.61,40.24Z"/><path class="cls-24" d="M289,297l.27-.4-.2.47Z"/><path class="cls-29" d="M97.25,209.37a1.29,1.29,0,0,1,.79.21l-.42.63Z"/><path class="cls-29" d="M125,224l.82.95Z"/><path class="cls-24" d="M155,43.94,156,45Z"/><path class="cls-24" d="M252,317l-.94.65Z"/><path class="cls-15" d="M260,143.9c-.32,0-.64.06-1,.11l1-1Z"/><path class="cls-24" d="M243,320l-1,.63Z"/><path class="cls-6" d="M160,270h5c2.85-.36,5.82-.38,8.51-1.25,1.12-.37,1.65-2.56,2.45-3.92l4.87-1.19L188,263c2.2-2.21,2.13-3.67-1.16-4.93-4.26-1.64-8.79-2.56-13.21-3.78l-2.56-.55-4.47-2.41L161,248.91l-4.32-2.67L150,242l-2.23-1.82-6.57-5.62c3-2.2,5.91-4.42,4.74-8.82a36.4,36.4,0,0,0-2-6.62c-6.64-13.51-13.1-27.13-20.32-40.32-2.51-4.6-6.86-8.26-10.66-12.06-2.25-2.24-5-2.43-7.26.38L105.39,153c6.87,2.51,13.43.35,19.61-2.11,2.3-.92,3.54-4.59,5.16-7.06s3.23-5.2,4.84-7.8c0,.67,0,1.34,0,2l0,12c-6.92,5-5.44,12.16-4.45,18.83,2.37,16,10.34,29.7,18.28,43.33,5.43,9.31,10.73,18.85,17.47,27.16,3.8,4.69,10,8.32,15.82,10.29,13,4.39,26.12,2,39.07-1.48,18.74-5,35-14.89,50.93-25.52a13.8,13.8,0,0,1,6.59-2.07c-5.13,6-6.1,14.63-13.87,18.6-18.83,9.6-37.64,19.13-58.7,23.06-4.91.91-9.66,3.29-14.18,4.51-10.79,2.92-17.15,10.67-24.83,17.22-12.18,10.4-26,9.53-39.93,4.93a86.93,86.93,0,0,1-37.4-23.94c-9-9.87-16.35-21.23-24.31-32-3.93-5.33-7.45-11-11.48-16.22-1.05-1.36-3.3-1.8-5-2.66l-1.18-1.94c-.12-1-.25-2-.38-3-.2-1.34-.41-2.68-.62-4s-.27-2.67-.4-4l-.51-7,.48-3.05c8.46,2.62,12.91,9.1,16.42,16.67,5.57,12,10.59,24.37,17.17,35.82,11,19.1,26.57,33.15,48.2,39.78,11.38,3.5,24.31,1.4,29.14-9.71A18.29,18.29,0,0,1,160,270Z"/><path class="cls-30" d="M328,207l-3,9a18.89,18.89,0,0,0-2.68,1.17c-12.08,7.57-24.09,15.26-36.22,22.75-26.23,16.2-53.68,29.79-83.19,39.11-6.57,2.07-12.68,5.64-18.95,8.63s-12.77,6.21-19.11,9.4c-.75.38-1.24,1.28-1.85,1.94H146l-6-1h-2l-4-1H122l-1-1,3.33-.43c-2.6-1.28-4.25-2-5.75-2.86-4.23-2.52-8.41-5.14-12.6-7.72l-1-2c6.17,2.74,12.21,5.85,18.54,8.16,17.32,6.33,35,8.87,50.81-3.05C188,277.8,203.83,273.22,219.54,268c20-6.63,38.6-16.34,56.61-27,15.68-9.27,30.53-19.94,45.75-30Z"/><path class="cls-6" d="M299,219c2.85-3.14,5.8-6.19,8.48-9.46,1.07-1.31,1.54-3.11,2.28-4.68a4.69,4.69,0,0,0,.29-.79l1.72-2.22c.1-.26.19-.52.27-.79q2.9-5.58,5.77-11.16c.08-.91.17-1.82.25-2.74l3.39-9.24.33-2c.23-1,.45-2,.68-3,.08-.65.15-1.31.23-2l1-.1c1.56,3.74,4.5,4.72,8.23,4.16q-1,11.49-2,23c-7.92,5.75-15.79,11.58-23.79,17.22A60.33,60.33,0,0,1,299,219Z"/><path class="cls-25" d="M61.42,251.23q-2.46-5.56-4.9-11.13c3.39-.68,5.34,1.17,7.42,3.58,3.44,4,7.35,7.57,11.06,11.32l1,2c1.65,2.15,3.27,4.33,5,6.45,2.31,2.88,4.68,5.7,7,8.55-5.68-5.37-11.41-10.7-17-16.12C68.25,253.27,66.44,249,61.42,251.23Z"/><path class="cls-30" d="M75,255c-3.71-3.75-7.62-7.33-11.06-11.32-2.08-2.41-4-4.26-7.42-3.58l-2-6.51c1.35-.15,3.5-.93,3.94-.37C64.11,240.37,69.52,247.71,75,255Z"/><path class="cls-30" d="M140,174q1.5,3,3,6c-.05,1.65-.55,3.46-.05,4.93,1.83,5.42,4,10.73,6,16.07-.67-.39-1.74-.63-2-1.2-2.73-7.2-5.44-14.41-7.89-21.7C138.75,177,139.67,175.38,140,174Z"/><path class="cls-25" d="M105,283l1,2-5-1h-1l-3-3H96l-3-3H92l-2-5h2Z"/><path class="cls-30" d="M92,273H90l-2-1c-2.35-2.85-4.72-5.67-7-8.55-1.7-2.12-3.32-4.3-5-6.45Q84,265,92,273Z"/><path class="cls-25" d="M149,201c-2-5.34-4.21-10.65-6-16.07-.5-1.47,0-3.28.05-4.93l9,24c-.67-.33-1.34-.66-2-1Z"/><path class="cls-6" d="M275.17,231.46l7.12-.47.23,2-7.1.88C275.33,233.05,275.25,232.26,275.17,231.46Z"/><path class="cls-30" d="M150,203c.66.34,1.33.67,2,1l1,2v2h0Z"/><path class="cls-28" d="M47.81,212.06,49,214l-.59,1.06C48.2,214.06,48,213.06,47.81,212.06Z"/><path class="cls-30" d="M155,209v2l-2-3h0Z"/><path class="cls-6" d="M290.76,226.88l2.19-2Z"/><path class="cls-6" d="M287.75,228.88l2.24-1.94Z"/><path class="cls-8" d="M108.27,130.88q1.08-4.5,2.15-9c5.29,2.5,8.41-1.32,11.43-4.32,7.51-7.5,14.5-15.53,22.14-22.9,8.72-8.41,19.92-11.18,31.32-9.12,16.39,3,32.47,7.57,48.69,11.48,2.9,2.4,5.84,4.75,8.69,7.21,1.93,1.67,3.74,3,5.69.11l1.59,1.56c-.43,1.38-.43,3.24-1.36,4.05-4.46,3.92-2.39,6.53,1.43,9L259,131.22c.09,4-2.42,4.17-5.34,3.49-1.89-.45-3.73-1.15-5.6-1.73-2-2-4.08-4-6.07-6-4-4.11-10.13-6.71-9.89-13.85-.28-2.08-.56-4.14-.83-6.21l-3.18-3-4.43-2.54-5.63-.72c-2.26-2.49-4.8-3.66-8-1.66l-3-1c-2.11-1.3-4.06-3.18-6.35-3.8-6.68-1.79-13.46-3.32-20.27-4.5-14.2-2.47-27.09.34-37.41,10.92-9,9.2-17.58,18.75-26.27,28.22C114.27,131.5,111.57,132.23,108.27,130.88Z"/><path class="cls-5" d="M177.31,67.91c-1.84-2.31-3.74-4.58-5.43-7-.2-.29.77-1.4,1.2-2.13l11.69,8.53c2.48,2.1,2.63,7.56,8,5.55l1.74.33L193,72l-6-13.15L195,67l2.12,2.77.92,1.2L203,77.08,208,84l-19.39-3c-2.43-.37-5-.41-7.25-1.14C180.06,79.48,179.1,78,178,77,181.32,73.69,180.94,70.67,177.31,67.91Z"/><path class="cls-11" d="M192.75,72.87c-5.35,2-5.5-3.45-8-5.55,3.3-.34,2-2.21,1.26-3.86-1.72-3.62-3.47-7.24-5.21-10.85l1.74-1.06,4.43,7.3L193,72A4.39,4.39,0,0,0,192.75,72.87Z"/><path class="cls-12" d="M248,133c1.87.58,3.71,1.28,5.6,1.73,2.92.68,5.43.53,5.34-3.49l4,1.85c-1.2,4.23-4.71,6.05-9,4-3.26-1.56-6.17-2.25-9.82-1.34-1.43.35-3.47-1.74-5.22-2.72Z"/><path class="cls-16" d="M203,77.08,198.07,71c1-.86,2.05-1.67,3-2.6a23.84,23.84,0,0,0,1.81-2.28l2.08,2c-.52.85-1.62,1.83-1.45,2.51a46.14,46.14,0,0,0,2.41,6.17Z"/><path class="cls-15" d="M240,118.91c-3.82-2.45-5.89-5.06-1.43-9,.93-.81.93-2.67,1.36-4.05l0,6.72C240,114.7,240,116.81,240,118.91Z"/><path class="cls-16" d="M197.15,69.75,195,67Z"/><path class="cls-5" d="M157.29,187.19,157,191l-4,0-6-8c-1.83-4-3.85-7.88-5.34-12-.38-1,.9-2.68,1.42-4.05C145.33,175.46,151.72,181,157.29,187.19Z"/><path class="cls-20" d="M160,270a18.29,18.29,0,0,0-2.69,3.54c-4.83,11.11-17.76,13.21-29.14,9.71C106.54,276.62,91,262.57,80,243.47c-6.58-11.45-11.6-23.8-17.17-35.82-3.51-7.57-8-14.05-16.42-16.67l-.48-13L47,176c6.08,0,9.57,2.67,10.95,8.86,3.81,16.94,10.69,32.55,21.53,46.27A5.34,5.34,0,0,1,80,233a16.48,16.48,0,0,0,.73,3.35c5.49,11.87,12.63,22.58,23,30.73,7.75,6.08,16.37,10.7,26.16,12.71,8.22,1.7,16.46-2.77,20.11-10.78h7Z"/><path class="cls-30" d="M150,269c-3.65,8-11.89,12.48-20.11,10.78-9.79-2-18.41-6.63-26.16-12.71-10.37-8.15-17.51-18.86-23-30.73A16.48,16.48,0,0,1,80,233c3.67,3.78,7.77,7.23,9.2,12.66.15.57,1.18.9,1.8,1.34l3,3c-.07,2.14-.19,4.31,3,4l1,2q.69,6.31,7,7c4.47,6.1,10.89,8.67,18,10,3.62,4,10.24,4.19,15.34,0C141.84,270.09,145.42,268.32,150,269Z"/><path class="cls-25" d="M123,273c-7.11-1.33-13.53-3.9-18-10a13.53,13.53,0,0,1,3.18.72c3.83,1.92,7.5,4.16,11.38,5.95,4.64,2.13,9.33,1.7,14-.4a10.19,10.19,0,0,1,4.85-.73C134.24,273.74,129,274.73,123,273Z"/><path class="cls-25" d="M48,167.1c.54-3.06,1.09-6.11,1.64-9.17,6.15,2.35,7.19,4.74,5.7,14.36Z"/><path class="cls-28" d="M47,176l-1.05,2,.78-7Z"/><path class="cls-25" d="M94,250l-3-3Z"/><path class="cls-25" d="M98,256l-1-2Z"/><path class="cls-8" d="M147,183l6,8c2.7,7.6,7.16,14.1,11.72,20.73,6.42,9.36,15.8,13.93,25.67,17.1a25.62,25.62,0,0,0,13.66,1c23.77-5.25,41.93-18.94,58.08-35.72A133.74,133.74,0,0,0,288.78,153c2.12-5,6.3-9.26,9.93-13.52,2.08-2.45,5.27-1.49,6.08,1.76s.83,6.53,1.2,9.81c-6.57-1.9-9.13,3.75-11.88,7.33-4.32,5.6-7.22,12.26-11,18.33-12.27,19.84-28.23,36-49.32,46.27a149.12,149.12,0,0,1-26.29,9.91c-12.95,3.52-24.57-.61-34.68-9A76.19,76.19,0,0,1,147,183Z"/><path class="cls-2" d="M232,192q14-7.67,28-15.32a42.42,42.42,0,0,1,4-1.69c3.12,2.32,1.71,4.64-.22,6.65-4.81,5-10.11,9.55-14.59,14.81-8.29,9.72-18.26,17.16-29.34,23.26-16.73,9.22-33,8.26-47.48-5.12-5.36-5-9.2-11.6-13.65-17.54-.29-.39.18-1.36.29-2.05h2c2.37,4.08,4.29,8.52,7.2,12.16,8.57,10.71,19.74,16.94,33.7,15.54,11.84-1.18,21.28-8,29.63-16,2.79-2.66,4.11-6.86,5.88-10Z"/><path class="cls-27" d="M287.14,144,291.86,131C292.72,136.18,291,140.48,287.14,144Z"/><path class="cls-27" d="M274.83,162.93l6.95-8.48C281,158.53,279.29,161.86,274.83,162.93Z"/><path class="cls-27" d="M281.83,154q1.49-2.25,2.95-4.51Z"/><path class="cls-27" d="M292.23,129c.22-1,.45-2,.67-3C292.68,127,292.45,128,292.23,129Z"/><path class="cls-27" d="M293.32,123c.19-1,.38-2,.58-3.06C293.7,121,293.51,122,293.32,123Z"/><path class="cls-5" d="M153.14,311.94,155,313c-1.59.94-3.38,2.93-4.73,2.67-9.54-1.83-19-4.25-28.47-6.2-2.59-.53-6.07-3.59-7.78,1.45l-2-1-2.36-1.74-1.72-1.12L105,305h0l-2.88-2.1-4-3.52c1.55-3,3.7-2.46,6.25-1.32,6.34,2.83,12.57,6.17,19.2,8,9.31,2.58,18.94,4,28.44,5.89Z"/><path class="cls-12" d="M200.37,332.53l-9.37.82Z"/><path class="cls-12" d="M181,333.29l-6.37-.77Z"/><path class="cls-30" d="M207,98l3,1c1,2,2,4,3,6-10.75-5.9-22.65-8.33-34.51-9.68-13.68-1.55-26,2.81-34.65,14.21a280.77,280.77,0,0,0-16,23.94c-5.15,8.49-12.65,12.11-22.2,12.41.18-2,.35-3.93.53-5.9,7.72,1.84,13-2.69,17.43-7.65,5.45-6.16,9.94-13.18,14.71-19.93,9.28-13.14,21.77-20.41,38-19.22,8,.59,15.79,3.29,23.71,4.88a23.28,23.28,0,0,0,5-.07Z"/><path class="cls-6" d="M177,104c-.54-1.35-1.07-2.7-1.6-4,5.92-4,32.52,3.14,34.46,10.07-2-.45-3.65-.73-5.23-1.2-6.17-1.84-12.3-3.85-18.52-5.54-1.22-.33-2.74.45-4.12.72Z"/><path class="cls-30" d="M177,104h5c2.45.88,4.93,1.7,7.35,2.65,7.66,3,15.33,5.95,22.9,9.14.86.36,1.17,2.06,1.73,3.14l-1.22.2-2.65.06c-5.58-2.84-11.06-5.87-16.76-8.45a35.26,35.26,0,0,0-9.41-2.65c-2.78-.39-5.68.13-8.52.17-1.42,0-2.84-.15-4.26-.24-.07-1-.13-2-.19-3H172Z"/><path class="cls-23" d="M213,105c-1-2-2-4-3-6,3.19-2,5.73-.83,8,1.66l.06,6.33,6,7.86c-1.29.55-3.28,1.92-3.75,1.52C216.76,113.36,212.8,110.46,213,105Z"/><path class="cls-14" d="M224.05,114.85l-6-7.86,1.79-3,10.94,7.15L231,113Z"/><path class="cls-12" d="M238,132.08l-11.43-4.86C230.8,127.76,235.36,127.62,238,132.08Z"/><path class="cls-12" d="M212.76,119.13l1.22-.2,4,4.11Z"/><path class="cls-9" d="M231,113c-.06-.61-.13-1.22-.2-1.84l.45-4.24c.27,2.07.55,4.13.83,6.21Z"/><path class="cls-12" d="M221,124.92l-2.37-1.75Z"/><path class="cls-25" d="M155,209l-2-1v-2Z"/><path class="cls-27" d="M183.06,311.77l-4.1-.63,4-.19C183,311.22,183.05,311.5,183.06,311.77Z"/><path class="cls-27" d="M216,311.1l-5.09.58Z"/><path class="cls-7" d="M224,97c-16.22-3.91-32.3-8.53-48.69-11.48-11.4-2.06-22.6.71-31.32,9.12-7.64,7.37-14.63,15.4-22.14,22.9-3,3-6.14,6.82-11.43,4.32q1.8-4.42,3.59-8.86l1.65-2.46,2.09-2.22c.23,1.41.46,2.81.86,5.18a57.5,57.5,0,0,0,5.52-4.19c5.72-5.58,11.22-11.38,17-16.89,9.14-8.72,20-12,32.48-9.69,13,2.4,26,4.52,38.87,7.55C216.62,91.25,220.18,94.69,224,97Z"/><path class="cls-6" d="M177.31,67.91c3.63,2.76,4,5.78.69,9.07l-2-1Z"/><path class="cls-6" d="M122.92,100l2.82-3.33Z"/><path class="cls-6" d="M118.94,105l1.85-2.28Z"/><path class="cls-7" d="M208,84l1.76.79-.47.61Z"/><path class="cls-7" d="M122,297h1q2.79,5.85,9,4h2c1.33,4.27,2.66.68,4,0h1c-.18,4.09,2.9,2.72,5,3h2l19-1h4c2.91-.45,6-.37,8.68-1.43,12.77-5,25.26-10.82,38.14-15.54,21.23-7.79,41.19-18.14,60.65-29.45,11.21-6.51,21.92-13.77,34.24-18.31,3.62-1.34,6.22-5.44,9.29-8.27.33-1.33.67-2.66,1-4h0c.67-.66,1.33-1.33,2-2,.34-1,.67-2,1-3h0l3.94-1q-3.49,8.5-7,17c-1.81,1-4.06,1.6-5.34,3.05-4.23,4.8-9.63,7.15-15.4,9.6-8.82,3.74-17,8.86-25.59,13.24-17.87,9.14-35.49,18.88-53.8,27-14.47,6.44-29.84,10.84-44.76,16.27-1.2.43-2,1.84-3.05,2.8l-1,1.08-2-.3-2.06-.66-3-.3c-1.79-.52-3.62-1.52-5.38-1.44-2.56.13-5.09,1-7.63,1.62-5.69-.84-11.47-1.28-17.05-2.6-15.81-3.77-30.08-11-43.3-20.33-2.56-1.81-4.88-2.84-7.42-.19l-2.46-2.58-1.85-2.25-2.13-2.76L76,276l-1.55-2.74L78,272c1.69.86,3.71,1.38,5,2.64,10.37,9.88,23,16.3,35.42,22.88C119.31,298,120.8,297.2,122,297Z"/><path class="cls-27" d="M172,310.08l1-1.08,1.05,1.69Z"/><path class="cls-5" d="M232,192l5.41,4.75c-1.77,3.1-3.09,7.3-5.88,10-8.35,7.95-17.79,14.81-29.63,16-14,1.4-25.13-4.83-33.7-15.54-2.91-3.64-4.83-8.08-7.2-12.16,5.39,4.56,11,8.93,16.14,13.72,8.3,7.7,17.89,9,28.21,5.93,5.38-1.59,10.22-4.55,11.17-10.84.34-2.18-.32-4.52-.52-6.78Z"/><path class="cls-6" d="M78.52,156,83.05,151l7,5,0,15c-5.35,2.82-2.44,7.13-2,11l1,4-6.31-1.09c.07-3.12.31-6.24.17-9.34-.15-3.44-.66-6.86-1-10.29Q80.19,160.61,78.52,156Z"/><path class="cls-20" d="M90,156l-7-5,4.15-5.91c.61-.71,1.23-1.41,1.84-2.11l1,0Z"/><path class="cls-12" d="M90,143l-1,0H88q-1.5-3.54-3-7.08c.32-4.93,3.79-6.32,7.88-7-2.88,3.22-3.87,6.75-2.21,11C91,140.7,90.28,142,90,143Z"/><path class="cls-19" d="M88,182c-.47-3.87-3.38-8.18,2-11q1,4.5,2,9Z"/><path class="cls-25" d="M88,182l4-2c-.06,2.83-.13,5.67-.19,8.51L90,188c-.33-.66-.66-1.32-1-2Z"/><path class="cls-25" d="M103.05,208.87,101,206Z"/><path class="cls-19" d="M105.75,167.11c2.28-2.81,5-2.62,7.26-.38,3.8,3.8,8.15,7.46,10.66,12.06C130.89,192,137.35,205.6,144,219.11a36.4,36.4,0,0,1,2,6.62c1.17,4.4-1.78,6.62-4.74,8.82l-6.94-5.66-3.93-6.6c4.66-.85,5.83-4.2,4.21-7.79-4.82-10.68-9.75-21.35-15.5-31.54-2.15-3.79-5.53-8.29-11.56-6.84Z"/><path class="cls-25" d="M107.49,176.12c6-1.45,9.41,3,11.56,6.84,5.75,10.19,10.68,20.86,15.5,31.54,1.62,3.59.45,6.94-4.21,7.79l-1.4-1c.23-2.95-.86-4.89-4-5.25l0,0-2.14-3-.84-1-2.07-3C112.65,199.24,110,187.72,107.49,176.12Z"/><path class="cls-23" d="M207,98h-2c-8.46-2.09-16.85-4.6-25.4-6.18-15.52-2.88-28.52,2.39-38.76,14.06-5.55,6.34-10,13.64-15.52,20-4.86,5.6-10.13,11.17-18.55,11.12.5-2,1-4.09,1.51-6.13,3.29,1.35,6,.62,8.42-2,8.69-9.47,17.3-19,26.27-28.22C153.29,90,166.18,87.23,180.38,89.7c6.81,1.18,13.59,2.71,20.27,4.5C202.94,94.82,204.89,96.7,207,98Z"/><path class="cls-25" d="M106.77,137c8.42.05,13.69-5.52,18.55-11.12,5.52-6.37,10-13.67,15.52-20,10.24-11.67,23.24-16.94,38.76-14.06,8.55,1.58,16.94,4.09,25.4,6.18a23.28,23.28,0,0,1-5,.07c-7.92-1.59-15.74-4.29-23.71-4.88-16.21-1.19-28.7,6.08-38,19.22-4.77,6.75-9.26,13.77-14.71,19.93-4.38,5-9.71,9.49-17.43,7.65Z"/><path class="cls-19" d="M124.93,216c3.15.36,4.24,2.3,4,5.25Z"/><path class="cls-19" d="M122.81,213.08l2.14,3Z"/><path class="cls-19" d="M119.9,209l2.07,3Z"/><path class="cls-6" d="M115.66,110.54,114,113Z"/><path class="cls-2" d="M84.23,285.88c2.54-2.65,4.86-1.62,7.42.19,13.22,9.34,27.49,16.56,43.3,20.33,5.58,1.32,11.36,1.76,17.05,2.6,0,1,0,2,0,3-9.5-1.91-19.13-3.31-28.44-5.89-6.63-1.84-12.86-5.18-19.2-8-2.55-1.14-4.7-1.66-6.25,1.32L88,290.9Z"/><path class="cls-30" d="M102.09,303l2.88,2.1Z"/><path class="cls-30" d="M105,305l3,2.09Z"/><path class="cls-30" d="M109.64,308.25,112,310Z"/><path class="cls-25" d="M163,299c.61-.66,1.1-1.56,1.85-1.94,6.34-3.19,12.7-6.35,19.11-9.4s12.38-6.56,18.95-8.63c29.51-9.32,57-22.91,83.19-39.11,12.13-7.49,24.14-15.18,36.22-22.75A18.89,18.89,0,0,1,325,216c-.33,1.67-.67,3.33-1,5h0a7,7,0,0,0-2.43.36c-8.38,4.75-17,9.16-25,14.44-26.89,17.7-54.79,33.28-85.62,43.18a187.44,187.44,0,0,0-20.28,8.28c-7.07,3.23-14,6.85-20.89,10.4A15.45,15.45,0,0,0,167,300h-2Z"/><path class="cls-30" d="M332,175c-3.73.56-6.67-.42-8.23-4.16q.74-9.45,1.48-18.89c1.46,1.41,3.87,2.64,4.19,4.27C330.62,162.44,331.16,168.76,332,175Z"/><path class="cls-7" d="M197.14,132.57c-1.6-.5-3.19-1.36-4.8-1.43-4.57-.2-9.15-.07-15.35-.07,2.26-3.4,3.89-5.51,5.14-7.81,1.43-2.63,2.53-5.44,3.77-8.17.38-.31.86-1,1.12-.88,5.57,1.69,11.13,3.39,16.63,5.26a41.67,41.67,0,0,1,5.2,2.55l1.56,3.89q1,2.09,2,4.16C215.43,138.16,221.19,144,228,149l5.94,3h0l2,1.16,2,.31,7.09,1.63c-3.23,3.42-6.31,3.59-11.65.91A110.33,110.33,0,0,0,223,152l-15.9-16.15-2.49-1.4c-1.13-.31-2.27-.63-3.41-.93l-2.15-.67Z"/><path class="cls-14" d="M176,123c-.36-1.07-.71-2.13-1.06-3.2l3-2C180.45,120.75,177.53,121.62,176,123Z"/><path class="cls-3" d="M199,132.87l2.15.67Z"/><path class="cls-3" d="M204.58,134.47l2.49,1.4Z"/><path class="cls-27" d="M152,312c0-1,0-2,0-3,2.54-.58,5.07-1.49,7.63-1.62,1.76-.08,3.59.92,5.38,1.44l-11.87,3.12Z"/><path class="cls-27" d="M168,309.12l2.06.66Z"/><path class="cls-8" d="M122,297c-1.2.2-2.69,1-3.55.52-12.47-6.58-25-13-35.42-22.88-1.32-1.26-3.34-1.78-5-2.64l-6-2-6.84-11c3.74-.54,6.41,1,9.15,3.59C79.92,268,86.06,272.89,92,278h1l3,3h1l3,3h1c1.5,1.41,2.79,3.2,4.54,4.16,5.06,2.79,10.3,5.25,15.48,7.85Z"/><path class="cls-23" d="M92,278c-5.94-5.11-12.08-10-17.73-15.41-2.74-2.61-5.41-4.13-9.15-3.59q-1.85-3.88-3.7-7.77c5-2.21,6.83,2,9.54,4.65,5.63,5.42,11.36,10.75,17,16.12l2,1Z"/><path class="cls-27" d="M72,270l6,2-3.57,1.27Z"/><path class="cls-12" d="M79.92,281.05l1.85,2.25Z"/><path class="cls-12" d="M76,276l1.81,2.28Z"/><path class="cls-6" d="M166.82,114.9l2-2.21Z"/><path class="cls-28" d="M45.9,194l.51,7Z"/><path class="cls-28" d="M46.81,205.06c.21,1.33.42,2.67.62,4C47.22,207.73,47,206.39,46.81,205.06Z"/><path class="cls-29" d="M228,149c-6.81-5-12.57-10.85-15.62-18.94l7-.45c4.46,1.79,9,3.49,13.37,5.42,1.26.55,2.17,1.87,3.36,2.62,1.92,1.21,4,2.25,5.94,3.36l2.85,4.15L240,151l-6.9-1Z"/><path class="cls-15" d="M219.33,129.62l-7,.45q-1-2.07-2-4.16C214.73,123.89,216.79,127.34,219.33,129.62Z"/><path class="cls-14" d="M250.32,140,246,139C247.79,137.84,249.65,136.36,250.32,140Z"/><path class="cls-14" d="M251.09,144.3l-1.59,4L247.2,146l2.53-2Z"/><path class="cls-10" d="M173.66,254.31c4.42,1.22,9,2.14,13.21,3.78,3.29,1.26,3.36,2.72,1.16,4.93-3-2-5.89-4.08-8.92-6C177.39,256,175.48,255.21,173.66,254.31Z"/><path class="cls-10" d="M166.63,251.35l4.47,2.41Z"/><path class="cls-10" d="M156.72,246.24l4.32,2.67Z"/><path class="cls-10" d="M147.78,240.17,150,242Z"/><path class="cls-15" d="M259,144l-5.51,5.12-1.52-1.4Z"/><path class="cls-15" d="M233.1,150l6.9,1,0,1.91-2.07.61-2-.31-2-1.16h0Z"/><path class="cls-14" d="M163.15,113.13,161,107.8l6.35-2.16,1,1.55Z"/><path class="cls-24" d="M87,128,85,122l2.91-.85L91,125.25Z"/><path class="cls-15" d="M91,125.25l-3.08-4.12,4.64.92Z"/><path class="cls-9" d="M89,186c.34.65.67,1.31,1,2l-4.24,2.72q-1.83,1.71-3.65,3.43L81.06,194q.81-4.54,1.64-9.09Z"/><path class="cls-4" d="M317.85,189.92q-2.88,5.58-5.77,11.16Q315,195.5,317.85,189.92Z"/><path class="cls-28" d="M321.49,177.94l-3.39,9.24Z"/><path class="cls-28" d="M322.5,172.93c-.23,1-.45,2-.68,3C322.05,174.94,322.27,173.94,322.5,172.93Z"/><path class="cls-4" d="M311.81,201.87l-1.72,2.22Z"/><path class="cls-9" d="M78.52,156q1.67,4.65,3.35,9.29l-3.73-.44-3-.75c-.13-1.07-.26-2.13-.4-3.2Z"/><path class="cls-11" d="M81.06,194l1.07.12-1,4.94c-.44-1-.88-1.92-1.33-2.88Z"/><path class="cls-10" d="M88,143h1c-.61.7-1.23,1.4-1.84,2.11C87.47,144.41,87.74,143.7,88,143Z"/><path class="cls-23" d="M121,296c-5.18-2.6-10.42-5.06-15.48-7.85-1.75-1-3-2.75-4.54-4.16l5,1c4.19,2.58,8.37,5.2,12.6,7.72,1.5.9,3.15,1.58,5.75,2.86Z"/><path class="cls-23" d="M146,299h10v3l-10,1v-4Z"/><path class="cls-8" d="M132,301q-6.21,1.85-9-4h7Z"/><path class="cls-25" d="M156,302v-3h5v3Z"/><path class="cls-25" d="M146,299v1l-2,1h-4v-3Z"/><path class="cls-27" d="M132,301l-2-4h4c.33.67.66,1.34,1,2-.34.67-.67,1.34-1,2Z"/><path class="cls-23" d="M161,302v-3h2l2,1v2Z"/><path class="cls-23" d="M140,298v3h-2l-2-2,2-1Z"/><path class="cls-25" d="M138,298l-2,1h-1c-.34-.66-.67-1.33-1-2Z"/><path class="cls-23" d="M100,284l-3-3Z"/><path class="cls-23" d="M96,281l-3-3Z"/><path class="cls-18" d="M231.23,106.91l-.45,4.24L219.84,104l-1.79,3-.06-6.33,5.63.72,4.43,2.54Z"/><path class="cls-9" d="M228.05,103.92l-4.43-2.54Z"/><path class="cls-2" d="M192.75,72.87A4.39,4.39,0,0,1,193,72l1.47,1.2Z"/><path class="cls-8" d="M320,230c-3.07,2.83-5.67,6.93-9.29,8.27-12.32,4.54-23,11.8-34.24,18.31C257,267.89,237.05,278.24,215.82,286c-12.88,4.72-25.37,10.5-38.14,15.54-2.66,1.06-5.77,1-8.68,1.43.77-.68,1.44-1.65,2.34-2,3.88-1.45,7.93-2.48,11.72-4.1,13.09-5.57,26.08-11.35,39.14-17,8.67-3.74,17.74-6.71,26-11.19,23.41-12.7,46.49-26,69.72-39C318.41,229.45,319.3,229.89,320,230Z"/><path class="cls-23" d="M167,300a15.45,15.45,0,0,1,2.75-2.34c6.93-3.55,13.82-7.17,20.89-10.4A187.44,187.44,0,0,1,210.92,279c30.83-9.9,58.73-25.48,85.62-43.18,8-5.28,16.64-9.69,25-14.44A7,7,0,0,1,324,221c-.33,1-.66,2-1,3-.66.67-1.32,1.34-2,2h0a7.25,7.25,0,0,0-2.43.35c-11.5,6.61-23.08,13.09-34.4,20-22.74,13.83-46.13,26.21-71.47,34.72-7,2.36-13.62,5.95-20.49,8.81C183.85,293.33,175.41,296.63,167,300Z"/><path class="cls-27" d="M167,300c8.41-3.37,16.85-6.67,25.21-10.14,6.87-2.86,13.47-6.45,20.49-8.81,25.34-8.51,48.73-20.89,71.47-34.72,11.32-6.89,22.9-13.37,34.4-20A7.25,7.25,0,0,1,321,226c-.33,1.34-.67,2.67-1,4-.7-.11-1.59-.55-2.08-.27-23.23,13-46.31,26.3-69.72,39-8.26,4.48-17.33,7.45-26,11.19-13.06,5.65-26,11.43-39.14,17-3.79,1.62-7.84,2.65-11.72,4.1-.9.33-1.57,1.3-2.34,2h-4v-3Z"/><path class="cls-8" d="M165,302v1l-19,1v-1l10-1h9Z"/><path class="cls-8" d="M139,301h5v3C141.89,303.73,138.81,305.1,139,301Z"/><path class="cls-8" d="M135,299h1l2,2c-1.34.68-2.67,4.27-4,0C134.33,300.34,134.66,299.67,135,299Z"/><path class="cls-27" d="M144,304v-3l2-1v4Z"/><path class="cls-27" d="M321,226c.67-.66,1.33-1.33,2-2C322.33,224.67,321.67,225.34,321,226Z"/><path class="cls-9" d="M233.1,150l.84,2.09L228,149Z"/><path class="cls-9" d="M234,152.06l2,1.16Z"/></g></g></svg>