<svg width="35" height="35" viewBox="0 0 192 216" fill="none" xmlns="http://www.w3.org/2000/svg">
<path d="M157.01 159.892C160.06 158.614 160.413 157.048 161.142 153.652C168.323 157.68 175.356 151.271 172.966 143.237C170.194 133.921 149.869 132.396 142.416 129.277C136.898 126.972 131.65 124.601 125.894 123.629C123.341 134.663 115.048 142.705 128.367 151.077C135.876 155.8 148.758 163.348 157.01 159.892" fill="#82331E"/>
<path d="M127.04 201.242C111.011 205.467 111.647 170.207 120.702 160.745C124.455 156.826 132.693 147.734 137.968 150.774C142.706 153.504 142.649 163.422 142.413 169.225C141.889 181.984 137.203 198.565 127.04 201.242" fill="#82331E"/>
<path d="M142.23 168.461C134.899 185.952 117.269 197.658 98.4993 198.27C82.2061 198.799 55.2534 195.663 52.8088 179.024C50.7184 164.795 48.8562 145.377 62.0804 134.578C79.5298 120.327 100.495 116.961 121.649 123.813C139.387 129.56 149.638 150.788 142.23 168.461Z" fill="#8B4024"/>
<path d="M95.1265 191.081C78.5776 191.081 61.2867 187.027 59.9564 177.969C57.7556 162.984 57.0424 148.035 66.6442 140.192C76.8451 131.861 88.3307 127.635 100.779 127.635C106.863 127.635 113.137 128.666 119.428 130.705C126.127 132.876 131.78 138.072 134.933 144.963C138.021 151.713 138.254 159.255 135.571 165.658C129.43 180.306 114.437 190.506 98.2675 191.031C97.2601 191.064 96.2083 191.081 95.1265 191.081" fill="#A0582F"/>
<path d="M108.651 148.869C102.01 156.928 98.9158 167.442 99.0263 177.709C99.0791 182.931 98.7633 191.428 100.47 198.132C118.489 196.798 135.156 185.334 142.23 168.462C146.366 158.591 144.992 147.615 139.886 138.843C139.122 138.653 138.341 138.478 137.522 138.336C126.387 136.427 115.795 140.199 108.651 148.869" fill="#F9B274"/>
<path d="M51.7558 145.961C47.2725 131.612 32.4693 98.8352 11.8562 110.847C5.88522 114.328 -3.98552 127.94 1.70808 134.868C6.98144 141.283 14.0918 129.973 18.2149 126.856C34.4865 114.572 38.6108 159.896 42.7531 169.795C50.7676 188.937 67.415 204.032 88.3788 194.039C90.9338 192.817 93.4023 191.363 95.8397 189.923C89.3717 178.122 75.2782 187.287 65.614 177.351C57.7832 169.298 55.0012 156.339 51.7558 145.961" fill="#82331E"/>
<path d="M68.5316 208.764C68.6132 218.395 86.5477 215.091 91.1787 212.412C98.9855 207.9 109.769 191.587 104.965 180.854C101.254 172.557 92.3962 166.646 80.3342 168.046C73.3655 168.855 57.6823 180.428 61.2819 187.599C63.6088 192.23 70.5043 188.965 69.4465 196.001C68.7321 200.73 68.48 202.906 68.5316 208.764" fill="#883B21"/>
<path d="M74.5553 123.692C86.6581 126.269 80.4783 140.634 80.1493 149.235C79.8251 157.696 87.7724 164.424 85.3758 172.989C82.8172 182.109 72.6211 184.229 65.2406 180.795C56.1082 176.538 51.9767 166.805 64.8119 166.058C54.3492 166.062 54.3624 147.7 54.9616 143.378C56.2054 134.397 65.7724 121.817 74.5553 123.692Z" fill="#8F4629"/>
<path d="M191.927 58.0968C192.276 67.6082 184.726 75.6064 175.07 75.9603C165.413 76.313 157.303 68.8891 156.957 59.3741C156.61 49.8628 164.159 41.867 173.814 41.5131C183.473 41.1592 191.58 48.5831 191.927 58.0968" fill="#82331E"/>
<path d="M184.965 59.1225C185.214 65.9794 179.249 71.7638 171.648 72.0419C164.046 72.32 157.679 66.987 157.43 60.1289C157.179 53.2719 163.14 47.4889 170.744 47.2084C178.346 46.9315 184.716 52.2632 184.965 59.1225Z" fill="#F9B274"/>
<path d="M101.972 0.0485346C65.0899 1.39681 35.9711 30.6111 35.0958 66.155C34.2421 66.0707 33.3776 66.0201 32.4975 66.0526C22.1609 66.4318 14.0864 74.991 14.4562 85.1705C14.8248 95.3499 23.5033 103.295 33.8363 102.917C37.3567 102.788 40.6009 101.695 43.3505 99.928C55.4857 121.862 79.6252 136.374 106.896 135.377C145.184 133.974 175.122 102.545 173.763 65.1762C172.401 27.8073 140.262 -1.35391 101.972 0.0485346" fill="#91492C"/>
<path d="M104.252 128.179C81.4227 128.179 60.5081 116.007 49.6672 96.4152C48.7007 94.6661 47.0534 93.3961 45.1179 92.9061C44.5368 92.7581 43.9436 92.6846 43.3505 92.6846C41.9817 92.6846 40.6286 93.0759 39.4543 93.8283C37.6893 94.9647 35.653 95.6039 33.5734 95.6797C33.4258 95.6857 33.278 95.6881 33.1292 95.6881C26.9265 95.6881 21.8932 90.9511 21.6735 84.9067C21.449 78.7324 26.4222 73.5222 32.7593 73.2899L33.0499 73.2863C33.4293 73.2863 33.8544 73.3092 34.3839 73.3621C34.6192 73.385 34.8593 73.3983 35.0959 73.3983C36.85 73.3983 38.5526 72.7566 39.877 71.5817C41.3826 70.2491 42.2675 68.3459 42.3155 66.3343C43.1043 34.4235 69.4219 8.48487 102.235 7.28587C103.032 7.25698 103.826 7.24132 104.617 7.24132C138.155 7.24132 165.355 32.8055 166.544 65.4398C167.129 81.5433 161.243 96.9293 149.973 108.762C138.652 120.649 123.259 127.528 106.633 128.137C105.835 128.166 105.045 128.179 104.255 128.179H104.252Z" fill="#A0582F"/>
<path d="M173.714 70.6897C172.106 105.586 143.284 134.047 106.896 135.377C85.3285 136.168 65.7119 127.256 52.4469 112.645C49.8318 99.2466 52.0494 85.18 63.3538 76.6389C52.6762 56.2053 63.2721 29.4577 90.0135 35.5069C95.7912 36.813 100.806 40.2909 105.292 44.0408C111.35 33.0764 124.574 22.7609 137.973 26.8948C137.973 26.8948 156.885 31.9159 153.398 54.2178C153.398 54.2178 171.93 53.7857 173.714 70.6897Z" fill="#F9B274"/>
<path d="M164.325 71.8552C164.883 74.0871 158.521 77.6239 150.101 79.7582C141.685 81.8902 134.405 81.8144 133.843 79.5825C133.284 77.353 139.645 73.815 148.067 71.6783C156.485 69.5475 163.762 69.6269 164.325 71.8552Z" fill="url(#paint0_radial)"/>
<path d="M93.2416 86.3191C93.5837 88.5932 86.9092 91.4956 78.3184 92.8041C69.7396 94.1079 62.5018 93.323 62.1585 91.0465C61.8139 88.7737 68.4896 85.8702 77.0768 84.564C85.6617 83.2603 92.8958 84.0451 93.2416 86.3191" fill="url(#paint1_radial)"/>
<path d="M91.623 96.1327C91.623 96.1327 115.911 82.036 140.458 85.7907C140.458 85.7907 145.293 116.581 121.337 121.136C121.337 121.136 95.8482 125.69 91.623 96.1327" fill="white"/>
<path d="M91.3817 72.97C91.9844 77.6914 90.2903 81.7976 87.6008 82.1431C84.9125 82.4862 82.2409 78.9397 81.6406 74.2196C81.0379 69.4958 82.732 65.3908 85.4215 65.0453C88.1158 64.701 90.7813 68.2499 91.3817 72.97Z" fill="#6F4323"/>
<path d="M142.135 64.3518C142.737 69.0732 141.043 73.1806 138.351 73.5261C135.661 73.8704 132.993 70.3216 132.392 65.6014C131.788 60.8801 133.484 56.7726 136.175 56.4283C138.865 56.084 141.533 59.6317 142.135 64.3518Z" fill="#6F4323"/>
<path d="M121.446 73.5671C122.112 76.3106 118.906 79.4417 114.288 80.5661C109.672 81.688 105.39 80.3723 104.728 77.6312C104.067 74.8877 107.273 71.7529 111.888 70.6322C116.505 69.5102 120.784 70.8248 121.446 73.5671Z" fill="#91492C"/>
<defs>
<radialGradient id="paint0_radial" cx="0" cy="0" r="1" gradientUnits="userSpaceOnUse" gradientTransform="translate(149.084 75.7195) rotate(-6.07987) scale(12.1212 6.75402)">
<stop stop-color="#F46A5F"/>
<stop offset="0.104294" stop-color="#F46A5F"/>
<stop offset="1" stop-color="#F9B273"/>
</radialGradient>
<radialGradient id="paint1_radial" cx="0" cy="0" r="1" gradientUnits="userSpaceOnUse" gradientTransform="translate(77.6988 88.6835) rotate(-0.507557) scale(12.1214 6.75506)">
<stop stop-color="#F46A5F"/>
<stop offset="0.104294" stop-color="#F46A5F"/>
<stop offset="1" stop-color="#F9B273"/>
</radialGradient>
</defs>
</svg>