<svg width="35" height="35" viewBox="0 0 207 208" fill="none" xmlns="http://www.w3.org/2000/svg">
<path d="M172.339 151.578C187.035 130.845 168.977 99.6793 188.525 82.0686C193.578 77.5182 206.348 72.6789 206.798 83.1593C207.153 91.3573 195.589 100.494 192.328 107.764C187.645 118.193 190.08 130.527 188.738 141.518C187.285 153.421 180.244 163.336 171.727 171.743C155.909 187.352 126.527 193.819 110.95 174.163C109.403 172.208 107.864 170.251 106.465 168.186C116.421 159.28 128.017 173.566 141.376 172.519C154.548 171.485 165.035 161.883 172.339 151.578" fill="#82331E"/>
<path d="M151.138 74.8012L31.1831 92.2217C-11.8574 136.821 50.5128 143.347 50.5128 143.347C44.7387 155.37 45.8422 170.198 46.1267 177.74C46.0835 177.747 46.0343 177.731 45.9862 177.723C43.3652 172.44 42.1717 164.951 40.606 161.984C39.2613 159.438 35.933 153.467 31.1099 155.054C26.426 156.595 26.8895 159.646 27.0204 162.827C23.9899 156.602 13.3171 158.577 15.5924 166.99C15.327 167.239 4.2364 163.049 8.58044 174.941C9.35247 177.058 26.2423 201.466 39.7559 199.032C44.5286 198.172 47.2422 193.582 49.9485 191.792C62.6984 199.071 86.2989 200.961 86.2989 200.961C155.191 210.601 135.488 142.018 135.488 142.018C207.053 107.626 151.138 74.8012 151.138 74.8012" fill="#91492C"/>
<path d="M98.7522 194.65C95.2223 194.646 91.3681 194.36 87.2978 193.788C87.1561 193.772 87.0181 193.754 86.8764 193.743C80.7469 193.247 62.8029 190.796 53.524 185.498C52.4146 184.864 51.1791 184.55 49.9496 184.55C48.5605 184.55 47.1761 184.952 45.9718 185.746C44.4854 186.727 43.2919 187.919 42.1356 189.07C40.8917 190.313 39.4786 191.723 38.4796 191.901C38.2695 191.94 38.0461 191.962 37.812 191.962C31.2143 191.962 20.7444 180.128 16.5709 174.169C18.0345 173.957 19.4333 173.301 20.5187 172.288C21.5993 171.275 22.3245 169.979 22.6391 168.585C23.8866 169.538 25.4247 170.07 27.0204 170.07C27.6075 170.07 28.2018 169.998 28.7938 169.847C31.3236 169.208 33.2471 167.276 33.9519 164.872C34.0383 165.03 34.1284 165.197 34.222 165.37C34.5678 166.041 35.2126 168.332 35.682 170.011C36.6101 173.31 37.764 177.413 39.517 180.948C40.5195 182.964 42.395 184.398 44.5934 184.829C45.0665 184.925 45.6236 184.983 46.1015 184.983C46.5289 184.983 46.9563 184.947 47.3766 184.873C50.9342 184.245 53.4832 181.084 53.3451 177.466L53.2731 175.746C52.9621 168.373 52.4374 156.035 57.0216 146.487C58.0434 144.365 57.9689 141.873 56.8223 139.816C55.6756 137.758 53.6009 136.387 51.2632 136.143C45.1709 135.487 27.0192 131.589 23.7773 122.612C21.8094 117.167 25.6828 108.84 34.7059 99.0293L149.501 82.3564C155.218 86.335 165.116 95.289 164.691 104.959C164.253 114.977 153.076 125.534 132.368 135.487C129.186 137.013 127.571 140.622 128.547 144.023C128.617 144.267 135.733 169.969 124.832 184.436C119.728 191.214 110.956 194.65 98.7594 194.65C98.7594 194.65 98.7546 194.65 98.7522 194.65Z" fill="#A0582F"/>
<path d="M60.7869 158.225C61.739 179.132 76.6502 195.439 94.0912 194.64C111.531 193.841 124.898 176.242 123.948 155.333C122.996 134.423 108.086 118.119 90.6428 118.916C73.2042 119.713 59.8359 137.314 60.7869 158.225" fill="#F9B274"/>
<path d="M101.214 157.34C87.5872 157.363 76.4869 169.178 72.7432 179.915C62.6155 208.957 98.0222 213.174 119.442 201.278C128.23 196.399 135.045 186.227 131.976 176.037C127.931 162.604 111.782 157.319 101.214 157.34Z" fill="#8F4629"/>
<path d="M79.1717 154.835C75.2611 151.785 69.9673 153.878 69.3262 159.243C68.266 149.953 56.9448 150 58.2475 160.797C58.2884 161.144 58.0302 161.941 58.2727 160.771C54.5026 152.77 46.565 152.836 44.3785 160.373C41.9076 168.912 45.7809 177.645 47.3526 185.926C49.0071 194.635 51.2968 204.893 62.002 206.291C70.9291 207.452 76.6635 201.874 79.5487 194.173C82.8542 185.351 88.7855 162.327 79.1717 154.835" fill="#8C4126"/>
<path d="M181.39 64.9407C180.659 74.4316 172.255 81.5185 162.62 80.7721C152.986 80.0269 145.77 71.7278 146.501 62.2357C147.232 52.7436 155.637 45.658 165.271 46.4031C174.906 47.1519 182.122 55.4498 181.39 64.9407Z" fill="#91492C"/>
<path d="M174.356 65.1671C173.828 72.0095 167.251 77.0764 159.665 76.4902C152.079 75.9015 146.359 69.88 146.885 63.0387C147.413 56.1974 153.989 51.1281 161.575 51.7144C169.161 52.3031 174.883 58.3258 174.356 65.1671" fill="#F9B274"/>
<path d="M166.216 29.6244L131.522 28.1364L128.31 41.9057L166.216 29.6244Z" fill="#EE2223"/>
<path d="M97.0833 0.374025C60.2874 -2.48022 28.053 23.2369 23.1626 58.451C22.3245 58.268 21.4721 58.1211 20.592 58.0537C10.2806 57.2556 1.28873 64.8396 0.505894 74.9974C-0.278146 85.1504 7.44578 94.0346 17.7548 94.8315C21.2655 95.1048 24.613 94.3861 27.5463 92.9439C37.1204 116.114 59.4662 133.278 86.6735 135.387C124.873 138.35 158.172 110.525 161.048 73.2423C163.92 35.9589 135.285 3.33301 97.0833 0.374025" fill="#91492C"/>
<path d="M92.2434 128.361C90.5793 128.361 88.8935 128.294 87.2294 128.166C63.4548 126.323 43.143 111.764 34.2184 90.1703C33.4572 88.3237 31.9623 86.8767 30.0965 86.1688C29.274 85.857 28.4095 85.703 27.5463 85.703C26.4524 85.703 25.3658 85.9497 24.3645 86.4433C22.74 87.2426 21.0074 87.6471 19.2196 87.6471C18.9182 87.6471 18.6156 87.6375 18.3119 87.6122C15.2261 87.3714 12.4214 85.9702 10.4162 83.6649C8.43993 81.3945 7.48059 78.515 7.70631 75.5548C8.15416 69.768 13.1586 65.2369 19.1043 65.2369C19.4141 65.2369 19.7251 65.2489 20.036 65.2742C20.4827 65.3103 20.9942 65.3898 21.6425 65.5306C22.1468 65.6389 22.6559 65.6907 23.1626 65.6907C24.631 65.6907 26.079 65.2417 27.3025 64.3834C28.9462 63.2301 30.0401 61.4424 30.3162 59.4489C34.4369 29.7748 60.7461 7.39825 91.5146 7.39825C93.1751 7.39825 94.8621 7.46448 96.5262 7.59449C130.695 10.2405 156.407 39.4403 153.844 72.6825C151.437 103.906 124.381 128.361 92.247 128.361H92.2434" fill="#A0582F"/>
<path d="M24.8892 76.8874C24.3501 83.8792 25.2962 89.6575 18.1954 89.1062C11.0983 88.556 5.77804 82.4382 6.31835 75.4452C6.85865 68.4534 13.0506 63.2301 20.1489 63.7802C27.2497 64.3328 25.4259 69.892 24.8892 76.8874Z" fill="#F9B274"/>
<path d="M160.376 78.7136C154.831 113.207 122.973 138.201 86.6734 135.387C65.155 133.721 46.6718 122.635 35.1453 106.612C34.0611 93.0041 37.854 79.2806 50.0517 72.0794C41.755 50.5635 55.3094 25.1931 81.1948 34.2434C86.7851 36.1996 91.3753 40.224 95.4083 44.4614C102.666 34.2542 116.972 25.5085 129.817 31.14C129.817 31.14 148.041 38.2774 142.051 60.0364C142.051 60.0364 160.514 61.7169 160.376 78.7136" fill="#F9B274"/>
<path d="M67.5431 92.6622C67.5431 92.6622 98.3056 80.8468 128.073 86.8586C128.073 86.8586 127.603 117.974 97.9478 120.303C97.9478 120.303 70.5304 122.529 67.5431 92.6622Z" fill="white"/>
<path d="M20.8104 52.4523L166.216 29.6244C166.216 29.6244 171.494 37.33 162.277 47.2736C153.061 57.2159 156.18 50.873 154.921 65.9797C153.661 81.0839 147.808 90.6844 127.292 92.6117C106.091 94.6028 101.292 69.744 97.9297 64.6675C92.7909 56.8945 90.3319 70.8359 90.3319 70.8359C90.3319 70.8359 86.4729 99.9803 66.0843 100.469C45.6944 100.957 38.9754 88.3574 36.2187 77.0692C33.4595 65.781 35.8381 70.7034 27.6027 65.9002C27.6027 65.9002 19.6698 61.6844 20.8104 52.4523" fill="#F14D30"/>
<path d="M31.9683 57.713C32.2145 59.3274 31.1602 60.8285 29.6102 61.0681C28.0589 61.3088 26.5989 60.1953 26.354 58.581C26.1018 56.9655 27.1608 55.4631 28.7121 55.2271C30.2621 54.9852 31.7198 56.1011 31.9683 57.713Z" fill="#90C3EB"/>
<path d="M161.046 38.3749C161.292 39.9892 160.236 41.4904 158.685 41.7299C157.134 41.9671 155.676 40.8535 155.43 39.2404C155.18 37.6321 156.237 36.125 157.788 35.8854C159.339 35.6446 160.797 36.757 161.046 38.3749Z" fill="#90C3EB"/>
<path d="M44.842 80.7035L56.5822 56.0806L50.4768 57.0196L41.8475 75.1202C42.7636 77.2473 43.771 79.0964 44.842 80.7035" fill="#71B5E6"/>
<path d="M37.764 58.9842C38.129 61.9167 38.6153 64.5796 39.1976 67.0113L43.4432 58.1055L37.764 58.9842Z" fill="#71B5E6"/>
<path d="M63.3432 55.0358L48.8414 85.4526C50.2234 86.7371 51.6402 87.7398 53.0318 88.5235L69.445 54.0919L63.3432 55.0358" fill="#71B5E6"/>
<path d="M58.2727 90.5953C60.4171 91.1238 62.2998 91.2225 63.6385 91.19L82.2694 52.1129L76.1676 53.0506L58.2727 90.5953Z" fill="#71B5E6"/>
<path d="M79.2497 83.1401L84.3934 72.3514C85.7177 67.098 85.839 61.7928 85.6421 57.8671L70.5244 89.5829C74.2513 88.0637 77.0933 85.8113 79.2497 83.1401" fill="#71B5E6"/>
<path d="M109.826 71.1187L121.565 46.4958L115.461 47.4336L106.832 65.5354C107.746 67.6602 108.755 69.5104 109.826 71.1187Z" fill="#71B5E6"/>
<path d="M102.748 49.4007C103.113 52.332 103.599 54.9972 104.181 57.4253L108.426 48.5231L102.748 49.4007Z" fill="#71B5E6"/>
<path d="M128.326 45.4509L113.826 75.8666C115.207 77.1498 116.623 78.1562 118.015 78.9387L134.428 44.5059L128.326 45.4509" fill="#71B5E6"/>
<path d="M123.257 81.0093C125.401 81.5366 127.283 81.6377 128.623 81.6064L147.252 42.5268L141.149 43.467L123.257 81.0093Z" fill="#71B5E6"/>
<path d="M144.233 73.5541L149.378 62.7679C150.702 57.512 150.823 52.2044 150.626 48.2823L135.507 79.9969C139.235 78.4789 142.077 76.2265 144.233 73.5541Z" fill="#71B5E6"/>
<path d="M104.645 75.3068C104.993 78.1081 101.455 80.8564 96.7411 81.4463C92.0261 82.0337 87.921 80.24 87.574 77.44C87.227 74.6411 90.7654 71.8916 95.478 71.3029C100.193 70.713 104.295 72.5067 104.645 75.3068Z" fill="#91492C"/>
</svg>

