<svg width="35" height="35" viewBox="0 0 182 247" fill="none" xmlns="http://www.w3.org/2000/svg">
<path d="M80.7002 180.41C71.9365 210.155 93.9341 210.482 116.137 208.36C134.983 206.558 154.353 218.18 137.286 236.8C130.705 243.977 117.907 250.077 108.474 244.324C98.6947 238.368 103.961 234.785 112.141 232.008C117.673 230.132 130.573 230.964 126.816 222.35C123.22 214.095 106.267 217.143 100.02 218.026C72.5873 221.897 63.7984 207.749 66.7316 181.064C69.3311 182.112 72.5705 182.485 75.4965 182.701C78.6015 182.926 81.6428 180.536 79.9342 182.929L80.7002 180.41" fill="#82331E"/>
<path d="M52.9767 188.051C69.4931 201.315 89.2947 202.153 109.468 197.414C157.423 186.153 144.018 107.166 93.8704 109.812C70.982 111.02 64.6304 137.269 48.7959 149.424C41.7539 154.829 17.9278 157.246 15.7173 165.95C9.27811 191.297 46.3225 182.706 52.9767 188.051" fill="#91492C"/>
<path d="M85.4117 192.725C74.5936 192.175 65.4613 188.797 57.4924 182.399C53.7175 179.366 48.1584 178.973 41.1248 178.474C34.8009 178.028 25.2471 177.351 22.8662 174.044C21.8444 172.625 22.1626 170.035 22.6488 168.014C24.343 165.922 32.8498 163.254 37.4604 161.807C43.6246 159.873 49.4455 158.045 53.1856 155.177C59.7701 150.124 64.6496 143.33 69.3683 136.761C76.7416 126.498 83.11 117.632 94.251 117.046C95.5862 116.975 96.9177 116.972 98.2073 117.039C119.167 118.103 130.336 136.669 131.843 153.47C133.111 167.589 127.579 185.724 107.821 190.361C99.5748 192.3 92.2447 193.072 85.4129 192.725C85.4129 192.725 85.4129 192.725 85.4117 192.725" fill="#A0582F"/>
<path d="M163.83 40.1231C160.437 40.0738 157.259 40.9634 154.518 42.5199C144.72 18.8998 120.856 1.55887 92.1498 0.0986361C63.9664 -1.3327 38.8795 12.9397 26.4958 34.7577C24.4426 33.7044 22.1541 33.0182 19.7071 32.8015C9.71753 31.9275 0.923811 39.195 0.0677305 49.035C-0.790752 58.8762 6.6114 67.5641 16.6046 68.4381C17.2086 68.4911 17.8113 68.5103 18.4056 68.5043C19.9725 102.242 48.7779 130.077 85.4885 131.942C122.352 133.814 153.92 108.826 158.678 75.2084C160.161 75.6177 161.713 75.8657 163.323 75.8897C173.353 76.033 181.594 68.142 181.733 58.2635C181.873 48.3849 173.856 40.2652 163.83 40.1231" fill="#91492C"/>
<path d="M85.8535 124.708C52.9358 123.035 27.0421 98.7285 25.6217 68.1684C25.4476 64.4246 22.4615 61.4596 18.7778 61.2718C18.6314 61.2645 18.4813 61.261 18.3324 61.2634C18.0971 61.2658 17.8581 61.2597 17.618 61.2489C17.4907 61.2417 17.3635 61.2333 17.235 61.2212C14.2981 60.9648 11.6434 59.6057 9.75839 57.3943C7.90455 55.2178 7.01724 52.4719 7.26218 49.667C7.76046 43.9416 12.7661 39.691 18.6566 39.9871C18.7958 39.9944 18.9363 40.0052 19.0768 40.0184C20.5272 40.1448 21.9164 40.5444 23.2059 41.2053C24.1413 41.6869 25.1378 41.9433 26.126 41.9939C28.7722 42.1263 31.3825 40.7925 32.7753 38.3403C44.1697 18.2618 67.3319 6.09122 91.7836 7.33236C116.8 8.60359 138.808 23.5068 147.849 45.3031C148.643 47.2172 150.219 48.7003 152.175 49.3733C152.82 49.5936 153.486 49.7199 154.153 49.7549C155.512 49.8235 156.876 49.5069 158.082 48.8207C159.834 47.8264 161.731 47.3352 163.727 47.3641C163.869 47.3677 164.01 47.3701 164.151 47.3786C170.04 47.6783 174.591 52.4153 174.51 58.1611C174.47 60.9805 173.311 63.6192 171.248 65.5971C169.149 67.6063 166.371 68.6885 163.427 68.6476C163.304 68.6464 163.183 68.644 163.06 68.6367C162.264 68.5958 161.435 68.4574 160.598 68.2262C160.086 68.0842 159.563 67.9999 159.043 67.9746C157.527 67.8964 156.008 68.3009 154.715 69.1508C152.98 70.2908 151.817 72.1278 151.524 74.1899C147.281 104.172 118.436 126.361 85.8535 124.708" fill="#A0582F"/>
<path d="M152.487 94.8029C151.532 86.836 147.788 79.6036 140.353 76.2521C142.856 70.038 144.457 63.4977 143.275 56.7683C137.858 25.9542 99.8426 25.776 90.6995 54.0682C88.178 47.6145 86.4911 41.4786 81.3594 36.9342C58.1564 16.3959 26.3349 40.1472 38.6839 68.7235C33.8439 73.9035 29.3558 79.6986 28.1215 87.0094C27.3663 91.4792 27.4708 95.6071 28.2692 99.4232C39.9782 117.86 60.966 130.696 85.4885 131.942C114.727 133.425 140.642 118.015 152.487 94.8029" fill="#F9B274"/>
<path d="M69.8521 69.3036C69.4739 76.8203 63.6086 83.9108 59.979 83.7266C56.347 83.5436 52.5012 75.9583 52.8818 68.4417C53.2624 60.9275 57.7229 56.3241 61.3538 56.5107C64.9846 56.6936 70.2328 61.7882 69.8521 69.3036" fill="white"/>
<path d="M53.7127 62.5165L52.6201 61.8628C55.2291 57.4954 58.0999 55.2816 61.1521 55.2816C61.1701 55.2816 61.1881 55.2816 61.2049 55.2816C66.2021 55.3237 69.6864 61.2838 69.8317 61.5378L68.7271 62.1758C68.6959 62.1205 65.4577 56.5913 61.1905 56.5588C61.1808 56.5588 61.1653 56.5588 61.1521 56.5588C58.5778 56.5588 56.0744 58.5632 53.7127 62.5165Z" fill="#5A3114"/>
<path d="M124.024 66.3182C123.81 70.5472 121.44 73.8625 118.729 73.7241C116.018 73.5868 113.994 70.0476 114.207 65.821C114.42 61.5932 116.794 58.2767 119.502 58.4139C122.215 58.5523 124.237 62.0916 124.024 66.3182" fill="#91492C"/>
<path d="M175.432 58.6367C175.373 65.7572 168.925 71.4741 161.03 71.4103C153.135 71.3429 159.875 67.3065 159.934 60.1848C159.995 53.0642 153.348 45.5583 161.244 45.6246C169.138 45.6908 175.492 51.5161 175.432 58.6367Z" fill="#F9B274"/>
<path d="M95.7363 74.2477C95.6678 77.0707 91.7621 79.2592 87.0134 79.1436C82.2647 79.0244 78.4706 76.6397 78.5402 73.8191C78.6111 70.9998 82.5193 68.8077 87.2667 68.9232C92.0154 69.0436 95.8083 71.4272 95.7363 74.2477" fill="#91492C"/>
<path d="M47.1558 124.394C45.8099 116.783 42.3567 105.124 50.7434 100.24C60.1855 94.7366 71.5715 105.659 76.277 112.828C82.7042 122.612 86.8513 151.203 69.1197 152.681C56.9953 153.692 48.8271 133.847 47.1558 124.394" fill="#91492C"/>
<path d="M70.97 91.4599C70.7298 93.7459 63.5402 94.8739 54.9002 93.9795C46.2673 93.0826 39.4595 90.5016 39.6948 88.212C39.9325 85.9235 47.121 84.7944 55.761 85.69C64.3987 86.5893 71.2041 89.1702 70.97 91.4599" fill="url(#paint0_radial)"/>
<path d="M100.25 92.3977C100.25 92.3977 112.396 104.526 96.4423 108.832C96.4423 108.832 86.1333 110.868 89.8974 95.282C89.8974 95.282 100.228 92.8214 100.25 92.3977" fill="#F46CA8"/>
<path d="M83.0308 95.9453C77.7922 95.9453 72.813 94.9124 68.8784 92.2002L69.6012 91.1469C79.9895 98.3132 99.6805 92.9911 110.381 87.6642L110.948 88.8066C104.684 91.9233 93.3566 95.9453 83.0308 95.9453" fill="#5A3114"/>
<path d="M96.5191 102.777L95.2848 102.464C95.8684 100.144 95.1023 95.1677 94.5044 93.8965L95.6559 93.3523C96.3498 94.8306 97.1891 100.126 96.5191 102.777" fill="#5A3114"/>
<path d="M135.862 82.7034C135.847 85.0039 128.8 86.8276 120.116 86.7723C111.436 86.7205 104.409 84.8149 104.423 82.5108C104.439 80.2115 111.484 78.3877 120.17 78.4406C128.851 78.496 135.876 80.4017 135.862 82.7034" fill="url(#paint1_radial)"/>
<path d="M60.0282 85.2241C59.8133 85.2241 59.5948 85.2084 59.3811 85.1747C55.7082 84.6065 53.1772 79.3037 52.2527 70.2426L53.5194 70.1126C54.3682 78.4177 56.5751 83.4485 59.5744 83.912C62.3179 84.3237 65.627 80.8795 68.212 74.8881L69.3791 75.3937C66.6956 81.6235 63.2436 85.2241 60.0282 85.2241Z" fill="#5A3114"/>
<path d="M65.4097 71.4265C65.3028 73.5259 63.4141 75.1366 61.1881 75.0235C58.962 74.9115 57.2427 73.1179 57.3495 71.0172C57.454 68.919 59.3451 67.3094 61.5711 67.4214C63.7972 67.5358 65.5165 69.327 65.4097 71.4265" fill="#91492C"/>
<defs>
<radialGradient id="paint0_radial" cx="0" cy="0" r="1" gradientUnits="userSpaceOnUse" gradientTransform="translate(55.3312 89.8359) rotate(14.067) scale(12.1238 6.75411)">
<stop stop-color="#F46A5F"/>
<stop offset="0.104294" stop-color="#F46A5F"/>
<stop offset="1" stop-color="#F9B273"/>
</radialGradient>
<radialGradient id="paint1_radial" cx="0" cy="0" r="1" gradientUnits="userSpaceOnUse" gradientTransform="translate(120.144 82.6083) rotate(8.49364) scale(12.1222 6.7544)">
<stop stop-color="#F46A5F"/>
<stop offset="0.104294" stop-color="#F46A5F"/>
<stop offset="1" stop-color="#F9B273"/>
</radialGradient>
</defs>
</svg>
